<?xml version="1.0" standalone="no"?>
<!DOCTYPE svg PUBLIC "-//W3C//DTD SVG 20010904//EN"
 "http://www.w3.org/TR/2001/REC-SVG-20010904/DTD/svg10.dtd">
<svg version="1.0" xmlns="http://www.w3.org/2000/svg"
 width="260.000000pt" height="260.000000pt" viewBox="0 0 260.000000 260.000000"
 preserveAspectRatio="xMidYMid meet">
<metadata>
Created by potrace 1.14, written by Peter Selinger 2001-2017
</metadata>
<g transform="translate(0.000000,260.000000) scale(0.100000,-0.100000)"
fill="#000000" stroke="none">
<path d="M493 2580 c-165 -43 -296 -136 -387 -274 -45 -69 -62 -107 -85 -196
-19 -71 -20 -110 -20 -810 0 -689 1 -740 19 -808 57 -216 198 -373 413 -455
l82 -32 750 -2 c489 -2 769 1 805 8 129 25 250 90 343 185 72 73 117 146 154
249 l28 80 0 770 0 770 -23 73 c-65 207 -210 355 -418 429 l-79 28 -755 2
c-712 2 -759 1 -827 -17z"/>
</g>
</svg>
