<svg width="112" height="123" viewBox="0 0 112 123" fill="none" xmlns="http://www.w3.org/2000/svg">
<path fill-rule="evenodd" clip-rule="evenodd" d="M54.7597 0.0600952C53.7899 0.168597 52.5332 0.498064 51.6152 0.884561C50.7988 1.22826 5.97217 26.4528 4.79212 27.2324C3.40787 28.147 1.96364 29.7605 1.22112 31.2217C0.748645 32.1516 0.546216 32.6774 0.264327 33.7068L0.033674 34.5492L0.00931516 61.1272C-0.0128597 85.2819 -0.00269594 87.7821 0.120778 88.5476C0.584434 91.4219 2.28686 94.0936 4.7187 95.7634C5.24233 96.1229 49.9166 121.329 51.002 121.877C52.583 122.676 54.0068 122.997 55.9748 123C57.9781 123.003 59.2975 122.704 60.9726 121.867C61.7238 121.492 104.918 97.1715 106.54 96.2102C109.358 94.541 111.19 91.9502 111.849 88.7026C111.992 87.995 112 86.6406 112 61.5063V35.0547L111.814 34.2123C111.559 33.0627 111.339 32.413 110.894 31.4964C109.983 29.6206 108.506 28.0165 106.664 26.902C105.283 26.0664 61.2257 1.26996 60.6686 1.01471C58.9104 0.20937 56.6668 -0.153118 54.7597 0.0600952ZM59.9241 29.6998C67.2767 30.6801 73.5454 33.7763 78.6301 38.9391C79.6323 39.9568 81.3876 41.9669 81.3804 42.0888C81.379 42.112 78.7697 43.6408 75.582 45.4861L69.7861 48.8414L69.0508 48.1397C67.2665 46.4369 65.4932 45.2441 63.3915 44.3329C58.3056 42.128 52.6541 42.2788 47.7065 44.7517C43.9697 46.6194 41.1313 49.4662 39.269 53.2139C36.6297 58.5252 36.6551 64.7116 39.338 70.0072C40.4341 72.1708 42.0921 74.2692 43.9144 75.7992C49.048 80.1095 55.766 81.3766 62.0645 79.2228C64.6004 78.3555 66.9893 76.8813 68.9601 74.9673L69.7658 74.1847L75.5117 77.5176C78.6719 79.3508 81.2853 80.8778 81.3191 80.911C81.4885 81.0774 78.7634 84.1045 77.2056 85.4804C71.8789 90.1849 65.5258 92.9024 58.4947 93.4838C56.8453 93.6202 53.472 93.5347 51.859 93.3155C45.2516 92.4178 39.4608 89.7178 34.4616 85.2039C29.663 80.871 26.1609 74.8101 24.7687 68.4291C23.2173 61.3181 24.1337 53.718 27.3101 47.355C29.5832 42.8015 32.7727 38.9394 36.7577 35.915C41.3684 32.4157 47.1031 30.1596 52.741 29.6271C53.2723 29.5769 53.8581 29.5207 54.0429 29.5023C54.9414 29.4123 58.7203 29.5393 59.9241 29.6998Z" fill="url(#paint0_linear)"/>
<defs>
<linearGradient id="paint0_linear" x1="56" y1="0" x2="56" y2="123" gradientUnits="userSpaceOnUse">
<stop stop-color="#767676"/>
<stop offset="1" stop-color="#767676" stop-opacity="0.5"/>
</linearGradient>
</defs>
</svg>
