<svg width="86" height="122" viewBox="0 0 86 122" fill="none" xmlns="http://www.w3.org/2000/svg">
<path fill-rule="evenodd" clip-rule="evenodd" d="M20.2031 8.21492V16.4298H26.76H33.3168V13.6597V10.8895H29.5158H25.7147V8.21492V5.5403H29.5158H33.3168V2.77015V0H26.76H20.2031V8.21492ZM35.8825 5.39701V10.794H39.6836H43.4847V11.2239V11.6537H39.6836H35.8825V14.1851V16.7164H42.4402H48.9978L48.9732 11.2L48.9487 5.68358L45.1714 5.65865L41.3941 5.63362V5.20492V4.77612H45.1952H48.9962V2.38806V0H42.4394H35.8825V5.39701ZM51.4899 5.37313L51.5144 10.7463L55.2918 10.7712L59.0691 10.7962V11.2249V11.6537H55.2664H51.4638L51.4891 14.1612L51.5144 16.6687L58.0475 16.6932L64.5806 16.7177V11.1768V5.63582H60.8026H57.0247L57.0586 5.20597L57.0926 4.77612H60.8367H64.5806V2.38806V0H58.023H51.4653L51.4899 5.37313ZM0.0293279 23.9408C-0.00364637 23.9738 -0.00972809 24.178 0.0157391 24.3945C0.0412063 24.611 0.2305 26.7009 0.436423 29.0388C1.19996 37.7058 1.40075 39.9773 1.7667 44.0836C1.97272 46.3952 2.27129 49.7695 2.43008 51.5821C2.58897 53.3946 2.78244 55.5654 2.86008 56.4059C2.93762 57.2465 3.13138 59.4173 3.29055 61.2298C3.93996 68.6261 4.05637 69.9405 4.19093 71.403C4.26819 72.2436 4.46052 74.4143 4.61827 76.2268C4.77601 78.0394 4.94753 79.9737 4.99951 80.5253C5.0514 81.077 5.28621 83.7206 5.52131 86.4C5.75631 89.0794 5.99121 91.723 6.04329 92.2746C6.09536 92.8262 6.26746 94.7606 6.42586 96.5731C6.58427 98.3856 6.83885 101.266 6.99165 102.973C7.14446 104.681 7.38573 107.432 7.52789 109.087C7.67005 110.741 7.81126 112.124 7.84176 112.159C7.87227 112.193 15.7868 114.422 25.4295 117.111L42.9618 122L60.5419 117.104C70.211 114.411 78.1451 112.172 78.1734 112.13C78.2017 112.088 78.2794 111.396 78.3462 110.594C78.413 109.791 78.5282 108.468 78.6022 107.654C78.6762 106.839 78.9299 103.981 79.1658 101.301C79.4018 98.6221 79.6376 95.9785 79.6901 95.4268C79.7424 94.8752 79.9783 92.2316 80.2142 89.5522C80.4502 86.8728 80.7067 83.9713 80.7842 83.1044C80.9879 80.8295 81.6134 73.793 82.1132 68.1552C82.3507 65.4758 82.6503 62.1015 82.7788 60.6567C82.9074 59.2119 83.2056 55.8376 83.4414 53.1582C83.6773 50.4788 83.9133 47.8352 83.9659 47.2836C84.0184 46.7319 84.2536 44.0883 84.4885 41.4089C84.7234 38.7295 84.9583 36.086 85.0104 35.5343C85.0626 34.9827 85.2369 33.0269 85.3976 31.188C85.5583 29.3492 85.7683 26.9851 85.8642 25.9344C85.9601 24.8837 86.0188 23.9918 85.9945 23.9523C85.9415 23.8661 0.115042 23.8545 0.0293279 23.9408ZM69.9021 42.0746C69.9021 42.0993 69.7964 43.2922 69.6671 44.7254C69.5378 46.1587 69.2376 49.5236 68.9999 52.203C67.8973 64.6356 67.5141 68.9372 67.3833 70.3522C67.3054 71.1928 67.0699 73.8364 66.8597 76.2268C66.6494 78.6173 66.3301 82.228 66.15 84.2507C65.9699 86.2734 65.6694 89.6692 65.482 91.797C65.2947 93.9247 65.1115 95.9847 65.0748 96.3747L65.0083 97.0838L63.5353 97.4912C62.7252 97.7152 57.8099 99.0832 52.6122 100.531C47.4146 101.979 43.0743 103.163 42.967 103.161C42.8598 103.16 37.8766 101.792 31.8934 100.123L21.0148 97.0872L20.9472 96.8063C20.91 96.6518 20.8107 95.6871 20.7265 94.6627C20.6423 93.6382 20.4486 91.403 20.296 89.6955C20.1434 87.988 19.9112 85.3659 19.7801 83.8686C19.6488 82.3713 19.5163 80.9206 19.4854 80.6447L19.4292 80.1433H24.8051C27.7618 80.1433 30.1815 80.1754 30.1823 80.2149C30.1946 80.8776 30.9475 88.6882 31.0043 88.7423C31.0968 88.8304 42.7116 91.988 42.9433 91.988C43.175 91.988 54.8263 88.8222 54.9254 88.7323C54.9723 88.6899 55.1102 87.5459 55.2319 86.1903C55.963 78.046 56.2183 75.1324 56.2183 74.9284V74.6985H37.602H18.9856L18.9292 74.2447C18.8982 73.9952 18.7645 72.5444 18.6321 71.0209C18.4998 69.4973 18.3073 67.3287 18.2045 66.202C18.1016 65.0752 18.0175 64.0972 18.0175 64.0288C18.0175 63.9271 21.5779 63.9045 37.5872 63.9045H57.1569L57.213 63.4985C57.2714 63.0759 57.9894 54.9788 58.0883 53.6278L58.1448 52.8556L46.7128 52.792C40.4253 52.757 31.1828 52.7283 26.174 52.7283C21.1653 52.7283 17.0628 52.7176 17.0572 52.7045C17.0517 52.6913 16.826 50.2842 16.5556 47.3552L16.064 42.0298H42.983C57.7886 42.0298 69.9021 42.05 69.9021 42.0746Z" fill="url(#paint0_linear)"/>
<defs>
<linearGradient id="paint0_linear" x1="43" y1="0" x2="43" y2="122" gradientUnits="userSpaceOnUse">
<stop stop-color="#767676"/>
<stop offset="1" stop-color="#767676" stop-opacity="0.5"/>
</linearGradient>
</defs>
</svg>
