<svg width="353" height="122" viewBox="0 0 353 122" fill="none" xmlns="http://www.w3.org/2000/svg">
<mask id="path-1-inside-1" fill="white">
<path fill-rule="evenodd" clip-rule="evenodd" d="M63.2899 0.154688C63.0284 0.237618 58.9096 2.9027 54.1371 6.07716C49.3646 9.2515 41.2573 14.6358 36.1211 18.0421L26.7824 24.2354L27.6221 24.2642C29.5869 24.3317 88.1333 25.2573 88.3696 25.2246C88.6176 25.1903 88.56 24.9967 87.1333 21.0648L85.637 16.9409L78.3266 9.68009C74.2476 5.62867 70.6666 2.17063 70.2251 1.85642C69.2725 1.1788 67.7188 0.433981 66.7199 0.176255C65.8471 -0.0489434 63.9689 -0.0607395 63.2899 0.154688ZM29.2009 28.6792C31.1109 30.5604 48.8326 48.1851 68.5823 67.8452C88.3319 87.5054 104.528 103.603 104.573 103.618C104.647 103.642 110.9 87.2724 110.897 87.0614C110.896 86.971 89.0395 26.2941 88.9923 26.2506C88.9523 26.2139 28.8264 25.242 27.1542 25.2512L25.7278 25.2589L29.2009 28.6792ZM25.3645 33.291C25.4047 37.223 25.5201 51.3714 25.621 64.7319C25.7913 87.2396 25.8194 89.0395 26.0059 89.2401C26.1296 89.3731 38.3909 93.5532 57.7566 100.065L89.3059 110.672L95.8516 108.244C99.4517 106.909 102.702 105.702 103.073 105.562C103.657 105.342 103.769 105.248 103.89 104.881L104.03 104.455L102.441 102.878C98.8413 99.3059 34.2802 35.0984 29.9672 30.8008L25.2915 26.1418L25.3645 33.291ZM90.0945 26.3812C90.0945 26.4146 94.8342 39.5913 100.627 55.6629C106.42 71.7346 111.367 85.4615 111.62 86.1675C112.072 87.4298 112.076 87.4547 111.853 87.678C111.643 87.8888 105.59 103.614 105.683 103.707C105.707 103.73 108.641 102.814 112.204 101.671C115.767 100.528 119.204 99.4299 119.841 99.2297L121 98.866V75.5736V52.2812L111.045 42.2658C105.57 36.7574 100.715 31.9425 100.258 31.5661C97.9711 29.6857 94.6359 27.8724 91.3608 26.7291C90.1117 26.2932 90.0945 26.2884 90.0945 26.3812ZM16.2194 38.9294C11.7759 45.6584 6.387 53.8127 4.24418 57.0503C1.58 61.0756 0.291837 63.1264 0.170474 63.5361C-0.208951 64.8167 0.059927 66.8392 0.828405 68.4854C1.63314 70.2094 2.11372 70.7488 9.75748 78.5094L17.2099 86.0755L20.9934 87.4042C24.2263 88.5396 24.782 88.7032 24.8119 88.5286C24.8547 88.2794 24.3757 26.7723 24.3305 26.7271C24.3129 26.7095 20.663 32.2005 16.2194 38.9294ZM26.5568 90.8728C26.9121 92.2961 28.5171 95.8433 29.6426 97.6923C31.1329 100.141 31.5982 100.64 42.5137 111.506L53.0545 122H75.3624H97.6704L100.051 115.715C102.32 109.725 103.341 106.837 103.264 106.623C103.245 106.569 100.207 107.657 96.5133 109.039C91.9747 110.738 89.6431 111.554 89.3218 111.556C89.0007 111.558 81.0141 108.919 64.7163 103.426C22.1813 89.0881 26.4629 90.4966 26.5568 90.8728Z"/>
</mask>
<path fill-rule="evenodd" clip-rule="evenodd" d="M63.2899 0.154688C63.0284 0.237618 58.9096 2.9027 54.1371 6.07716C49.3646 9.2515 41.2573 14.6358 36.1211 18.0421L26.7824 24.2354L27.6221 24.2642C29.5869 24.3317 88.1333 25.2573 88.3696 25.2246C88.6176 25.1903 88.56 24.9967 87.1333 21.0648L85.637 16.9409L78.3266 9.68009C74.2476 5.62867 70.6666 2.17063 70.2251 1.85642C69.2725 1.1788 67.7188 0.433981 66.7199 0.176255C65.8471 -0.0489434 63.9689 -0.0607395 63.2899 0.154688ZM29.2009 28.6792C31.1109 30.5604 48.8326 48.1851 68.5823 67.8452C88.3319 87.5054 104.528 103.603 104.573 103.618C104.647 103.642 110.9 87.2724 110.897 87.0614C110.896 86.971 89.0395 26.2941 88.9923 26.2506C88.9523 26.2139 28.8264 25.242 27.1542 25.2512L25.7278 25.2589L29.2009 28.6792ZM25.3645 33.291C25.4047 37.223 25.5201 51.3714 25.621 64.7319C25.7913 87.2396 25.8194 89.0395 26.0059 89.2401C26.1296 89.3731 38.3909 93.5532 57.7566 100.065L89.3059 110.672L95.8516 108.244C99.4517 106.909 102.702 105.702 103.073 105.562C103.657 105.342 103.769 105.248 103.89 104.881L104.03 104.455L102.441 102.878C98.8413 99.3059 34.2802 35.0984 29.9672 30.8008L25.2915 26.1418L25.3645 33.291ZM90.0945 26.3812C90.0945 26.4146 94.8342 39.5913 100.627 55.6629C106.42 71.7346 111.367 85.4615 111.62 86.1675C112.072 87.4298 112.076 87.4547 111.853 87.678C111.643 87.8888 105.59 103.614 105.683 103.707C105.707 103.73 108.641 102.814 112.204 101.671C115.767 100.528 119.204 99.4299 119.841 99.2297L121 98.866V75.5736V52.2812L111.045 42.2658C105.57 36.7574 100.715 31.9425 100.258 31.5661C97.9711 29.6857 94.6359 27.8724 91.3608 26.7291C90.1117 26.2932 90.0945 26.2884 90.0945 26.3812ZM16.2194 38.9294C11.7759 45.6584 6.387 53.8127 4.24418 57.0503C1.58 61.0756 0.291837 63.1264 0.170474 63.5361C-0.208951 64.8167 0.059927 66.8392 0.828405 68.4854C1.63314 70.2094 2.11372 70.7488 9.75748 78.5094L17.2099 86.0755L20.9934 87.4042C24.2263 88.5396 24.782 88.7032 24.8119 88.5286C24.8547 88.2794 24.3757 26.7723 24.3305 26.7271C24.3129 26.7095 20.663 32.2005 16.2194 38.9294ZM26.5568 90.8728C26.9121 92.2961 28.5171 95.8433 29.6426 97.6923C31.1329 100.141 31.5982 100.64 42.5137 111.506L53.0545 122H75.3624H97.6704L100.051 115.715C102.32 109.725 103.341 106.837 103.264 106.623C103.245 106.569 100.207 107.657 96.5133 109.039C91.9747 110.738 89.6431 111.554 89.3218 111.556C89.0007 111.558 81.0141 108.919 64.7163 103.426C22.1813 89.0881 26.4629 90.4966 26.5568 90.8728Z" fill="url(#paint0_linear)"/>
<path d="M63.2899 0.154688L63.8945 2.06112L63.8947 2.06103L63.2899 0.154688ZM54.1371 6.07716L55.2447 7.74244L55.2448 7.74242L54.1371 6.07716ZM36.1211 18.0421L37.2265 19.7089L37.2265 19.7089L36.1211 18.0421ZM26.7824 24.2354L25.677 22.5686L20.4729 26.0199L26.7137 26.2342L26.7824 24.2354ZM27.6221 24.2642L27.5534 26.2631L27.5535 26.2631L27.6221 24.2642ZM88.3696 25.2246L88.6433 27.2058L88.6438 27.2057L88.3696 25.2246ZM87.1333 21.0648L85.2532 21.7469L85.2532 21.747L87.1333 21.0648ZM85.637 16.9409L87.517 16.2587L87.3642 15.8376L87.0464 15.5219L85.637 16.9409ZM78.3266 9.68009L76.9172 11.0991L76.9172 11.0991L78.3266 9.68009ZM70.2251 1.85642L71.3848 0.226981L71.3844 0.226685L70.2251 1.85642ZM66.7199 0.176255L67.2196 -1.76032L67.2196 -1.76033L66.7199 0.176255ZM29.2009 28.6792L30.6043 27.2542L30.6042 27.2542L29.2009 28.6792ZM68.5823 67.8452L69.9933 66.4278L69.9933 66.4278L68.5823 67.8452ZM104.573 103.618L105.197 101.718L105.197 101.718L104.573 103.618ZM110.897 87.0614L108.897 87.0824L108.897 87.0839L110.897 87.0614ZM88.9923 26.2506L90.3477 24.7799L90.3434 24.7759L88.9923 26.2506ZM27.1542 25.2512L27.1651 27.2511L27.1652 27.2511L27.1542 25.2512ZM25.7278 25.2589L25.7169 23.259L20.8733 23.2853L24.3245 26.6839L25.7278 25.2589ZM25.3645 33.291L23.3646 33.3114L23.3646 33.3114L25.3645 33.291ZM25.621 64.7319L23.6211 64.747L23.6211 64.747L25.621 64.7319ZM26.0059 89.2401L24.541 90.6017L24.5412 90.6019L26.0059 89.2401ZM57.7566 100.065L58.394 98.1688L58.394 98.1688L57.7566 100.065ZM89.3059 110.672L88.6685 112.568L89.3386 112.793L90.0015 112.548L89.3059 110.672ZM95.8516 108.244L95.1561 106.369L95.156 106.369L95.8516 108.244ZM103.073 105.562L102.368 103.69L102.368 103.69L103.073 105.562ZM103.89 104.881L105.79 105.507L105.79 105.506L103.89 104.881ZM104.03 104.455L105.93 105.08L106.316 103.906L105.439 103.035L104.03 104.455ZM102.441 102.878L103.85 101.458L103.85 101.458L102.441 102.878ZM29.9672 30.8008L28.5555 32.2176L28.5555 32.2176L29.9672 30.8008ZM25.2915 26.1418L26.7032 24.7251L23.2418 21.276L23.2917 26.1623L25.2915 26.1418ZM100.627 55.6629L98.7456 56.3411L98.7456 56.3411L100.627 55.6629ZM111.62 86.1675L113.503 85.4929L113.503 85.4926L111.62 86.1675ZM111.853 87.678L113.269 89.0905L111.853 87.678ZM105.683 103.707L104.278 105.13L104.282 105.134L105.683 103.707ZM119.841 99.2297L119.242 97.3215L119.242 97.3216L119.841 99.2297ZM121 98.866L121.599 100.774L123 100.334V98.866H121ZM121 52.2812H123V51.4563L122.418 50.8712L121 52.2812ZM111.045 42.2658L109.626 43.6757L109.626 43.6757L111.045 42.2658ZM100.258 31.5661L101.528 30.0215L101.528 30.0214L100.258 31.5661ZM91.3608 26.7291L92.0199 24.8409L92.0199 24.8409L91.3608 26.7291ZM16.2194 38.9294L14.5504 37.8273L14.5504 37.8273L16.2194 38.9294ZM4.24418 57.0503L5.91196 58.1542L5.91197 58.1542L4.24418 57.0503ZM0.170474 63.5361L2.08808 64.1042L2.08809 64.1042L0.170474 63.5361ZM0.828405 68.4854L2.64069 67.6395L2.64067 67.6394L0.828405 68.4854ZM9.75748 78.5094L8.33259 79.9128L8.3326 79.9128L9.75748 78.5094ZM17.2099 86.0755L15.785 87.479L16.1101 87.8091L16.5472 87.9626L17.2099 86.0755ZM20.9934 87.4042L21.6562 85.5172L21.6561 85.5172L20.9934 87.4042ZM24.8119 88.5286L22.8408 88.1902L22.8407 88.1904L24.8119 88.5286ZM24.3305 26.7271L22.9146 28.1396L22.9165 28.1415L24.3305 26.7271ZM26.5568 90.8728L24.6163 91.3571L24.6163 91.3572L26.5568 90.8728ZM29.6426 97.6923L27.9342 98.7322L27.9342 98.7322L29.6426 97.6923ZM42.5137 111.506L43.9247 110.089L43.9247 110.089L42.5137 111.506ZM53.0545 122L51.6434 123.417L52.2287 124H53.0545V122ZM97.6704 122V124H99.0515L99.5407 122.708L97.6704 122ZM100.051 115.715L101.922 116.423L101.922 116.423L100.051 115.715ZM103.264 106.623L105.147 105.947L105.147 105.947L103.264 106.623ZM96.5133 109.039L95.8123 107.166L95.8123 107.166L96.5133 109.039ZM89.3218 111.556L89.3359 113.556L89.3367 113.556L89.3218 111.556ZM64.7163 103.426L64.0774 105.321L64.0775 105.321L64.7163 103.426ZM62.6853 -1.75175C62.4543 -1.6785 62.2536 -1.56386 62.241 -1.55702C62.1645 -1.51542 62.0809 -1.46707 61.9984 -1.41824C61.8307 -1.31898 61.6138 -1.18572 61.3601 -1.02705C60.8499 -0.707944 60.1515 -0.26144 59.3186 0.277466C57.6509 1.35659 55.4208 2.82127 53.0294 4.4119L55.2448 7.74242C57.6259 6.15859 59.8415 4.7035 61.4916 3.63574C62.3177 3.1012 62.9963 2.66748 63.481 2.36436C63.7248 2.21191 63.9099 2.09855 64.0361 2.02379C64.1006 1.98561 64.137 1.96511 64.1519 1.957C64.2307 1.91415 64.0927 1.99824 63.8945 2.06112L62.6853 -1.75175ZM53.0295 4.41188C48.2577 7.58569 40.1513 12.9695 35.0157 16.3753L37.2265 19.7089C42.3634 16.3021 50.4714 10.9173 55.2447 7.74244L53.0295 4.41188ZM35.0157 16.3753L25.677 22.5686L27.8878 25.9022L37.2265 19.7089L35.0157 16.3753ZM26.7137 26.2342L27.5534 26.2631L27.6907 22.2654L26.851 22.2366L26.7137 26.2342ZM27.5535 26.2631C28.5605 26.2976 43.7212 26.5463 58.6124 26.7817C66.0686 26.8996 73.471 27.0143 79.0244 27.0976C81.801 27.1392 84.116 27.173 85.7447 27.1953C86.5587 27.2065 87.2027 27.2148 87.6474 27.2198C87.8693 27.2223 88.0442 27.224 88.1666 27.2249C88.2271 27.2253 88.2792 27.2255 88.3194 27.2254C88.3385 27.2254 88.3618 27.2253 88.3846 27.225C88.3953 27.2248 88.4145 27.2244 88.4371 27.2236C88.4488 27.2232 88.4757 27.2219 88.492 27.2209C88.5182 27.2191 88.5936 27.212 88.6433 27.2058L88.0959 23.2434C88.1447 23.2373 88.2187 23.2303 88.2431 23.2287C88.2576 23.2278 88.2822 23.2266 88.2912 23.2263C88.3085 23.2256 88.3205 23.2255 88.3222 23.2254C88.3273 23.2254 88.3257 23.2254 88.3132 23.2254C88.2898 23.2255 88.2509 23.2253 88.1936 23.225C88.0805 23.2242 87.913 23.2226 87.6926 23.2201C87.2528 23.2151 86.6128 23.2068 85.7995 23.1957C84.1735 23.1734 81.8605 23.1396 79.0844 23.098C73.5325 23.0148 66.1312 22.9001 58.6757 22.7822C43.7434 22.5461 28.6485 22.2983 27.6907 22.2654L27.5535 26.2631ZM88.6438 27.2057C88.7343 27.1932 89.2524 27.1317 89.732 26.7292C90.295 26.2566 90.4435 25.6466 90.4745 25.2826C90.502 24.9595 90.4536 24.6826 90.4251 24.5398C90.3916 24.371 90.3449 24.199 90.2966 24.0365C90.1132 23.4195 89.7136 22.3124 89.0133 20.3825L85.2532 21.747C85.9797 23.7491 86.3222 24.7047 86.4623 25.1761C86.4949 25.2856 86.5029 25.3248 86.502 25.3204C86.5012 25.3161 86.4946 25.2831 86.4894 25.2295C86.4845 25.1789 86.4775 25.0772 86.4889 24.9435C86.5127 24.664 86.6361 24.1054 87.1604 23.6654C87.6012 23.2954 88.0669 23.2474 88.0954 23.2435L88.6438 27.2057ZM89.0133 20.3826L87.517 16.2587L83.7569 17.6231L85.2532 21.7469L89.0133 20.3826ZM87.0464 15.5219L79.736 8.26108L76.9172 11.0991L84.2276 18.3599L87.0464 15.5219ZM79.736 8.26108C77.6915 6.23044 75.7696 4.34631 74.3011 2.92812C73.5675 2.2197 72.9424 1.62311 72.4698 1.18103C72.0594 0.797192 71.6324 0.403176 71.3848 0.226981L69.0654 3.48587C69.0386 3.46677 69.2247 3.62284 69.7374 4.10237C70.1878 4.52365 70.7957 5.10369 71.5224 5.80548C72.9745 7.20773 74.8827 9.07833 76.9172 11.0991L79.736 8.26108ZM71.3844 0.226685C70.2589 -0.573888 68.4847 -1.43389 67.2196 -1.76032L66.2202 2.11283C66.9528 2.30185 68.286 2.93149 69.0658 3.48616L71.3844 0.226685ZM67.2196 -1.76033C66.5465 -1.93398 65.6666 -1.99519 64.9448 -1.99972C64.2671 -2.00398 63.3503 -1.96274 62.685 -1.75166L63.8947 2.06103C63.8566 2.07314 63.9306 2.04889 64.1688 2.02745C64.3783 2.0086 64.6386 1.99843 64.9196 2.0002C65.5249 2.004 66.0205 2.06129 66.2203 2.11284L67.2196 -1.76033ZM27.7975 30.1041C29.7025 31.9804 47.4183 49.5991 67.1713 69.2626L69.9933 66.4278C50.247 46.771 32.5193 29.1403 30.6043 27.2542L27.7975 30.1041ZM67.1713 69.2626C77.0464 79.093 86.0331 88.0328 92.5569 94.5171C95.8188 97.7591 98.4653 100.388 100.299 102.207C101.216 103.116 101.931 103.824 102.418 104.306C102.661 104.546 102.849 104.731 102.978 104.858C103.042 104.92 103.094 104.971 103.132 105.008C103.15 105.025 103.17 105.045 103.189 105.063C103.197 105.07 103.215 105.087 103.236 105.106C103.245 105.114 103.271 105.137 103.305 105.164C103.324 105.18 103.375 105.22 103.408 105.244C103.474 105.289 103.741 105.436 103.95 105.518L105.197 101.718C105.406 101.799 105.672 101.947 105.737 101.992C105.77 102.015 105.821 102.055 105.839 102.07C105.872 102.096 105.896 102.118 105.902 102.123C105.912 102.132 105.919 102.139 105.922 102.142C105.926 102.145 105.929 102.148 105.929 102.149C105.931 102.15 105.927 102.146 105.912 102.132C105.885 102.106 105.841 102.063 105.779 102.002C105.656 101.881 105.472 101.7 105.229 101.46C104.745 100.982 104.033 100.276 103.116 99.3669C101.284 97.5492 98.6383 94.9218 95.3768 91.6801C88.8539 85.1967 79.8679 76.2576 69.9933 66.4278L67.1713 69.2626ZM103.95 105.518C104.348 105.605 105.046 105.561 105.327 105.471C105.501 105.39 105.77 105.221 105.869 105.142C106.045 104.992 106.154 104.846 106.186 104.802C106.268 104.691 106.321 104.594 106.334 104.57C106.373 104.5 106.402 104.437 106.413 104.412C106.443 104.349 106.473 104.277 106.5 104.213C106.557 104.078 106.634 103.889 106.724 103.664C106.905 103.21 107.158 102.564 107.457 101.796C108.055 100.256 108.845 98.2015 109.632 96.1415C110.419 94.0816 111.204 92.0124 111.793 90.4436C112.087 89.66 112.334 88.9968 112.508 88.5207C112.594 88.284 112.666 88.0855 112.717 87.9388C112.741 87.8674 112.766 87.7949 112.786 87.7311C112.796 87.7014 112.81 87.6543 112.824 87.6015C112.831 87.5763 112.843 87.5292 112.855 87.4709C112.858 87.4567 112.9 87.2721 112.897 87.0389L108.897 87.0839C108.895 86.854 108.935 86.6747 108.937 86.6677C108.947 86.6166 108.957 86.5786 108.961 86.5645C108.969 86.5338 108.975 86.5165 108.973 86.524C108.969 86.5345 108.959 86.5658 108.938 86.626C108.898 86.7422 108.835 86.917 108.751 87.1481C108.583 87.6075 108.341 88.2577 108.048 89.038C107.463 90.5971 106.681 92.6584 105.895 94.7143C105.11 96.7701 104.323 98.8167 103.729 100.346C103.431 101.112 103.183 101.743 103.009 102.18C102.921 102.401 102.855 102.562 102.813 102.664C102.79 102.718 102.781 102.737 102.782 102.734C102.783 102.732 102.787 102.724 102.793 102.712C102.798 102.702 102.81 102.677 102.828 102.644C102.837 102.628 102.887 102.537 102.966 102.429C102.997 102.387 103.104 102.242 103.28 102.093C103.378 102.015 103.647 101.846 103.821 101.765C104.101 101.675 104.799 101.631 105.197 101.718L103.95 105.518ZM112.897 87.0404C112.886 86.8451 112.844 86.601 112.831 86.5501C112.824 86.5264 112.814 86.4894 112.81 86.4752C112.802 86.4506 112.795 86.4301 112.792 86.4215C112.786 86.4008 112.778 86.3792 112.772 86.3618C112.759 86.3245 112.742 86.2743 112.721 86.2145C112.678 86.0936 112.616 85.9179 112.536 85.6927C112.375 85.2415 112.139 84.5836 111.84 83.7494C111.242 82.0806 110.388 79.7021 109.363 76.851C107.313 71.1487 104.579 63.5538 101.844 55.9606C99.1086 48.3674 96.3719 40.7755 94.316 35.079C93.2881 32.2308 92.4302 29.856 91.8277 28.1916C91.5265 27.3596 91.2888 26.7041 91.1254 26.2555C91.0439 26.0316 90.9802 25.8572 90.9362 25.7376C90.9144 25.6785 90.8961 25.629 90.8823 25.5924C90.8759 25.5753 90.8677 25.5538 90.8596 25.5331C90.8564 25.5249 90.848 25.5034 90.8373 25.478C90.8309 25.463 90.8131 25.4229 90.8012 25.3973C90.7723 25.3384 90.5647 25.0146 90.3477 24.7799L87.637 27.7213C87.4201 27.4868 87.213 27.1636 87.1845 27.1059C87.1731 27.0813 87.1561 27.0428 87.1505 27.0298C87.1415 27.0084 87.1355 26.9928 87.1352 26.9922C87.1332 26.987 87.1337 26.9881 87.1385 27.0009C87.1471 27.0239 87.1615 27.0627 87.1825 27.1196C87.2239 27.2322 87.2856 27.4011 87.3668 27.6239C87.5288 28.069 87.7655 28.7217 88.0665 29.5531C88.6683 31.2157 89.5257 33.5891 90.5535 36.4369C92.6091 42.1323 95.3455 49.7234 98.0805 57.3162C100.816 64.909 103.549 72.503 105.599 78.2043C106.624 81.0551 107.477 83.4321 108.075 85.0991C108.374 85.9328 108.608 86.5878 108.768 87.0354C108.848 87.2596 108.908 87.4298 108.948 87.5437C108.968 87.6014 108.982 87.641 108.99 87.6647C108.995 87.6778 108.995 87.6796 108.994 87.675C108.994 87.6744 108.989 87.6601 108.983 87.6399C108.979 87.6279 108.969 87.5927 108.963 87.5703C108.951 87.5206 108.909 87.2774 108.897 87.0824L112.897 87.0404ZM90.3434 24.7759C89.935 24.4867 89.3756 24.2876 89.2824 24.2717C89.2436 24.2664 89.1836 24.2596 89.1617 24.2576C89.1254 24.2545 89.0956 24.2529 89.0857 24.2524C89.0596 24.251 89.0339 24.25 89.0162 24.2494C88.9771 24.2481 88.9258 24.2466 88.8669 24.2451C88.747 24.2421 88.5731 24.2383 88.3509 24.2337C87.9054 24.2245 87.2547 24.2121 86.4287 24.1971C84.7763 24.167 82.4168 24.126 79.5823 24.078C73.913 23.9818 66.3407 23.8572 58.7177 23.734C43.497 23.4879 28.0081 23.2465 27.1432 23.2512L27.1652 27.2511C27.9725 27.2467 43.3827 27.4866 58.653 27.7334C66.2755 27.8566 73.8466 27.9813 79.5145 28.0774C82.3485 28.1255 84.706 28.1664 86.3559 28.1964C87.1811 28.2115 87.8279 28.2237 88.2684 28.2328C88.4892 28.2374 88.6554 28.2411 88.7655 28.2439C88.8215 28.2453 88.8577 28.2463 88.8776 28.247C88.8894 28.2474 88.8861 28.2474 88.8752 28.2468C88.8729 28.2467 88.8489 28.2455 88.8165 28.2427C88.7967 28.2409 88.7382 28.2343 88.7004 28.2291C88.6083 28.2133 88.0495 28.0144 87.6413 27.7253L90.3434 24.7759ZM27.1433 23.2512L25.7169 23.259L25.7387 27.2589L27.1651 27.2511L27.1433 23.2512ZM24.3245 26.6839L27.7975 30.1042L30.6042 27.2542L27.1311 23.8339L24.3245 26.6839ZM23.3646 33.3114C23.4048 37.2403 23.5202 51.3858 23.6211 64.747L27.621 64.7168C27.5201 51.357 27.4046 37.2058 27.3644 33.2706L23.3646 33.3114ZM23.6211 64.747C23.7062 75.9963 23.7558 82.0837 23.8076 85.3826C23.8334 87.0229 23.8601 88.0098 23.8944 88.6059C23.9109 88.8939 23.9326 89.1593 23.9707 89.3852C23.9891 89.4945 24.0723 90.0974 24.541 90.6017L27.4709 87.8785C27.71 88.1358 27.8157 88.3917 27.8585 88.5128C27.9016 88.6347 27.9148 88.7189 27.915 88.72C27.9152 88.7211 27.9027 88.6371 27.8878 88.3765C27.859 87.8753 27.833 86.9679 27.8071 85.3198C27.7557 82.0416 27.7061 75.9752 27.621 64.7167L23.6211 64.747ZM24.5412 90.6019C24.7296 90.8045 24.9184 90.9195 24.9491 90.9387C25.0162 90.9808 25.0728 91.0108 25.1031 91.0264C25.1658 91.0588 25.2208 91.0833 25.2506 91.0964C25.3155 91.1248 25.3845 91.1524 25.4435 91.1754C25.5672 91.2236 25.7323 91.2849 25.9289 91.3563C26.3261 91.5005 26.9006 91.7035 27.6374 91.9604C29.1135 92.475 31.2681 93.2152 34.0201 94.1534C39.5254 96.0303 47.4352 98.7042 57.1192 101.96L58.394 98.1688C48.7123 94.9135 40.8085 92.2417 35.3108 90.3674C32.5613 89.4301 30.4171 88.6934 28.9542 88.1833C28.2216 87.9279 27.6666 87.7317 27.2939 87.5964C27.1056 87.528 26.9757 87.4795 26.8967 87.4487C26.8544 87.4322 26.8452 87.4279 26.8553 87.4324C26.8577 87.4334 26.8911 87.4479 26.9381 87.4722C26.9606 87.4838 27.0108 87.5102 27.073 87.5492C27.0988 87.5654 27.2843 87.6778 27.4707 87.8783L24.5412 90.6019ZM57.1192 101.96L88.6685 112.568L89.9433 108.777L58.394 98.1688L57.1192 101.96ZM90.0015 112.548L96.5471 110.12L95.156 106.369L88.6104 108.797L90.0015 112.548ZM96.5471 110.12C100.143 108.786 103.401 107.576 103.779 107.433L102.368 103.69C102.003 103.828 98.7606 105.032 95.1561 106.369L96.5471 110.12ZM103.779 107.433C104.032 107.338 104.522 107.158 104.936 106.813C105.48 106.359 105.687 105.818 105.79 105.507L101.99 104.255C101.977 104.297 101.996 104.224 102.058 104.116C102.135 103.983 102.242 103.851 102.374 103.741C102.487 103.646 102.573 103.607 102.563 103.612C102.551 103.618 102.501 103.64 102.368 103.69L103.779 107.433ZM105.79 105.506L105.93 105.08L102.13 103.829L101.99 104.256L105.79 105.506ZM105.439 103.035L103.85 101.458L101.032 104.297L102.622 105.874L105.439 103.035ZM103.85 101.458C100.251 97.8873 35.6911 33.6809 31.3789 29.3841L28.5555 32.2176C32.8693 36.516 97.4315 100.724 101.032 104.297L103.85 101.458ZM31.3789 29.3841L26.7032 24.7251L23.8799 27.5586L28.5555 32.2176L31.3789 29.3841ZM23.2917 26.1623L23.3646 33.3114L27.3644 33.2706L27.2914 26.1214L23.2917 26.1623ZM88.0945 26.3812C88.1005 26.5367 88.1288 26.75 88.1406 26.8085C88.1476 26.8392 88.1598 26.8884 88.1649 26.9073C88.1741 26.9412 88.1823 26.9677 88.1851 26.9768C88.192 26.999 88.1981 27.0174 88.2006 27.0249C88.2067 27.0431 88.2132 27.062 88.2184 27.0772C88.2296 27.1095 88.245 27.1531 88.2633 27.2052C88.3006 27.3106 88.3552 27.4641 88.4258 27.662C88.5673 28.0585 88.7755 28.6399 89.043 29.3858C89.5782 30.8777 90.3519 33.0308 91.3065 35.6847C93.2157 40.9925 95.849 48.305 98.7456 56.3411L102.509 54.9848C99.6123 46.9492 96.9793 39.6376 95.0704 34.3308C94.116 31.6773 93.3427 29.5255 92.8081 28.0352C92.5408 27.2899 92.3335 26.7109 92.1931 26.3176C92.1228 26.1206 92.0699 25.972 92.0349 25.8728C92.0172 25.8226 92.0052 25.7883 91.9981 25.7679C91.9942 25.7567 91.9938 25.7554 91.9953 25.7598C91.9955 25.7604 91.9999 25.7735 92.0056 25.792C92.0078 25.7993 92.0156 25.8243 92.0245 25.8571C92.0294 25.8754 92.0415 25.9243 92.0484 25.9546C92.0602 26.0128 92.0884 26.2259 92.0945 26.3812H88.0945ZM98.7456 56.3411C104.539 72.4146 109.485 86.1386 109.737 86.8424L113.503 85.4926C113.249 84.7845 108.301 71.0546 102.509 54.9847L98.7456 56.3411ZM109.737 86.8421C109.853 87.1657 109.928 87.3773 109.979 87.5313C110.004 87.6059 110.016 87.6487 110.023 87.6708C110.029 87.6952 110.021 87.6717 110.013 87.618C109.995 87.5003 109.958 87.1351 110.148 86.7093C110.232 86.5218 110.33 86.3917 110.386 86.3242C110.432 86.2686 110.47 86.2332 110.437 86.2655L113.269 89.0905C113.282 89.0773 113.602 88.785 113.8 88.3413C114.038 87.8086 114.014 87.3164 113.966 87.0068C113.899 86.5718 113.685 86.0029 113.503 85.4929L109.737 86.8421ZM110.437 86.2655C110.296 86.4067 110.209 86.5382 110.183 86.5764C110.145 86.6339 110.116 86.6831 110.099 86.713C110.065 86.7733 110.038 86.8278 110.021 86.8619C109.986 86.9341 109.95 87.013 109.918 87.0853C109.852 87.2346 109.769 87.4322 109.675 87.6619C109.484 88.1252 109.226 88.7673 108.928 89.5226C108.329 91.0358 107.553 93.0303 106.788 95.0183C106.023 97.0063 105.266 98.9936 104.705 100.492C104.425 101.24 104.192 101.874 104.03 102.327C103.949 102.551 103.882 102.746 103.833 102.894C103.811 102.962 103.783 103.05 103.76 103.135C103.751 103.169 103.728 103.256 103.711 103.362C103.703 103.406 103.683 103.531 103.682 103.691C103.682 103.769 103.685 103.927 103.727 104.123C103.759 104.276 103.87 104.727 104.278 105.13L107.088 102.283C107.496 102.685 107.606 103.136 107.638 103.287C107.68 103.481 107.683 103.637 107.682 103.712C107.681 103.867 107.662 103.985 107.656 104.02C107.641 104.108 107.624 104.17 107.624 104.172C107.618 104.192 107.619 104.186 107.636 104.134C107.667 104.041 107.719 103.889 107.796 103.673C107.948 103.248 108.174 102.636 108.451 101.894C109.006 100.411 109.758 98.4366 110.521 96.4553C111.283 94.474 112.055 92.4918 112.647 90.9943C112.944 90.2442 113.193 89.6225 113.373 89.1851C113.464 88.9644 113.533 88.8025 113.579 88.6982C113.603 88.6437 113.613 88.6223 113.613 88.6226C113.612 88.6241 113.609 88.6298 113.604 88.6387C113.6 88.647 113.592 88.6635 113.579 88.6853C113.568 88.7044 113.545 88.7447 113.511 88.7951C113.491 88.8263 113.407 88.9526 113.269 89.0905L110.437 86.2655ZM104.282 105.134C104.798 105.641 105.408 105.688 105.446 105.693C105.612 105.713 105.744 105.707 105.797 105.704C105.914 105.698 106.006 105.682 106.035 105.677C106.108 105.664 106.169 105.65 106.192 105.644C106.252 105.63 106.314 105.613 106.364 105.598C106.472 105.568 106.617 105.525 106.787 105.474C107.131 105.371 107.619 105.22 108.212 105.035C109.4 104.664 111.03 104.148 112.815 103.576L111.593 99.7666C109.815 100.337 108.196 100.85 107.02 101.217C106.431 101.401 105.959 101.546 105.635 101.644C105.471 101.693 105.355 101.727 105.284 101.747C105.245 101.758 105.238 101.759 105.25 101.757C105.25 101.757 105.293 101.746 105.353 101.735C105.375 101.732 105.462 101.716 105.576 101.71C105.627 101.707 105.757 101.702 105.923 101.721C105.96 101.726 106.569 101.773 107.084 102.28L104.282 105.134ZM112.815 103.576C116.381 102.432 119.81 101.336 120.44 101.138L119.242 97.3216C118.597 97.5241 115.153 98.6251 111.593 99.7666L112.815 103.576ZM120.44 101.138L121.599 100.774L120.401 96.9577L119.242 97.3215L120.44 101.138ZM123 98.866V75.5736H119V98.866H123ZM123 75.5736V52.2812H119V75.5736H123ZM122.418 50.8712L112.463 40.8558L109.626 43.6757L119.582 53.6911L122.418 50.8712ZM112.463 40.8559C109.723 38.0991 107.137 35.5148 105.178 33.5715C103.282 31.6903 101.851 30.2873 101.528 30.0215L98.9872 33.1108C98.9761 33.1016 99.0445 33.1617 99.2482 33.3558C99.4271 33.5264 99.6693 33.7606 99.9694 34.0535C100.569 34.6384 101.385 35.4434 102.361 36.4114C104.312 38.3467 106.891 40.9241 109.626 43.6757L112.463 40.8559ZM101.528 30.0214C99.0313 27.9681 95.48 26.0487 92.0199 24.8409L90.7016 28.6174C93.7918 29.6961 96.9109 31.4033 98.9873 33.1108L101.528 30.0214ZM92.0199 24.8409C91.4431 24.6395 91.0342 24.4957 90.7892 24.4284C90.7191 24.4091 90.5995 24.378 90.4596 24.3573C90.3672 24.3435 90.0122 24.29 89.5879 24.4063C89.3408 24.474 89.0401 24.6072 88.7622 24.8586C88.4806 25.1136 88.3143 25.4068 88.221 25.6602C88.1348 25.8943 88.1111 26.0926 88.1025 26.1917C88.0939 26.291 88.0945 26.3725 88.0945 26.3812H92.0945C92.0945 26.3842 92.0945 26.4018 92.0939 26.4252C92.0933 26.4489 92.0918 26.4887 92.0875 26.5383C92.0797 26.6276 92.0577 26.8169 91.9744 27.043C91.8839 27.2886 91.7219 27.575 91.4464 27.8244C91.1747 28.0703 90.8821 28.1991 90.6455 28.2639C90.2423 28.3745 89.9184 28.3208 89.872 28.3139C89.8194 28.3061 89.7806 28.2977 89.7616 28.2934C89.7415 28.2888 89.7297 28.2855 89.7293 28.2854C89.7284 28.2852 89.7335 28.2865 89.7462 28.2904C89.7586 28.2942 89.7758 28.2995 89.799 28.307C89.846 28.3221 89.9084 28.3428 89.9918 28.3712C90.1599 28.4284 90.3867 28.5075 90.7017 28.6174L92.0199 24.8409ZM14.5504 37.8273C10.107 44.5562 4.7186 52.7098 2.57638 55.9465L5.91197 58.1542C8.0554 54.9157 13.4447 46.7606 17.8883 40.0315L14.5504 37.8273ZM2.5764 55.9465C1.24212 57.9624 0.243412 59.4974 -0.439857 60.5853C-0.780459 61.1275 -1.0523 61.5739 -1.25119 61.9205C-1.40161 62.1827 -1.63763 62.5983 -1.74714 62.9679L2.08809 64.1042C2.03926 64.269 2.00977 64.2746 2.21827 63.9112C2.3783 63.6323 2.61777 63.2376 2.9474 62.7128C3.6046 61.6665 4.58207 60.1635 5.91196 58.1542L2.5764 55.9465ZM-1.74713 62.9679C-2.30857 64.8629 -1.88398 67.4032 -0.983858 69.3314L2.64067 67.6394C2.00384 66.2752 1.89067 64.7705 2.08808 64.1042L-1.74713 62.9679ZM-0.983885 69.3313C0.00663327 71.4534 0.836848 72.3026 8.33259 79.9128L11.1824 77.1059C3.39059 69.1951 3.25964 68.9655 2.64069 67.6395L-0.983885 69.3313ZM8.3326 79.9128L15.785 87.479L18.6348 84.6721L11.1824 77.1059L8.3326 79.9128ZM16.5472 87.9626L20.3308 89.2912L21.6561 85.5172L17.8725 84.1885L16.5472 87.9626ZM20.3307 89.2912C21.9291 89.8526 22.9316 90.1974 23.5388 90.3762C23.8061 90.4549 24.1606 90.553 24.498 90.5799C24.6418 90.5914 25.0632 90.6195 25.5319 90.427C25.8017 90.3161 26.1071 90.1238 26.36 89.8083C26.6136 89.4921 26.7341 89.1522 26.7831 88.8669L22.8407 88.1904C22.8859 87.9269 22.9987 87.6062 23.2392 87.3062C23.4791 87.007 23.7663 86.8279 24.0118 86.7271C24.4317 86.5545 24.7795 86.5897 24.8165 86.5926C24.9403 86.6025 24.9482 86.6214 24.6687 86.5391C24.1824 86.3959 23.2906 86.0912 21.6562 85.5172L20.3307 89.2912ZM26.7831 88.867C26.792 88.81 26.8025 88.7232 26.8052 88.6929C26.8067 88.6741 26.8088 88.6429 26.8096 88.6295C26.8109 88.6034 26.8116 88.5814 26.812 88.5695C26.8127 88.5439 26.8131 88.5181 26.8134 88.4976C26.8139 88.4544 26.8142 88.3989 26.8144 88.3352C26.8148 88.206 26.8146 88.022 26.8141 87.789C26.8129 87.3219 26.8099 86.6461 26.8053 85.7927C26.7962 84.0854 26.7809 81.661 26.7611 78.7597C26.7215 72.9568 26.6642 65.2429 26.6041 57.5358C26.5441 49.8286 26.4813 42.1275 26.4307 36.3501C26.4054 33.4615 26.3832 31.053 26.3658 29.3648C26.3571 28.5211 26.3497 27.8555 26.3437 27.3995C26.3407 27.1721 26.338 26.9934 26.3356 26.8698C26.3345 26.8092 26.3333 26.7552 26.332 26.7134C26.3315 26.6946 26.3305 26.6656 26.3289 26.6355C26.3284 26.6241 26.3265 26.5889 26.3225 26.5458C26.32 26.5199 26.3112 26.449 26.3042 26.4033C26.2836 26.2962 26.0576 25.7186 25.7445 25.3127L22.9165 28.1415C22.6036 27.7358 22.3778 27.1589 22.3573 27.0528C22.3505 27.0082 22.342 26.939 22.3396 26.9151C22.336 26.8761 22.3345 26.8468 22.3343 26.8432C22.3336 26.8287 22.3335 26.8227 22.3338 26.8342C22.3344 26.8528 22.3353 26.8885 22.3363 26.9455C22.3385 27.0573 22.341 27.2266 22.344 27.4523C22.3499 27.9023 22.3574 28.5631 22.366 29.406C22.3833 31.091 22.4056 33.4971 22.4309 36.3851C22.4815 42.1608 22.5442 49.8605 22.6043 57.5669C22.6643 65.2733 22.7216 72.9858 22.7611 78.787C22.7809 81.6877 22.7963 84.1098 22.8054 85.8141C22.8099 86.6665 22.8129 87.3377 22.8141 87.799C22.8146 88.0302 22.8148 88.2057 22.8144 88.3239C22.8143 88.3839 22.814 88.424 22.8137 88.4475C22.8135 88.4603 22.8135 88.4607 22.8137 88.4538C22.8137 88.4512 22.8141 88.4368 22.8152 88.4164C22.8158 88.4058 22.8178 88.377 22.8191 88.3601C22.8217 88.3317 22.832 88.2463 22.8408 88.1902L26.7831 88.867ZM25.7464 25.3146C25.34 25.0006 24.4808 24.7327 24.0887 24.7417C23.8541 24.7846 23.493 24.9108 23.364 24.976C23.149 25.0946 23.007 25.2268 22.976 25.2552C22.8812 25.3424 22.8155 25.4204 22.803 25.4352C22.7599 25.4859 22.7272 25.5296 22.7182 25.5415C22.6919 25.5766 22.6668 25.6121 22.6499 25.6361C22.6122 25.6897 22.563 25.7612 22.5067 25.8438C22.3921 26.0119 22.2273 26.2563 22.0196 26.5661C21.6032 27.1869 21.0046 28.0846 20.2691 29.1912C18.7975 31.405 16.773 34.4617 14.5504 37.8273L17.8883 40.0315C20.1093 36.6682 22.1316 33.615 23.6003 31.4055C24.3349 30.3004 24.9298 29.408 25.3416 28.794C25.548 28.4863 25.706 28.2521 25.8117 28.0969C25.8655 28.018 25.9009 27.9667 25.9208 27.9385C25.9327 27.9217 25.9296 27.9265 25.9184 27.9414C25.9169 27.9433 25.8901 27.9795 25.8511 28.0254C25.8406 28.0378 25.7765 28.1141 25.6829 28.2002C25.6525 28.2281 25.5109 28.3599 25.2962 28.4784C25.1674 28.5435 24.8065 28.6696 24.572 28.7124C24.1801 28.7214 23.3209 28.4536 22.9146 28.1396L25.7464 25.3146ZM24.6163 91.3572C24.8416 92.2597 25.3997 93.6457 25.9887 94.9474C26.5924 96.2815 27.3128 97.7112 27.9342 98.7322L31.351 96.6524C30.847 95.8243 30.2021 94.556 29.633 93.2984C29.0493 92.0085 28.6272 90.9092 28.4972 90.3885L24.6163 91.3572ZM27.9342 98.7322C29.5841 101.443 30.2847 102.155 41.1026 112.924L43.9247 110.089C32.9117 99.1255 32.6817 98.8386 31.351 96.6524L27.9342 98.7322ZM41.1026 112.924L51.6434 123.417L54.4655 120.583L43.9247 110.089L41.1026 112.924ZM53.0545 124H75.3624V120H53.0545V124ZM75.3624 124H97.6704V120H75.3624V124ZM99.5407 122.708L101.922 116.423L98.181 115.006L95.8001 121.292L99.5407 122.708ZM101.922 116.423C103.057 113.426 103.886 111.189 104.423 109.669C104.69 108.913 104.893 108.312 105.027 107.875C105.092 107.661 105.151 107.452 105.192 107.268C105.212 107.18 105.238 107.055 105.254 106.916C105.261 106.846 105.27 106.738 105.268 106.609C105.266 106.507 105.255 106.249 105.147 105.947L101.382 107.299C101.278 107.01 101.27 106.771 101.269 106.692C101.266 106.587 101.274 106.509 101.278 106.473C101.286 106.403 101.295 106.367 101.29 106.39C101.281 106.429 101.256 106.527 101.201 106.708C101.093 107.06 100.914 107.595 100.652 108.336C100.13 109.812 99.3144 112.014 98.181 115.006L101.922 116.423ZM105.147 105.947C104.932 105.349 104.504 105.019 104.215 104.863C103.941 104.715 103.698 104.666 103.579 104.647C103.338 104.608 103.147 104.623 103.09 104.628C102.945 104.64 102.828 104.666 102.794 104.673C102.699 104.694 102.608 104.72 102.552 104.737C102.424 104.775 102.262 104.828 102.084 104.888C101.72 105.01 101.209 105.189 100.593 105.41C99.3576 105.852 97.6653 106.473 95.8123 107.166L97.2143 110.912C99.0552 110.223 100.729 109.609 101.941 109.176C102.549 108.958 103.031 108.789 103.358 108.679C103.525 108.623 103.632 108.589 103.688 108.572C103.724 108.562 103.705 108.569 103.658 108.579C103.648 108.581 103.55 108.604 103.417 108.615C103.367 108.619 103.18 108.634 102.944 108.596C102.826 108.577 102.584 108.528 102.312 108.381C102.023 108.225 101.596 107.896 101.382 107.299L105.147 105.947ZM95.8123 107.166C93.5464 108.014 91.845 108.637 90.6754 109.046C90.0884 109.251 89.6521 109.397 89.3526 109.49C89.2011 109.537 89.1048 109.563 89.0516 109.577C88.9306 109.607 89.0767 109.558 89.307 109.556L89.3367 113.556C89.6473 113.554 89.9365 113.479 90.0223 113.457C90.1759 113.419 90.3498 113.368 90.533 113.312C90.9029 113.197 91.3934 113.033 91.9968 112.821C93.2079 112.398 94.9416 111.763 97.2144 110.912L95.8123 107.166ZM89.3077 109.556C89.4499 109.555 89.5571 109.571 89.5847 109.575C89.6273 109.581 89.6575 109.587 89.6682 109.589C89.6896 109.593 89.6932 109.595 89.6684 109.588C89.6219 109.576 89.5376 109.553 89.4054 109.514C89.1451 109.438 88.7591 109.318 88.2388 109.153C87.2017 108.824 85.6729 108.325 83.6378 107.653C79.5697 106.309 73.5032 104.277 65.3551 101.531L64.0775 105.321C72.2271 108.068 78.3029 110.103 82.3828 111.451C84.4217 112.125 85.9684 112.629 87.0284 112.966C87.5567 113.133 87.9747 113.263 88.2762 113.351C88.425 113.395 88.5612 113.434 88.6748 113.463C88.7302 113.477 88.7988 113.494 88.8703 113.508C88.8862 113.512 89.0921 113.558 89.3359 113.556L89.3077 109.556ZM65.3551 101.531C44.0952 94.3643 34.5196 91.1278 30.2757 89.7317C29.2146 89.3827 28.4733 89.1442 27.9611 88.987C27.5047 88.8468 27.101 88.7292 26.8069 88.6832C26.7298 88.6712 26.5495 88.6451 26.3308 88.6557C26.221 88.6611 26.0161 88.6789 25.7748 88.7595C25.5366 88.8391 25.121 89.0285 24.7928 89.4706C24.0301 90.4978 24.5816 91.5264 24.6437 91.6406C24.7741 91.8802 24.9272 92.0423 24.9559 92.0734C25.0062 92.1279 25.0557 92.1757 25.0619 92.1818C25.0821 92.2016 25.0691 92.1892 25.0531 92.1724C25.0392 92.1577 24.9813 92.0969 24.9146 92.0043C24.8632 91.933 24.7029 91.7043 24.6163 91.3571L28.4973 90.3886C28.4048 90.0179 28.2304 89.7637 28.1599 89.6658C28.0741 89.5467 27.9921 89.4583 27.952 89.4162C27.9099 89.3719 27.8688 89.332 27.8621 89.3255C27.8413 89.3051 27.865 89.3277 27.8938 89.3588C27.9011 89.3667 28.0369 89.5076 28.1575 89.7291C28.2098 89.8253 28.7589 90.8389 28.0042 91.8552C27.68 92.2919 27.2711 92.4769 27.0425 92.5533C26.8109 92.6307 26.6187 92.6465 26.5249 92.651C26.3384 92.6601 26.2039 92.6376 26.1893 92.6353C26.1452 92.6284 26.2591 92.6487 26.7871 92.8108C27.2594 92.9558 27.9694 93.1839 29.0257 93.5314C33.2512 94.9214 42.8024 98.1496 64.0774 105.321L65.3551 101.531Z" fill="#2D2D2D" mask="url(#path-1-inside-1)"/>
<path fill-rule="evenodd" clip-rule="evenodd" d="M160 68.6597V107.319L175.491 107.18C190.82 107.043 191.017 107.032 194.41 106.108C205.807 103.005 213.294 97.0292 218.055 87.2343C220.758 81.6752 221.651 77.6984 221.864 70.2864C221.996 65.6736 221.901 63.347 221.478 60.9006C218.763 45.1711 208.746 34.7106 192.772 30.9236C190.721 30.4376 187.508 30.2994 175.132 30.1645L160 30V68.6597ZM330.128 44.4809V52.0466L325.382 52.1473L320.636 52.2479L320.535 56.487L320.435 60.726H325.269H330.103L330.205 79.5762L330.307 98.4264L331.31 100.591C333.221 104.717 337.164 107.745 341.924 108.741C344.32 109.243 349.433 108.981 351.438 108.254L352.871 107.735L352.971 103.171C353.027 100.661 353 98.6068 352.912 98.6068C352.823 98.6068 351.972 98.9513 351.02 99.3727C349.815 99.9063 348.528 100.143 346.781 100.154C344.121 100.171 343.093 99.8121 341.491 98.3066C339.55 96.4822 339.44 95.3588 339.44 77.2557V60.726H346.077H352.715L352.614 56.487L352.513 52.2479L345.976 52.1494L339.44 52.0513V44.4831V36.9152H334.784H330.128V44.4809ZM191.585 39.9154C196.918 41.1629 201.203 43.4863 204.739 47.0482C208.339 50.6746 210.636 55.023 211.836 60.4814C212.652 64.1966 212.657 73.0037 211.845 76.8005C209.419 88.1492 201.905 95.4952 190.494 97.6742C188.254 98.1021 185.208 98.246 178.406 98.246H169.312V68.6254V39.0052L179.251 39.1801C186.437 39.3068 189.854 39.5102 191.585 39.9154ZM243.837 50.9953C238.809 52.0567 234.434 54.3083 231.239 57.4787C227.53 61.1589 227.519 60.8927 231.505 63.882L234.917 66.4413L237.125 64.1815C243.431 57.7266 254.375 57.1995 260.586 63.0515C263.039 65.3623 264.163 68.0273 264.459 72.2324L264.692 75.5273L262.756 74.6351C258.966 72.8868 254.879 72.14 249.183 72.1541C245.041 72.1642 243.409 72.3229 241.124 72.9377C232.914 75.1463 227.545 80.2364 226.268 87.0229C223.909 99.552 233.722 109.658 247.571 108.96C253.545 108.659 257.675 106.756 261.987 102.317L264.584 99.6444V103.455V107.265H269.061H273.538L273.525 88.9562C273.511 68.015 273.391 66.7018 271.044 61.9313C268.61 56.9845 263.839 53.1968 257.934 51.5221C255.447 50.8168 246.301 50.4751 243.837 50.9953ZM302.284 52.5791C297.937 54.007 294.119 57.0278 292.606 60.2354L291.983 61.5558L291.804 57.443L291.625 53.3302H287.148H282.671V80.7487V108.167H287.327H291.983L292.162 90.4895C292.337 73.2155 292.36 72.7663 293.145 70.8276C294.775 66.801 297.874 63.6609 301.732 62.1283C303.49 61.4295 304.466 61.3054 308.2 61.3054H312.597L312.498 56.5963L312.399 51.8872L308.638 51.8071C305.512 51.7407 304.439 51.8709 302.284 52.5791ZM258.674 80.9269C260.053 81.37 261.952 82.1254 262.893 82.6052L264.605 83.4776L264.367 85.3601C263.622 91.2312 260 96.3361 254.734 98.9344C248.095 102.211 239.764 100.623 236.792 95.5143C235.675 93.595 235.279 90.203 235.901 87.8891C236.802 84.5346 240.053 81.5954 244.073 80.5027C247.531 79.5625 255.116 79.7829 258.674 80.9269Z" fill="url(#paint1_linear)"/>
<defs>
<linearGradient id="paint0_linear" x1="60.5" y1="0" x2="60.5" y2="122" gradientUnits="userSpaceOnUse">
<stop stop-color="#767676"/>
<stop offset="1" stop-color="#767676" stop-opacity="0.5"/>
</linearGradient>
<linearGradient id="paint1_linear" x1="256.5" y1="30" x2="256.5" y2="109" gradientUnits="userSpaceOnUse">
<stop stop-color="#767676"/>
<stop offset="1" stop-color="#767676" stop-opacity="0.5"/>
</linearGradient>
</defs>
</svg>
