<svg width="296" height="88" viewBox="0 0 296 88" fill="none" xmlns="http://www.w3.org/2000/svg">
<path fill-rule="evenodd" clip-rule="evenodd" d="M41.3558 1.06551C38.1298 3.23702 37.5733 6.59728 39.9858 9.34146C42.3602 12.0417 46.993 12.2728 49.4553 9.81378L50.6413 8.62936L52.0161 9.60729C56.5586 12.8373 61.2677 20.7992 63.3296 28.7345C66.4083 40.5844 66.4228 52.1758 63.373 63.8438C62.4035 67.5548 62.3281 68.3354 62.8861 68.9013C64.0156 70.0471 64.9788 69.1237 65.9585 65.9565C68.8629 56.5656 69.5348 43.2152 67.5798 33.737C64.8885 20.6867 60.6098 12.4822 53.9833 7.66301C52.3756 6.49356 51.0601 5.23967 51.0601 4.8759C51.0601 3.59982 49.3959 1.42108 47.8684 0.69692C45.6631 -0.348066 43.2539 -0.212015 41.3558 1.06551ZM47.4094 3.93271C48.522 5.51852 48.3268 7.00254 46.8539 8.15946C44.7698 9.79641 41.3984 8.27765 41.3984 5.70137C41.3984 3.1193 45.9085 1.79208 47.4094 3.93271ZM15.4329 18.9972C9.64115 20.3167 4.80883 23.9959 3.7185 27.9163C2.65136 31.7522 3.52671 37.229 5.83684 41.1653C7.23441 43.5467 8.2088 44.1348 9.06048 43.11C9.52811 42.547 9.34309 41.848 8.12039 39.5568C4.79482 33.325 5.05424 28.818 8.95565 25.0529C12.4489 21.682 15.2493 20.9521 24.6913 20.9521C30.1772 20.9521 32.4342 20.7885 32.5704 20.3818C32.9545 19.2346 30.5149 18.6595 24.5318 18.4858C20.4126 18.3666 17.4783 18.5316 15.4329 18.9972ZM66.2194 18.9991C65.7508 20.2188 66.4015 20.5613 69.7807 20.8749C76.342 21.4842 80.5917 23.6784 82.699 27.5443C83.8521 29.6608 83.9994 30.3719 83.7811 32.7755C83.4642 36.2675 81.4313 40.5574 77.8647 45.2618C75.2961 48.6491 74.8333 50.1403 76.3507 50.1403C77.9763 50.1403 83.6149 42.383 85.3434 37.7693C86.6086 34.3931 86.6448 29.4201 85.4245 26.7371C83.6961 22.9379 79.3314 20.117 73.4391 18.9909C68.7773 18.1003 66.5638 18.1027 66.2194 18.9991ZM53.7171 19.8116C47.2326 21.326 36.8443 25.4505 30.5289 29.0172C15.3406 37.5952 3.59869 50.8428 3.18179 59.8694C3.11029 61.4243 2.72865 62.3415 1.6934 63.4487C-0.25876 65.5353 -0.529772 67.7845 0.915142 69.9135C2.30499 71.9625 3.85473 72.799 6.2779 72.8082C8.94551 72.8188 10.8981 71.6204 11.917 69.3471C13.3923 66.0568 11.5513 62.493 8.0059 61.7741C6.51364 61.4716 6.36244 61.2786 6.23104 59.5114C6.03732 56.9076 9.03101 50.9557 12.7706 46.5089C21.3493 36.3075 37.4515 26.7917 52.7422 22.8862C57.1654 21.7568 58.7765 20.6539 57.3402 19.7397C56.4997 19.2047 56.3002 19.2085 53.7171 19.8116ZM99.852 44.1097V58.342H109.514C118.853 58.342 119.175 58.3096 119.175 57.3771C119.175 56.4488 118.853 56.4122 110.721 56.4122H102.267V50.6228V44.8334H109.789H117.31L117.156 43.7478C117.004 42.6831 116.86 42.6599 109.634 42.5292L102.267 42.396V37.3428V32.2897H110.721H119.175V31.0835V29.8774H109.514H99.852V44.1097ZM124.812 30.1992C124.634 30.3758 124.489 36.7803 124.489 44.4315V58.342H133.427C142.041 58.342 142.364 58.3072 142.364 57.3771C142.364 56.4522 142.041 56.4122 134.634 56.4122H126.905V43.1448C126.905 30.6011 126.857 29.8774 126.019 29.8774C125.532 29.8774 124.988 30.0222 124.812 30.1992ZM146.711 44.1097V58.342H156.373C165.713 58.342 166.035 58.3096 166.035 57.3771C166.035 56.4488 165.713 56.4122 157.581 56.4122H149.127V50.6228V44.8334H156.615H164.103V43.6272V42.4211H156.615H149.127V37.3554V32.2897H157.581H166.035V31.0835V29.8774H156.373H146.711V44.1097ZM176.421 30.7892C171.442 33.0843 168.74 39.9616 169.889 47.4135C171.109 55.3271 174.548 58.5653 181.735 58.5682C185.812 58.5697 187.065 58.1287 189.948 55.6798C191.324 54.5103 191.352 54.4143 190.509 53.7775C189.72 53.1822 189.386 53.2854 187.534 54.6975C183.701 57.6188 178.778 57.4596 175.288 54.3014C173.63 52.8001 172.899 51.1346 172.325 47.5476C171.748 43.9452 172.318 38.9952 173.624 36.2462C174.653 34.08 177.305 32.4141 180.353 32.019C183.346 31.6311 185.803 32.3447 187.947 34.2238C189.318 35.4261 189.586 35.4999 190.408 34.9002C191.307 34.2436 191.301 34.1958 190.197 33.0211C187.277 29.9175 180.644 28.843 176.421 30.7892ZM193.758 30.5688C193.212 31.9881 194.116 32.2897 198.913 32.2897H203.716V45.3158V58.342H204.923H206.131V45.3327V32.3234L211.083 32.1859C215.666 32.0586 216.035 31.9766 216.035 31.0835C216.035 30.1505 215.669 30.1143 205.033 29.9889C195.712 29.8789 193.989 29.9676 193.758 30.5688ZM220.616 30.4269C220.612 30.7878 220.558 37.2169 220.495 44.7127L220.382 58.342H221.469C222.543 58.342 222.556 58.2614 222.556 51.8289V45.3158H225.728C227.473 45.3158 229.294 45.5266 229.776 45.7843C230.258 46.0419 232.423 48.9728 234.586 52.2973C237.875 57.3515 238.716 58.342 239.717 58.342C240.375 58.342 240.914 58.231 240.914 58.0954C240.914 57.7384 236.244 50.2976 234.331 47.6074C232.988 45.7182 232.851 45.3139 233.547 45.3052C235.295 45.2835 238.501 43.4058 239.453 41.846C240.826 39.5959 240.773 35.841 239.337 33.6878C237.432 30.8312 235.331 30.1688 227.508 29.9565C221.934 29.8055 220.622 29.8953 220.616 30.4269ZM251.783 30.7921C249.291 31.9442 247.518 33.8596 246.153 36.8729C245.244 38.8804 245.065 40.0947 245.087 44.1097C245.126 51.2297 246.962 55.2451 251.207 57.4938C254.243 59.1018 260.141 59.041 263.136 57.3708C267.446 54.9667 269.75 49.4813 269.309 42.6754C268.776 34.4501 264.425 29.8986 257.097 29.8986C254.823 29.8986 253.082 30.1915 251.783 30.7921ZM274.73 44.1097V58.342H275.929H277.128L277.258 46.437L277.387 34.5321L279.616 37.8735C280.841 39.7112 284.384 45.0688 287.488 49.7785C292.7 57.6878 293.24 58.342 294.565 58.342H296L295.872 44.2303L295.744 30.1186L294.657 29.9643L293.57 29.8104V41.9049C293.57 52.706 293.295 55.5288 292.455 53.3418C292.315 52.98 288.786 47.5524 284.611 41.2806C278.258 31.7382 276.833 29.8774 275.875 29.8774H274.73V44.1097ZM262.213 33.036C265.464 34.7149 267.291 39.7107 266.875 45.7814C266.372 53.1001 263.184 56.6399 257.097 56.636C253.041 56.6336 250.468 55.1298 248.913 51.8544C247.46 48.7914 247.004 44.9163 247.635 41.0013C248.736 34.1736 251.884 31.5221 258.225 32.0808C259.643 32.2057 261.438 32.6356 262.213 33.036ZM235.041 33.0394C237.164 33.8875 238.015 35.3185 238.015 38.0366C238.015 41.9951 235.268 43.386 227.452 43.386H222.556V37.8378V32.2897H227.861C231.531 32.2897 233.743 32.5208 235.041 33.0394ZM41.6182 43.6055C39.8723 45.3491 39.9979 47.7594 41.9186 49.3737C42.736 50.0607 43.9423 50.6228 44.5993 50.6228C47.9418 50.6228 50.2534 47.4738 48.8712 44.8044C47.9751 43.0739 46.7911 42.4211 44.5481 42.4211C43.3404 42.4211 42.4389 42.7854 41.6182 43.6055ZM13.3793 50.0974C13.3793 52.182 24.3202 60.5709 32.8922 65.0591C44.6094 71.1939 56.4345 74.4717 66.7605 74.4481C71.7155 74.4365 73.0836 74.2536 76.1773 73.1884C78.8956 72.2524 80.026 72.0643 80.7164 72.4333C82.3912 73.3288 86.2216 72.6128 87.7912 71.111C91.2945 67.7589 89.2424 62.12 84.3574 61.6757C81.5125 61.4171 80.3845 61.7664 78.7289 63.4197C77.1319 65.0147 77.041 65.2723 77.2623 67.5727C77.4961 70.0037 77.4831 70.0317 75.7526 70.8085C74.3845 71.4221 72.3855 71.592 66.5189 71.5939C59.8475 71.5963 58.4528 71.4467 53.7243 70.2223C50.8055 69.4663 46.7326 68.2274 44.6732 67.4689C35.7583 64.1864 24.6227 57.6274 18.6193 52.1227C15.3382 49.1141 13.3793 48.3572 13.3793 50.0974ZM8.63102 64.9298C9.90057 66.0771 9.79429 68.7055 8.44068 69.652C6.89673 70.7322 5.29868 70.5788 3.93734 69.2188C2.49339 67.7772 2.43397 66.5836 3.73637 65.1874C4.92284 63.9157 7.36678 63.7869 8.63102 64.9298ZM85.8424 65.0963C86.3738 65.6269 86.8086 66.588 86.8086 67.2321C86.8086 68.6345 84.7516 70.4032 83.1202 70.4032C80.4019 70.4032 78.9507 66.3994 81.1193 64.8825C82.5985 63.8477 84.6864 63.9418 85.8424 65.0963ZM25.6347 69.6699C24.9719 71.3946 29.7482 79.5929 33.5163 83.1987C34.7743 84.402 37.0076 85.9776 38.48 86.6999C40.7274 87.8018 41.7766 88.0107 45.0215 87.9996C49.1002 87.9856 51.2253 87.2359 54.8248 84.5399C56.9649 82.9372 60.2388 78.7385 60.2388 77.5965C60.2388 75.8559 58.7402 76.6799 55.0234 80.4637C49.4389 86.1494 45.2462 87.2026 39.538 84.3537C35.7578 82.4673 32.6849 79.0458 29.7434 73.4494C27.5618 69.2979 26.2439 68.085 25.6347 69.6699Z" fill="url(#paint0_linear)"/>
<defs>
<linearGradient id="paint0_linear" x1="148" y1="0" x2="148" y2="88" gradientUnits="userSpaceOnUse">
<stop stop-color="#767676"/>
<stop offset="1" stop-color="#767676" stop-opacity="0.5"/>
</linearGradient>
</defs>
</svg>
