<svg width="263" height="110" viewBox="0 0 263 110" fill="none" xmlns="http://www.w3.org/2000/svg">
<path fill-rule="evenodd" clip-rule="evenodd" d="M52.9072 0.240555C51.1833 0.729284 50.1808 1.55706 44.91 6.84672L39.6717 12.1033L46.015 18.4533L52.358 24.803L53.0987 24.5985C54.4108 24.2358 57.1896 24.4955 58.5142 25.1043C59.8781 25.7314 61.5281 27.1986 62.2415 28.4193C63.2961 30.2237 63.6818 32.7736 63.1757 34.5974L62.953 35.4001L69.084 41.5387C73.3059 45.7653 75.3111 47.6386 75.5234 47.5539C75.6929 47.4861 76.5369 47.3802 77.3989 47.3187C82.2206 46.9741 86.2077 50.7556 86.2077 55.6736C86.2077 59.2446 83.8103 62.4816 80.3856 63.535C75.2219 65.1231 69.9634 61.5262 69.6359 56.1822C69.5689 55.0884 69.6377 54.1932 69.8475 53.4302L70.1584 52.2993L64.5721 46.6965C61.4997 43.6149 58.9159 41.0937 58.8305 41.0937C58.745 41.0937 58.6749 47.7863 58.6749 55.9662V70.8386L59.8069 71.6184C63.3543 74.0635 64.4371 79.0115 62.2439 82.7562C61.9688 83.2262 61.2813 84.0435 60.7163 84.5723C56.6048 88.4209 49.842 87.0398 47.4144 81.856C46.9229 80.8068 46.8605 80.4293 46.8605 78.5143C46.8605 76.5839 46.9209 76.2265 47.4311 75.1362C48.219 73.4525 49.225 72.2916 50.6686 71.3999L51.8945 70.6428V55.564V40.4853L51.044 40.0511C49.742 39.3864 48.2531 37.7645 47.5165 36.2087C46.9073 34.9216 46.8607 34.6685 46.8638 32.6638C46.8658 31.2425 46.9612 30.3372 47.143 30.0138C47.4107 29.5374 47.2305 29.334 41.1285 23.2287L34.8379 16.9349L18.0003 33.7947C-1.14772 52.968 0.0135898 51.6005 0.0135898 54.9722C0.0135898 56.673 0.068039 56.923 0.686295 58.0633C1.2464 59.0961 5.53063 63.4737 26.2672 84.2022C54.2723 112.196 51.6602 109.869 55.0792 109.869C56.7795 109.869 57.0285 109.815 58.1701 109.195C59.204 108.634 63.5026 104.424 83.8847 84.0083C109.023 58.8294 109.033 58.8187 109.516 56.8227C109.797 55.6635 109.658 53.7228 109.205 52.4821C108.779 51.3141 107.879 50.3858 83.7832 26.2493C61.3125 3.74102 58.6842 1.17381 57.6196 0.69577C56.1927 0.0550972 54.2308 -0.134473 52.9072 0.240555ZM201.908 0.297714C199.353 0.985266 197.164 2.85568 196.334 5.06164C195.777 6.54386 195.55 8.79814 195.76 10.7635C196.281 15.6303 199.256 18.3441 204.378 18.6262C209.715 18.92 213.441 16.4326 214.395 11.9388C214.707 10.4646 214.682 7.50158 214.346 6.24327C213.503 3.08452 211.401 1.03502 208.238 0.289079C206.589 -0.0999308 203.369 -0.0956131 201.908 0.297714ZM234.462 10.0984C234.418 10.2399 234.277 11.1419 234.149 12.1031C233.559 16.5238 232.024 20.6072 230.156 22.7209C228.415 24.6906 225.62 26.1115 222.331 26.6983C221.54 26.8394 220.775 26.9882 220.632 27.0287C220.429 27.0861 220.383 28.1401 220.426 31.7851L220.482 36.4676L224.488 36.5704L228.495 36.6732L228.611 53.1218C228.715 67.9146 228.764 69.7256 229.092 71.112C230.729 78.0194 234.954 81.2154 243.208 81.7892C247.61 82.0954 251.917 81.5493 256.801 80.0658C259.177 79.3441 262.63 77.9805 262.807 77.6939C262.862 77.6051 262.284 75.483 261.522 72.9787C260.255 68.8137 260.102 68.4354 259.726 68.5458C255.865 69.6798 254.505 69.9246 251.918 69.952C248.731 69.9853 247.477 69.6497 246.268 68.4395C245.328 67.4991 244.873 66.2142 244.617 63.7788C244.512 62.7802 244.424 56.2495 244.422 49.2666L244.419 36.5704H252.227H260.034V31.2246V25.8788H252.473C246.866 25.8788 244.848 25.815 244.665 25.6321C244.482 25.4489 244.419 23.3841 244.419 17.6134V9.8414H239.481C235.711 9.8414 234.524 9.90226 234.462 10.0984ZM153.088 27.1188C140.927 28.1273 133.57 34.6521 132.65 45.2445C132.02 52.5023 134.696 58.7595 139.875 62.1377L141.403 63.1347L137.564 66.9694C134.096 70.4329 133.647 70.9621 132.927 72.4382C132.171 73.9887 132.13 74.1731 132.13 76.0363C132.13 77.6148 132.217 78.189 132.574 78.9617C133.149 80.2075 134.46 81.6206 135.605 82.2282L136.512 82.7097L135.005 84.3128C131.885 87.6318 130.899 89.8552 130.922 93.5236C130.951 98.171 132.95 101.185 137.472 103.398C141.585 105.411 146.153 106.278 154.321 106.596C166.519 107.071 176.099 104.467 181.315 99.2593C184.568 96.0109 185.912 92.5131 185.891 87.3554C185.872 82.8939 184.916 80.2067 182.486 77.7848C179.749 75.0574 175.972 73.7426 168.395 72.8788C165.658 72.5667 155.914 71.8707 150.519 71.6022C148.994 71.5261 147.583 71.4056 147.383 71.3341C147.072 71.2224 147.248 70.8425 148.63 68.6396C149.826 66.7328 150.34 66.081 150.636 66.0981C150.854 66.1106 152.016 66.2726 153.217 66.4579C155.971 66.8827 160.834 66.8944 163.567 66.483C166.417 66.0539 168.386 65.4808 170.578 64.4431C173.192 63.2058 174.638 62.1679 176.482 60.2068C177.744 58.8644 178.278 58.0864 179.072 56.4356C180.512 53.4425 180.811 52.0808 180.819 48.4956C180.825 45.9317 180.758 45.2996 180.345 43.9811C179.814 42.2889 178.837 40.2536 177.874 38.8321L177.247 37.9068L177.906 37.7763C178.269 37.7045 180.184 37.5384 182.162 37.4072C184.139 37.2758 185.966 37.1245 186.22 37.071L186.682 36.9738V32.4543V27.9349H176.319C167.936 27.9349 165.679 27.8765 164.504 27.6291C161.6 27.0178 156.86 26.8059 153.088 27.1188ZM192.767 27.074C192.647 27.2681 191.612 34.5809 191.615 35.2177C191.616 35.5808 192.01 35.7804 194.234 36.5436C197.803 37.7682 198.121 37.9317 198.379 38.6737C198.659 39.4766 198.688 71.0582 198.41 71.7907C198.305 72.0652 198.051 72.3549 197.844 72.4343C197.537 72.5525 192.298 73.3597 191.767 73.3708C191.682 73.3727 191.613 75.2708 191.613 77.5891V81.804H206.51H221.406V77.6119V73.42L220.738 73.3015C220.371 73.2364 218.961 73.0344 217.605 72.8527C216.115 72.6528 215.017 72.403 214.831 72.2213C214.562 71.9579 214.516 69.1004 214.469 49.4134L214.415 26.9068H203.643C197.718 26.9068 192.824 26.9821 192.767 27.074ZM160.985 37.9387C164.736 38.9161 166.957 42.1539 166.957 46.6451C166.957 52.5522 162.986 55.9263 156.375 55.6355C150.513 55.3777 147.62 52.5395 147.604 47.0317C147.591 42.4505 149.453 39.4762 153.149 38.1764C155.435 37.3722 158.459 37.2805 160.985 37.9387ZM156.047 86.3377C165.341 86.9738 167.511 87.2467 168.672 87.9254C169.657 88.5007 170.245 89.5137 170.24 90.6242C170.228 93.1772 168.078 95.1015 164.355 95.892C160.678 96.6729 153.499 96.7692 149.606 96.09C145.137 95.31 143.058 93.47 143.398 90.595C143.616 88.7546 145.469 85.7336 146.39 85.7186C146.661 85.7143 151.007 85.9929 156.047 86.3377Z" fill="url(#paint0_linear)"/>
<defs>
<linearGradient id="paint0_linear" x1="131.405" y1="0" x2="131.405" y2="109.917" gradientUnits="userSpaceOnUse">
<stop stop-color="#767676"/>
<stop offset="1" stop-color="#767676" stop-opacity="0.5"/>
</linearGradient>
</defs>
</svg>
