<svg width="86" height="122" viewBox="0 0 86 122" fill="none" xmlns="http://www.w3.org/2000/svg">
<path fill-rule="evenodd" clip-rule="evenodd" d="M7.99294 8.23614V16.4691H10.7247H13.4565V13.7248V10.9805H15.9353H18.4141V13.7248V16.4691H21.1965H23.9788V8.23614V0.0031509H21.1965H18.4141V2.69666V5.39017H15.9353H13.4565V2.69666V0.0031509H10.7247H7.99294V8.23614ZM26.3059 2.74748V5.49181H28.7341H31.1624V10.9805V16.4691H33.8941H36.6259V10.9805V5.49181H39.0541H41.4824V2.74748V0.0031509H33.8941H26.3059V2.74748ZM43.8094 8.23462V16.4691H46.4895H49.1694L49.1959 12.4308L49.2224 8.39247L51.0496 11.2301C52.0546 12.7907 52.9248 14.0837 52.9834 14.1033C53.0421 14.123 53.9044 12.8716 54.8997 11.3226L56.7094 8.5061L56.7359 12.4876L56.7623 16.4691H59.5436H62.3247V8.23614V0.0031509L59.4159 0.00670836L56.5071 0.0101642L54.7917 2.85227C53.8483 4.41542 53.044 5.66023 53.0042 5.61846C52.9645 5.57678 52.182 4.30768 51.2652 2.7983L49.5984 0.0539718L46.7039 0.0270367L43.8094 0V8.23462ZM64.9553 8.23614V16.4691H71.5824H78.2094V13.7248V10.9805H74.3647H70.52V5.49181V0.0031509H67.7376H64.9553V8.23614ZM0 24.1894C0 24.5369 7.78755 112.145 7.82145 112.179C7.83935 112.197 15.7531 114.414 25.4076 117.106L42.9612 122L60.5601 117.099C70.2393 114.403 78.1682 112.189 78.1798 112.177C78.2058 112.152 86 24.4515 86 24.1845C86 23.9941 85.2367 23.9906 43 23.9906C0.391352 23.9906 0 23.9925 0 24.1894ZM69.8845 42.3624C69.8547 42.5721 69.6329 44.9962 69.3917 47.7494L68.9531 52.7553H48.3283H27.7033L27.763 53.2381C27.7959 53.5036 28.0046 55.8249 28.2268 58.3964C28.4491 60.9679 28.6569 63.2664 28.6887 63.5039L28.7466 63.9359H48.3621H67.9778L67.9313 64.2662C67.8642 64.7418 65.0565 96.536 65.0565 96.8201C65.0565 96.9766 64.979 97.0825 64.8288 97.1312C64.7037 97.1717 59.7358 98.5606 53.7892 100.217L42.9771 103.23L31.9856 100.168L20.9941 97.1052L20.9187 96.7579C20.8773 96.5668 20.5453 92.98 20.1811 88.7873C19.8168 84.5946 19.4921 80.9469 19.4594 80.6814L19.3998 80.1986H24.7752C27.7317 80.1986 30.1526 80.21 30.1549 80.224C30.1574 80.238 30.3318 82.1588 30.5425 84.4927C30.7534 86.8265 30.9448 88.7516 30.9682 88.7706C31.0533 88.8403 42.7787 91.989 42.9528 91.989C43.179 91.989 54.8657 88.8321 54.9515 88.7478C54.9863 88.7136 55.2728 85.7355 55.5882 82.1298C55.9035 78.524 56.1875 75.3794 56.2193 75.1419L56.2771 74.7099H37.5986C24.7298 74.7099 18.92 74.677 18.92 74.6042C18.92 74.546 18.2826 67.326 17.5035 58.5597C16.7245 49.7934 16.0871 42.5001 16.0871 42.3523V42.0836L29.5182 42.0575C36.9054 42.043 49.022 42.0201 56.4441 42.0062L69.9388 41.9812L69.8845 42.3624Z" fill="url(#paint0_linear)"/>
<defs>
<linearGradient id="paint0_linear" x1="43" y1="0" x2="43" y2="122" gradientUnits="userSpaceOnUse">
<stop stop-color="#767676"/>
<stop offset="1" stop-color="#767676" stop-opacity="0.5"/>
</linearGradient>
</defs>
</svg>
