<svg width="280" height="98" viewBox="0 0 280 98" fill="none" xmlns="http://www.w3.org/2000/svg">
<path fill-rule="evenodd" clip-rule="evenodd" d="M43.2759 25.7471L46.6553 30.4847C48.5134 33.0904 50.2562 35.359 50.5271 35.5264C50.7986 35.6933 52.5656 33.7109 54.4546 31.1203L57.8885 26.4113V0H43.2759V25.7471ZM131.907 62.0883L130.242 63.8187C129.326 64.7707 127.812 65.7468 126.878 65.9882C125.251 66.4082 125.178 66.556 125.17 69.4736L125.162 72.52L127.328 72.3901C131.019 72.1683 135.436 68.7585 137.314 64.68C138.247 62.6517 138.346 60.6782 138.357 43.82L138.37 25.2H132.244L131.907 62.0883ZM159.84 44.38C160.023 65.3212 159.981 65.0406 163.468 68.5518C165.747 70.8462 170.216 72.7888 173.215 72.7888C176.214 72.7888 180.684 70.8462 182.963 68.5518C186.299 65.1924 186.395 64.713 186.724 49.84C186.891 42.294 187.211 35.742 187.436 35.28C188.307 33.4914 191.49 31.92 194.242 31.92C196.553 31.92 197.203 32.1888 198.844 33.824L200.755 35.728L200.764 47.404C200.776 64.3552 201.936 67.849 208.68 71.2505C216.17 75.0288 225.037 71.1525 227.467 63.0381C228.118 60.8636 228.294 56.551 228.294 42.7381V25.2H221.549V43.148C221.549 62.3941 221.437 63.238 218.617 65.2058C216.899 66.4054 212.056 66.3303 210.573 65.0815C207.555 62.5397 207.499 62.2429 207.493 48.7351C207.488 36.5137 207.445 36.0326 206.119 33.32C204.334 29.6682 203.774 29.0405 200.755 27.3006C194.235 23.5446 187.523 25.0074 182.77 31.2206L180.803 33.7915L180.52 47.5558C180.326 57.0175 180.02 61.7002 179.54 62.5363C178.183 64.9034 176.04 66.08 173.083 66.08C170.674 66.08 170.039 65.8269 168.433 64.2264C165.93 61.7327 165.796 60.466 166.01 41.2994L166.19 25.1989L159.672 25.2L159.84 44.38ZM242.625 31.64L257.8 31.9491L257.492 72.8H264.263V31.92H271.243C275.081 31.92 278.622 31.7671 279.111 31.5801C279.77 31.3281 280 30.4573 280 28.2201V25.2H242.288L242.625 31.64ZM49.738 63.4088C48.5269 64.8502 46.8644 67.1278 44.6629 70.3601C43.2882 72.3778 43.2759 72.511 43.2759 85.1984V98H57.8885L57.866 71.4L55.2077 67.919C53.7458 66.0044 52.1693 63.9055 51.7051 63.2554L50.8615 62.0721L49.738 63.4088Z" fill="url(#paint0_linear)"/>
<path fill-rule="evenodd" clip-rule="evenodd" d="M58.2012 25.8922L58.1925 32.4233C58.184 38.5211 58.2161 38.9437 58.676 38.7919C65.316 36.6001 70.2376 35.1251 70.0837 35.373C69.9756 35.547 68.3197 37.8169 66.404 40.4171C64.4883 43.0172 63.0266 45.2421 63.1555 45.3611C63.2843 45.4802 65.8594 46.3636 68.8777 47.3246C71.8961 48.2854 74.4621 49.1579 74.5801 49.2635C74.698 49.3691 72.1299 50.3049 68.8735 51.3429C64.6805 52.6799 63.0122 53.3288 63.1571 53.5664C63.2697 53.7512 64.9197 56.0189 66.8233 58.6059C68.7272 61.1929 70.2849 63.3758 70.2849 63.4564C70.2849 63.5374 70.0634 63.5304 69.7924 63.4407C69.5214 63.3514 66.7988 62.4741 63.7417 61.491L58.1834 59.7037V72.4381L66.1338 83.3957C70.5067 89.4223 74.1768 94.3585 74.2899 94.3649C74.4028 94.3714 77.2078 92.4096 80.5227 90.0052L86.5504 85.6334L82.0286 79.4314C79.5416 76.02 76.0024 71.1662 74.1636 68.6445C72.3247 66.123 70.8745 64.006 70.9406 63.9399C71.0386 63.8427 81.0101 66.9927 94.1926 71.2852C95.3458 71.6608 96.3762 71.8737 96.482 71.7583C96.5878 71.6429 97.6845 68.4319 98.9194 64.6228L101.164 57.697L93.2529 55.1517C78.5156 50.411 75.6436 49.4371 75.849 49.2492C75.9619 49.1461 81.6265 47.2658 88.4371 45.0709C95.2476 42.8758 100.904 41.0028 101.007 40.9086C101.271 40.6672 96.6598 26.6011 96.3171 26.6025C96.1623 26.6034 90.4028 28.4212 83.5182 30.6424C76.6337 32.8636 70.9685 34.649 70.9291 34.6095C70.8894 34.5703 74.3895 29.6945 78.7069 23.7749C83.0243 17.8553 86.5008 12.9219 86.4324 12.8118C86.3641 12.7014 84.9507 11.639 83.2917 10.4508C81.6329 9.26235 78.9219 7.30669 77.2674 6.10506L74.2592 3.92L58.2012 25.8922ZM20.6521 8.50356C17.4235 10.8572 14.764 12.8437 14.7421 12.9179C14.7204 12.9922 18.2248 17.8774 22.5292 23.7738C26.834 29.6705 30.3034 34.547 30.239 34.6111C30.1748 34.6753 25.1963 33.137 19.176 31.1931C4.79132 26.5485 4.89236 26.5787 4.67425 26.8115C4.57069 26.9221 3.47649 30.1276 2.24299 33.9347L0 40.8571L12.4628 44.9286C19.3176 47.1683 25.0635 49.0005 25.2318 49.0005C25.9973 49.0005 25.4209 49.5251 24.3416 49.8105C21.1376 50.6575 0.0712015 57.6525 0.0911829 57.8628C0.179833 58.7944 4.62641 71.9676 4.85099 71.9631C5.00662 71.9597 10.7669 70.1399 17.6515 67.9187C24.5361 65.6975 30.1984 63.9096 30.2347 63.9458C30.2711 63.9819 26.8478 68.7358 22.6274 74.5097C18.4074 80.284 14.8631 85.1552 14.7514 85.3351C14.5538 85.6533 15.7929 86.6524 20.7534 90.1752C21.8912 90.9833 23.738 92.3185 24.8572 93.1423L26.8919 94.64L28.9838 91.7774C30.1346 90.2029 33.6676 85.3855 36.8357 81.0719C40.0034 76.7584 42.6973 73.0614 42.8214 72.8563C43.0302 72.5121 43.1383 59.9821 42.9339 59.779C42.8841 59.7291 40.1562 60.5428 36.8725 61.5868C33.5885 62.6307 30.9707 63.3741 31.0548 63.2385C31.1387 63.1032 32.7859 60.8316 34.7145 58.1908C36.6434 55.55 38.1221 53.3036 38.0008 53.1986C37.8792 53.0936 35.2155 52.2006 32.0812 51.2141C28.9472 50.2279 26.3859 49.3576 26.3901 49.2806C26.3941 49.2035 28.742 48.3884 31.6078 47.4692C34.4733 46.5501 37.1345 45.6678 37.5212 45.5085C38.2211 45.2205 38.2071 45.1959 34.5409 40.2143C32.5152 37.4614 30.9 35.1669 30.9521 35.115C31.0042 35.0632 33.7332 35.8831 37.0166 36.9371L42.9863 38.853V26.0003L35.0359 15.1047C30.6634 9.11222 26.9589 4.21242 26.8041 4.21663C26.6493 4.22055 23.8809 6.14988 20.6521 8.50356Z" fill="url(#paint1_linear)"/>
<defs>
<linearGradient id="paint0_linear" x1="140" y1="0" x2="140" y2="98" gradientUnits="userSpaceOnUse">
<stop stop-color="#767676"/>
<stop offset="1" stop-color="#767676" stop-opacity="0.5"/>
</linearGradient>
<linearGradient id="paint1_linear" x1="140" y1="0" x2="140" y2="98" gradientUnits="userSpaceOnUse">
<stop stop-color="#767676"/>
<stop offset="1" stop-color="#767676" stop-opacity="0.5"/>
</linearGradient>
</defs>
</svg>
