<svg width="194" height="101" viewBox="0 0 194 101" fill="none" xmlns="http://www.w3.org/2000/svg">
<path fill-rule="evenodd" clip-rule="evenodd" d="M123.756 0.415063C122.33 1.14162 121.586 2.44527 121.594 4.20206C121.601 5.71497 122.254 6.98208 124.708 10.2467C125.881 11.8088 126.957 13.3091 127.097 13.5809C127.237 13.8528 127.825 15.4856 128.402 17.2094C128.98 18.9333 129.695 20.9338 129.991 21.6549C130.806 23.6379 132.175 26.0104 133.062 26.9767C133.667 27.6356 133.827 27.9258 133.737 28.2004C133.41 29.1952 132.56 32.4142 132.256 33.8051C131.289 38.2333 131.767 43.4598 133.475 47.1155C134.968 50.3128 137.023 52.0481 138.841 51.648C140.35 51.316 141.041 50.2912 141.414 47.8326C141.865 44.8575 141.904 44.6451 142.037 44.3923C142.128 44.2206 142.46 44.7486 143.081 46.0531C144.485 49.0025 146.071 50.981 149.099 53.5612C149.771 54.1336 150.894 55.1381 151.594 55.7935C152.807 56.9279 153.808 57.6662 154.135 57.6676C154.217 57.668 153.627 57.0194 152.824 56.226C150.525 53.9561 147.718 49.867 145.267 45.2161C144.304 43.3888 142.699 39.7555 142.504 38.9623C142.445 38.7219 142.292 38.3821 142.164 38.2071C141.951 37.9148 141.849 37.9931 140.912 39.1686C139.287 41.2097 138.926 42.2341 138.399 46.3036C138.051 48.9966 137.924 49.1546 136.89 48.1952C136.057 47.4228 134.996 44.919 134.517 42.5991C134.244 41.2754 134.144 40.1492 134.14 38.3504C134.133 35.3823 134.418 33.7628 135.489 30.6583C136.585 27.4851 136.561 27.262 134.932 25.4545C133.491 23.8563 132.646 22.1198 131.128 17.6408C130.397 15.4811 129.528 13.1996 129.197 12.571C128.867 11.9423 127.765 10.3264 126.748 8.9803C124.969 6.62387 123.886 4.78439 123.886 4.11745C123.885 3.20802 124.892 2.51415 125.941 2.70086C127.68 3.01065 131.613 4.9461 133.379 6.36094C134.042 6.89223 134.749 7.36023 134.95 7.40114C135.15 7.44187 136.457 7.5541 137.853 7.65043C139.996 7.79798 140.632 7.91231 141.926 8.38119C150.836 11.6114 160.455 21.0649 164.092 30.1654C165.805 34.4509 170.294 43.8364 171.234 45.0974C171.913 46.0073 172.311 46.1966 176.755 47.7239C179.422 48.6407 179.511 48.688 183.211 51.1716C186.653 53.4818 188.097 54.5781 188.097 54.8813C188.097 54.9454 186.978 55.0402 185.61 55.0921C182.897 55.1953 181.503 55.4444 179.024 56.2696C176.978 56.9505 176.755 57.0732 176.755 57.5178C176.755 58.0809 177.894 60.1142 178.773 61.121C180.057 62.5925 182.821 64.4766 186.09 66.1101C188.965 67.5465 191.552 69.2174 193.146 70.6674C193.571 71.0548 193.949 71.2836 193.984 71.1763C194.139 70.7116 193.135 69.3094 191.083 67.1251C188.464 64.3366 187.261 63.338 184.675 61.8051C182.762 60.6716 181.034 59.2309 181.153 58.8702C181.246 58.5936 184.763 57.7347 187.05 57.4306C189.435 57.1132 191.586 56.5014 191.586 56.1409C191.586 56.0035 191.098 55.2584 190.5 54.4848C189.287 52.9128 186.269 50.3763 182.862 48.0641C180.51 46.468 180.101 46.2494 176.755 44.8C174.48 43.8143 174.171 43.6282 173.689 42.9504C173.393 42.5357 172.244 40.3085 171.135 38.0008C169.348 34.2841 168.632 32.6827 166.407 27.4241C164.894 23.8495 160.249 17.7239 156.427 14.2629C153.14 11.2862 147.632 7.46022 145.089 6.38752C143.442 5.69295 140.088 4.87792 138.804 4.86062C136.628 4.83125 136.054 4.66062 134.912 3.70417C133.725 2.711 130.952 1.21907 129.061 0.556839C128.233 0.267159 127.281 0.0907646 126.241 0.0341221C124.795 -0.0443731 124.598 -0.0143008 123.756 0.415063ZM136.234 12.3589C135.976 12.4614 136.065 12.6468 136.845 13.6287C137.346 14.2612 137.988 15.2636 138.269 15.8566C138.551 16.4496 138.839 16.9347 138.911 16.9347C139.17 16.9347 139.767 15.9982 139.957 15.2947C140.128 14.661 140.104 14.4858 139.761 13.8353C139.18 12.7367 138.402 12.2117 137.376 12.2268C136.914 12.2336 136.4 12.293 136.234 12.3589ZM5.14736 61.6896C2.40129 62.1034 0.921813 62.9633 0.270978 64.5245C0.0340251 65.093 0 66.8619 0 78.6414V92.1083H3.22678H6.45374L6.49841 79.5655L6.54325 67.0227L11.5882 78.2106C14.3627 84.364 16.8111 89.6833 17.0287 90.0314C18.0779 91.7092 19.6055 92.3705 22.4215 92.3655C24.1153 92.3625 24.455 92.309 25.3123 91.9099C25.8464 91.6613 26.5588 91.1737 26.895 90.8267C27.661 90.0365 27.9116 89.5145 33.4275 77.2131L37.9508 67.1257L38.0381 79.5732L38.1253 92.0209H41.3533H44.5813V78.4722V64.9234L44.184 64.1782C43.9654 63.7682 43.4749 63.2065 43.0938 62.9299C41.3875 61.6915 37.267 61.2182 35.2006 62.0235C33.9891 62.4955 32.6672 63.7229 32.0605 64.939C31.8251 65.4112 29.5279 70.5177 26.9557 76.2869C24.3836 82.056 22.2327 86.8287 22.1759 86.8926C22.119 86.9568 20.1881 82.63 17.8849 77.2776C12.2144 64.1002 12.3369 64.364 11.4734 63.474C9.92655 61.8796 7.82311 61.2863 5.14736 61.6896ZM92.3165 62.4037C89.2435 63.0079 86.8663 64.5334 85.9971 66.4594C85.6112 67.3143 85.5857 67.5772 85.5857 70.6926C85.5857 73.5899 85.6276 74.0985 85.913 74.6741C86.7188 76.2989 88.9161 77.7524 91.6927 78.4973C92.9265 78.8283 93.7576 78.8861 98.8467 78.9954C105.384 79.1356 105.998 79.2368 106.957 80.3303L107.509 80.9611L107.453 83.377C107.397 85.7881 107.395 85.7939 106.873 86.3498C105.789 87.5028 106.136 87.4666 95.2697 87.5629L85.4112 87.6503V89.8356V92.0209H95.7059C105.818 92.0209 106.027 92.0139 107.484 91.6284C110.775 90.7576 113.268 88.955 113.837 87.0362C114.168 85.9208 114.227 80.7228 113.922 79.6216C113.651 78.6435 112.054 77.0996 110.589 76.3989C108.1 75.2089 107.353 75.1035 100.592 74.9904C94.5227 74.889 94.4791 74.8855 93.6121 74.4512C92.3184 73.8032 92.1295 73.3067 92.1293 70.5527C92.129 67.9124 92.2808 67.4837 93.3873 66.9993C94.0855 66.6935 94.8096 66.6682 104.212 66.6201L114.289 66.5683V64.3911V62.2137L103.689 62.2329C97.8586 62.2434 92.7412 62.3203 92.3165 62.4037ZM125.979 62.3292C122.279 62.985 119.89 64.3411 118.726 66.4465L118.215 67.3709V77.0736V86.7762L118.645 87.6503C119.533 89.4517 121.334 90.7656 124.09 91.6232C125.336 92.0106 125.56 92.0209 132.796 92.0209H140.224L142.686 94.2534L145.147 96.4857L148.935 96.4386L152.723 96.3914L149.646 93.613C147.954 92.0847 146.569 90.7816 146.569 90.7171C146.569 90.6525 146.835 90.4727 147.159 90.3176C148.085 89.8753 148.995 88.9823 149.463 88.0573C150.165 86.6689 150.26 85.1528 150.201 76.1995L150.146 67.8954L149.644 66.8077C148.713 64.7881 146.996 63.5336 144.023 62.7014C142.698 62.3306 142.316 62.3139 134.529 62.2834C130.067 62.2661 126.219 62.2866 125.979 62.3292ZM154.111 74.2366L154.159 86.2594L154.732 87.4265C156.03 90.0678 158.856 91.4504 163.93 91.9275C164.986 92.0268 169.638 92.1081 174.269 92.1081L182.688 92.1083V89.8356V87.5629H173.389C163.657 87.5629 162.796 87.5044 161.672 86.767C160.686 86.1194 160.702 86.3395 160.702 73.7693V62.2137H157.382H154.062L154.111 74.2366ZM142.374 67.2835C142.802 67.5239 143.333 67.9879 143.552 68.3146L143.951 68.9087L143.951 77.1432C143.95 84.9969 143.934 85.4035 143.61 85.9364C143.423 86.2435 143.073 86.6246 142.831 86.7832C142.393 87.071 142.39 87.069 140.075 84.9575L137.757 82.8436L134.035 82.8432C131.987 82.8429 130.339 82.9111 130.371 82.9948C130.403 83.0784 131.45 84.0719 132.697 85.2025C133.945 86.333 135.083 87.3731 135.227 87.5136C135.457 87.7383 135.042 87.7613 131.825 87.7038C128.321 87.6411 128.118 87.6183 127.185 87.186C126.085 86.6759 125.565 86.0584 125.284 84.9282C125.155 84.4063 125.108 81.6641 125.143 76.518C125.193 69.12 125.205 68.8671 125.554 68.3996C126.035 67.7545 126.64 67.3178 127.473 67.0159C128.031 66.8133 129.421 66.7739 134.878 66.8064L141.596 66.8465L142.374 67.2835ZM49.9032 78.8893V86.6489L50.3919 87.5862C51.3275 89.3807 53.6168 90.7608 56.8826 91.4989C57.9687 91.7445 59.5371 91.8099 66.1039 91.884L74.0165 91.9731L73.9558 93.428C73.9005 94.7535 73.8503 94.9296 73.3901 95.4107C72.286 96.5652 72.4189 96.5526 60.5853 96.6136L49.8925 96.6687L49.9416 98.8028L49.9904 100.937L60.5469 100.986C69.3293 101.026 71.39 100.989 72.8093 100.767C75.8616 100.29 78.1976 99.1115 79.5101 97.3876C80.6252 95.9226 80.6128 96.0852 80.6128 82.9857V71.1296H77.2976H73.9823V79.4405V87.7514L66.1741 87.7009C59.0086 87.6545 58.3127 87.6239 57.7218 87.3294C56.4082 86.6746 56.4525 86.9662 56.3958 78.6033L56.3451 71.1296H53.1242H49.9032V78.8893ZM184.258 87.9939C184.258 88.383 184.332 88.437 184.862 88.437H185.467L185.517 90.2289L185.567 92.0209L186.04 92.0756L186.514 92.1303L186.564 90.3274L186.613 88.5244L187.224 88.437C187.69 88.3704 187.835 88.2664 187.835 88C187.835 87.6764 187.702 87.6467 186.046 87.6005L184.258 87.5507V87.9939ZM188.7 87.7814C188.649 87.9134 188.63 88.9213 188.658 90.0211L188.707 92.0209L189.187 92.0761L189.667 92.1315L189.674 90.5901L189.681 89.0489L190.241 90.533C190.636 91.5803 190.898 92.0356 191.129 92.08C191.531 92.1567 191.648 91.9789 192.151 90.5349L192.546 89.3985L192.633 90.7097C192.718 91.9852 192.734 92.0224 193.2 92.0761L193.68 92.1315V89.8372V87.5428L192.947 87.5967L192.214 87.6503L191.769 88.9174C191.525 89.6143 191.281 90.1847 191.227 90.1849C191.174 90.1851 190.899 89.6148 190.616 88.9178C190.117 87.6858 190.084 87.6488 189.447 87.596C189.012 87.5599 188.761 87.6224 188.7 87.7814Z" fill="url(#paint0_linear)"/>
<defs>
<linearGradient id="paint0_linear" x1="97" y1="0" x2="97" y2="101" gradientUnits="userSpaceOnUse">
<stop stop-color="#767676"/>
<stop offset="1" stop-color="#767676" stop-opacity="0.5"/>
</linearGradient>
</defs>
</svg>
