<svg width="320" height="67" viewBox="0 0 320 67" fill="none" xmlns="http://www.w3.org/2000/svg">
<path fill-rule="evenodd" clip-rule="evenodd" d="M2.45521 2.24963L0 4.69691V32.9193C0 66.4196 0.0596469 66.6855 7.58247 66.6855C9.35093 66.6855 10.8308 66.0146 12.1519 64.6134C14.0897 62.5591 14.1074 62.3879 14.35 43.5858L14.5935 24.6295L35.7449 45.6579C55.8815 65.6772 57.0414 66.6855 59.9206 66.6855C62.0566 66.6855 63.526 66.1062 64.9229 64.7131L66.9018 62.7414V33.7284C66.9018 16.6915 66.5818 4.11924 66.1264 3.2708C65.0712 1.30639 60.9265 -0.292452 58.4762 0.320573C57.3719 0.596956 55.7324 1.61009 54.8337 2.57181C53.2852 4.2277 53.199 5.34288 53.199 23.646V42.9728L32.0121 21.8656C13.7044 3.62673 10.4238 0.693369 7.86781 0.280401C5.31667 -0.132567 4.57431 0.137388 2.45521 2.24963ZM83.2492 16.4071C78.2751 25.42 74.1038 33.121 73.9796 33.5203C73.8547 33.9196 77.9035 41.5515 82.9767 50.4793L92.1995 66.7128L111.724 66.4983L131.248 66.2838L140.17 48.4073L149.093 30.5307H128.086H107.08L104.724 32.8792C101.016 36.575 101.749 41.3908 106.382 43.7794C108.046 44.6367 111.232 44.9926 117.239 44.9926C121.917 44.9926 125.743 45.1638 125.743 45.3727C125.743 45.5824 124.94 47.3997 123.96 49.4116L122.176 53.0704L111.37 52.8479L100.565 52.6253L95.4382 43.7875C92.6178 38.9267 90.3037 34.482 90.294 33.9108C90.2843 33.3395 92.5445 28.7391 95.3149 23.6878L100.353 14.5037L112.086 14.4828L123.82 14.4619L126.549 20.086L129.278 25.7101H135.84C139.449 25.7101 142.602 25.5108 142.847 25.2666C143.091 25.0223 142.036 21.8592 140.503 18.2365C138.969 14.6138 136.62 9.02906 135.281 5.82494L132.847 0L112.57 0.0104451L92.2922 0.0200857L83.2492 16.4071ZM158.232 1.93709C155.988 3.85892 155.967 3.96176 155.705 14.8243L155.441 25.7744L162.557 25.5414L169.673 25.3084L169.902 16.1017C170.16 5.75504 169.42 2.94461 165.972 1.1674C162.771 -0.482868 160.831 -0.289239 158.232 1.93709ZM180.616 2.08011L178.136 4.16021V33.3693V62.5783L179.977 64.7123C181.379 66.336 182.562 66.8462 184.929 66.8462C187.922 66.8462 188.838 66.0508 209.241 45.7238L230.444 24.6005L230.688 43.5521C230.915 61.1836 231.044 62.6273 232.544 64.2848C235.024 67.0262 237.451 67.6488 240.578 66.3465C242.073 65.7238 243.688 64.4849 244.167 63.5923C244.744 62.5181 245.038 52.3586 245.038 33.5043C245.038 6.19613 244.972 4.95401 243.416 2.98237C241.466 0.510988 237.765 -0.457158 235.211 0.834774C234.188 1.35299 224.01 11.0457 212.594 22.3742L191.839 42.9728V23.5665V4.16021L189.359 2.08011C187.995 0.936008 186.028 0 184.987 0C183.947 0 181.98 0.936008 180.616 2.08011ZM255.578 2.08011C253.637 3.70788 253.098 4.80216 253.098 7.11205C253.098 9.84134 253.977 10.938 264.775 21.6816L276.45 33.2994L264.775 45.0312C253.945 55.9122 253.098 56.98 253.098 59.7518C253.098 63.8301 255.965 66.6855 260.059 66.6855C262.849 66.6855 263.905 65.8532 274.801 55.063L286.538 43.4404L298.292 55.063C309.193 65.8419 310.263 66.6855 313.044 66.6855C317.133 66.6855 320 63.8277 320 59.7518C320 56.98 319.154 55.9122 308.324 45.0312L296.648 33.2994L308.324 21.6816C319.121 10.938 320 9.84134 320 7.11205C320 4.80216 319.461 3.70788 317.52 2.08011C313.721 -1.10634 311.798 -0.641948 305.673 4.93955C302.691 7.65598 299.869 10.2776 299.401 10.7645C298.932 11.2514 295.823 14.2892 292.49 17.5142L286.431 23.3785L274.234 11.6892C260.911 -1.07741 259.939 -1.57796 255.578 2.08011ZM155.567 46.2597V61.9886L157.923 64.3371C160.875 67.2801 164.283 67.4279 167.411 64.7484L169.673 62.8105L169.921 46.671L170.17 30.5307H162.868H155.567V46.2597Z" fill="url(#paint0_linear)"/>
<defs>
<linearGradient id="paint0_linear" x1="160" y1="0" x2="160" y2="67" gradientUnits="userSpaceOnUse">
<stop stop-color="#767676"/>
<stop offset="1" stop-color="#767676" stop-opacity="0.5"/>
</linearGradient>
</defs>
</svg>
