<svg width="202" height="124" viewBox="0 0 202 124" fill="none" xmlns="http://www.w3.org/2000/svg">
<path fill-rule="evenodd" clip-rule="evenodd" d="M134.693 0.415693C134.368 0.829651 134.366 0.89449 134.366 15.8864C134.366 25.9625 134.313 31.0423 134.203 31.2466C134.113 31.4163 133.875 31.5517 133.668 31.5517C133.463 31.5517 132.102 30.8667 130.644 30.0295C127.735 28.3588 127.091 28.1588 126.165 28.6384C125.352 29.0593 107.438 39.4103 106.755 39.8536C106.426 40.0667 106.019 40.469 105.849 40.7474C105.551 41.2382 105.541 41.6176 105.541 53.0857C105.541 64.5595 105.55 64.9329 105.85 65.4248C106.237 66.0613 105.6 65.6704 116.881 72.1893C125.954 77.4319 126.449 77.6959 127.199 77.6935C127.947 77.691 128.495 77.396 138.068 71.843C147.215 66.5371 148.182 65.938 148.502 65.3774L148.853 64.7598L148.856 36.4766C148.859 6.34867 148.889 7.58723 148.132 6.91297C147.968 6.7672 145.158 5.15207 141.887 3.32397C137.934 1.11409 135.786 0 135.48 0C135.17 0 134.913 0.135988 134.693 0.415693ZM21.0551 27.8769C20.6826 27.9731 1.11865 39.2353 0.732252 39.5761C-0.0243262 40.2429 8.97525e-05 39.6893 8.97525e-05 56.1328C8.97525e-05 71.5212 0.00134992 71.5813 0.326633 71.9954C0.552992 72.2838 0.80172 72.4111 1.13834 72.4111C1.85554 72.4111 13.4396 65.745 14.0014 65.0089L14.4134 64.4692L14.4921 56.6196C14.5679 49.0684 14.5829 48.7538 14.8875 48.3455C15.0616 48.1121 16.4793 47.1846 18.0379 46.2844C21.7285 44.1529 21.5694 44.1616 24.6334 45.9277C28.0964 47.9238 28.1753 47.9799 28.5149 48.6789C28.8121 49.2904 28.8266 49.6685 28.8266 56.7743C28.8266 64.5151 28.8277 64.5293 29.5081 65.277C30.0191 65.8386 41.6026 72.4111 42.0815 72.4111C42.3096 72.4111 42.6635 72.2754 42.868 72.1096L43.2399 71.808L43.2835 56.4521C43.3314 39.591 43.3598 40.138 42.4006 39.4628C41.7263 38.9879 22.9717 28.2116 22.4128 27.9777C21.9012 27.7636 21.5844 27.7401 21.0551 27.8769ZM176.096 30.0232C174.241 31.0915 169.781 33.6581 166.186 35.7269C162.59 37.7956 159.414 39.7141 159.126 39.99C158.82 40.2841 158.544 40.7473 158.46 41.1095C158.274 41.9156 158.274 63.6248 158.46 64.4309C158.544 64.7914 158.821 65.2588 159.126 65.5535C159.414 65.8312 164.044 68.5637 169.415 71.6259C178.134 76.5961 179.258 77.195 179.896 77.2081C180.543 77.2213 181.179 76.9071 186.669 73.86C190.002 72.0104 192.852 70.352 193.004 70.1746C193.385 69.7287 193.35 69.0617 192.925 68.6626C192.73 68.4795 188.353 65.9048 183.198 62.9413C178.043 59.9777 173.633 57.4389 173.397 57.2994C173.161 57.16 172.895 56.8364 172.806 56.5804C172.604 56.0006 172.59 49.3852 172.789 48.86C172.893 48.5856 173.863 47.9425 176.252 46.5622C178.077 45.5081 179.702 44.6456 179.862 44.6456C180.157 44.6456 186.108 47.9972 186.672 48.4814C186.956 48.7246 186.979 48.9673 186.979 51.7329C186.979 53.3768 187.047 54.9001 187.129 55.1181C187.33 55.6474 187.987 56.0634 188.435 55.9452C188.63 55.8936 191.518 54.2626 194.852 52.3206C200.551 49.0007 200.935 48.7492 201.271 48.1127C201.608 47.4745 201.628 47.2557 201.628 44.299C201.628 40.3702 201.601 40.2959 199.702 39.1553C197.418 37.7833 181.869 28.7635 181.188 28.4156C180.03 27.8242 179.777 27.904 176.096 30.0232ZM63.7965 33.9316C58.3817 37.0581 53.7608 39.8212 53.528 40.0717C53.295 40.3221 53.0296 40.7971 52.9381 41.1271C52.7086 41.9547 52.7086 63.5856 52.9381 64.4132C53.0296 64.7433 53.295 65.2162 53.528 65.4642C53.7608 65.7121 58.3463 68.4525 63.7178 71.5538C72.3382 76.531 73.5766 77.2003 74.2718 77.259C75.0287 77.3228 75.1644 77.2649 77.7454 75.7753C93.402 66.7402 95.1935 65.6772 95.5125 65.2331L95.8523 64.7598V52.7702V40.7805L95.5141 40.3059C95.1904 39.8512 92.7397 38.3941 79.014 30.4955C75.5059 28.4768 75.0159 28.2392 74.3671 28.2429C73.7034 28.2465 72.8026 28.7314 63.7965 33.9316ZM130.665 46.8255L134.13 48.842V53.0734V57.3046L130.761 59.2575C128.908 60.3315 127.275 61.2103 127.133 61.2103C126.797 61.2103 120.329 57.4924 120.071 57.1513C119.787 56.7747 119.791 49.3957 120.075 49.0059C120.246 48.7724 126.892 44.8141 127.12 44.8103C127.164 44.8097 128.759 45.7165 130.665 46.8255ZM178.315 48.7708C177.579 49.2031 176.709 49.7318 176.381 49.9457L175.787 50.3349L175.83 52.7249L175.874 55.1151L177.843 56.2653C178.926 56.8981 179.886 57.4176 179.977 57.4198C180.068 57.4222 181.025 56.9093 182.103 56.2802L184.065 55.1364L184.108 52.673L184.151 50.2098L182.179 49.0842C181.094 48.4651 180.083 47.9646 179.931 47.9718C179.778 47.9792 179.052 48.3387 178.315 48.7708ZM98.6089 73.9691C97.9446 74.1879 97.2443 74.5809 88.0549 79.8906C81.9382 83.4249 78.973 85.2252 78.5732 85.6477C77.4702 86.8132 77.4852 86.6184 77.5353 99.0907L77.5797 110.194L78.0482 111.041C78.628 112.09 78.8356 112.246 82.1412 114.122C85.636 116.106 86.177 116.312 88.094 116.392C90.235 116.48 91.1477 116.183 92.3197 115.014C93.8851 113.453 93.7947 114.268 93.8475 101.224C93.8814 92.8298 93.8461 89.8308 93.7114 89.6685C93.4754 89.3835 90.8862 89.3585 90.6068 89.6383C90.4635 89.7819 90.4176 92.4418 90.4171 100.642C90.4167 111.219 90.4096 111.468 90.098 111.98C89.8987 112.307 89.5007 112.627 89.0361 112.832C87.8713 113.348 87.0993 113.108 83.7623 111.188L80.9642 109.579L81.0047 98.6962L81.0452 87.8137L90.2602 82.483C95.3285 79.5512 99.5462 77.1519 99.6328 77.1513C99.7195 77.1505 103.937 79.5483 109.005 82.4794L118.22 87.8086L118.261 98.6962L118.301 109.584L109.108 114.898C104.052 117.821 99.7837 120.212 99.6238 120.212C99.4638 120.212 98.2469 119.564 96.9195 118.771L94.5061 117.33L93.1314 117.964C92.3753 118.313 91.5971 118.646 91.4023 118.706C90.6495 118.934 90.7909 119.047 94.9072 121.486L98.2151 123.446H99.6328H101.051L110.5 117.963C115.697 114.947 120.192 112.251 120.488 111.971C120.785 111.691 121.175 111.142 121.356 110.75C121.681 110.047 121.686 109.87 121.686 98.6779V87.3193L121.332 86.5999C121.137 86.2041 120.783 85.6944 120.544 85.467C120.17 85.11 103.319 75.2621 101.44 74.3018C100.707 73.9275 99.2537 73.7566 98.6089 73.9691ZM103.02 88.979C100.706 89.214 99.1566 89.794 97.9125 90.8909C96.7922 91.8785 96.3601 92.8555 96.2785 94.5852C96.1932 96.3945 96.5405 97.321 97.6928 98.3586C98.9558 99.4959 100.503 99.9578 104.831 100.49C107.741 100.847 108.848 101.087 109.756 101.556C110.479 101.931 110.782 102.673 110.579 103.573C110.232 105.116 109.022 105.699 105.923 105.819C102.453 105.953 100.405 105.382 99.6443 104.069C99.4343 103.707 99.2132 103.141 99.153 102.811C98.9844 101.888 98.7579 101.754 97.3676 101.754C95.6853 101.754 95.5382 101.882 95.6642 103.234C95.9717 106.531 98.4684 108.496 103.02 109.021C107.137 109.496 110.851 108.68 112.683 106.897C114.77 104.865 114.929 101.373 113.023 99.4515C111.799 98.2188 110.227 97.7294 104.967 96.9444C101.781 96.4691 100.759 96.1915 100.225 95.657C99.8836 95.3149 99.8412 95.1589 99.906 94.4839C100.033 93.159 100.936 92.5359 103.115 92.2688C104.745 92.0692 107.1 92.2852 108.094 92.7257C108.948 93.104 109.723 93.9812 109.971 94.8496C110.077 95.2198 110.23 95.6115 110.312 95.7199C110.487 95.9509 113.05 95.9944 113.4 95.7724C113.564 95.6686 113.598 95.4154 113.532 94.7888C113.341 92.961 112.3 91.2044 110.872 90.302C109.215 89.254 105.866 88.6899 103.02 88.979Z" fill="url(#paint0_linear)"/>
<defs>
<linearGradient id="paint0_linear" x1="100.814" y1="0" x2="100.814" y2="123.446" gradientUnits="userSpaceOnUse">
<stop stop-color="#767676"/>
<stop offset="1" stop-color="#767676" stop-opacity="0.5"/>
</linearGradient>
</defs>
</svg>
