<svg width="241" height="123" viewBox="0 0 241 123" fill="none" xmlns="http://www.w3.org/2000/svg">
<path fill-rule="evenodd" clip-rule="evenodd" d="M107.56 0.318329C81.5229 1.70377 56.6476 7.61241 37.1289 17.0475C19.8302 25.4095 7.08131 37.1789 2.37267 49.1339C-5.74074 69.7337 7.24806 90.9633 36.8279 105.449C54.8904 114.295 76.2638 119.706 102.293 122.023C108.21 122.55 132.547 122.548 138.411 122.021C149.881 120.989 159.572 119.555 168.463 117.572C208.69 108.599 236.055 89.3587 240.296 67.0648C240.851 64.1483 240.862 58.7049 240.32 55.6689C236.227 32.7475 206.749 12.7625 164.446 4.22948C147.057 0.721522 126.519 -0.690559 107.56 0.318329ZM120.051 14.7539C120.051 14.994 117.198 29.9508 116.88 31.3774L116.728 32.0585L123.582 32.0615C137.459 32.0679 142.942 33.2018 146.401 36.7803C148.433 38.8837 149.069 40.8618 149.067 45.0745C149.066 48.2558 148.801 49.9101 145.991 64.2957C144.3 72.9529 142.855 80.2064 142.78 80.4143C142.676 80.7025 140.949 80.7927 135.537 80.7927H128.431L128.608 79.9603C130.091 73.0043 134.496 49.1694 134.492 48.1323C134.482 46.1324 133.606 44.384 132.301 43.7614C130.439 42.873 128.276 42.6529 121.401 42.6529H114.706L112.576 53.6257C111.405 59.6608 109.743 68.2423 108.883 72.6956L107.32 80.7927H100.256C93.6795 80.7927 93.2018 80.7561 93.3246 80.263C93.3972 79.9718 96.2909 65.0564 99.7552 47.1177L106.054 14.5021H113.052C116.902 14.5021 120.051 14.6156 120.051 14.7539ZM77.6116 32.3703C83.7235 33.0144 87.7323 34.6838 91.0362 37.9602C94.7528 41.6458 96.1663 45.7658 95.8662 52.0365C95.4788 60.1234 92.5695 66.9019 87.1947 72.2412C80.1838 79.2057 74.6345 80.7676 56.8348 80.7863L50.9565 80.7927L49.2866 89.4952L47.6167 98.1978L40.4846 98.2789L33.3524 98.36L33.5116 97.6735C33.5992 97.296 36.4525 82.5483 39.8525 64.9011C43.2524 47.2539 46.0916 32.6451 46.1621 32.4369C46.3228 31.9613 73.1931 31.9047 77.6116 32.3703ZM189.88 32.3703C195.971 33.0123 199.982 34.6835 203.298 37.9611C205.837 40.4702 207.043 42.7773 207.808 46.5846C209.143 53.2328 206.989 62.4656 202.689 68.5256C201.004 70.8997 196.485 75.2016 194.3 76.5111C188.981 79.6991 185.167 80.4225 172.249 80.6943L163.195 80.8847L161.595 89.2385C160.715 93.8332 159.933 97.7628 159.856 97.9707C159.75 98.2586 158.032 98.3491 152.67 98.3491H145.623L145.776 97.668C145.86 97.2933 148.712 82.5483 152.113 64.9011C155.515 47.2539 158.357 32.6451 158.428 32.4369C158.592 31.9613 185.461 31.9047 189.88 32.3703ZM56.2478 53.5893C55.0451 59.8107 53.8222 66.1031 53.5302 67.5724C53.0646 69.915 53.0544 70.2649 53.4469 70.4166C53.6931 70.5116 56.6912 70.5137 60.1095 70.4217C66.9813 70.2365 69.6276 69.8006 72.6881 68.3503C77.6035 66.0211 80.9517 59.3593 81.0399 51.7338C81.07 49.1085 80.9944 48.7002 80.17 47.042C79.4838 45.662 78.942 45.0285 77.9126 44.4037C75.4237 42.8932 73.5937 42.5978 65.6904 42.4307L58.4345 42.2773L56.2478 53.5893ZM170.439 43.4484C170.319 44.0931 169.11 50.3414 167.752 57.3337C166.395 64.326 165.353 70.1683 165.436 70.317C165.523 70.471 168.382 70.5095 172.091 70.4063C181.334 70.1493 184.68 69.2945 187.752 66.4055C189.787 64.4904 190.878 62.686 191.953 59.4526C194.34 52.2793 193.62 46.4169 190.097 44.3416C187.632 42.8887 185.768 42.5957 177.936 42.4304L170.658 42.2767L170.439 43.4484Z" fill="url(#paint0_linear)"/>
<defs>
<linearGradient id="paint0_linear" x1="120.36" y1="0" x2="120.36" y2="122.417" gradientUnits="userSpaceOnUse">
<stop stop-color="#767676"/>
<stop offset="1" stop-color="#767676" stop-opacity="0.5"/>
</linearGradient>
</defs>
</svg>
