<svg width="124" height="124" viewBox="0 0 124 124" fill="none" xmlns="http://www.w3.org/2000/svg">
<path fill-rule="evenodd" clip-rule="evenodd" d="M57.1382 0.0711284C43.3444 1.20333 32.8446 6.58834 31.0966 13.4268C30.8805 14.2724 30.864 14.8131 30.864 21.0704V27.8041H46.291H61.7181V29.3115V30.8188H38.0544C15.0719 30.8188 14.3646 30.8256 13.4813 31.0515C7.1745 32.6654 1.98992 41.8747 0.442278 54.213C-0.14841 58.9214 -0.147325 64.3723 0.44505 69.166C1.96281 81.4476 7.17836 90.7146 13.4803 92.3272C14.3266 92.5438 14.8644 92.5602 21.1208 92.5602H27.8509L27.851 90.1785C27.8511 86.1877 28.1841 81.4144 28.6975 78.0479C29.6946 71.5089 31.779 67.0493 35.056 64.4437C37.878 62.2001 41.2178 61.0856 46.7731 60.5339C48.9119 60.3214 57.2447 60.1359 65.0325 60.1274C72.3178 60.1194 76.1209 59.881 79.5121 59.2201C88.5158 57.465 91.6466 52.2265 92.4497 37.5718C92.517 36.3448 92.5721 30.6149 92.5721 24.8388C92.5722 14.8548 92.5607 14.2918 92.3393 13.4258C90.841 7.56426 82.7186 2.59649 71.601 0.741963C68.1504 0.166393 66.697 0.0497842 62.4412 0.00745757C60.2206 -0.0146101 57.8342 0.0139694 57.1382 0.0711284ZM45.9537 9.84966C47.392 10.151 48.9169 11.2753 49.6974 12.6099C50.3644 13.7505 50.5686 15.4861 50.2018 16.8956C49.5797 19.2857 47.2353 21.0511 44.6833 21.0511C41.3108 21.0511 38.5979 17.8394 39.1574 14.5092C39.7009 11.275 42.7566 9.17979 45.9537 9.84966ZM95.5478 34.5872C95.3094 46.5202 93.5638 53.3075 89.6812 57.3979C86.0125 61.2629 80.7343 62.8198 70.3958 63.0865C68.9706 63.1233 63.4928 63.2023 58.2229 63.262C48.26 63.3748 46.7538 63.4491 43.8533 63.9705C36.2264 65.3414 32.982 69.365 31.5931 79.1748C30.9897 83.4374 30.9552 84.3172 30.8983 96.9424C30.8385 110.203 30.8145 109.737 31.6464 111.474C32.9405 114.175 35.263 116.389 38.9256 118.413C46.4699 122.581 58.1942 124.356 69.1905 122.995C81.4624 121.477 90.7279 116.257 92.3393 109.953C92.5558 109.106 92.5722 108.568 92.5722 102.309V95.5749H77.1451H61.7181V94.0675V92.5602H85.3817C108.373 92.5602 109.071 92.5535 109.956 92.3272C112.114 91.775 114.283 90.2433 116.1 87.989C121.831 80.8789 124.606 67.2791 122.991 54.213C122.108 47.0632 119.902 40.671 116.814 36.3115C115.958 35.1037 114.068 33.1739 113.122 32.5411C112.027 31.8097 110.965 31.3101 109.956 31.0518C109.11 30.8352 108.572 30.8188 102.334 30.8188H95.623L95.5478 34.5872ZM80.0937 102.513C82.905 103.245 84.758 106.056 84.2777 108.859C83.8872 111.137 82.2834 112.908 80.0937 113.478C77.6764 114.108 75.0323 112.981 73.7388 110.769C72.8299 109.215 72.8299 106.776 73.7388 105.222C75.0322 103.01 77.6766 101.883 80.0937 102.513Z" fill="url(#paint0_linear)"/>
<defs>
<linearGradient id="paint0_linear" x1="-105.515" y1="-0.000251062" x2="-105.515" y2="123.446" gradientUnits="userSpaceOnUse">
<stop stop-color="#767676"/>
<stop offset="1" stop-color="#767676" stop-opacity="0.5"/>
</linearGradient>
</defs>
</svg>
