<svg width="269" height="97" viewBox="0 0 269 97" fill="none" xmlns="http://www.w3.org/2000/svg">
<path fill-rule="evenodd" clip-rule="evenodd" d="M68.9912 4.37246C59.6675 6.80134 50.8564 9.10012 49.4108 9.48071L46.7826 10.1727L43.8979 15.1379L41.0131 20.1032H35.0123H29.0115L14.5058 34.191C6.52749 41.9393 0 48.374 0 48.4902C0 48.6064 6.50489 55.0101 14.4553 62.7209L28.9106 76.7399L34.9555 76.7556L41.0005 76.7711L43.9134 81.7894L46.8262 86.8074L66.6476 91.9883C77.5493 94.8376 86.5436 97.0916 86.6351 96.9971C86.7263 96.9027 89.1766 88.2243 92.08 77.712L97.3591 58.5988L94.4333 53.7117C92.8243 51.024 91.5094 48.7068 91.5118 48.5625C91.5141 48.4183 92.8312 46.0983 94.4388 43.4071L97.3614 38.5139L92.0458 19.2791C88.1311 5.11398 86.6264 0.0327446 86.3368 0.000219631C86.1202 -0.0239118 78.3149 1.94358 68.9912 4.37246ZM64.4798 27.382C60.2849 34.415 56.4201 40.9045 55.8916 41.8034L54.9301 43.4378L37.5838 43.4286L20.2374 43.4197L31.1065 32.7048L41.9756 21.9902L56.6004 18.3167C64.6441 16.2963 71.4236 14.6322 71.6662 14.6191C71.9719 14.6023 69.766 18.52 64.4798 27.382ZM195.205 21.3492L195.278 25.218L200.074 25.2897L204.871 25.361V21.4208V17.4803H200.002H195.133L195.205 21.3492ZM213.019 23.5131V29.546H210.39H207.762V32.9558V36.3657H210.379H212.995L213.079 49.0216C213.175 63.5807 213.129 63.2646 215.504 65.635C217.664 67.79 219.015 68.1913 224.517 68.3109L229.051 68.4093V64.6181V60.8268L226.937 60.7046C224.669 60.5737 223.706 60.1231 223.076 58.8981C222.833 58.4278 222.75 55.4862 222.747 47.3166L222.743 36.3657H225.766H228.788V32.9558V29.546H225.766H222.743V23.5131V17.4803H217.881H213.019V23.5131ZM85.0907 34.0032L89.2318 48.4209L85.1015 62.8525C82.8302 70.7899 80.8945 77.2841 80.8004 77.2841C80.7063 77.2841 76.7671 70.8009 72.0465 62.8769L63.4635 48.4694L72.0752 34.0244C76.8115 26.0797 80.746 19.5807 80.8183 19.5823C80.8905 19.5839 82.8131 26.0734 85.0907 34.0032ZM172.491 29.0033C170.23 29.7246 168.843 30.6502 166.924 32.7182L165.185 34.5934V32.0698V29.546H160.454H155.723V48.956V68.366H160.585H165.447V56.5144C165.447 43.2127 165.503 42.7201 167.253 40.409C168.704 38.4935 170.722 37.5439 173.326 37.5526C175.011 37.5584 175.574 37.6824 176.892 38.3395C178.784 39.2827 180 40.7786 180.404 42.6624C180.588 43.5193 180.691 48.3648 180.691 56.182V68.366H185.573H190.455L190.347 54.1364C190.254 41.9778 190.176 39.6985 189.811 38.4759C188.319 33.4815 185.257 30.266 180.709 28.9196C178.721 28.3307 174.462 28.374 172.491 29.0033ZM116.892 44.4314C116.972 57.4883 117.037 59.4712 117.421 60.575C119.507 66.569 123.768 69.4755 130.457 69.4669C135.025 69.4609 137.498 68.4174 140.413 65.2667L141.792 63.7758L141.793 66.0709L141.793 68.366H146.393H150.992V48.956V29.546H146.142H141.292L141.208 42.0707C141.113 56.1335 141.133 55.9735 139.155 58.2164C137.29 60.3316 133.942 61.1416 130.755 60.2484C129.226 59.8201 127.248 57.8896 126.843 56.4315C126.649 55.7301 126.552 51.1003 126.551 42.4641L126.55 29.546H121.675H116.801L116.892 44.4314ZM195.211 48.8904L195.278 68.2349L200.074 68.3065L204.871 68.3778V48.962V29.546H200.007H195.143L195.211 48.8904ZM231.707 30.2673C234.954 38.6876 243.24 60.709 243.821 62.4609C244.31 63.9345 244.659 65.6308 244.748 66.964C244.872 68.8148 244.813 69.2644 244.311 70.2986C243.375 72.2292 242.405 72.6612 238.644 72.8217L235.49 72.9562V77.0219V81.0875L239.17 81.162C245.634 81.2928 248.473 80.4837 250.962 77.8003C251.786 76.9127 252.794 75.399 253.426 74.1022C254.237 72.4377 269 30.3155 269 29.6653C269 29.5937 266.669 29.5669 263.82 29.606L258.639 29.6771L255.423 39.6444C253.653 45.1264 251.887 50.9421 251.497 52.5681C251.107 54.1941 250.761 55.4925 250.728 55.4534C250.694 55.4143 250.229 53.8478 249.694 51.9724C249.159 50.097 247.168 44.2839 245.27 39.0543L241.819 29.546H236.624H231.429L231.707 30.2673ZM63.5555 67.7688C68.2634 75.6634 72.067 82.1708 72.0079 82.2298C71.949 82.2888 65.1847 80.6607 56.9762 78.6122L42.0518 74.8873L31.1446 64.164L20.2374 53.4405L37.6166 53.4279L54.9958 53.4151L63.5555 67.7688Z" fill="url(#paint0_linear)"/>
<defs>
<linearGradient id="paint0_linear" x1="134.5" y1="0" x2="134.5" y2="97" gradientUnits="userSpaceOnUse">
<stop stop-color="#767676"/>
<stop offset="1" stop-color="#767676" stop-opacity="0.5"/>
</linearGradient>
</defs>
</svg>
