<svg width="287" height="80" viewBox="0 0 287 80" fill="none" xmlns="http://www.w3.org/2000/svg">
<path fill-rule="evenodd" clip-rule="evenodd" d="M6.77502 6.79739L13.55 13.5948H27.4098H41.2701L45.8404 18.1914L50.4112 22.7885L43.4048 29.8918L36.3984 36.9956L31.6417 32.2133L26.8844 27.4311V23.6502V19.8693H20.0942H13.304V26.2703V32.6714L24.7982 44.1861L36.2929 55.7014L31.5863 60.3911L26.8802 65.0808L34.3186 72.5401L41.7569 80H74.1397H106.523L100.009 73.4641L93.4959 66.9281H70.4966H47.4972L42.0379 61.4442L36.5786 55.9603L38.8972 53.5953L41.2158 51.2303L45.6822 55.6805L50.1485 60.1307H59.5341H68.9202L59.7989 50.9888L50.6776 41.8463L53.0004 39.4771L55.3232 37.1075L64.3473 46.1297L73.3709 55.1524V45.7569V36.3618L69.0785 32.0424L64.786 27.7229L67.1041 25.3584L69.4227 22.9935L74.7916 28.3503L80.1611 33.7067V46.9187V60.1307H86.6901H93.2191V44.3205V28.5098L85.7844 21.0536L78.3496 13.5979L73.6274 18.3054L68.9056 23.0123L57.4547 11.5064L46.0039 0H23.002H0L6.77502 6.79739ZM160.947 26.4926C160.755 26.6839 160.598 31.7553 160.598 37.7616V48.6829L163.863 48.6792C165.659 48.6771 168.303 48.8 169.739 48.9522C171.899 49.1812 172.658 49.0186 174.125 48.0131C176.575 46.3352 177.835 43.7443 177.835 40.3833C177.835 37.2695 176.935 34.7142 175.336 33.2889C173.787 31.9085 170.466 31.5864 168.401 32.6175C167.469 33.0829 166.624 33.4641 166.525 33.4641C166.425 33.4641 166.344 31.817 166.344 29.8039V26.1438H163.82C162.431 26.1438 161.138 26.3007 160.947 26.4926ZM237.902 37.3856V48.6275H240.747H243.593L243.751 45.9237C243.838 44.4361 244.18 43.1299 244.512 43.0201C244.845 42.9109 245.902 44.1208 246.863 45.7098L248.609 48.5976L251.93 48.6128C255.827 48.6301 255.823 48.8016 252.08 43.2486L249.509 39.4348L252.408 36.0575L255.308 32.6797L251.961 32.5208C248.649 32.3634 248.597 32.3822 247.045 34.3216C243.343 38.9454 243.684 39.1509 243.665 32.2876L243.647 26.1438H240.775H237.902V37.3856ZM185.949 27.4159C182.297 28.4225 180.447 30.5961 180.447 33.8787C180.447 35.2481 180.789 36.8586 181.208 37.4567C182.087 38.7122 186.027 40.5239 189.065 41.0688C191.85 41.5686 192.586 42.1856 191.908 43.4536C191.09 44.9835 186.52 44.8141 183.37 43.1373C182.019 42.4183 180.691 41.8301 180.419 41.8301C180.147 41.8301 179.924 43.1153 179.924 44.6855V47.5414L182.631 48.3456C185.783 49.2826 190.981 49.337 193.28 48.457C198.168 46.5846 199.921 42.2416 197.377 38.3033C196.491 36.9323 194.271 35.919 190.112 34.9877C186.878 34.263 185.97 33.2209 187.544 32.0403C188.862 31.051 192.296 31.4316 195.06 32.8737C196.233 33.486 197.315 33.9869 197.464 33.9869C197.613 33.9869 197.665 32.6499 197.579 31.0159C197.435 28.2933 197.305 28.0136 196.026 27.6732C192.869 26.8329 188.47 26.7205 185.949 27.4159ZM107.869 27.5817C107.883 27.7971 109.139 32.5621 110.661 38.1699L113.429 48.366L116.828 48.5187L120.227 48.6719L121.717 42.9339C122.537 39.7783 123.362 37.292 123.551 37.4086C123.739 37.5252 124.552 40.1072 125.356 43.1461L126.819 48.6714L130.222 48.5187L133.625 48.366L136.392 38.1699C137.914 32.5621 139.164 27.7971 139.171 27.5817C139.178 27.3663 137.788 27.1895 136.082 27.1895H132.981L131.547 33.4557C130.759 36.9025 130.02 39.6288 129.906 39.5143C129.791 39.3997 129.233 37.4625 128.665 35.2089C128.097 32.9553 127.401 30.229 127.119 29.1503L126.607 27.1895H123.588H120.569L119.117 32.8622C118.319 35.9822 117.489 38.8214 117.273 39.1718C117.05 39.5326 116.506 37.9247 116.015 35.4593C115.539 33.0677 114.905 30.229 114.607 29.1503L114.063 27.1895H110.953C109.243 27.1895 107.856 27.3663 107.869 27.5817ZM276.902 28.0612C276.71 28.2526 276.554 29.3114 276.554 30.4141C276.554 32.0695 276.372 32.4183 275.509 32.4183C274.638 32.4183 274.464 32.7671 274.464 34.5098C274.464 36.2526 274.638 36.6013 275.509 36.6013C276.466 36.6013 276.554 36.9501 276.554 40.7503C276.554 43.0322 276.787 45.5143 277.073 46.2656C277.694 47.9017 280.383 49.1503 283.284 49.1503C286.489 49.1503 287 48.7801 287 46.4565V44.3969L285.217 44.732C282.921 45.1629 282.299 44.1061 282.299 39.7731V36.6013H284.65H287V34.5098V32.4183H284.65H282.299V30.0654V27.7124H279.775C278.386 27.7124 277.093 27.8693 276.902 28.0612ZM144.936 33.085C142.122 34.5746 140.75 37.0102 140.751 40.5145C140.752 44.1788 142.069 46.5401 144.909 47.9739C147.547 49.3056 152.088 49.5514 155.445 48.5448C157.387 47.9624 157.465 47.8515 157.465 45.669C157.465 43.1399 157.333 43.0698 154.672 44.183C152.052 45.279 149.501 45.1665 147.872 43.8834C147.115 43.2878 146.496 42.582 146.496 42.3148C146.496 42.0465 149.059 41.8301 152.241 41.8301H157.987L157.986 39.6078C157.985 36.5861 156.552 33.9221 154.331 32.8115C151.725 31.5085 147.691 31.6261 144.936 33.085ZM204.51 32.8115C201.651 34.2709 200.613 36.1297 200.414 40.1475C200.273 42.9846 200.445 43.988 201.307 45.3642C202.958 47.999 205.264 49.1461 208.913 49.1477C214.638 49.1498 217.567 46.6384 217.946 41.4039C218.373 35.4865 214.992 31.9326 208.913 31.908C207.438 31.9017 205.522 32.2949 204.51 32.8115ZM225.844 32.3953C222.088 33.5346 220.142 36.3352 220.144 40.6018C220.145 44.1799 221.482 46.5506 224.302 47.9739C226.879 49.2748 230.901 49.5341 233.645 48.5762C235.189 48.0376 235.29 47.8442 235.29 45.439C235.29 42.7195 234.742 42.2641 233.176 43.6826C232.687 44.126 231.451 44.6248 230.431 44.7906C225.686 45.5613 224.094 38.217 228.66 36.6238C229.952 36.1731 230.644 36.2646 232.41 37.1205C233.601 37.6978 234.736 38.1699 234.933 38.1699C235.129 38.1699 235.29 37.0306 235.29 35.6382C235.29 33.1524 235.254 33.096 233.271 32.5009C231.009 31.8227 227.877 31.7783 225.844 32.3953ZM261.145 32.6337C257.978 34.0429 256.183 37.0531 256.183 40.9574C256.183 46.0476 259.964 49.1728 266.059 49.121C267.953 49.1048 270.325 48.8105 271.33 48.4675C272.991 47.9007 273.173 47.6392 273.319 45.6209C273.502 43.0954 273.117 42.9234 270.105 44.183C267.136 45.4248 264.721 45.2 263.08 43.5294L261.667 42.0915L267.544 41.9435L273.42 41.7956L273.418 39.3292C273.415 36.2191 271.915 33.6549 269.508 32.6484C267.276 31.7145 263.226 31.7077 261.145 32.6337ZM151.588 36.7467C152.874 37.7427 152.195 38.1699 149.325 38.1699C146.209 38.1699 145.715 37.4285 148.048 36.2541C149.259 35.645 150.365 35.7987 151.588 36.7467ZM266.513 36.3697C268.36 37.6648 267.885 38.1699 264.818 38.1699C262.426 38.1699 262.013 38.035 262.279 37.3417C262.545 36.6478 264.035 35.714 265.077 35.5885C265.229 35.5707 265.875 35.9221 266.513 36.3697ZM210.881 36.9935C212.973 39.3182 212.324 44.1579 209.837 44.7833C208.012 45.2413 206.915 44.4403 206.357 42.2426C205.269 37.9556 208.437 34.2792 210.881 36.9935ZM171.525 38.2494C173.219 41.2863 170.408 45.6648 167.38 44.7033C166.48 44.4173 166.344 43.9048 166.344 40.7927C166.344 36.9265 166.583 36.5898 169.201 36.7613C170.273 36.8314 170.989 37.2899 171.525 38.2494Z" fill="url(#paint0_linear)"/>
<defs>
<linearGradient id="paint0_linear" x1="143.5" y1="0" x2="143.5" y2="80" gradientUnits="userSpaceOnUse">
<stop stop-color="#767676"/>
<stop offset="1" stop-color="#767676" stop-opacity="0.5"/>
</linearGradient>
</defs>
</svg>
