<svg width="206" height="87" viewBox="0 0 206 87" fill="none" xmlns="http://www.w3.org/2000/svg">
<path fill-rule="evenodd" clip-rule="evenodd" d="M99.4334 0.213387C86.2076 1.98634 76.2975 13.3164 76.2802 26.6841C76.2709 33.7875 78.8484 40.1972 83.7836 45.3444C88.8243 50.6015 95.647 53.4954 103.001 53.4954C110.355 53.4954 117.177 50.6015 122.218 45.3444C128.543 38.7475 131.069 29.7005 129.078 20.7722C126.932 11.1506 119.29 3.29376 109.693 0.841254C106.453 0.0131462 102.659 -0.218912 99.4334 0.213387ZM106.402 1.88557C114.608 3.02145 121.697 8.10099 125.405 15.5016C127.217 19.1182 128.037 22.6232 128.037 26.7457C128.037 30.8543 127.22 34.3758 125.436 37.9499C121.918 44.9982 115.516 49.8491 107.616 51.4514C106.359 51.7062 105.781 51.7427 103.001 51.7427C99.4231 51.7427 98.2904 51.5845 95.4672 50.6907C87.1328 48.0518 80.7962 41.319 78.6756 32.849C77.711 28.9959 77.7107 24.5033 78.6748 20.6423C81.1161 10.8666 89.2281 3.4879 99.2388 1.93765C101.172 1.63819 104.443 1.61443 106.402 1.88557ZM100.58 4.54261C95.5501 5.1806 91.1092 7.28457 87.5901 10.697C86.2576 11.9892 84.4503 14.1562 84.4503 14.4618C84.4503 14.5826 89.805 14.4782 91.2608 14.3291C92.2339 14.2295 92.6709 14.499 92.6513 15.1867C92.6318 15.8751 92.3986 15.9983 90.8445 16.1417C90.0746 16.2129 89.4217 16.289 89.3936 16.311C89.3289 16.3617 97.2953 40.1481 97.4261 40.2949C97.4796 40.3546 98.6149 37.125 99.9491 33.118L102.375 25.8324L100.642 21.0623L98.9085 16.2921L97.5945 16.1614C95.8632 15.9891 95.4677 15.6607 95.8857 14.7423C95.9678 14.5618 96.1355 14.3821 96.2585 14.3432C96.3813 14.3041 97.3503 14.3313 98.4117 14.4035C100.927 14.5748 104.303 14.5737 106.762 14.4007C108.493 14.279 108.766 14.2872 109.043 14.4686C109.27 14.6175 109.357 14.7932 109.357 15.1015C109.357 15.8856 109.16 16.0004 107.558 16.1468C106.747 16.2209 106.114 16.3369 106.114 16.4114C106.114 16.7785 114.093 40.2298 114.171 40.0898C114.288 39.8772 116.896 31.5785 117.324 30.0571C118.578 25.5993 118.248 22.9029 115.983 19.084C114.786 17.0662 114.447 16.367 114.204 15.4163C113.828 13.9473 114.24 12.3842 115.265 11.3923C115.907 10.7715 116.503 10.4922 117.392 10.3957L118.102 10.3186L117.395 9.71669C114.499 7.25457 110.748 5.48421 106.957 4.79038C105.32 4.49054 102.005 4.36185 100.58 4.54261ZM122.614 18.1192C122.608 20.3935 122.368 22.0286 121.748 24.0187C121.389 25.1671 115.463 42.3413 114.472 45.1031C114.09 46.1661 114.093 46.1661 115.644 45.1152C119.413 42.5608 122.525 38.4757 124.056 34.0706C125.939 28.6546 125.638 22.4772 123.247 17.4768L122.618 16.1622L122.614 18.1192ZM82.3974 18.2187C82.2455 18.5626 81.9505 19.3801 81.742 20.0354C78.8136 29.2399 82.2257 39.3543 90.1581 44.9835C91.5882 45.9984 93.3177 46.9315 93.2392 46.6461C93.2049 46.5213 90.8847 40.1373 88.083 32.4595C85.2814 24.7816 82.9182 18.2958 82.8314 18.0465L82.6738 17.5933L82.3974 18.2187ZM99.9955 38.4654C97.7899 44.88 96.7285 48.1356 96.8244 48.1918C97.0973 48.3514 99.4356 48.8041 100.795 48.9606C102.403 49.1456 105.14 49.0524 106.797 48.7559C108 48.5407 110.143 47.9577 110.284 47.8072C110.379 47.7069 103.524 28.8234 103.394 28.8234C103.348 28.8234 101.819 33.1624 99.9955 38.4654ZM0 60.7495V61.3798L0.960995 61.4611C2.97872 61.6319 3.96981 62.3309 4.86205 64.2131C5.19674 64.9193 10.7143 81.6259 12.141 86.2533C12.3596 86.9623 12.3924 87 12.7938 87H13.2164L16.2573 77.8388C17.9298 72.8 19.3229 68.6526 19.3532 68.6222C19.3836 68.5919 20.7522 72.6999 22.3945 77.7511L25.3805 86.9351H25.8132H26.2459L29.903 75.962C31.9144 69.9269 33.7385 64.6384 33.9563 64.2098C34.567 63.0085 35.0518 62.4236 35.7528 62.0421C36.4087 61.6853 37.6312 61.4206 38.6324 61.4189L39.1909 61.4179L39.1513 60.8011L39.1118 60.1842L33.5012 60.1503L27.8906 60.1166V60.748V61.3794L28.9339 61.46C30.1319 61.5524 31.0124 61.891 31.3344 62.3829C31.5941 62.7797 31.6211 63.8088 31.3945 64.6751C31.1656 65.5501 27.1057 77.5721 27.0033 77.6782C26.9539 77.7294 25.6039 73.7969 24.0031 68.9393L21.0927 60.1072L20.5077 60.1457L19.9227 60.1842L16.9423 69.0675L13.9619 77.9506L12.753 74.2618C9.30081 63.7274 9.23271 63.468 9.68869 62.5866C10.0252 61.9363 10.8473 61.5635 12.17 61.4614L13.2318 61.3794V60.7494V60.1193H6.61592H0V60.7495ZM106.114 60.7494V61.3794L107.12 61.4574C109.318 61.628 110.098 62.2555 110.542 64.2098C110.8 65.344 110.8 80.7352 110.542 81.8706C110.098 83.8273 109.275 84.5181 107.252 84.6336L106.114 84.6985V85.3299V85.9611H112.925H119.735V85.3299V84.6985L118.598 84.6336C115.694 84.4679 115.073 83.169 115.067 77.2452L115.065 74.9571L117.887 74.8856C119.827 74.8364 120.971 74.7489 121.551 74.6053C124.535 73.8662 126.578 72.3173 127.469 70.12C127.89 69.0836 128.036 67.1345 127.78 65.9832C127.217 63.4482 125.117 61.4494 122.167 60.6391C120.614 60.2128 118.972 60.1262 112.373 60.1227L106.114 60.1193V60.7494ZM119.328 62.4629C121.975 62.893 123.383 64.9374 123.204 68.0904C123.147 69.1034 123.077 69.3637 122.637 70.2283C122.067 71.3461 121.469 71.884 120.318 72.3151C119.687 72.5514 119.308 72.5857 117.33 72.5857H115.065V67.4563V62.3269L116.784 62.3279C117.729 62.3285 118.874 62.3892 119.328 62.4629ZM45.1439 65.5031C41.3492 66.1301 37.9144 68.5204 36.3498 71.6231C35.6499 73.0109 35.3971 73.9687 35.3211 75.5209C35.2347 77.2839 35.472 78.5235 36.1927 80.075C36.821 81.4276 37.3419 82.1815 38.3361 83.1767C44.5499 89.3969 55.7896 87.0869 58.5916 79.0137C58.9237 78.0568 58.9522 77.8212 58.9522 76.027C58.9522 74.2287 58.9244 73.9995 58.5898 73.0422C57.3101 69.3807 53.8693 66.4565 49.8788 65.6391C48.424 65.341 46.4653 65.2848 45.1439 65.5031ZM184.868 66.0279C184.705 66.4207 184.525 66.7717 184.466 66.8077C184.408 66.8438 183.932 66.6435 183.408 66.3626C182.885 66.0816 182.098 65.76 181.66 65.6476C180.646 65.3879 178.778 65.3853 177.792 65.6423C176.007 66.1079 174.491 67.3051 173.781 68.8118C173.426 69.5635 173.38 69.7939 173.387 70.7677C173.397 72.0878 173.701 72.9832 174.516 74.0838C175.337 75.1933 176.35 75.8706 179.398 77.3494C182.414 78.8129 183.568 79.5464 184.129 80.3567C184.937 81.5245 184.832 82.8701 183.863 83.7712C183.221 84.3676 182.657 84.5745 181.5 84.6376C179.551 84.7438 178.114 84.2334 176.739 82.9461C175.76 82.0289 175.001 80.6471 174.731 79.2891L174.558 78.4171L173.967 78.4557L173.376 78.4943L173.342 82.6173L173.307 86.7403H173.897C174.345 86.7403 174.504 86.6857 174.558 86.513C174.72 85.9923 175.187 85.0342 175.34 84.9071C175.46 84.8072 175.62 84.8571 175.932 85.0917C176.641 85.6249 177.951 86.2237 178.989 86.4894C182.306 87.3388 186.03 85.8173 187.388 83.0582C188.597 80.6012 188.167 78.3355 186.126 76.4082C185.316 75.643 184.899 75.3981 181.808 73.8695C177.461 71.7202 176.796 71.1716 176.774 69.7167C176.761 68.8463 177.231 68.1729 178.176 67.71C178.795 67.4073 179.063 67.3549 179.967 67.3605C181.354 67.369 182.283 67.7116 183.148 68.534C184.016 69.3583 184.527 70.3921 184.911 72.0987C184.985 72.4298 185.038 72.4559 185.637 72.4559H186.284V68.8847V65.3136H185.724C185.167 65.3136 185.162 65.3182 184.868 66.0279ZM202.857 65.9248C202.493 66.9286 202.44 66.9773 202.017 66.7017C199.764 65.2355 196.723 65.0247 194.359 66.1712C193.399 66.6368 192.37 67.6269 191.851 68.5857C191.426 69.3695 191.408 69.462 191.408 70.7677C191.408 72.031 191.438 72.1954 191.821 73.0043C192.302 74.0201 193.175 75.0061 194.229 75.7237C194.639 76.0031 196.038 76.7326 197.337 77.345C200.115 78.6556 201.141 79.2769 201.842 80.074C202.471 80.7898 202.678 81.3766 202.597 82.2195C202.515 83.0774 201.975 83.8351 201.14 84.2658C200.618 84.5352 200.272 84.6061 199.303 84.6423C196.949 84.7303 195.002 83.7619 193.756 81.8827C193.343 81.2597 192.789 79.8023 192.579 78.7865C192.512 78.461 192.454 78.4293 191.924 78.4293H191.343V82.5848V86.7403H191.926C192.307 86.7403 192.51 86.6838 192.51 86.578C192.511 86.3629 193.255 84.7924 193.357 84.7924C193.401 84.7924 193.699 84.973 194.019 85.1938C195.979 86.5434 198.357 87.0283 200.592 86.5337C203.81 85.8215 205.994 83.3576 206 80.4333C206.002 79.3697 205.716 78.4767 205.058 77.4977C204.204 76.2258 203.359 75.6496 199.605 73.7828C197.737 72.853 195.967 71.8838 195.673 71.629C193.386 69.6473 195.387 66.866 198.716 67.3985C200.724 67.7194 201.996 69.0021 202.704 71.417L202.989 72.3909H203.62H204.25V68.8847V65.3786L203.667 65.3404L203.083 65.3021L202.857 65.9248ZM60.0622 66.6772C60.0622 67.056 60.1192 67.2629 60.2243 67.2655C61.0187 67.2852 62.3741 67.566 62.7266 67.7841C62.9734 67.9368 63.2857 68.3116 63.4582 68.6624L63.7593 69.2743V76.027V82.7796L63.435 83.4289C63.0245 84.2508 62.3413 84.62 61.0027 84.7432L60.0622 84.8297V85.3955V85.9611H65.9646H71.867V85.3955V84.8297L70.9265 84.7432C69.5879 84.62 68.9047 84.2508 68.4942 83.4289C68.1879 82.8158 68.1674 82.6401 68.1255 80.2798L68.0812 77.7801L68.5796 77.7803L69.078 77.7806L72.3211 81.8702L75.5642 85.9598L84.9077 85.9605C90.5313 85.9609 94.6888 85.9079 95.3504 85.8273C98.6228 85.4287 101.525 84.0221 103.06 82.0902C103.771 81.196 104.458 79.8305 104.772 78.6891C105.096 77.5093 105.1 74.5471 104.778 73.3649C103.765 69.6387 101.005 67.3464 96.3849 66.3932C95.6088 66.233 94.0793 66.1802 88.8284 66.1323L82.2449 66.0721V66.6495V67.2268L83.3636 67.3715C84.7424 67.5497 85.2043 67.8009 85.5945 68.5853C86.0252 69.4511 86.1298 70.8956 86.1285 75.962C86.1268 82.8461 85.9691 83.743 84.6448 84.4C84.0891 84.6757 83.8197 84.7211 82.7638 84.7176C81.746 84.7141 81.3802 84.6538 80.6627 84.3718C78.8882 83.6739 77.7865 82.7631 74.7385 79.4747C73.2625 77.8822 73.0364 77.5845 73.2439 77.5068C73.3785 77.4564 73.9442 77.2566 74.5011 77.0625C76.2831 76.4415 77.6525 75.186 78.2297 73.6445C78.5958 72.6665 78.6031 71.0869 78.2457 70.1455C77.4487 68.0455 75.2458 66.6048 72.2596 66.2306C71.6386 66.1528 68.7459 66.0928 65.6112 66.0928H60.0622V66.6772ZM129.301 66.1697C129.248 66.2227 129.205 66.4853 129.205 66.7534V67.2409L130.081 67.3275C131.836 67.5011 132.459 67.8572 132.835 68.9002C133.07 69.5496 133.189 81.2445 132.974 82.4126C132.679 84.01 132.028 84.5688 130.243 84.7555L129.27 84.8573L129.23 85.4092L129.19 85.9611H135.165H141.14V85.3955V84.8297L140.199 84.7432C138.224 84.5613 137.586 83.8638 137.372 81.6528C137.308 80.9869 137.253 79.8432 137.251 79.1111L137.248 77.7801L137.799 77.7865L138.351 77.793L141.594 81.8753L144.837 85.9576L157.05 85.9594L169.264 85.9611L169.337 85.2144C169.377 84.8037 169.443 83.8834 169.483 83.1692C169.522 82.455 169.588 81.5347 169.63 81.1239L169.704 80.3772H169.197H168.689L168.382 81.4419C168.015 82.7132 167.498 83.3645 166.592 83.698C165.821 83.9816 161.237 84.1256 160.375 83.8933C159.716 83.7155 159.103 83.1301 158.899 82.4821C158.812 82.2071 158.72 80.8082 158.686 79.2212L158.626 76.442L160.18 76.5137C161.916 76.5938 162.747 76.8561 163.133 77.4457C163.256 77.6334 163.415 78.2764 163.489 78.8862L163.622 79.9876H164.186H164.749V75.5075V71.0274H164.186H163.622L163.489 72.1289C163.415 72.7387 163.256 73.3816 163.133 73.5694C162.748 74.1574 161.915 74.4213 160.193 74.5007L158.652 74.5718V71.221V67.8703L161.409 67.953C165.918 68.0882 166.472 68.3474 167.215 70.6672C167.559 71.7381 167.561 71.7418 168.036 71.7819C168.605 71.8302 168.583 72.0687 168.316 68.7549C168.212 67.4693 168.126 66.3445 168.125 66.2551C168.123 66.1269 166.283 66.0928 159.366 66.0928H150.609V66.6599V67.2268L151.728 67.3715C154.326 67.7071 154.489 68.2183 154.491 76.027C154.493 82.7084 154.312 83.7533 153.045 84.3828C151.322 85.238 148.864 84.3501 146.377 81.9746C145.234 80.8833 142.249 77.6633 142.32 77.5982C142.349 77.572 142.871 77.3796 143.48 77.1706C145.379 76.5195 146.602 75.5221 147.332 74.0286C148.002 72.6566 147.873 70.5265 147.038 69.2094C146.262 67.9838 144.725 66.9696 142.865 66.4547C141.907 66.1897 141.518 66.172 135.625 66.1241C132.2 66.0962 129.354 66.1167 129.301 66.1697ZM49.6089 67.6407C52.9475 68.8202 54.8244 72.5136 54.4582 77.183C54.0479 82.4161 50.2648 85.5814 45.5979 84.5962C43.4458 84.142 41.9308 82.9286 40.945 80.8698C40.0993 79.1036 39.9036 78.1934 39.9036 76.027C39.9036 73.8605 40.0993 72.9504 40.945 71.1841C41.876 69.2398 43.3961 67.956 45.3559 67.4589C46.4251 67.1878 48.5889 67.2802 49.6089 67.6407ZM71.1188 68.0342C72.4517 68.2527 73.2809 68.8231 73.8412 69.9062C74.1744 70.5506 74.3086 72.3596 74.0847 73.1905C73.8318 74.1282 73.1853 74.9385 72.3496 75.3648C71.6556 75.7189 71.4699 75.7518 69.8524 75.8067L68.105 75.8661V71.8884V67.9108L69.2401 67.9116C69.8645 67.912 70.7099 67.9672 71.1188 68.0342ZM94.0471 68.0466C96.8185 68.3313 98.4878 69.4095 99.496 71.5665C100.141 72.9467 100.308 74.0306 100.242 76.4165C100.193 78.2185 100.139 78.6349 99.8398 79.5535C98.8386 82.6251 96.7208 84.0049 92.9989 84.011C91.3719 84.0136 90.8794 83.8726 90.5758 83.3175C90.3733 82.9473 90.3493 82.2146 90.3162 75.4101L90.2798 67.9108H91.5024C92.1749 67.9108 93.32 67.972 94.0471 68.0466ZM141.364 68.2974C142.819 68.9244 143.557 70.3044 143.448 72.1941C143.351 73.8787 142.661 74.952 141.302 75.5345C140.966 75.6784 140.263 75.7619 139.032 75.8043L137.248 75.8654V71.8697V67.8739L138.967 67.9396C140.363 67.993 140.813 68.0603 141.364 68.2974Z" fill="url(#paint0_linear)"/>
<defs>
<linearGradient id="paint0_linear" x1="103" y1="0" x2="103" y2="87" gradientUnits="userSpaceOnUse">
<stop stop-color="#767676"/>
<stop offset="1" stop-color="#767676" stop-opacity="0.5"/>
</linearGradient>
</defs>
</svg>
