<svg width="104" height="101" viewBox="0 0 104 101" fill="none" xmlns="http://www.w3.org/2000/svg">
<path fill-rule="evenodd" clip-rule="evenodd" d="M17.393 0.0258467C16.7607 0.0647105 15.9452 0.158713 15.2891 0.268301C9.1464 1.29474 3.90557 5.42648 1.45892 11.1718C0.777901 12.7709 0.380289 14.2687 0.105892 16.2683C0.0269343 16.8436 0.0202019 19.0908 0.00450931 49.9288C-0.00722299 73.073 0.00361825 83.2167 0.0407953 83.7867C0.384299 89.054 2.81888 93.7033 6.97924 97.037C7.50754 97.4603 8.75938 98.2966 9.4305 98.6745C11.6975 99.9511 14.4377 100.756 17.1703 100.948C18.1458 101.016 85.8251 101.018 86.7968 100.95C92.0562 100.579 96.7362 98.1347 100.016 94.0451C102.311 91.1841 103.681 87.6355 103.949 83.8607C104.018 82.893 104.016 18.0783 103.948 17.1067C103.543 11.3808 100.583 6.27482 95.8297 3.09934C93.1449 1.30588 90.1044 0.274713 86.8215 0.0442429C86.179 -0.000884473 18.121 -0.0188861 17.393 0.0258467ZM39.5431 26.1076C39.6943 26.2582 55.5354 70.3829 55.5354 70.6533C55.5354 70.8265 55.5122 70.8778 55.4015 70.9501C55.2761 71.032 54.9741 71.0385 50.6863 71.0524C48.1665 71.0606 46.0061 71.053 45.8852 71.0357C45.4385 70.9715 45.5487 71.2368 43.5803 65.4815C42.6001 62.6156 41.791 60.3019 41.7822 60.34C41.7685 60.3991 40.5858 60.4092 33.7046 60.4092H25.643L25.5921 60.5695C24.6715 63.4677 22.287 70.7777 22.2312 70.8727C22.1889 70.9447 22.0712 71.0501 21.9698 71.1069C21.7865 71.2096 21.758 71.2102 17.4952 71.2102C13.7557 71.2102 13.1864 71.2006 13.0597 71.1353C12.893 71.0494 12.8385 70.8922 12.8819 70.6222C12.8985 70.5183 16.0392 61.5031 19.8612 50.5884C23.6831 39.6737 26.9232 30.3996 27.0615 29.9791C27.1997 29.5587 27.3469 28.9927 27.3886 28.7215C27.4753 28.1577 27.5657 27.0558 27.5659 26.5615C27.566 26.2711 27.5822 26.2101 27.6881 26.1047L27.8102 25.983L33.6271 25.996C39.3709 26.0087 39.4453 26.0101 39.5431 26.1076ZM33.5337 33.8794C33.5197 33.9179 33.3961 34.4394 33.2589 35.0384C32.8837 36.6765 32.6191 37.6014 31.4574 41.335C29.982 46.0765 30.0334 45.9082 29.6878 47.1423C29.5169 47.7526 29.1062 49.0565 28.7751 50.0398L28.1732 51.8276H33.6615C36.68 51.8276 39.1498 51.811 39.1498 51.7907C39.1498 51.711 38.7393 50.4061 38.3082 49.1151C38.0591 48.3691 37.5684 46.8377 37.2178 45.712C36.8671 44.5863 36.2554 42.6443 35.8585 41.3966C35.4615 40.1488 34.8008 37.9516 34.3903 36.5139C33.9798 35.0763 33.6248 33.8796 33.6015 33.8548C33.5764 33.8279 33.5488 33.838 33.5337 33.8794ZM76.6981 36.5096C78.4701 36.763 80.2517 37.301 81.6414 38.0025C84.63 39.511 86.9123 42.3043 88.1167 45.9274C88.5036 47.0913 88.7523 48.2177 88.9024 49.485C89.0435 50.6761 89.0083 53.1774 88.8235 55.1074C88.6986 56.4116 88.6607 56.4556 87.6056 56.5191C87.2152 56.5425 86.673 56.5848 86.4007 56.613C85.3946 56.7171 83.8885 56.7256 82.9107 56.6326C82.0947 56.555 81.1952 56.5435 74.6561 56.5265L67.3172 56.5074V56.6281C67.3172 56.836 67.4654 57.552 67.6202 58.0912C68.1265 59.8555 69.0844 61.2694 70.4111 62.2106C71.554 63.0213 73.5871 63.7219 75.4852 63.9592C76.8871 64.1343 79.2411 64.0295 81.1286 63.708C81.4417 63.6546 82.0133 63.5574 82.3989 63.4919C83.3509 63.3302 84.1824 63.1185 85.0394 62.8195C85.4342 62.6817 85.8129 62.5658 85.8809 62.5618L86.0047 62.5546V66.2898V70.0249L85.8314 70.1925C85.6415 70.3762 85.0641 70.6265 84.0582 70.9609C82.4339 71.5011 80.0663 71.9331 77.8366 72.0962C76.9427 72.1616 74.1832 72.161 73.2576 72.0953C68.4761 71.7559 64.9866 70.273 62.1673 67.3827C59.45 64.597 57.9086 60.8281 57.5616 56.1215C57.4882 55.1262 57.5269 53.0606 57.6365 52.1236C58.0354 48.7137 59.1047 45.6988 60.8026 43.1967C62.1281 41.2434 63.9055 39.5489 65.8273 38.4061C67.8618 37.1964 69.7045 36.647 72.416 36.4421C73.311 36.3744 76.0549 36.4177 76.6981 36.5096ZM72.713 43.9101C70.7128 44.2373 69.0336 45.5037 68.1335 47.3642C67.9892 47.6626 67.8 48.1151 67.7132 48.3699C67.5435 48.8681 67.3172 49.8591 67.3172 50.1042V50.2546L73.1462 50.2375C78.5307 50.2217 78.9978 50.2138 79.272 50.1338C79.4353 50.0861 79.6357 50.0082 79.7175 49.9607C79.865 49.875 79.8664 49.8702 79.8805 49.39C79.9047 48.5684 79.713 47.8088 79.2594 46.9281C78.4909 45.4364 77.1006 44.3628 75.4389 43.978C74.8755 43.8475 73.3307 43.8091 72.713 43.9101Z" fill="url(#paint0_linear)"/>
<defs>
<linearGradient id="paint0_linear" x1="52" y1="0" x2="52" y2="101" gradientUnits="userSpaceOnUse">
<stop stop-color="#767676"/>
<stop offset="1" stop-color="#767676" stop-opacity="0.5"/>
</linearGradient>
</defs>
</svg>
