<svg width="110" height="91" viewBox="0 0 110 91" fill="none" xmlns="http://www.w3.org/2000/svg">
<path fill-rule="evenodd" clip-rule="evenodd" d="M53.482 0.566821C53.1726 0.939867 52.9523 4.42752 52.8759 10.1689L52.7563 19.1851L37.7461 19.4059C26.3989 19.5728 22.4843 19.7701 21.7051 20.2138C19.5882 21.4208 19.4249 22.7046 19.4249 38.1544V52.5165H10.5954C2.35439 52.5165 1.70718 52.5752 0.88295 53.3994C0.397327 53.8851 0 54.4811 0 54.7239C0 54.9667 0.397327 55.5627 0.88295 56.0483C1.70718 56.8725 2.35439 56.9312 10.5954 56.9312H19.4249V71.2933C19.4249 87.1228 19.5626 88.0808 22.0172 89.3505C23.1942 89.9593 27.1344 90.0419 54.9636 90.0419C84.4603 90.0419 87.9859 90.1089 89.2477 88.452C89.4697 88.1605 89.6217 87.8156 89.8326 87.4076C90.3915 86.3264 90.5024 83.7001 90.5024 71.522V56.9312H99.2334C106.421 56.9312 108.138 56.8098 108.946 56.2439C110.137 55.4095 110.206 54.2299 109.12 53.2471C108.425 52.618 107.074 52.5165 99.4074 52.5165H90.5024V37.9258C90.5024 25.7477 90.3915 23.1213 89.8326 22.0402C88.5091 19.4809 88.0005 19.4059 71.9825 19.4059H57.3917V10.6748C57.3917 3.48674 57.2703 1.76984 56.7044 0.962382C55.9415 -0.127178 54.2321 -0.336878 53.482 0.566821ZM66.9024 34.0766L78.5825 40.8007V46.9089V53.0176L77.5892 52.7306C77.0431 52.573 74.6684 51.8252 72.3132 51.0689C68.2392 49.7613 68.0238 49.6297 67.8984 48.3728C67.7788 47.1769 67.1682 46.7054 61.4339 43.3815L55.1009 39.7111L50.7237 42.1895C48.3163 43.5524 46.2445 44.8331 46.1196 45.0353C45.9946 45.237 50.0196 46.7199 55.0634 48.33C60.1077 49.9405 67.4132 52.2861 71.2982 53.5429L78.3618 55.8276L78.4841 62.1009L78.6064 68.3743L77.1597 69.1204C76.3641 69.531 71.3053 72.4209 65.9179 75.543C60.5302 78.6646 55.8316 81.3307 55.4762 81.4667C55.1084 81.6079 49.771 78.8037 43.0875 74.9576L31.3447 68.1999V62.1243C31.3447 58.7824 31.4935 56.0607 31.6758 56.0761C31.8582 56.0911 34.2916 56.8421 37.0839 57.7449C42.028 59.3435 42.1666 59.4238 42.3816 60.8056C42.5829 62.1009 43.1409 62.5367 48.783 65.8058L54.9636 69.387L56.7295 68.3959C63.2523 64.7352 64.5534 63.8646 63.9675 63.5525C63.6289 63.3719 56.5971 61.1081 48.3415 58.521C40.0859 55.9344 32.8841 53.629 32.338 53.3977C31.3756 52.9902 31.3452 52.7867 31.3527 46.897L31.3606 40.8174L42.9414 34.1229C49.311 30.4406 54.6798 27.4112 54.8723 27.3904C55.0647 27.3697 60.4781 30.3783 66.9024 34.0766Z" fill="url(#paint0_linear)"/>
<defs>
<linearGradient id="paint0_linear" x1="54.9447" y1="0" x2="54.9447" y2="90.0422" gradientUnits="userSpaceOnUse">
<stop stop-color="#767676"/>
<stop offset="1" stop-color="#767676" stop-opacity="0.5"/>
</linearGradient>
</defs>
</svg>
