<svg width="104" height="103" viewBox="0 0 104 103" fill="none" xmlns="http://www.w3.org/2000/svg">
<path fill-rule="evenodd" clip-rule="evenodd" d="M47.7691 0.123021C35.5964 1.14388 24.4169 6.19094 15.693 14.6044C6.87124 23.1121 1.62611 33.7734 0.160134 46.176C0.0549478 47.0667 -0.00454515 49.1261 0.00027156 51.7171C0.00847298 56.169 0.187863 58.1237 0.917008 61.704C3.47429 74.2619 10.654 85.3881 21.1726 93.0932C27.3903 97.648 35.1115 100.944 42.692 102.28C46.1374 102.887 47.594 103 52 103C57.3894 103 60.0524 102.693 64.7589 101.528C77.3585 98.4105 88.519 90.5103 95.6489 79.6618C100.007 73.0304 102.596 66.0554 103.702 57.967C103.949 56.1538 103.993 55.2337 104 51.7171C104.005 49.1261 103.945 47.0667 103.84 46.176C102.374 33.7734 97.1288 23.1121 88.307 14.6044C79.5022 6.11311 68.3759 1.12339 55.996 0.114258C54.0804 -0.0417952 49.6794 -0.037156 47.7691 0.123021ZM70.1107 20.6396C75.5324 22.0257 79.4581 26.5733 79.8162 31.8826C80.1096 36.2333 77.69 40.8234 73.8596 43.1816C71.6847 44.5206 69.895 45.0042 67.101 45.0078C64.3334 45.0113 63.3678 44.746 59.876 43.0222C57.0404 41.6223 55.8452 41.1855 54.1997 40.9473C51.5465 40.5632 48.1387 41.2553 45.7962 42.6538C43.8971 43.7875 42.5736 45.2149 40.9237 47.9084C39.0255 51.0071 37.5034 52.5226 35.1522 53.6548C31.5992 55.3658 27.3951 55.3893 23.7932 53.7186C20.2483 52.0742 17.8865 49.2652 16.9018 45.5225C16.4424 43.7763 16.4134 41.429 16.8305 39.7487C17.5609 36.8057 19.5143 34.0333 22.0657 32.3181C24.5806 30.6277 27.9481 29.7838 30.7805 30.134C32.607 30.3601 33.835 30.7936 36.4485 32.1353C37.7402 32.7983 39.3352 33.5193 39.9929 33.7374C44.3 35.1659 49.4169 34.0289 52.6296 30.9298C53.6791 29.9173 54.4263 28.9335 55.5728 27.0555C56.6157 25.347 57.6108 24.1496 58.7763 23.2008C60.5482 21.7583 62.5771 20.8124 64.8007 20.3921C66.1849 20.1305 68.5503 20.2408 70.1107 20.6396ZM70.681 48.4825C72.6503 49.009 74.8667 50.4515 76.0627 51.9851C77.3917 53.6892 77.9494 55.3093 77.9446 57.4515C77.936 61.1613 75.8651 64.4246 72.5038 66.0249C71.2703 66.6123 70.0261 66.8823 68.5174 66.8901C66.6575 66.8997 65.5569 66.598 63.3258 65.4668C62.2876 64.9404 61.0412 64.3743 60.5562 64.2089C57.1118 63.0334 53.4462 63.867 50.8935 66.4063C50.3207 66.976 49.647 67.7784 49.3964 68.1893C47.7798 70.8406 46.997 71.7671 45.6397 72.6354C42.1907 74.842 37.5984 74.6679 34.316 72.2061C30.9122 69.6532 29.6907 64.9214 31.4437 61.0796C33.0812 57.4914 36.9202 55.1901 40.8695 55.4293C42.29 55.5154 43.3747 55.8393 44.84 56.6153C47.9603 58.2676 49.179 58.6573 51.2189 58.6555C54.7049 58.6522 57.3921 57.1205 59.4352 53.9722C60.6847 52.0469 61.4432 51.079 62.2135 50.4276C63.4321 49.3971 65.013 48.5899 66.385 48.2976C67.1648 48.1315 69.7907 48.2446 70.681 48.4825ZM52.1802 76.0133C53.8996 76.6501 55.4145 78.0973 56.043 79.7032C56.4801 80.8195 56.5436 82.6666 56.1852 83.8347C55.0045 87.6824 50.6741 89.4863 47.0191 87.653C46.1157 87.1998 44.7156 85.7913 44.2737 84.8911C43.7042 83.7307 43.4705 82.3275 43.653 81.1641C44.0921 78.3649 46.1698 76.2447 49.0058 75.7018C49.7046 75.5681 51.4367 75.738 52.1802 76.0133Z" fill="url(#paint0_linear)"/>
<defs>
<linearGradient id="paint0_linear" x1="52" y1="0" x2="52" y2="103" gradientUnits="userSpaceOnUse">
<stop stop-color="#767676"/>
<stop offset="1" stop-color="#767676" stop-opacity="0.5"/>
</linearGradient>
</defs>
</svg>
