<svg width="94" height="94" viewBox="0 0 94 94" fill="none" xmlns="http://www.w3.org/2000/svg">
<path fill-rule="evenodd" clip-rule="evenodd" d="M0 13.8291C0 24.8406 0.04794 27.6302 0.235 27.5204C0.364156 27.4446 0.94564 27.063 1.52712 26.6725C2.10842 26.282 3.58892 25.4001 4.81712 24.7126C11.3187 21.0731 17.8859 18.9111 25.098 18.0356C27.5209 17.7414 33.3999 17.7421 35.814 18.0367C52.2747 20.0466 67.0541 29.9033 73.7454 43.334C75.3444 46.5433 76.6696 50.995 77.0847 54.5505C77.4485 57.665 77.2323 62.8651 76.6171 65.8C74.2391 77.1458 67.0904 86.8158 56.2473 93.3542L55.178 93.9991L74.589 93.9994L94 94V47V0H47H0V13.8291ZM26.602 27.0036C24.5216 27.2256 20.9109 27.9291 18.9384 28.4965C12.2852 30.4107 6.72344 33.5823 2.021 38.1433L0 40.1036V46.9656V53.8276L1.081 52.2159C4.94722 46.4516 10.6496 41.3814 16.6566 38.367C24.0262 34.6691 32.8977 34.6429 41.736 38.2932C50.4278 41.8828 55.5393 49.9309 54.7029 58.7094C54.125 64.7756 51.4325 70.6111 47.4324 74.4672C43.7111 78.0544 39.7844 79.477 34.122 79.289C31.1273 79.1897 29.1564 78.7624 26.9141 77.7263C24.0061 76.3829 22.1065 74.6394 20.9086 72.2144C20.2224 70.8254 20.2102 70.7615 20.2168 68.629C20.2296 64.581 21.6029 61.4004 24.1281 59.5712C25.3056 58.7182 26.6915 58.9096 27.2782 60.006C27.3933 60.2209 27.6369 61.1261 27.8199 62.0174C28.2199 63.9662 28.7565 65.1649 29.6326 66.0671C30.5344 66.9957 31.2781 67.3378 32.6308 67.4463C35.9779 67.7152 40.0171 64.5581 41.7721 60.3017C42.3088 59.0002 42.3438 56.5698 41.8475 55.084C40.9376 52.3606 38.9532 49.8973 36.7328 48.7351C34.2498 47.4352 31.8135 47.276 27.4104 48.1257C22.3466 49.103 18.0134 51.2118 14.8785 54.2245C11.6733 57.3047 10.0561 60.7625 9.67974 65.3403C9.3013 69.945 11.8585 76.1464 15.9131 80.4565C18.624 83.3381 21.8706 85.3633 25.9874 86.7408C35.1526 89.8072 44.9512 88.7507 52.2238 83.9117C58.1277 79.9833 61.9704 73.0331 62.9824 64.4535C63.3161 61.6241 63.1345 56.1872 62.6136 53.4053C60.1196 40.0874 50.1405 29.8292 37.3428 27.4279C35.7399 27.1271 34.3258 27.0222 31.302 26.9793C29.1306 26.9485 27.0156 26.9594 26.602 27.0036ZM0.00639207 86.245L0 94H8.58182H17.1636L15.1148 92.9938C9.44738 90.2107 3.93146 85.0788 0.617392 79.5067L0.0125961 78.49L0.00639207 86.245Z" fill="url(#paint0_linear)"/>
<defs>
<linearGradient id="paint0_linear" x1="47" y1="0" x2="47" y2="94" gradientUnits="userSpaceOnUse">
<stop stop-color="#767676"/>
<stop offset="1" stop-color="#767676" stop-opacity="0.5"/>
</linearGradient>
</defs>
</svg>
