<svg width="105" height="102" viewBox="0 0 105 102" fill="none" xmlns="http://www.w3.org/2000/svg">
<path fill-rule="evenodd" clip-rule="evenodd" d="M17.5831 0.0194056C14.5404 0.202992 11.9685 0.930072 9.48045 2.31008C7.11311 3.62311 4.98626 5.52365 3.38909 7.75328C1.58811 10.2674 0.478078 13.1853 0.0707938 16.4758C-0.0235979 17.2382 -0.0235979 84.6134 0.0707938 85.3758C0.612322 89.7508 2.36846 93.4134 5.36613 96.4197C6.90822 97.9661 8.44968 99.0675 10.3757 99.999C12.3472 100.952 14.1507 101.472 16.457 101.751C17.1595 101.836 18.707 101.84 52.0497 101.84C85.1017 101.84 86.9469 101.836 87.6574 101.753C89.9959 101.482 91.9303 100.917 93.9336 99.9202C95.8069 98.9883 97.2825 97.9229 98.7823 96.4194C101.778 93.4165 103.536 89.7486 104.078 85.3758C104.172 84.6134 104.172 17.2382 104.078 16.4758C103.793 14.1791 103.255 12.3251 102.304 10.3661C99.4119 4.4104 93.5866 0.498761 86.9258 0.0398695C86.3883 0.00281856 18.1912 -0.0172527 17.5831 0.0194056ZM39.6143 25.9643C39.6951 25.9782 39.9705 26.0028 40.2263 26.019C43.2273 26.2086 46.4457 27.089 48.7206 28.3428C52.1607 30.2388 54.5176 33.16 55.5733 36.8364C56.2335 39.1357 56.3919 41.4941 56.063 44.1291C55.6325 47.5774 54.3261 50.2988 51.9943 52.6045C49.854 54.721 47.3243 56.0381 43.9646 56.7851C41.2 57.3998 38.4121 57.581 34.0458 57.43L32.8346 57.3881L32.8218 64.5401L32.8091 71.6922L32.6492 71.8354L32.4893 71.9786H28.1351C25.0483 71.9786 23.7462 71.9627 23.6616 71.9241C23.596 71.8941 23.5178 71.8158 23.4879 71.75C23.4484 71.6629 23.4336 65.4849 23.4336 49.0151C23.4336 27.3121 23.4372 26.3953 23.5217 26.2906C23.6216 26.1669 23.4716 26.1763 26.2242 26.1213C27.0724 26.1044 28.0308 26.0811 28.3539 26.0695C29.2743 26.0364 30.7534 26.0002 32.5643 25.9665C33.4798 25.9494 34.2387 25.9264 34.2507 25.9153C34.2818 25.8867 39.4372 25.9337 39.6143 25.9643ZM34.4247 34.4912C33.59 34.5075 32.9015 34.5241 32.8948 34.528C32.888 34.5319 32.8825 37.8365 32.8825 41.8717V49.2082L33.1151 49.212C33.243 49.2141 33.3917 49.2265 33.4456 49.2398C33.6681 49.2944 37.8205 49.2728 38.3904 49.214C40.4556 49.001 42.4195 48.4472 43.5703 47.7533C44.3499 47.2832 45.3006 46.4286 45.6973 45.8412C46.4895 44.6683 46.8392 43.1843 46.7715 41.2828C46.7039 39.3832 46.0591 37.8589 44.8182 36.6647C43.6601 35.5503 42.0353 34.8792 39.7122 34.5557C39.0517 34.4637 37.0664 34.4395 34.4247 34.4912ZM76.8961 36.7628C76.9634 36.7742 77.2498 36.7975 77.5326 36.8144C78.4496 36.8693 80.1289 37.0773 80.9597 37.2388C81.784 37.3992 82.3927 37.5727 83.3964 37.9333C84.0211 38.1578 84.1999 38.299 84.2841 38.6345C84.3207 38.7798 84.3378 40.0256 84.3378 42.5361C84.3378 45.9138 84.3308 46.236 84.2548 46.3648C84.1638 46.5194 84.0183 46.5686 83.6609 46.5658C83.4843 46.5645 83.3083 46.5028 82.8934 46.297C81.7475 45.7286 80.5511 45.3292 79.0603 45.0173C77.1211 44.6117 75.8259 44.4752 73.9586 44.4798C72.8954 44.4824 71.6123 44.7213 71.0686 45.0179C70.5192 45.3176 70.1316 45.8913 70.0289 46.5567C69.9604 47.0004 70.0596 47.3809 70.3631 47.8386C70.8483 48.5701 71.6314 49.0802 73.6893 50.0053C74.8428 50.5239 75.0006 50.5885 75.876 50.9005C77.549 51.4969 79.6171 52.499 81.3161 53.5367C82.4175 54.2093 83.1273 54.7886 83.8594 55.6124C85.0855 56.9921 85.7569 58.4567 86.0302 60.348C86.1453 61.1444 86.1072 63.0307 85.9604 63.8089C85.6505 65.4513 84.9916 66.9323 84.0177 68.1753C81.8087 70.9949 78.2256 72.5563 73.2732 72.8573C72.5588 72.9007 70.1304 72.8895 69.6748 72.8408C69.5401 72.8263 69.1436 72.7912 68.7935 72.7627C67.3796 72.6474 65.2737 72.2779 64.0359 71.9279C62.9401 71.618 61.6252 71.1138 61.2679 70.8666C61.1678 70.7974 61.0412 70.6479 60.9864 70.5345C60.8887 70.3322 60.8867 70.2504 60.8867 66.4161C60.8867 62.1663 60.8845 62.2032 61.149 62.1366C61.2388 62.114 61.3586 62.1573 61.6051 62.3015C63.8916 63.6389 67.0515 64.6138 70.0664 64.912C70.8111 64.9857 72.5082 65.0116 73.1194 64.9586C75.2882 64.7706 76.3489 64.2092 76.677 63.0753C76.9043 62.2901 76.5745 61.5034 75.7384 60.8366C74.9333 60.1944 74.0073 59.7614 70.5315 58.4016C68.8513 57.7443 67.1176 56.8421 65.6602 55.8667C64.2931 54.9517 63.2845 53.944 62.4189 52.6283C60.2127 49.2744 60.5885 44.3214 63.2947 41.0865C64.2583 39.9346 65.3919 39.0459 66.8265 38.3179C68.6324 37.4016 70.5295 36.9248 73.0774 36.7469C73.6589 36.7063 76.6369 36.7187 76.8961 36.7628Z" fill="url(#paint0_linear)"/>
<defs>
<linearGradient id="paint0_linear" x1="52.0742" y1="0" x2="52.0742" y2="101.84" gradientUnits="userSpaceOnUse">
<stop stop-color="#767676"/>
<stop offset="1" stop-color="#767676" stop-opacity="0.5"/>
</linearGradient>
</defs>
</svg>
