<svg width="513" height="324" viewBox="0 0 513 324" fill="none" xmlns="http://www.w3.org/2000/svg">
<path fill-rule="evenodd" clip-rule="evenodd" d="M0.43042 159.035V318.069H83.8244C134.403 318.069 171.207 317.66 177.354 317.029C204.025 314.292 227.062 304.437 242.218 289.281C252.496 279.003 259.392 266.843 263.605 251.569C265.55 244.516 265.815 241.082 265.841 222.569C265.868 203.736 265.634 200.692 263.573 193.069C259.224 176.986 250.617 162.41 241.387 155.499C233.813 149.829 221.5 145.214 213.286 144.969L209.93 144.868L213.928 143.933C221.802 142.09 232.725 135.852 239.01 129.609C250.131 118.56 255.386 103.963 255.405 84.069C255.417 71.109 254.163 62.999 250.495 52.308C246.51 40.695 242.16 33.836 232.911 24.588C221.724 13.4 211.918 7.954 193.672 2.794C185.997 0.622999 185.126 0.601002 93.1804 0.302002L0.43042 0V159.035ZM332.43 38.069V58.083L398.18 57.826L463.93 57.569V38.069V18.569L398.18 18.312L332.43 18.055V38.069ZM171.813 58.024C176.152 59.674 182.097 65.878 184.56 71.327C186.691 76.04 186.93 77.983 186.93 90.569C186.93 110.55 184.043 118.251 174.43 123.917L169.93 126.569L121.68 126.864L73.4304 127.159V92.114V57.069H121.365C149.409 57.069 170.343 57.465 171.813 58.024ZM388.43 81.104C340.44 84.873 307.373 108.44 289.883 151.338C274.638 188.731 275.372 230.985 291.853 264.812C306.883 295.661 332.255 314.132 370.056 321.745C382.871 324.326 422.259 324.344 434.43 321.774C473.747 313.473 497.51 294.88 506.389 265.471C508.363 258.933 510.599 240.572 509.55 239.522C509.3 239.273 496.633 239.069 481.399 239.069H453.702L453.086 243.563C451.184 257.436 439.59 267.809 421.765 271.586C412.86 273.473 393.717 273.461 385.67 271.563C371.295 268.174 358.96 258.7 353.37 246.755C350.196 239.972 347.476 228.979 347.447 222.819L347.43 219.069H429.411H511.392L512.049 216.449C513.374 211.171 511.629 177.955 509.503 167.992C501.598 130.94 484.315 106.069 456.93 92.333C438.93 83.305 413.497 79.136 388.43 81.104ZM412.542 128.587C423.401 129.732 435.81 137.612 442.05 147.325C445.982 153.446 450.43 167.667 450.43 174.118C450.43 176.028 449.327 176.069 398.521 176.069H346.611L347.989 170.819C351.812 156.255 362.801 140.847 373.636 134.859C382.271 130.088 396.513 126.778 404.43 127.703C405.805 127.864 409.455 128.261 412.542 128.587ZM175.235 178.227C190.739 184.155 198.446 198.131 198.418 220.266C198.399 235.021 195.013 244.6 187.375 251.5C177.532 260.392 172.723 261.052 117.68 261.061L73.4304 261.069V218.516V175.964L122.18 176.272C164.525 176.54 171.496 176.797 175.235 178.227Z" fill="#151515"/>
</svg>
