<svg width="292" height="78" viewBox="0 0 292 78" fill="none" xmlns="http://www.w3.org/2000/svg">
<rect x="1.5" y="1.5" width="289" height="75" rx="12.5" stroke="url(#paint0_linear)" stroke-width="3"/>
<path d="M55.2292 44.083C54.9207 46.722 53.944 48.7612 52.2989 50.2007C50.6652 51.6287 48.4889 52.3427 45.77 52.3427C42.8225 52.3427 40.4577 51.286 38.6755 49.1725C36.9048 47.059 36.0194 44.2316 36.0194 40.6901V38.291C36.0194 35.9719 36.4307 33.9327 37.2532 32.1733C38.0872 30.414 39.2639 29.066 40.7833 28.1292C42.3027 27.181 44.062 26.7069 46.0613 26.7069C48.7117 26.7069 50.8366 27.4494 52.436 28.9346C54.0353 30.4083 54.9664 32.4532 55.2292 35.0694H51.9219C51.6363 33.0816 51.0137 31.6421 50.054 30.751C49.1058 29.8599 47.7749 29.4144 46.0613 29.4144C43.9592 29.4144 42.3084 30.1912 41.1089 31.7449C39.9208 33.2986 39.3267 35.5092 39.3267 38.3767V40.7929C39.3267 43.5004 39.8922 45.6539 41.0232 47.2533C42.1542 48.8526 43.7365 49.6523 45.77 49.6523C47.5978 49.6523 48.9973 49.2411 49.9683 48.4185C50.9508 47.5846 51.602 46.1394 51.9219 44.083H55.2292ZM62.4093 35.7034C63.8145 33.9784 65.6423 33.1158 67.8929 33.1158C71.8114 33.1158 73.7878 35.3264 73.822 39.7476V52H70.6518V39.7304C70.6404 38.3938 70.3319 37.4056 69.7265 36.7659C69.1324 36.1261 68.2013 35.8062 66.9333 35.8062C65.9051 35.8062 65.0026 36.0804 64.2257 36.6288C63.4489 37.1771 62.8434 37.8968 62.4093 38.7879V52H59.2391V25.6787H62.4093V35.7034ZM86.263 52.3427C83.7496 52.3427 81.7047 51.5202 80.1282 49.8751C78.5516 48.2186 77.7634 46.008 77.7634 43.2434V42.6607C77.7634 40.8214 78.1118 39.1821 78.8087 37.7426C79.517 36.2918 80.4995 35.1608 81.7561 34.3496C83.0242 33.5271 84.3951 33.1158 85.8688 33.1158C88.2793 33.1158 90.1529 33.9098 91.4895 35.4978C92.8262 37.0857 93.4945 39.3591 93.4945 42.318V43.6375H80.9336C80.9793 45.4654 81.5105 46.9448 82.5273 48.0758C83.5554 49.1954 84.8578 49.7551 86.4343 49.7551C87.5539 49.7551 88.5021 49.5267 89.2789 49.0697C90.0558 48.6127 90.7355 48.0072 91.3182 47.2533L93.2546 48.7612C91.7009 51.1489 89.3703 52.3427 86.263 52.3427ZM85.8688 35.7205C84.5893 35.7205 83.5154 36.1889 82.6472 37.1257C81.779 38.0511 81.242 39.3534 81.0364 41.0328H90.3243V40.7929C90.2329 39.1821 89.7987 37.9368 89.0219 37.0572C88.2451 36.1661 87.194 35.7205 85.8688 35.7205ZM104.616 49.7551C105.747 49.7551 106.735 49.4124 107.58 48.727C108.426 48.0415 108.894 47.1847 108.986 46.1565H111.985C111.927 47.219 111.562 48.23 110.888 49.1897C110.214 50.1493 109.311 50.9147 108.18 51.4859C107.061 52.0571 105.873 52.3427 104.616 52.3427C102.091 52.3427 100.081 51.503 98.5839 49.8237C97.0988 48.1329 96.3562 45.8252 96.3562 42.9006V42.3694C96.3562 40.5644 96.6875 38.9593 97.3501 37.5541C98.0127 36.149 98.9609 35.0579 100.195 34.2811C101.44 33.5043 102.908 33.1158 104.599 33.1158C106.678 33.1158 108.403 33.7384 109.774 34.9837C111.156 36.2289 111.893 37.8454 111.985 39.8332H108.986C108.894 38.6337 108.437 37.6512 107.615 36.8858C106.804 36.109 105.798 35.7205 104.599 35.7205C102.988 35.7205 101.737 36.3032 100.846 37.4684C99.9663 38.6223 99.5264 40.2959 99.5264 42.4894V43.0891C99.5264 45.2255 99.9663 46.8705 100.846 48.0244C101.726 49.1782 102.982 49.7551 104.616 49.7551ZM120.724 43.4147L118.736 45.4882V52H115.566V25.6787H118.736V41.5983L120.433 39.5591L126.208 33.4586H130.063L122.849 41.2041L130.903 52H127.184L120.724 43.4147ZM142.984 41.9067H137.123V52H133.816V27.0496H142.076C144.886 27.0496 147.045 27.6893 148.553 28.9689C150.073 30.2484 150.832 32.1105 150.832 34.5553C150.832 36.109 150.41 37.4627 149.564 38.6166C148.73 39.7704 147.565 40.6329 146.069 41.2041L151.929 51.7944V52H148.399L142.984 41.9067ZM137.123 39.2163H142.179C143.812 39.2163 145.109 38.7936 146.069 37.9483C147.04 37.1029 147.525 35.9719 147.525 34.5553C147.525 33.013 147.062 31.8306 146.137 31.0081C145.223 30.1855 143.898 29.7685 142.161 29.7571H137.123V39.2163ZM162.656 52.3427C160.143 52.3427 158.098 51.5202 156.522 49.8751C154.945 48.2186 154.157 46.008 154.157 43.2434V42.6607C154.157 40.8214 154.505 39.1821 155.202 37.7426C155.91 36.2918 156.893 35.1608 158.15 34.3496C159.418 33.5271 160.789 33.1158 162.262 33.1158C164.673 33.1158 166.546 33.9098 167.883 35.4978C169.22 37.0857 169.888 39.3591 169.888 42.318V43.6375H157.327C157.373 45.4654 157.904 46.9448 158.921 48.0758C159.949 49.1954 161.251 49.7551 162.828 49.7551C163.947 49.7551 164.896 49.5267 165.672 49.0697C166.449 48.6127 167.129 48.0072 167.712 47.2533L169.648 48.7612C168.094 51.1489 165.764 52.3427 162.656 52.3427ZM162.262 35.7205C160.983 35.7205 159.909 36.1889 159.041 37.1257C158.172 38.0511 157.636 39.3534 157.43 41.0328H166.718V40.7929C166.626 39.1821 166.192 37.9368 165.415 37.0572C164.639 36.1661 163.588 35.7205 162.262 35.7205ZM184.368 47.0819C184.368 46.2251 184.043 45.5625 183.391 45.0941C182.752 44.6143 181.626 44.203 180.016 43.8603C178.416 43.5175 177.142 43.1063 176.194 42.6265C175.257 42.1466 174.56 41.5754 174.103 40.9128C173.658 40.2502 173.435 39.462 173.435 38.548C173.435 37.0286 174.075 35.7434 175.354 34.6924C176.645 33.6413 178.29 33.1158 180.29 33.1158C182.392 33.1158 184.094 33.6585 185.396 34.7438C186.71 35.8291 187.367 37.2171 187.367 38.9079H184.18C184.18 38.0397 183.808 37.2914 183.066 36.663C182.335 36.0347 181.409 35.7205 180.29 35.7205C179.136 35.7205 178.233 35.9719 177.582 36.4745C176.931 36.9772 176.605 37.6341 176.605 38.4452C176.605 39.2106 176.908 39.7876 177.514 40.176C178.119 40.5644 179.21 40.9357 180.787 41.2898C182.375 41.644 183.66 42.0667 184.642 42.5579C185.625 43.0492 186.35 43.6432 186.819 44.3401C187.298 45.0255 187.538 45.8652 187.538 46.8591C187.538 48.5156 186.876 49.8465 185.551 50.8519C184.225 51.8458 182.506 52.3427 180.393 52.3427C178.907 52.3427 177.594 52.08 176.451 51.5545C175.309 51.0289 174.412 50.2978 173.761 49.361C173.121 48.4128 172.801 47.3903 172.801 46.2936H175.971C176.028 47.3561 176.451 48.2015 177.239 48.8298C178.039 49.4467 179.09 49.7551 180.393 49.7551C181.592 49.7551 182.552 49.5152 183.271 49.0354C184.003 48.5442 184.368 47.893 184.368 47.0819ZM203.115 50.1664C201.881 51.6173 200.071 52.3427 197.683 52.3427C195.707 52.3427 194.199 51.7715 193.159 50.6291C192.131 49.4753 191.611 47.7731 191.6 45.5225V33.4586H194.77V45.4368C194.77 48.2472 195.912 49.6523 198.197 49.6523C200.619 49.6523 202.23 48.7498 203.029 46.9448V33.4586H206.2V52H203.184L203.115 50.1664ZM214.014 33.4586L214.1 35.5149C215.459 33.9155 217.293 33.1158 219.6 33.1158C222.194 33.1158 223.959 34.1097 224.895 36.0975C225.512 35.2065 226.312 34.4867 227.294 33.9384C228.288 33.39 229.459 33.1158 230.807 33.1158C234.874 33.1158 236.942 35.2693 237.011 39.5762V52H233.841V39.7647C233.841 38.4395 233.538 37.4513 232.932 36.8001C232.327 36.1375 231.31 35.8062 229.882 35.8062C228.705 35.8062 227.729 36.1604 226.952 36.8687C226.175 37.5655 225.724 38.508 225.598 39.6962V52H222.411V39.8504C222.411 37.1543 221.091 35.8062 218.452 35.8062C216.373 35.8062 214.951 36.6916 214.185 38.4623V52H211.015V33.4586H214.014ZM249.503 52.3427C246.99 52.3427 244.945 51.5202 243.368 49.8751C241.792 48.2186 241.003 46.008 241.003 43.2434V42.6607C241.003 40.8214 241.352 39.1821 242.049 37.7426C242.757 36.2918 243.74 35.1608 244.996 34.3496C246.264 33.5271 247.635 33.1158 249.109 33.1158C251.519 33.1158 253.393 33.9098 254.73 35.4978C256.066 37.0857 256.735 39.3591 256.735 42.318V43.6375H244.174C244.219 45.4654 244.751 46.9448 245.767 48.0758C246.796 49.1954 248.098 49.7551 249.674 49.7551C250.794 49.7551 251.742 49.5267 252.519 49.0697C253.296 48.6127 253.976 48.0072 254.558 47.2533L256.495 48.7612C254.941 51.1489 252.61 52.3427 249.503 52.3427ZM249.109 35.7205C247.829 35.7205 246.756 36.1889 245.887 37.1257C245.019 38.0511 244.482 39.3534 244.277 41.0328H253.564V40.7929C253.473 39.1821 253.039 37.9368 252.262 37.0572C251.485 36.1661 250.434 35.7205 249.109 35.7205Z" fill="url(#paint1_linear)"/>
<defs>
<linearGradient id="paint0_linear" x1="3" y1="75" x2="289" y2="75" gradientUnits="userSpaceOnUse">
<stop stop-color="#4E4E4E"/>
<stop offset="1" stop-color="white"/>
</linearGradient>
<linearGradient id="paint1_linear" x1="3" y1="60" x2="289" y2="60" gradientUnits="userSpaceOnUse">
<stop stop-color="white"/>
<stop offset="1" stop-color="#494949"/>
</linearGradient>
</defs>
</svg>
