<svg width="1025" height="992" viewBox="0 0 1025 992" fill="none" xmlns="http://www.w3.org/2000/svg">
<g clip-path="url(#clip0)">
<rect width="1025" height="992" fill="#FFFA81"/>
<g clip-path="url(#clip1)" filter="url(#filter0_f)">
<path d="M347.635 241.61L297.09 285.153C293.333 288.39 287.482 286.36 286.537 281.492L273.911 216.495C272.965 211.628 277.631 207.555 282.326 209.15L345.497 230.603C350.227 232.21 351.42 238.349 347.635 241.61Z" stroke="#DC51FF" stroke-width="12.9148"/>
<path d="M795.707 705.183L750.997 754.699C747.674 758.38 741.615 757.097 740.069 752.385L719.423 689.474C717.877 684.763 721.998 680.139 726.855 681.135L792.211 694.53C797.105 695.533 799.055 701.476 795.707 705.183Z" stroke="#E57C5E" stroke-width="12.9148"/>
<path d="M209.258 379.467L194.398 444.506C193.294 449.34 187.379 451.177 183.731 447.819L135.008 402.984C131.36 399.626 132.7 393.58 137.425 392.078L201.007 371.875C205.768 370.362 210.371 374.597 209.258 379.467Z" stroke="#469BFF" stroke-width="12.9148"/>
<path d="M969.43 379.706L955.011 444.1C953.925 448.951 947.995 450.807 944.337 447.441L895.779 402.757C892.122 399.391 893.479 393.328 898.223 391.843L961.199 372.133C965.943 370.648 970.516 374.855 969.43 379.706Z" stroke="#E57C5E" stroke-width="12.9148"/>
<path d="M655.776 865.52L595.098 893.251C590.588 895.312 585.535 891.732 585.983 886.794L591.973 820.853C592.421 815.915 598.037 813.304 602.102 816.144L656.79 854.354C660.886 857.215 660.32 863.444 655.776 865.52Z" stroke="#DC51FF" stroke-width="12.9148"/>
<path d="M430.1 63.1874L415.241 128.226C414.137 133.06 408.222 134.897 404.573 131.539L355.851 86.7042C352.202 83.3467 353.543 77.3 358.268 75.7984L421.85 55.595C426.611 54.0821 431.213 58.317 430.1 63.1874Z" stroke="#59B290" stroke-width="12.9148"/>
<path d="M89.3621 530.766L103.312 595.263C104.363 600.122 99.7605 604.296 95.0274 602.777L32.196 582.61C27.463 581.09 26.1494 575.017 29.8316 571.678L78.7127 527.348C82.3949 524.009 88.3112 525.908 89.3621 530.766Z" stroke="#DC51FF" stroke-width="12.9148"/>
<path d="M924.562 541.139L953.082 601.45C955.201 605.932 951.687 611.032 946.744 610.648L880.731 605.519C875.787 605.135 873.103 599.554 875.89 595.452L913.383 540.27C916.191 536.138 922.426 536.622 924.562 541.139Z" stroke="#DC51FF" stroke-width="12.9148"/>
<path d="M616.984 1015.87L602.566 1080.26C601.479 1085.12 595.55 1086.97 591.892 1083.61L543.334 1038.92C539.676 1035.56 541.034 1029.49 545.778 1028.01L608.754 1008.3C613.498 1006.81 618.07 1011.02 616.984 1015.87Z" stroke="#59B290" stroke-width="12.9148"/>
<path d="M977.703 72.4601L980.384 136.983C980.532 140.546 977.763 143.555 974.2 143.703L909.677 146.384C906.114 146.532 903.105 143.763 902.957 140.2L900.276 75.6772C900.128 72.1139 902.897 69.1053 906.46 68.9573L970.983 66.2764C974.546 66.1283 977.555 68.8969 977.703 72.4601Z" stroke="#59B290" stroke-width="12.9148"/>
<path d="M468.272 368.096L510.297 417.729C512.585 420.431 512.27 424.472 509.591 426.787L460.383 469.309C457.666 471.658 453.554 471.337 451.233 468.596L409.208 418.963C406.92 416.261 407.235 412.22 409.914 409.905L459.122 367.383C461.839 365.034 465.951 365.355 468.272 368.096Z" stroke="#59B290" stroke-width="12.9148"/>
<path d="M990.399 799.824L964.108 859.308C962.676 862.547 958.903 864.029 955.65 862.63L895.905 836.938C892.606 835.519 891.098 831.68 892.55 828.395L918.842 768.911C920.273 765.672 924.046 764.191 927.299 765.59L987.044 791.282C990.343 792.701 991.851 796.539 990.399 799.824Z" stroke="#469BFF" stroke-width="12.9148"/>
<path d="M743.528 89.7855L716.513 148.442C715.021 151.681 711.185 153.098 707.946 151.606L649.29 124.59C646.051 123.099 644.634 119.263 646.126 116.024L673.141 57.3676C674.633 54.1284 678.468 52.7119 681.708 54.2038L740.364 81.2189C743.603 82.7108 745.02 86.5462 743.528 89.7855Z" stroke="#FF596A" stroke-width="12.9148"/>
<path d="M370.464 515.571L372.837 580.562C372.966 584.101 370.221 587.083 366.684 587.248L301.72 590.275C298.132 590.442 295.097 587.649 294.966 584.06L292.593 519.068C292.464 515.53 295.208 512.547 298.746 512.382L363.71 509.356C367.298 509.189 370.333 511.981 370.464 515.571Z" stroke="#FF596A" stroke-width="12.9148"/>
<path d="M778.233 865.329L815.409 918.69C817.434 921.596 816.74 925.589 813.855 927.643L760.87 965.353C757.944 967.436 753.881 966.73 751.827 963.783L714.651 910.422C712.627 907.516 713.32 903.523 716.205 901.47L769.191 863.759C772.117 861.676 776.18 862.382 778.233 865.329Z" stroke="#59B290" stroke-width="12.9148"/>
<path d="M582.876 196.314L614.703 253.029C616.436 256.117 615.358 260.025 612.288 261.788L555.896 294.184C552.781 295.973 548.806 294.877 547.048 291.745L515.221 235.03C513.488 231.942 514.565 228.034 517.636 226.27L574.028 193.875C577.142 192.086 581.118 193.182 582.876 196.314Z" stroke="#DC51FF" stroke-width="12.9148"/>
<path d="M226.413 650.066L270.465 697.286C272.898 699.894 272.756 703.98 270.148 706.413L222.928 750.465C220.32 752.898 216.234 752.756 213.801 750.148L169.749 702.928C167.316 700.32 167.458 696.234 170.066 693.801L217.286 649.749C219.894 647.316 223.98 647.458 226.413 650.066Z" stroke="#59B290" stroke-width="12.9148"/>
<path d="M119.76 767.347L99.4772 828.658C98.3571 832.044 94.7043 833.88 91.3184 832.76L30.008 812.477C26.6221 811.357 24.7854 807.704 25.9055 804.318L46.1887 743.008C47.3088 739.622 50.9616 737.785 54.3475 738.905L115.658 759.189C119.044 760.309 120.88 763.962 119.76 767.347Z" stroke="#E57C5E" stroke-width="12.9148"/>
<path d="M1116.66 683.167L1133.87 745.883C1134.81 749.298 1132.82 752.831 1129.41 753.802L1066.87 771.64C1063.42 772.625 1059.83 770.602 1058.88 767.138L1041.67 704.422C1040.73 701.007 1042.72 697.474 1046.12 696.503L1108.66 678.665C1112.12 677.68 1115.71 679.703 1116.66 683.167Z" stroke="#59B290" stroke-width="12.9148"/>
<path d="M99.8951 106.756L88.9878 51.1862C88.4525 48.4591 89.7221 45.6955 92.1398 44.3249L141.831 16.1564C144.27 14.7733 147.324 15.1232 149.388 17.0223L190.837 55.1641C192.9 57.0631 193.502 60.0771 192.326 62.6232L168.377 114.48C167.212 117.003 164.563 118.497 161.801 118.19L105.518 111.93C102.715 111.618 100.438 109.523 99.8951 106.756Z" stroke="#469BFF" stroke-width="12.9148"/>
<path d="M617.732 610.368L574.618 573.652C572.502 571.85 571.776 568.896 572.816 566.319L594.191 513.349C595.24 510.749 597.849 509.123 600.646 509.325L656.826 513.396C659.623 513.598 661.97 515.583 662.634 518.308L676.149 573.806C676.807 576.506 675.663 579.324 673.31 580.802L625.353 610.921C622.965 612.421 619.879 612.197 617.732 610.368Z" stroke="#469BFF" stroke-width="12.9148"/>
<path d="M62.5526 297.778L51.6452 242.208C51.1099 239.481 52.3796 236.717 54.7972 235.347L104.488 207.178C106.928 205.795 109.982 206.145 112.045 208.044L153.494 246.186C155.558 248.085 156.16 251.099 154.984 253.645L131.035 305.501C129.869 308.024 127.22 309.519 124.458 309.212L68.1753 302.952C65.3723 302.64 63.0958 300.545 62.5526 297.778Z" stroke="#59B290" stroke-width="12.9148"/>
<path d="M828.104 297.912L810.219 244.438C809.332 241.785 810.254 238.863 812.503 237.199L857.833 203.665C860.082 202.001 863.147 201.975 865.424 203.599L911.324 236.348C913.602 237.973 914.574 240.88 913.732 243.547L896.77 297.321C895.929 299.989 893.465 301.812 890.667 301.836L834.284 302.321C831.486 302.345 828.992 300.565 828.104 297.912Z" stroke="#59B290" stroke-width="12.9148"/>
<path d="M411.502 735.789L418.787 679.629C419.144 676.873 421.225 674.655 423.953 674.122L480.013 663.173C482.766 662.635 485.55 663.936 486.905 666.391L514.113 715.712C515.467 718.168 515.082 721.217 513.159 723.259L473.996 764.839C472.09 766.862 469.104 767.439 466.582 766.271L415.192 742.479C412.633 741.294 411.139 738.585 411.502 735.789Z" stroke="#DC51FF" stroke-width="12.9148"/>
<path d="M307.372 -25.2545L296.465 -80.8243C295.929 -83.5514 297.199 -86.315 299.617 -87.6856L349.308 -115.854C351.747 -117.237 354.801 -116.887 356.865 -114.988L398.313 -76.8464C400.377 -74.9473 400.979 -71.9334 399.803 -69.3873L375.854 -17.5308C374.689 -15.0078 372.04 -13.5133 369.278 -13.8205L312.995 -20.0804C310.192 -20.3922 307.915 -22.487 307.372 -25.2545Z" stroke="#FF596A" stroke-width="12.9148"/>
<path d="M673.999 417.426L663.092 361.856C662.557 359.129 663.826 356.366 666.244 354.995L715.935 326.827C718.375 325.444 721.428 325.793 723.492 327.692L764.941 365.834C767.004 367.733 767.606 370.747 766.43 373.293L742.481 425.15C741.316 427.673 738.667 429.167 735.905 428.86L679.622 422.6C676.819 422.288 674.542 420.194 673.999 417.426Z" stroke="#FF596A" stroke-width="12.9148"/>
<path d="M423.662 968.822L375.711 939.158C373.331 937.686 372.171 934.85 372.835 932.132L386.229 877.361C386.894 874.643 389.233 872.663 392.023 872.455L448.253 868.268C451.042 868.061 453.649 869.673 454.708 872.262L476.066 924.446C477.126 927.035 476.398 930.012 474.263 931.82L431.233 968.258C429.098 970.066 426.042 970.294 423.662 968.822Z" stroke="#E57C5E" stroke-width="12.9148"/>
<path d="M184.521 940.899L173.396 885.621C172.844 882.879 174.121 880.093 176.558 878.721L225.692 851.058C228.13 849.686 231.174 850.039 233.233 851.934L274.724 890.115C276.783 892.009 277.388 895.013 276.222 897.557L252.731 948.816C251.566 951.359 248.895 952.863 246.116 952.54L190.107 946.039C187.328 945.717 185.073 943.641 184.521 940.899Z" stroke="#DC51FF" stroke-width="12.9148"/>
</g>
<g filter="url(#filter1_f)">
<path d="M252.173 465.549L246.205 516.86C245.761 520.674 241.363 522.585 238.272 520.308L196.999 489.894C193.908 487.616 194.431 482.849 197.942 481.296L245.184 460.399C248.722 458.834 252.62 461.706 252.173 465.549Z" stroke="#DC51FF" stroke-width="10"/>
<path d="M831.531 39.1223L856.787 84.1844C858.664 87.5336 856.223 91.6611 852.384 91.6289L801.117 91.1981C797.278 91.1658 794.906 86.9978 796.839 83.6807L822.849 39.0493C824.797 35.7072 829.639 35.7479 831.531 39.1223Z" stroke="#DC51FF" stroke-width="10"/>
<path d="M788.173 453.699L788.66 505.354C788.696 509.193 784.571 511.639 781.22 509.765L736.471 484.745C733.12 482.872 733.044 478.077 736.334 476.097L780.595 449.462C783.909 447.467 788.136 449.831 788.173 453.699Z" stroke="#E57C5E" stroke-width="10"/>
<path d="M277.336 132.944L282.927 183.733C283.348 187.559 279.47 190.406 275.946 188.858L229.166 168.306C225.642 166.758 225.116 161.975 228.218 159.698L269.407 129.461C272.51 127.183 276.914 129.118 277.336 132.944Z" stroke="#DC51FF" stroke-width="10"/>
<path d="M283.841 601.671L309.475 646.519C311.38 649.852 308.974 654 305.134 654H253.866C250.026 654 247.62 649.852 249.525 646.519L275.159 601.671C277.079 598.312 281.921 598.312 283.841 601.671Z" stroke="#469BFF" stroke-width="10"/>
<path d="M127.731 904.5L129.805 956.116C129.959 959.952 125.912 962.524 122.504 960.754L77.0081 937.12C73.601 935.351 73.3772 930.56 76.6045 928.48L120.027 900.498C123.278 898.403 127.576 900.635 127.731 904.5Z" stroke="#469BFF" stroke-width="10"/>
<path d="M137.266 16.12L139.833 67.7136C140.024 71.5482 136.001 74.1581 132.577 72.4209L86.8572 49.223C83.4334 47.4858 83.1639 42.6978 86.3712 40.5873L129.524 12.1916C132.755 10.0652 137.074 12.2564 137.266 16.12Z" stroke="#469BFF" stroke-width="10"/>
<path d="M772.83 157.5L798.378 201.75C800.302 205.083 797.897 209.25 794.048 209.25H742.952C739.103 209.25 736.698 205.083 738.622 201.75L764.17 157.5C766.094 154.167 770.906 154.167 772.83 157.5Z" stroke="#E57C5E" stroke-width="10"/>
<path d="M793.102 644.495L773.068 692.109C771.58 695.648 766.823 696.258 764.489 693.209L733.328 652.498C730.995 649.449 732.826 645.016 736.631 644.503L787.825 637.601C791.658 637.084 794.602 640.929 793.102 644.495Z" stroke="#DC51FF" stroke-width="10"/>
<path d="M243.841 305.671L269.475 350.519C271.38 353.852 268.974 358 265.134 358H213.866C210.026 358 207.62 353.852 209.525 350.519L235.159 305.671C237.079 302.312 241.921 302.312 243.841 305.671Z" stroke="#59B290" stroke-width="10"/>
<path d="M283.203 763.848L324.969 793.282C328.115 795.499 327.681 800.291 324.188 801.907L277.814 823.36C274.32 824.976 270.388 822.204 270.735 818.371L275.343 767.484C275.69 763.65 280.057 761.63 283.203 763.848Z" stroke="#DC51FF" stroke-width="10"/>
<path d="M759.246 309.804L807.118 329.214C810.676 330.657 811.348 335.405 808.33 337.778L768.028 369.468C765.01 371.841 760.554 370.068 759.992 366.27L752.422 315.17C751.855 311.344 755.661 308.35 759.246 309.804Z" stroke="#DC51FF" stroke-width="10"/>
<path d="M849.83 750.5L875.378 794.75C877.302 798.083 874.897 802.25 871.048 802.25H819.952C816.103 802.25 813.698 798.083 815.622 794.75L841.17 750.5C843.094 747.167 847.906 747.167 849.83 750.5Z" stroke="#59B290" stroke-width="10"/>
<path d="M496.036 6.6066L531.393 41.9645C533.346 43.9171 533.346 47.0829 531.393 49.0355L496.036 84.3934C494.083 86.346 490.917 86.346 488.964 84.3934L453.607 49.0355C451.654 47.0829 451.654 43.9171 453.607 41.9645L488.964 6.6066C490.917 4.65398 494.083 4.65398 496.036 6.6066Z" stroke="#59B290" stroke-width="10"/>
<path d="M57.8657 106.922L103.545 127.264C106.067 128.387 107.201 131.343 106.078 133.866L85.7359 179.544C84.6125 182.067 81.6569 183.201 79.1343 182.078L33.4555 161.736C30.9329 160.612 29.7986 157.657 30.922 155.134L51.2641 109.455C52.3875 106.933 55.3431 105.798 57.8657 106.922Z" stroke="#59B290" stroke-width="10"/>
<path d="M377.322 452.801L427.29 459.046C430.011 459.386 431.95 461.853 431.638 464.577L425.895 514.606C425.578 517.369 423.067 519.342 420.308 518.997L370.339 512.752C367.619 512.412 365.679 509.944 365.992 507.221L371.735 457.192C372.052 454.429 374.562 452.456 377.322 452.801Z" stroke="#59B290" stroke-width="10"/>
<path d="M918.769 451.823L934.977 499.5C935.86 502.096 934.487 504.918 931.9 505.827L884.388 522.513C881.764 523.435 878.892 522.038 877.997 519.405L861.789 471.728C860.907 469.132 862.279 466.31 864.866 465.401L912.378 448.715C915.002 447.793 917.874 449.19 918.769 451.823Z" stroke="#469BFF" stroke-width="10"/>
<path d="M991.726 780.171L982.457 829.668C981.952 832.363 979.371 834.149 976.671 833.671L927.084 824.9C924.345 824.416 922.528 821.79 923.04 819.056L932.309 769.56C932.814 766.865 935.395 765.079 938.095 765.556L987.682 774.328C990.421 774.812 992.238 777.438 991.726 780.171Z" stroke="#469BFF" stroke-width="10"/>
<path d="M436.37 156.49L451.732 204.076C452.58 206.704 451.138 209.522 448.51 210.37L400.924 225.732C398.296 226.58 395.478 225.138 394.63 222.51L379.268 174.924C378.42 172.296 379.862 169.478 382.49 168.63L430.076 153.268C432.704 152.42 435.522 153.862 436.37 156.49Z" stroke="#FF596A" stroke-width="10"/>
<path d="M360.39 48.6987L342.726 95.4784C341.75 98.0617 338.865 99.3652 336.282 98.3897L289.502 80.7255C286.919 79.7501 285.615 76.865 286.591 74.2816L304.255 27.502C305.23 24.9186 308.115 23.6151 310.699 24.5906L357.478 42.2548C360.062 43.2303 361.365 46.1153 360.39 48.6987Z" stroke="#FF596A" stroke-width="10"/>
<path d="M899.036 150.607L934.393 185.964C936.346 187.917 936.346 191.083 934.393 193.036L899.036 228.393C897.083 230.346 893.917 230.346 891.964 228.393L856.607 193.036C854.654 191.083 854.654 187.917 856.607 185.964L891.964 150.607C893.917 148.654 897.083 148.654 899.036 150.607Z" stroke="#FF596A" stroke-width="10"/>
<path d="M936.207 20.5445L985.42 29.4003C988.138 29.8893 989.944 32.489 989.455 35.2067L980.6 84.4199C980.111 87.1376 977.511 88.9444 974.793 88.4553L925.58 79.5995C922.862 79.1105 921.056 76.5108 921.545 73.7931L930.4 24.5799C930.889 21.8622 933.489 20.0554 936.207 20.5445Z" stroke="#FF596A" stroke-width="10"/>
<path d="M447.053 594.696L482.482 630.482C484.411 632.431 484.411 635.569 482.482 637.518L447.053 673.304C445.097 675.28 441.903 675.28 439.947 673.304L404.518 637.518C402.589 635.569 402.589 632.431 404.518 630.482L439.947 594.696C441.903 592.72 445.097 592.72 447.053 594.696Z" stroke="#FF596A" stroke-width="10"/>
<path d="M227.149 905.555L276.002 917.771C278.662 918.436 280.29 921.119 279.651 923.786L267.927 972.759C267.279 975.464 264.549 977.12 261.851 976.445L212.998 964.229C210.338 963.564 208.71 960.881 209.349 958.214L221.073 909.241C221.721 906.537 224.451 904.88 227.149 905.555Z" stroke="#FF596A" stroke-width="10"/>
<path d="M945.398 598.865L994.559 609.777C997.235 610.371 998.934 613.01 998.367 615.692L987.95 664.96C987.374 667.681 984.689 669.41 981.974 668.807L932.814 657.895C930.137 657.301 928.438 654.662 929.005 651.979L939.423 602.712C939.998 599.991 942.683 598.262 945.398 598.865Z" stroke="#59B290" stroke-width="10"/>
<path d="M400.689 301.42L448.56 317.048C451.166 317.899 452.601 320.69 451.777 323.305L436.631 371.33C435.795 373.982 432.955 375.442 430.311 374.579L382.44 358.952C379.834 358.101 378.399 355.31 379.223 352.695L394.369 304.67C395.205 302.017 398.045 300.557 400.689 301.42Z" stroke="#DC51FF" stroke-width="10"/>
<path d="M459.156 767.982L509.014 771.789C511.767 772 513.829 774.402 513.619 777.156L509.811 827.014C509.601 829.767 507.198 831.829 504.445 831.619L454.587 827.811C451.833 827.601 449.772 825.198 449.982 822.445L453.789 772.587C454 769.833 456.402 767.772 459.156 767.982Z" stroke="#59B290" stroke-width="10"/>
<path d="M439.84 892.656L460.429 938.224C461.566 940.741 460.448 943.703 457.931 944.84L412.363 965.429C409.847 966.566 406.885 965.448 405.748 962.931L385.159 917.363C384.022 914.847 385.14 911.885 387.656 910.748L433.224 890.159C435.741 889.022 438.703 890.14 439.84 892.656Z" stroke="#E57C5E" stroke-width="10"/>
<path d="M101.758 797.218L85.8159 844.613C84.9355 847.23 82.1 848.638 79.4827 847.758L32.0885 831.816C29.4711 830.935 28.0631 828.1 28.9435 825.483L44.8854 778.088C45.7658 775.471 48.6012 774.063 51.2185 774.943L98.6128 790.885C101.23 791.766 102.638 794.601 101.758 797.218Z" stroke="#E57C5E" stroke-width="10"/>
<path d="M960.092 298.944L1002.78 325.656C1005.11 327.11 1005.82 330.165 1004.39 332.504L978.112 375.459C976.66 377.831 973.552 378.563 971.195 377.088L928.506 350.376C926.182 348.921 925.463 345.866 926.894 343.527L953.175 300.573C954.627 298.201 957.735 297.469 960.092 298.944Z" stroke="#59B290" stroke-width="10"/>
<path d="M78.5417 503.627L43.1908 477.684C41.456 476.41 40.7303 474.17 41.3893 472.122L54.9327 430.018C55.5977 427.951 57.521 426.549 59.6926 426.549L103.307 426.549C105.479 426.549 107.402 427.951 108.067 430.018L121.611 472.122C122.27 474.17 121.544 476.41 119.809 477.684L84.4583 503.627C82.6977 504.919 80.3023 504.919 78.5417 503.627Z" stroke="#469BFF" stroke-width="10"/>
<path d="M676.561 113.684L641.239 88.0218C639.487 86.7486 638.754 84.4917 639.423 82.4316L652.915 40.9086C653.584 38.8485 655.504 37.4537 657.67 37.4537L701.33 37.4537C703.496 37.4537 705.416 38.8485 706.085 40.9086L719.577 82.4316C720.246 84.4917 719.513 86.7485 717.761 88.0218L682.439 113.684C680.686 114.958 678.314 114.958 676.561 113.684Z" stroke="#DC51FF" stroke-width="10"/>
<path d="M654.446 523.371L610.629 525.056C608.479 525.138 606.517 523.836 605.758 521.822L590.164 480.434C589.398 478.402 590.032 476.108 591.732 474.757L625.876 447.62C627.576 446.269 629.954 446.17 631.761 447.374L668.56 471.909C670.351 473.103 671.177 475.308 670.611 477.384L659.078 519.689C658.503 521.796 656.628 523.287 654.446 523.371Z" stroke="#469BFF" stroke-width="10"/>
<path d="M127.542 704.627L92.1908 678.684C90.456 677.41 89.7303 675.17 90.3893 673.122L103.933 631.018C104.598 628.951 106.521 627.549 108.693 627.549L152.307 627.549C154.479 627.549 156.402 628.951 157.067 631.018L170.611 673.122C171.27 675.17 170.544 677.41 168.809 678.684L133.458 704.627C131.698 705.919 129.302 705.919 127.542 704.627Z" stroke="#59B290" stroke-width="10"/>
<path d="M593.684 230.731L555.456 209.64C553.56 208.594 552.552 206.445 552.962 204.318L561.207 161.444C561.616 159.317 563.348 157.695 565.498 157.427L608.822 152.02C610.971 151.752 613.049 152.898 613.968 154.859L632.498 194.392C633.418 196.353 632.969 198.684 631.388 200.164L599.517 230.003C597.935 231.484 595.581 231.778 593.684 230.731Z" stroke="#59B290" stroke-width="10"/>
<path d="M599.794 685.659L574.499 649.841C573.258 648.083 573.281 645.728 574.556 643.995L600.756 608.363C602.043 606.613 604.312 605.894 606.371 606.583L647.733 620.42C649.792 621.109 651.171 623.048 651.146 625.219L650.633 669.445C650.608 671.596 649.209 673.491 647.16 674.148L605.405 687.536C603.325 688.203 601.054 687.443 599.794 685.659Z" stroke="#DC51FF" stroke-width="10"/>
<path d="M127.542 319.627L92.1908 293.684C90.456 292.41 89.7303 290.17 90.3893 288.122L103.933 246.018C104.598 243.951 106.521 242.549 108.693 242.549L152.307 242.549C154.479 242.549 156.402 243.951 157.067 246.018L170.611 288.122C171.27 290.17 170.544 292.41 168.809 293.684L133.458 319.627C131.698 320.919 129.302 320.919 127.542 319.627Z" stroke="#FF596A" stroke-width="10"/>
<path d="M568.542 379.627L533.191 353.684C531.456 352.41 530.73 350.17 531.389 348.122L544.933 306.018C545.598 303.951 547.521 302.549 549.693 302.549L593.307 302.549C595.479 302.549 597.402 303.951 598.067 306.018L611.611 348.122C612.27 350.17 611.544 352.41 609.809 353.684L574.458 379.627C572.698 380.919 570.302 380.919 568.542 379.627Z" stroke="#FF596A" stroke-width="10"/>
<path d="M698.018 820.262L655.143 828.502C653.016 828.911 650.867 827.904 649.821 826.007L628.735 787.777C627.689 785.88 627.983 783.525 629.464 781.944L659.307 750.076C660.788 748.495 663.118 748.047 665.079 748.967L704.609 767.502C706.571 768.422 707.717 770.499 707.448 772.649L702.036 815.972C701.767 818.121 700.145 819.853 698.018 820.262Z" stroke="#E57C5E" stroke-width="10"/>
<path d="M854.427 942.693L829.988 978.872C828.776 980.667 826.545 981.477 824.463 980.879L782.503 968.817C780.421 968.218 778.961 966.347 778.887 964.183L777.393 920.548C777.318 918.383 778.647 916.417 780.683 915.678L821.719 900.772C823.755 900.033 826.036 900.688 827.368 902.396L854.225 936.818C855.558 938.526 855.639 940.898 854.427 942.693Z" stroke="#E57C5E" stroke-width="10"/>
<path d="M617.561 975.684L582.239 950.022C580.487 948.749 579.754 946.492 580.423 944.432L593.915 902.909C594.584 900.848 596.504 899.454 598.67 899.454L642.33 899.454C644.496 899.454 646.416 900.848 647.085 902.909L660.577 944.432C661.246 946.492 660.513 948.749 658.761 950.022L623.439 975.684C621.686 976.958 619.314 976.958 617.561 975.684Z" stroke="#DC51FF" stroke-width="10"/>
<path d="M984.518 953.266L942.213 964.058C940.114 964.593 937.91 963.716 936.752 961.886L913.415 924.986C912.257 923.155 912.41 920.787 913.793 919.12L941.675 885.523C943.059 883.856 945.358 883.27 947.371 884.07L987.94 900.206C989.952 901.006 991.221 903.012 991.081 905.173L988.272 948.743C988.133 950.904 986.617 952.731 984.518 953.266Z" stroke="#DC51FF" stroke-width="10"/>
</g>
<rect x="-69" y="-51" width="1162" height="1097" fill="white" fill-opacity="0.54"/>
</g>
<defs>
<filter id="filter0_f" x="-494" y="-547" width="2024.88" height="2026.47" filterUnits="userSpaceOnUse" color-interpolation-filters="sRGB">
<feFlood flood-opacity="0" result="BackgroundImageFix"/>
<feBlend mode="normal" in="SourceGraphic" in2="BackgroundImageFix" result="shape"/>
<feGaussianBlur stdDeviation="18.5" result="effect1_foregroundBlur"/>
</filter>
<filter id="filter1_f" x="-45" y="-72" width="1101" height="1122" filterUnits="userSpaceOnUse" color-interpolation-filters="sRGB">
<feFlood flood-opacity="0" result="BackgroundImageFix"/>
<feBlend mode="normal" in="SourceGraphic" in2="BackgroundImageFix" result="shape"/>
<feGaussianBlur stdDeviation="10.5" result="effect1_foregroundBlur"/>
</filter>
<clipPath id="clip0">
<rect width="1025" height="992" fill="white"/>
</clipPath>
<clipPath id="clip1">
<rect width="1367.67" height="1394.79" fill="white" transform="translate(487.475 -510) rotate(42.6208)"/>
</clipPath>
</defs>
</svg>
