<svg width="1059" height="1080" viewBox="0 0 1059 1080" fill="none" xmlns="http://www.w3.org/2000/svg">
<g clip-path="url(#clip0)">
<rect width="1059" height="1080" fill="#FFF9DA"/>
<path d="M269.184 511.398C272.722 509.834 276.62 512.706 276.173 516.549L270.205 567.86C269.761 571.674 265.363 573.585 262.272 571.308L220.999 540.894C217.908 538.616 218.431 533.849 221.942 532.296L269.184 511.398Z" stroke="#DC51FF" stroke-width="10"/>
<path d="M867.531 50.1223L892.787 95.1844C894.664 98.5336 892.223 102.661 888.384 102.629L837.117 102.198C833.278 102.166 830.906 97.9978 832.839 94.6807L858.849 50.0493C860.797 46.7072 865.639 46.7479 867.531 50.1223Z" stroke="#DC51FF" stroke-width="10"/>
<path d="M804.595 500.462C807.909 498.467 812.136 500.831 812.173 504.699L812.66 556.354C812.696 560.193 808.571 562.639 805.22 560.765L760.471 535.745C757.12 533.872 757.044 529.077 760.334 527.097L804.595 500.462Z" stroke="#E57C5E" stroke-width="10"/>
<path d="M301.336 183.944L306.927 234.733C307.348 238.559 303.47 241.406 299.946 239.858L253.166 219.306C249.642 217.758 249.116 212.976 252.218 210.698L293.407 180.461C296.51 178.183 300.914 180.118 301.336 183.944Z" stroke="#DC51FF" stroke-width="10"/>
<path d="M299.159 652.671C301.079 649.312 305.921 649.312 307.841 652.671L333.475 697.519C335.38 700.852 332.974 705 329.134 705H277.866C274.026 705 271.62 700.852 273.525 697.519L299.159 652.671Z" stroke="#469BFF" stroke-width="10"/>
<path d="M125.255 992.311L127.33 1043.93C127.484 1047.76 123.436 1050.33 120.029 1048.57L74.5323 1024.93C71.1253 1023.16 70.9015 1018.37 74.1288 1016.29L117.551 988.309C120.803 986.214 125.1 988.446 125.255 992.311Z" stroke="#469BFF" stroke-width="10"/>
<path d="M93.9996 36.1335L96.5667 87.7271C96.7575 91.5617 92.7343 94.1717 89.3105 92.4344L43.5905 69.2366C40.1667 67.4993 39.8972 62.7113 43.1044 60.6009L86.2573 32.2052C89.4888 30.0788 93.8073 32.27 93.9996 36.1335Z" stroke="#469BFF" stroke-width="10"/>
<path d="M788.17 208.5C790.094 205.167 794.906 205.167 796.83 208.5L822.378 252.75C824.302 256.083 821.897 260.25 818.048 260.25H766.952C763.103 260.25 760.698 256.083 762.622 252.75L788.17 208.5Z" stroke="#E57C5E" stroke-width="10"/>
<path d="M811.825 688.601C815.658 688.084 818.602 691.929 817.102 695.495L797.068 743.109C795.58 746.648 790.823 747.258 788.489 744.209L757.328 703.498C754.995 700.449 756.826 696.016 760.631 695.503L811.825 688.601Z" stroke="#DC51FF" stroke-width="10"/>
<path d="M259.159 356.671C261.079 353.312 265.921 353.312 267.841 356.671L293.475 401.519C295.38 404.852 292.974 409 289.134 409H237.866C234.026 409 231.62 404.852 233.525 401.519L259.159 356.671Z" stroke="#59B290" stroke-width="10"/>
<path d="M299.343 818.484C299.69 814.65 304.057 812.63 307.203 814.848L348.969 844.282C352.115 846.5 351.681 851.291 348.188 852.907L301.814 874.36C298.32 875.976 294.388 873.204 294.735 869.371L299.343 818.484Z" stroke="#DC51FF" stroke-width="10"/>
<path d="M776.422 366.17C775.855 362.344 779.661 359.35 783.246 360.804L831.118 380.214C834.676 381.657 835.348 386.405 832.33 388.778L792.028 420.468C789.01 422.841 784.554 421.068 783.992 417.27L776.422 366.17Z" stroke="#DC51FF" stroke-width="10"/>
<path d="M865.17 801.5C867.094 798.167 871.906 798.167 873.83 801.5L899.378 845.75C901.302 849.083 898.897 853.25 895.048 853.25H843.952C840.103 853.25 837.698 849.083 839.622 845.75L865.17 801.5Z" stroke="#59B290" stroke-width="10"/>
<path d="M512.964 57.6066C514.917 55.654 518.083 55.654 520.036 57.6066L555.393 92.9645C557.346 94.9171 557.346 98.0829 555.393 100.036L520.036 135.393C518.083 137.346 514.917 137.346 512.964 135.393L477.607 100.036C475.654 98.0829 475.654 94.9171 477.607 92.9645L512.964 57.6066Z" stroke="#59B290" stroke-width="10"/>
<path d="M81.8657 157.922L127.544 178.264C130.067 179.388 131.201 182.343 130.078 184.866L109.736 230.545C108.612 233.067 105.657 234.201 103.134 233.078L57.4554 212.736C54.9328 211.613 53.7985 208.657 54.9219 206.134L75.2641 160.455C76.3874 157.933 79.3431 156.799 81.8657 157.922Z" stroke="#59B290" stroke-width="10"/>
<path d="M395.735 508.192C396.052 505.429 398.562 503.456 401.322 503.801L451.29 510.046C454.011 510.386 455.95 512.854 455.638 515.577L449.895 565.606C449.578 568.369 447.067 570.342 444.308 569.997L394.339 563.752C391.619 563.412 389.679 560.945 389.992 558.221L395.735 508.192Z" stroke="#59B290" stroke-width="10"/>
<path d="M936.378 499.715C939.002 498.793 941.874 500.19 942.769 502.823L958.977 550.5C959.86 553.096 958.487 555.918 955.9 556.827L908.388 573.513C905.764 574.435 902.892 573.038 901.997 570.405L885.789 522.728C884.907 520.132 886.279 517.31 888.866 516.401L936.378 499.715Z" stroke="#469BFF" stroke-width="10"/>
<path d="M1015.73 831.172L1006.46 880.668C1005.95 883.363 1003.37 885.149 1000.67 884.671L951.084 875.9C948.345 875.416 946.528 872.79 947.04 870.056L956.309 820.56C956.814 817.865 959.395 816.079 962.095 816.557L1011.68 825.328C1014.42 825.812 1016.24 828.438 1015.73 831.172Z" stroke="#469BFF" stroke-width="10"/>
<path d="M454.076 204.268C456.704 203.42 459.522 204.862 460.37 207.49L475.732 255.076C476.58 257.704 475.138 260.522 472.51 261.37L424.924 276.732C422.296 277.58 419.478 276.138 418.63 273.51L403.268 225.924C402.42 223.296 403.862 220.478 406.49 219.63L454.076 204.268Z" stroke="#FF596A" stroke-width="10"/>
<path d="M328.518 53.8268L310.854 100.606C309.878 103.19 306.993 104.493 304.41 103.518L257.63 85.8536C255.047 84.8781 253.743 81.9931 254.719 79.4097L272.383 32.63C273.358 30.0466 276.243 28.7432 278.827 29.7187L325.606 47.3828C328.19 48.3583 329.493 51.2434 328.518 53.8268Z" stroke="#FF596A" stroke-width="10"/>
<path d="M915.964 201.607C917.917 199.654 921.083 199.654 923.036 201.607L958.393 236.964C960.346 238.917 960.346 242.083 958.393 244.036L923.036 279.393C921.083 281.346 917.917 281.346 915.964 279.393L880.607 244.036C878.654 242.083 878.654 238.917 880.607 236.964L915.964 201.607Z" stroke="#FF596A" stroke-width="10"/>
<path d="M960.207 71.5446L1009.42 80.4004C1012.14 80.8894 1013.94 83.4891 1013.46 86.2068L1004.6 135.42C1004.11 138.138 1001.51 139.944 998.793 139.455L949.58 130.6C946.862 130.111 945.056 127.511 945.545 124.793L954.4 75.58C954.889 72.8622 957.489 71.0555 960.207 71.5446Z" stroke="#FF596A" stroke-width="10"/>
<path d="M463.947 645.696C465.903 643.72 469.097 643.72 471.053 645.696L506.482 681.482C508.411 683.431 508.411 686.569 506.482 688.518L471.053 724.304C469.097 726.28 465.903 726.28 463.947 724.304L428.518 688.518C426.589 686.569 426.589 683.431 428.518 681.482L463.947 645.696Z" stroke="#FF596A" stroke-width="10"/>
<path d="M251.149 956.555L300.002 968.771C302.662 969.436 304.29 972.119 303.651 974.786L291.927 1023.76C291.279 1026.46 288.549 1028.12 285.851 1027.45L236.998 1015.23C234.338 1014.56 232.71 1011.88 233.349 1009.21L245.073 960.241C245.721 957.537 248.451 955.88 251.149 956.555Z" stroke="#FF596A" stroke-width="10"/>
<path d="M944.237 653.876C944.812 651.155 947.497 649.426 950.212 650.029L999.372 660.941C1002.05 661.535 1003.75 664.174 1003.18 666.857L992.763 716.124C992.188 718.845 989.503 720.574 986.788 719.971L937.628 709.059C934.951 708.465 933.252 705.826 933.819 703.143L944.237 653.876Z" stroke="#59B290" stroke-width="10"/>
<path d="M418.369 355.67C419.205 353.017 422.045 351.557 424.689 352.42L472.56 368.048C475.166 368.899 476.601 371.69 475.777 374.305L460.631 422.33C459.795 424.983 456.955 426.443 454.311 425.58L406.44 409.952C403.834 409.101 402.399 406.31 403.223 403.695L418.369 355.67Z" stroke="#DC51FF" stroke-width="10"/>
<path d="M477.789 823.587C478 820.833 480.402 818.772 483.156 818.982L533.014 822.789C535.767 823 537.829 825.402 537.619 828.156L533.811 878.014C533.601 880.767 531.198 882.829 528.445 882.619L478.587 878.811C475.833 878.601 473.772 876.198 473.982 873.445L477.789 823.587Z" stroke="#59B290" stroke-width="10"/>
<path d="M457.224 941.159C459.741 940.022 462.703 941.14 463.84 943.656L484.429 989.224C485.566 991.741 484.448 994.703 481.931 995.84L436.363 1016.43C433.847 1017.57 430.885 1016.45 429.748 1013.93L409.159 968.363C408.022 965.847 409.14 962.885 411.656 961.748L457.224 941.159Z" stroke="#E57C5E" stroke-width="10"/>
<path d="M125.758 848.218L109.816 895.613C108.935 898.23 106.1 899.638 103.483 898.758L56.0885 882.816C53.4711 881.935 52.0631 879.1 52.9435 876.483L68.8854 829.088C69.7658 826.471 72.6012 825.063 75.2185 825.943L122.613 841.885C125.23 842.766 126.638 845.601 125.758 848.218Z" stroke="#E57C5E" stroke-width="10"/>
<path d="M977.175 351.573C978.627 349.2 981.735 348.468 984.092 349.944L1026.78 376.656C1029.11 378.11 1029.82 381.165 1028.39 383.504L1002.11 426.458C1000.66 428.831 997.552 429.563 995.195 428.087L952.506 401.376C950.182 399.921 949.463 396.866 950.894 394.527L977.175 351.573Z" stroke="#59B290" stroke-width="10"/>
<path d="M108.458 554.627C106.698 555.919 104.302 555.919 102.542 554.627L67.1908 528.684C65.456 527.41 64.7303 525.17 65.3893 523.122L78.9327 481.018C79.5977 478.951 81.521 477.549 83.6926 477.549L127.307 477.549C129.479 477.549 131.402 478.951 132.067 481.018L145.611 523.122C146.27 525.17 145.544 527.41 143.809 528.684L108.458 554.627Z" stroke="#469BFF" stroke-width="10"/>
<path d="M702.561 127.684L667.239 102.022C665.487 100.749 664.754 98.4917 665.423 96.4316L678.915 54.9086C679.584 52.8485 681.504 51.4537 683.67 51.4537L727.33 51.4537C729.496 51.4537 731.416 52.8485 732.085 54.9086L745.577 96.4316C746.246 98.4917 745.513 100.749 743.761 102.022L708.439 127.684C706.686 128.958 704.314 128.958 702.561 127.684Z" stroke="#DC51FF" stroke-width="10"/>
<path d="M683.078 570.689C682.503 572.796 680.628 574.287 678.446 574.371L634.629 576.056C632.479 576.138 630.517 574.836 629.758 572.822L614.164 531.434C613.398 529.402 614.032 527.108 615.732 525.757L649.876 498.62C651.576 497.269 653.954 497.17 655.761 498.374L692.56 522.909C694.351 524.103 695.177 526.308 694.611 528.384L683.078 570.689Z" stroke="#469BFF" stroke-width="10"/>
<path d="M157.458 755.627C155.698 756.919 153.302 756.919 151.542 755.627L116.191 729.684C114.456 728.41 113.73 726.17 114.389 724.122L127.933 682.018C128.598 679.951 130.521 678.549 132.693 678.549L176.307 678.549C178.479 678.549 180.402 679.951 181.067 682.018L194.611 724.122C195.27 726.17 194.544 728.41 192.809 729.684L157.458 755.627Z" stroke="#59B290" stroke-width="10"/>
<path d="M623.517 281.003C621.935 282.484 619.581 282.778 617.684 281.731L579.456 260.641C577.56 259.594 576.552 257.445 576.962 255.318L585.207 212.444C585.616 210.317 587.348 208.695 589.498 208.427L632.822 203.02C634.971 202.752 637.049 203.898 637.968 205.859L656.498 245.392C657.418 247.353 656.969 249.684 655.388 251.164L623.517 281.003Z" stroke="#59B290" stroke-width="10"/>
<path d="M629.405 738.536C627.325 739.203 625.054 738.443 623.794 736.659L598.499 700.841C597.258 699.083 597.281 696.728 598.556 694.995L624.756 659.363C626.043 657.613 628.312 656.894 630.371 657.583L671.733 671.419C673.792 672.108 675.171 674.048 675.146 676.219L674.633 720.444C674.608 722.596 673.209 724.491 671.16 725.148L629.405 738.536Z" stroke="#DC51FF" stroke-width="10"/>
<path d="M157.458 370.627C155.698 371.919 153.302 371.919 151.542 370.627L116.191 344.684C114.456 343.41 113.73 341.17 114.389 339.122L127.933 297.018C128.598 294.951 130.521 293.549 132.693 293.549L176.307 293.549C178.479 293.549 180.402 294.951 181.067 297.018L194.611 339.122C195.27 341.17 194.544 343.41 192.809 344.684L157.458 370.627Z" stroke="#FF596A" stroke-width="10"/>
<path d="M598.458 430.627C596.698 431.919 594.302 431.919 592.542 430.627L557.191 404.684C555.456 403.41 554.73 401.17 555.389 399.122L568.933 357.018C569.598 354.951 571.521 353.549 573.693 353.549L617.307 353.549C619.479 353.549 621.402 354.951 622.067 357.018L635.611 399.122C636.27 401.17 635.544 403.41 633.809 404.684L598.458 430.627Z" stroke="#FF596A" stroke-width="10"/>
<path d="M726.036 866.972C725.767 869.121 724.145 870.854 722.018 871.262L679.143 879.502C677.016 879.911 674.867 878.904 673.821 877.007L652.735 838.777C651.689 836.88 651.983 834.525 653.464 832.944L683.307 801.076C684.788 799.495 687.118 799.047 689.079 799.967L728.609 818.502C730.571 819.422 731.717 821.5 731.448 823.649L726.036 866.972Z" stroke="#E57C5E" stroke-width="10"/>
<path d="M878.427 993.693L853.988 1029.87C852.776 1031.67 850.545 1032.48 848.463 1031.88L806.503 1019.82C804.421 1019.22 802.961 1017.35 802.887 1015.18L801.393 971.548C801.318 969.383 802.647 967.417 804.683 966.678L845.719 951.772C847.755 951.033 850.036 951.688 851.368 953.396L878.225 987.818C879.558 989.526 879.639 991.898 878.427 993.693Z" stroke="#E57C5E" stroke-width="10"/>
<path d="M667.439 1051.68C665.686 1052.96 663.314 1052.96 661.561 1051.68L626.239 1026.02C624.487 1024.75 623.754 1022.49 624.423 1020.43L637.915 978.909C638.584 976.848 640.504 975.454 642.67 975.454L686.33 975.454C688.496 975.454 690.416 976.848 691.085 978.909L704.577 1020.43C705.246 1022.49 704.513 1024.75 702.761 1026.02L667.439 1051.68Z" stroke="#DC51FF" stroke-width="10"/>
<path d="M1020.32 1042.06L978.01 1052.85C975.911 1053.39 973.707 1052.51 972.549 1050.68L949.212 1013.78C948.054 1011.95 948.207 1009.58 949.59 1007.92L977.472 974.32C978.856 972.653 981.155 972.067 983.168 972.867L1023.74 989.003C1025.75 989.803 1027.02 991.809 1026.88 993.97L1024.07 1037.54C1023.93 1039.7 1022.41 1041.53 1020.32 1042.06Z" stroke="#DC51FF" stroke-width="10"/>
</g>
<defs>
<clipPath id="clip0">
<rect width="1059" height="1080" fill="white"/>
</clipPath>
</defs>
</svg>
