<svg width="1059" height="1080" viewBox="0 0 1059 1080" fill="none" xmlns="http://www.w3.org/2000/svg">
<path d="M276.173 516.549L270.205 567.86C269.761 571.674 265.363 573.585 262.272 571.308L220.999 540.894C217.908 538.616 218.431 533.849 221.942 532.296L269.184 511.398C272.722 509.834 276.62 512.706 276.173 516.549Z" stroke="#DC51FF" stroke-width="10"/>
<path d="M812.173 504.699L812.66 556.354C812.696 560.193 808.571 562.639 805.22 560.765L760.471 535.745C757.12 533.872 757.044 529.077 760.334 527.097L804.595 500.462C807.909 498.467 812.136 500.831 812.173 504.699Z" stroke="#E57C5E" stroke-width="10"/>
<path d="M301.336 183.944L306.927 234.733C307.348 238.559 303.47 241.406 299.946 239.858L253.166 219.306C249.642 217.758 249.116 212.976 252.218 210.698L293.407 180.461C296.51 178.183 300.914 180.118 301.336 183.944Z" stroke="#DC51FF" stroke-width="10"/>
<path d="M307.841 652.671L333.475 697.519C335.38 700.852 332.974 705 329.134 705H277.866C274.026 705 271.62 700.852 273.525 697.519L299.159 652.671C301.079 649.312 305.921 649.312 307.841 652.671Z" stroke="#469BFF" stroke-width="10"/>
<path d="M796.83 208.5L822.378 252.75C824.302 256.083 821.897 260.25 818.048 260.25H766.952C763.103 260.25 760.698 256.083 762.622 252.75L788.17 208.5C790.094 205.167 794.906 205.167 796.83 208.5Z" stroke="#E57C5E" stroke-width="10"/>
<path d="M816.811 668.797L796.778 716.412C795.289 719.951 790.532 720.561 788.199 717.512L757.038 676.8C754.704 673.751 756.535 669.319 760.34 668.806L811.534 661.903C815.368 661.386 818.311 665.232 816.811 668.797Z" stroke="#DC51FF" stroke-width="10"/>
<path d="M267.841 356.671L293.475 401.519C295.38 404.852 292.974 409 289.134 409H237.866C234.026 409 231.62 404.852 233.525 401.519L259.159 356.671C261.079 353.312 265.921 353.312 267.841 356.671Z" stroke="#59B290" stroke-width="10"/>
<path d="M253.995 802.639L295.76 832.074C298.906 834.291 298.472 839.083 294.979 840.699L248.605 862.151C245.112 863.767 241.179 860.996 241.526 857.162L246.135 806.275C246.482 802.442 250.849 800.422 253.995 802.639Z" stroke="#DC51FF" stroke-width="10"/>
<path d="M783.246 360.804L831.118 380.214C834.676 381.657 835.348 386.405 832.33 388.778L792.028 420.468C789.01 422.841 784.554 421.068 783.992 417.27L776.422 366.17C775.855 362.344 779.661 359.35 783.246 360.804Z" stroke="#DC51FF" stroke-width="10"/>
<path d="M873.83 801.5L899.378 845.75C901.302 849.083 898.897 853.25 895.048 853.25H843.952C840.103 853.25 837.698 849.083 839.622 845.75L865.17 801.5C867.094 798.167 871.906 798.167 873.83 801.5Z" stroke="#59B290" stroke-width="10"/>
<path d="M520.036 73.6066L555.393 108.964C557.346 110.917 557.346 114.083 555.393 116.036L520.036 151.393C518.083 153.346 514.917 153.346 512.964 151.393L477.607 116.036C475.654 114.083 475.654 110.917 477.607 108.964L512.964 73.6066C514.917 71.654 518.083 71.654 520.036 73.6066Z" stroke="#59B290" stroke-width="10"/>
<path d="M401.322 503.801L451.29 510.046C454.011 510.386 455.95 512.854 455.638 515.577L449.895 565.606C449.578 568.369 447.067 570.342 444.308 569.997L394.339 563.752C391.619 563.412 389.679 560.945 389.992 558.221L395.735 508.192C396.052 505.429 398.562 503.456 401.322 503.801Z" stroke="#59B290" stroke-width="10"/>
<path d="M942.769 502.823L958.977 550.5C959.86 553.096 958.487 555.918 955.9 556.827L908.388 573.513C905.764 574.435 902.892 573.038 901.997 570.405L885.789 522.728C884.907 520.132 886.279 517.31 888.866 516.401L936.378 499.715C939.002 498.793 941.874 500.19 942.769 502.823Z" stroke="#469BFF" stroke-width="10"/>
<path d="M460.37 207.49L475.732 255.076C476.58 257.704 475.138 260.522 472.51 261.37L424.924 276.732C422.296 277.58 419.478 276.138 418.63 273.51L403.268 225.924C402.42 223.296 403.862 220.478 406.49 219.63L454.076 204.268C456.704 203.42 459.522 204.862 460.37 207.49Z" stroke="#FF596A" stroke-width="10"/>
<path d="M923.036 201.607L958.393 236.964C960.346 238.917 960.346 242.083 958.393 244.036L923.036 279.393C921.083 281.346 917.917 281.346 915.964 279.393L880.607 244.036C878.654 242.083 878.654 238.917 880.607 236.964L915.964 201.607C917.917 199.654 921.083 199.654 923.036 201.607Z" stroke="#FF596A" stroke-width="10"/>
<path d="M471.053 645.696L506.482 681.482C508.411 683.431 508.411 686.569 506.482 688.518L471.053 724.304C469.097 726.28 465.903 726.28 463.947 724.304L428.518 688.518C426.589 686.569 426.589 683.431 428.518 681.482L463.947 645.696C465.903 643.72 469.097 643.72 471.053 645.696Z" stroke="#FF596A" stroke-width="10"/>
<path d="M950.212 650.029L999.372 660.941C1002.05 661.535 1003.75 664.174 1003.18 666.857L992.763 716.124C992.188 718.845 989.503 720.574 986.788 719.971L937.628 709.059C934.951 708.465 933.252 705.826 933.819 703.143L944.237 653.876C944.812 651.155 947.497 649.426 950.212 650.029Z" stroke="#59B290" stroke-width="10"/>
<path d="M424.689 352.42L472.56 368.048C475.166 368.899 476.601 371.69 475.777 374.305L460.631 422.33C459.795 424.983 456.955 426.443 454.311 425.58L406.44 409.952C403.834 409.101 402.399 406.31 403.223 403.695L418.369 355.67C419.205 353.017 422.045 351.557 424.689 352.42Z" stroke="#DC51FF" stroke-width="10"/>
<path d="M416.855 801.682L466.714 805.489C469.467 805.699 471.529 808.102 471.319 810.855L467.511 860.714C467.301 863.467 464.898 865.529 462.145 865.318L412.286 861.511C409.533 861.301 407.471 858.898 407.682 856.145L411.489 806.286C411.699 803.533 414.102 801.471 416.855 801.682Z" stroke="#59B290" stroke-width="10"/>
<path d="M496.84 942.656L517.429 988.224C518.566 990.741 517.448 993.703 514.931 994.84L469.363 1015.43C466.847 1016.57 463.885 1015.45 462.748 1012.93L442.159 967.363C441.022 964.847 442.14 961.885 444.656 960.748L490.224 940.159C492.741 939.022 495.703 940.14 496.84 942.656Z" stroke="#E57C5E" stroke-width="10"/>
<path d="M984.092 349.944L1026.78 376.656C1029.11 378.11 1029.82 381.165 1028.39 383.504L1002.11 426.458C1000.66 428.831 997.552 429.563 995.195 428.087L952.506 401.376C950.182 399.921 949.463 396.866 950.894 394.527L977.175 351.573C978.627 349.2 981.735 348.468 984.092 349.944Z" stroke="#59B290" stroke-width="10"/>
<path d="M102.542 554.627L67.1908 528.684C65.456 527.41 64.7303 525.17 65.3893 523.122L78.9327 481.018C79.5977 478.951 81.521 477.549 83.6926 477.549L127.307 477.549C129.479 477.549 131.402 478.951 132.067 481.018L145.611 523.122C146.27 525.17 145.544 527.41 143.809 528.684L108.458 554.627C106.698 555.919 104.302 555.919 102.542 554.627Z" stroke="#469BFF" stroke-width="10"/>
<path d="M702.561 167.684L667.239 142.022C665.487 140.749 664.754 138.492 665.423 136.432L678.915 94.9086C679.584 92.8485 681.504 91.4537 683.67 91.4537L727.33 91.4537C729.496 91.4537 731.416 92.8485 732.085 94.9086L745.577 136.432C746.246 138.492 745.513 140.749 743.761 142.022L708.439 167.684C706.686 168.958 704.314 168.958 702.561 167.684Z" stroke="#DC51FF" stroke-width="10"/>
<path d="M678.446 574.371L634.629 576.056C632.479 576.138 630.517 574.836 629.758 572.822L614.164 531.434C613.398 529.402 614.032 527.108 615.732 525.757L649.876 498.62C651.576 497.269 653.954 497.17 655.761 498.374L692.56 522.909C694.351 524.103 695.177 526.308 694.611 528.384L683.078 570.689C682.503 572.796 680.628 574.287 678.446 574.371Z" stroke="#469BFF" stroke-width="10"/>
<path d="M151.542 755.627L116.191 729.684C114.456 728.41 113.73 726.17 114.389 724.122L127.933 682.018C128.598 679.951 130.521 678.549 132.693 678.549L176.307 678.549C178.479 678.549 180.402 679.951 181.067 682.018L194.611 724.122C195.27 726.17 194.544 728.41 192.809 729.684L157.458 755.627C155.698 756.919 153.302 756.919 151.542 755.627Z" stroke="#59B290" stroke-width="10"/>
<path d="M617.684 281.731L579.456 260.641C577.56 259.594 576.552 257.445 576.962 255.318L585.207 212.444C585.616 210.317 587.348 208.695 589.498 208.427L632.822 203.02C634.971 202.752 637.049 203.898 637.968 205.859L656.498 245.392C657.418 247.353 656.969 249.684 655.388 251.164L623.517 281.003C621.935 282.484 619.581 282.778 617.684 281.731Z" stroke="#59B290" stroke-width="10"/>
<path d="M599.489 723.538L574.194 687.72C572.953 685.962 572.975 683.608 574.25 681.874L600.451 646.242C601.738 644.492 604.006 643.773 606.066 644.462L647.428 658.299C649.487 658.988 650.866 660.927 650.841 663.098L650.328 707.324C650.303 709.475 648.904 711.37 646.855 712.027L605.1 725.415C603.02 726.082 600.748 725.322 599.489 723.538Z" stroke="#DC51FF" stroke-width="10"/>
<path d="M151.542 370.627L116.191 344.684C114.456 343.41 113.73 341.17 114.389 339.122L127.933 297.018C128.598 294.951 130.521 293.549 132.693 293.549L176.307 293.549C178.479 293.549 180.402 294.951 181.067 297.018L194.611 339.122C195.27 341.17 194.544 343.41 192.809 344.684L157.458 370.627C155.698 371.919 153.302 371.919 151.542 370.627Z" stroke="#FF596A" stroke-width="10"/>
<path d="M592.542 430.627L557.191 404.684C555.456 403.41 554.73 401.17 555.389 399.122L568.933 357.018C569.598 354.951 571.521 353.549 573.693 353.549L617.307 353.549C619.479 353.549 621.402 354.951 622.067 357.018L635.611 399.122C636.27 401.17 635.544 403.41 633.809 404.684L598.458 430.627C596.698 431.919 594.302 431.919 592.542 430.627Z" stroke="#FF596A" stroke-width="10"/>
<path d="M643.552 863.796L600.677 872.037C598.55 872.445 596.401 871.438 595.355 869.541L574.269 831.311C573.223 829.414 573.517 827.059 574.998 825.478L604.841 793.61C606.322 792.029 608.652 791.581 610.613 792.501L650.143 811.036C652.105 811.956 653.251 814.034 652.982 816.183L647.57 859.506C647.301 861.656 645.679 863.388 643.552 863.796Z" stroke="#E57C5E" stroke-width="10"/>
<path d="M701.561 1005.68L666.239 980.022C664.487 978.749 663.754 976.492 664.423 974.432L677.915 932.909C678.584 930.848 680.504 929.454 682.67 929.454L726.33 929.454C728.496 929.454 730.416 930.848 731.085 932.909L744.577 974.432C745.246 976.492 744.513 978.749 742.761 980.022L707.439 1005.68C705.686 1006.96 703.314 1006.96 701.561 1005.68Z" stroke="#DC51FF" stroke-width="10"/>
</svg>
