<svg width="397" height="387" viewBox="0 0 397 387" fill="none" xmlns="http://www.w3.org/2000/svg">
<path fill-rule="evenodd" clip-rule="evenodd" d="M186.703 0.125517C185.852 0.207667 182.891 0.461481 180.124 0.689332C169.816 1.53835 155.96 4.04083 145.855 6.87773C112.884 16.134 84.1324 32.6783 60.015 56.271C29.7224 85.9044 10.0266 123.341 2.9293 164.778C1.05396 175.728 0.674712 180.117 0.473866 193.222C0.20994 210.442 1.12478 222.013 3.86968 236.177C17.03 304.084 64.7432 360.383 129.521 384.441C136.359 386.98 139.222 387.424 142.537 386.46C145.201 385.684 147.627 383.635 148.672 381.277C149.368 379.709 149.407 378.494 149.373 359.986C149.353 349.19 149.276 340.297 149.202 340.224C149.128 340.149 146.652 340.464 143.699 340.922C136.938 341.97 123.079 342.371 117.21 341.687C101.853 339.9 90.2777 332.737 84.9482 321.725C84.0175 319.802 82.115 315.874 80.7211 312.997C77.6519 306.663 74.0607 300.885 70.2272 296.113C67.0705 292.182 65.3194 290.624 61.4069 288.265C57.7406 286.054 55.3711 284.03 54.0933 282.018C52.6932 279.814 52.7106 278.821 54.1711 277.59C55.6807 276.319 57.2933 276.004 62.2866 276.011C74.176 276.025 83.5655 282.635 93.8493 298.23C96.8623 302.799 101.087 307.479 104.597 310.136C107.728 312.507 113.942 315.505 117.819 316.515C122.169 317.649 129.748 317.91 134.994 317.106C138.734 316.532 148.907 313.467 149.951 312.6C150.205 312.388 150.523 311.286 150.656 310.151C151.026 307.001 153.108 300.389 154.866 296.781C156.556 293.313 158.752 290.116 161.245 287.492C163.064 285.576 163.681 285.879 155.551 284.696C139.19 282.315 127.001 278.692 115.8 272.881C107.332 268.488 102.425 264.82 95.7099 257.865C82.0353 243.7 74.8548 224.54 73.0789 197.474C71.8014 178.01 74.8153 162.911 82.8132 148.705C84.8495 145.087 89.6903 138.26 91.8091 136.017L92.9878 134.769L91.9584 131.367C87.7588 117.487 88.2186 102.237 93.299 86.9111C95.1046 81.464 94.862 81.6713 99.4373 81.6651C106.787 81.6547 116.127 84.3625 127.665 89.8495C133.157 92.4609 136.482 94.317 144.076 99.0089L149.434 102.32L155.492 100.873C170.203 97.3581 183.137 95.8647 198.893 95.8616C216.412 95.8577 226 97.0652 246.879 101.905L248.621 102.308L253.071 99.3898C269.6 88.5499 285.122 82.3293 297.009 81.7817C301.429 81.5783 302.135 81.6306 302.709 82.2049C303.55 83.0462 306.271 91.5592 307.234 96.3596C309.669 108.496 309.164 121.43 305.867 131.342L304.858 134.377L307.42 137.516C314.888 146.67 320.016 156.801 322.69 167.684C324.421 174.731 325.051 180.51 325.051 189.342C325.051 221.527 315.931 246.153 298.155 261.966C292.28 267.193 283.311 272.743 275.489 275.992C265.638 280.085 252.153 283.481 239.333 285.098C237.418 285.339 235.601 285.619 235.297 285.719C234.911 285.846 235.393 286.573 236.888 288.115C238.067 289.332 239.596 291.169 240.285 292.197C243.779 297.41 246.676 305.862 247.614 313.578C247.889 315.838 248.039 327.989 248.039 348.094C248.04 383.406 247.876 381.482 251.151 384.43C254.974 387.873 258.639 387.86 267.777 384.372C307.138 369.349 339.728 343.516 362.955 308.928C378.779 285.363 389.213 259.291 393.891 231.622C396.041 218.906 396.452 213.699 396.43 199.459C396.404 183.591 395.512 173.596 392.918 160.128C384.275 115.249 359.351 73.5307 323.953 44.6932C293.484 19.8714 258.043 5.06151 218.989 0.831157C213.752 0.263855 190.533 -0.243384 186.703 0.125517Z" fill="#151515"/>
</svg>
