<svg width="403" height="403" viewBox="0 0 403 403" fill="none" xmlns="http://www.w3.org/2000/svg">
<path fill-rule="evenodd" clip-rule="evenodd" d="M72.36 1.44677C62.309 3.14577 47.992 7.27377 42.583 10.0328C26.511 18.2328 5.55304 54.0228 0.78304 81.4148C0.0600404 85.5628 -0.183959 93.5098 0.142042 102.256C0.774042 119.199 3.06304 128.52 13.686 157.392C23.875 185.086 26.319 190.97 33.49 205.074C62.903 262.917 136.659 337.265 194.86 367.738C213.264 377.375 254.149 393.068 276.83 399.202C287.6 402.115 289.447 402.318 304.86 402.278C318.561 402.242 322.688 401.87 329.19 400.084C356.759 392.51 385.393 373.832 392.794 358.595C397.201 349.522 400.927 334.073 401.583 322.158L402.146 311.923L398.446 308.534C396.411 306.67 384.309 299.387 371.553 292.348C346.251 278.387 332.83 270.573 320.082 262.379C310.33 256.111 305.632 254.957 300.251 257.511C294.949 260.027 285.052 269.595 276.172 280.79C266.887 292.496 255.378 304.502 251.459 306.569C245.599 309.661 240.242 307.58 214.813 292.336C165.756 262.928 137.265 233.805 106.464 181.582C97.189 165.856 94.86 160.605 94.86 155.416C94.86 149.952 101.597 142.281 117.39 129.759C131.377 118.669 136.916 113.555 141.449 107.543C148.504 98.1878 147.81 93.5618 136.927 77.3918C131.686 69.6048 124.019 56.2658 109.335 29.3918C92.249 -1.88123 92.214 -1.90723 72.36 1.44677Z" fill="#151515"/>
</svg>
