<svg width="89" height="74" viewBox="0 0 89 74" fill="none" xmlns="http://www.w3.org/2000/svg">
<path fill-rule="evenodd" clip-rule="evenodd" d="M45.514 0.14759C43.3003 0.63881 41.787 2.09905 41.6749 3.85216C41.6152 4.7859 41.9269 5.52511 42.7059 6.29716C43.0292 6.61766 45.7604 8.9293 48.7752 11.4342L54.2568 15.9887L48.6621 16.0593C45.5851 16.0982 37.469 16.138 30.6264 16.1478C16.8154 16.1675 17.4844 16.1314 15.8668 16.9462C14.787 17.4901 13.554 18.7034 13.0949 19.6738C12.6245 20.6683 12.5669 21.9166 12.952 22.7768C13.3332 23.6282 13.8134 24.1556 14.5904 24.5761C15.849 25.2571 15.3984 25.2275 25.5351 25.2949L34.9205 25.3574L18.8621 37.9644C10.03 44.8984 2.52233 50.8579 2.17862 51.2078C-0.10658 53.5346 -0.671405 56.8763 0.853193 59.0499C2.57606 61.506 6.45417 61.7755 9.47656 59.649C9.72538 59.4739 13.8468 56.0489 18.6351 52.0378C23.4235 48.0266 27.3578 44.7617 27.3779 44.7824C27.3981 44.803 27.3625 45.4374 27.2989 46.1922C26.9133 50.7648 28.9234 56.7036 32.5073 61.5799C33.5202 62.9581 35.701 65.2796 37.1297 66.5005C44.2161 72.5565 54.0466 75.1588 63.6403 73.5185C73.6087 71.814 82.0742 65.566 86.2688 56.8177C89.4256 50.2336 89.8527 43.1498 87.5144 36.1628C86.268 32.4387 83.7661 28.437 80.7938 25.4137C79.3809 23.9766 79.0913 23.7417 67.8931 14.946C62.6367 10.8174 56.459 5.96428 54.1647 4.16132C51.8704 2.35826 49.7394 0.751581 49.4293 0.59081C48.3094 0.0104131 46.8676 -0.152787 45.514 0.14759ZM59.9923 25.3051C62.5076 25.5652 64.545 26.1427 66.7607 27.2232C72.2025 29.8771 75.8105 34.67 76.6754 40.3935C76.9231 42.0327 76.8238 44.6023 76.4499 46.2345C74.0338 56.7788 62.2589 62.8422 51.4086 59.1292C46.6523 57.5016 42.6903 54.0095 40.7023 49.6928C39.5485 47.1872 39.1042 44.9654 39.2017 42.1863C39.3959 36.6453 42.0915 31.8935 46.913 28.5928C50.6822 26.0126 55.3906 24.829 59.9923 25.3051ZM56.5265 31.0877C51.4925 31.886 47.4982 35.4869 46.5746 40.0593C46.3457 41.1925 46.3367 43.1432 46.5553 44.2154C47.3887 48.3035 50.7177 51.7066 55.0588 52.9084C56.1037 53.1977 56.3504 53.2208 58.3926 53.2208C60.4248 53.2208 60.685 53.1966 61.7039 52.9142C62.9702 52.5633 64.5955 51.8096 65.645 51.0869C66.6519 50.3934 68.0828 48.8923 68.7791 47.7989C69.8724 46.0822 70.3931 44.2536 70.3966 42.1188C70.4052 36.9179 66.6056 32.4952 61.0505 31.24C60.1025 31.0258 57.4745 30.9373 56.5265 31.0877Z" fill="url(#paint0_linear)"/>
<defs>
<linearGradient id="paint0_linear" x1="143.427" y1="0" x2="143.427" y2="74" gradientUnits="userSpaceOnUse">
<stop stop-color="#767676"/>
<stop offset="1" stop-color="#767676" stop-opacity="0.5"/>
</linearGradient>
</defs>
</svg>
