<svg width="202" height="67" viewBox="0 0 202 67" fill="none" xmlns="http://www.w3.org/2000/svg">
<path fill-rule="evenodd" clip-rule="evenodd" d="M110.831 0.211044C110.715 0.32685 110.62 4.61323 110.62 9.73588V19.05L109.526 18.0887C106.723 15.6265 103.605 14.5329 99.3949 14.5352C94.2438 14.538 89.9622 16.2852 86.6517 19.735C82.6815 23.8724 81.0041 29.3893 81.5986 36.354C82.2863 44.4123 87.3808 50.7734 94.6685 52.6731C95.6891 52.9389 97.82 53.1566 99.4041 53.1566C103.757 53.1566 106.89 52.0618 109.544 49.6135L110.936 48.3298V50.5851V52.8402H115.047H119.157V26.4201V0H115.099C112.867 0 110.946 0.0949224 110.831 0.211044ZM152.99 9.66564V19.3313L151.804 18.1647C146.938 13.3768 136.981 13.2597 130.925 17.9195C126.092 21.6376 123.784 26.7874 123.784 33.8557C123.784 39.7007 125.485 44.4718 128.762 47.8216C132.359 51.498 135.456 52.8459 140.843 53.08C145.859 53.2977 148.91 52.3108 152.081 49.4445L153.306 48.3367V50.5886V52.8402H157.417H161.527V26.4201V0H157.259H152.99V9.66564ZM21.9327 2.58379C13.7252 3.38715 6.79362 8.06145 2.87597 15.4344C1.10181 18.7741 0.235437 22.1533 0.0349699 26.5172C-0.467147 37.4586 4.46011 46.4218 13.3885 50.8079C17.6527 52.9028 19.5397 53.312 24.9312 53.311C28.846 53.3101 29.8625 53.2018 31.8874 52.5709C35.5174 51.4401 38.8681 49.5511 41.2781 47.2777L43.4279 45.2499L40.5271 42.3471L37.626 39.4444L35.7845 41.1315C29.5226 46.868 19.5593 46.5645 13.5324 40.4541C10.1728 37.0482 8.6285 32.5306 8.89695 26.8947C9.36365 17.0921 15.795 10.7579 25.2806 10.7579C29.7063 10.7579 33.0827 12.095 36.4119 15.1658L37.7778 16.4257L40.603 13.5736L43.4285 10.7215L41.1554 8.54113C36.4302 4.00953 29.454 1.84719 21.9327 2.58379ZM58.2897 14.6054C53.9031 14.9671 50.1559 16.1843 47.0066 18.2697L45.8272 19.0506L47.4309 22.2606C48.3128 24.0261 49.0856 25.5262 49.1479 25.5939C49.2098 25.662 49.729 25.3598 50.3013 24.9232C53.775 22.272 60.774 21.1892 64.3132 22.7558C65.1612 23.1313 66.1297 23.6822 66.4649 23.98C67.4849 24.8861 68.5597 27.5544 68.5628 29.1887L68.566 30.6916H62.2576C55.6513 30.6916 53.6422 30.9444 51.0172 32.1069C47.1201 33.8323 44.8634 37.3773 44.8549 41.7874C44.8476 45.5679 46.5633 48.8661 49.5889 50.8879C52.2744 52.6823 54.7423 53.2616 58.9619 53.0873C63.2713 52.9095 65.455 52.1374 67.6576 50.0128L69.1984 48.5269V50.6835V52.8402H73.1508H77.1032L77.0978 40.263C77.0918 26.6055 76.935 24.9339 75.3689 21.8413C73.7421 18.6292 70.6775 16.19 66.985 15.1683C64.9468 14.6045 61.2227 14.3634 58.2897 14.6054ZM163.108 14.9503C163.109 14.994 166.589 23.5607 170.843 33.9876L178.576 52.9459L177.616 54.8706C176.402 57.3053 175.419 58.4444 174.029 59.0253C171.901 59.9151 169.47 59.5186 166.998 57.878L165.671 56.9972L164.073 59.9891C163.195 61.6344 162.477 63.1554 162.478 63.3687C162.484 64.4033 166.548 66.3005 169.863 66.8163C175.674 67.7202 180.63 65.2643 183.644 59.9866C184.531 58.4343 202 15.7676 202 15.1541C202 14.974 200.398 14.888 198.024 14.9408L194.047 15.0294L188.598 28.5483C185.601 35.9835 183.075 42.1412 182.984 42.232C182.894 42.3225 180.355 36.2034 177.344 28.634L171.868 14.8712H167.488C165.079 14.8712 163.108 14.9066 163.108 14.9503ZM105.03 23.2142C109.116 25.2152 111.412 30.3388 110.659 35.7776C110.073 40.0105 108.041 42.9796 104.639 44.5753C102.22 45.7106 98.5978 45.7394 96.1476 44.643C93.8274 43.6049 91.5871 41.0844 90.7318 38.5502C89.9372 36.1955 89.8313 31.8927 90.5124 29.6285C91.1097 27.6421 92.6881 25.2427 94.1135 24.1549C97.013 21.942 101.62 21.5452 105.03 23.2142ZM145.838 22.596C148.914 23.5224 151.538 26.3726 152.531 29.867C153.333 32.6866 153.063 36.9046 151.92 39.4299C150.874 41.7409 148.988 43.6827 146.824 44.6765C144.557 45.7182 140.525 45.6859 138.3 44.6085C131.798 41.4593 130.122 31.3197 135.121 25.3753C137.425 22.6352 142.015 21.4449 145.838 22.596ZM68.566 38.9309C68.566 41.732 67.8359 43.2698 65.8069 44.7433C63.9337 46.1039 62.3781 46.5677 59.6914 46.5677C56.0324 46.5677 53.739 45.0645 53.2264 42.3294C52.9596 40.9056 53.4743 39.2451 54.4745 38.305C55.8679 36.9948 57.2981 36.7322 63.1116 36.7173L68.566 36.7034V38.9309Z" fill="url(#paint0_linear)"/>
<defs>
<linearGradient id="paint0_linear" x1="101" y1="0" x2="101" y2="67" gradientUnits="userSpaceOnUse">
<stop stop-color="#767676"/>
<stop offset="1" stop-color="#767676" stop-opacity="0.5"/>
</linearGradient>
</defs>
</svg>
