<svg viewBox="0 0 516 1080" fill="none" xmlns="http://www.w3.org/2000/svg">
<!-- <rect width="515.556" height="1080" transform="matrix(-1 0 0 1 515.556 0)" fill="#292930"/> -->
<rect width="134.815" height="8.88889" transform="matrix(-1 0 0 1 468.148 26.6667)" fill="#40424F"/>
<rect width="134.815" height="8.88889" transform="matrix(-1 0 0 1 468.148 374.815)" fill="#40424F"/>
<rect width="134.815" height="8.88889" transform="matrix(-1 0 0 1 468.148 722.963)" fill="#40424F"/>
<rect width="290.37" height="8.88889" transform="matrix(-1 0 0 1 468.148 80)" fill="#40424F"/>
<rect width="358.519" height="8.88889" transform="matrix(-1 0 0 1 468.148 428.148)" fill="#40424F"/>
<rect width="250.37" height="8.88889" transform="matrix(-1 0 0 1 468.148 776.296)" fill="#40424F"/>
<rect width="336.296" height="8.88889" transform="matrix(-1 0 0 1 468.148 226.667)" fill="#40424F"/>
<rect width="290.37" height="8.88889" transform="matrix(-1 0 0 1 468.148 574.815)" fill="#40424F"/>
<rect width="336.296" height="8.88889" transform="matrix(-1 0 0 1 468.148 922.963)" fill="#40424F"/>
<rect width="336.296" height="8.88889" transform="matrix(-1 0 0 1 468.148 334.815)" fill="#40424F"/>
<rect width="336.296" height="8.88889" transform="matrix(-1 0 0 1 468.148 682.963)" fill="#40424F"/>
<rect width="250.37" height="8.88889" transform="matrix(-1 0 0 1 468.148 1031.11)" fill="#40424F"/>
<rect width="75.5556" height="8.88889" transform="matrix(-1 0 0 1 468.148 40)" fill="#694157"/>
<rect width="75.5556" height="8.88889" transform="matrix(-1 0 0 1 468.148 388.148)" fill="#694157"/>
<rect width="75.5556" height="8.88889" transform="matrix(-1 0 0 1 468.148 736.296)" fill="#694157"/>
<rect width="31.1111" height="8.88889" transform="matrix(-1 0 0 1 445.926 66.6667)" fill="#7B3353"/>
<rect width="31.1111" height="8.88889" transform="matrix(-1 0 0 1 445.926 414.815)" fill="#7B3353"/>
<rect width="31.1111" height="8.88889" transform="matrix(-1 0 0 1 445.926 762.963)" fill="#7B3353"/>
<rect width="77.037" height="8.88889" transform="matrix(-1 0 0 1 468.148 120)" fill="#7B3353"/>
<rect width="77.037" height="8.88889" transform="matrix(-1 0 0 1 468.148 468.148)" fill="#7B3353"/>
<rect width="77.037" height="8.88889" transform="matrix(-1 0 0 1 468.148 816.296)" fill="#7B3353"/>
<rect width="77.037" height="8.88889" transform="matrix(-1 0 0 1 468.148 268.148)" fill="#7B3353"/>
<rect width="77.037" height="8.88889" transform="matrix(-1 0 0 1 468.148 616.296)" fill="#7B3353"/>
<rect width="77.037" height="8.88889" transform="matrix(-1 0 0 1 468.148 964.444)" fill="#7B3353"/>
<rect width="22.2222" height="8.88889" transform="matrix(-1 0 0 1 445.926 281.481)" fill="#7B3353"/>
<rect width="22.2222" height="8.88889" transform="matrix(-1 0 0 1 445.926 629.63)" fill="#7B3353"/>
<rect width="22.2222" height="8.88889" transform="matrix(-1 0 0 1 445.926 977.778)" fill="#7B3353"/>
<rect width="22.2222" height="8.88889" transform="matrix(-1 0 0 1 445.926 308.148)" fill="#7B3353"/>
<rect width="22.2222" height="8.88889" transform="matrix(-1 0 0 1 445.926 656.296)" fill="#7B3353"/>
<rect width="22.2222" height="8.88889" transform="matrix(-1 0 0 1 445.926 1004.44)" fill="#7B3353"/>
<rect width="4.44444" height="8.88889" transform="matrix(-1 0 0 1 468.148 93.3333)" fill="#5F6369"/>
<rect width="4.44444" height="8.88889" transform="matrix(-1 0 0 1 468.148 441.481)" fill="#5F6369"/>
<rect width="4.44444" height="8.88889" transform="matrix(-1 0 0 1 468.148 789.63)" fill="#5F6369"/>
<rect width="4.44444" height="8.88889" transform="matrix(-1 0 0 1 468.148 241.481)" fill="#5F6369"/>
<rect width="4.44444" height="8.88889" transform="matrix(-1 0 0 1 468.148 589.63)" fill="#5F6369"/>
<rect width="4.44444" height="8.88889" transform="matrix(-1 0 0 1 468.148 937.778)" fill="#5F6369"/>
<rect width="4.44444" height="8.88889" transform="matrix(-1 0 0 1 468.148 348.148)" fill="#5F6369"/>
<rect width="4.44444" height="8.88889" transform="matrix(-1 0 0 1 468.148 696.296)" fill="#5F6369"/>
<rect width="4.44444" height="8.88889" transform="matrix(-1 0 0 1 468.148 1044.44)" fill="#5F6369"/>
<rect width="4.44444" height="8.88889" transform="matrix(-1 0 0 1 351.111 133.333)" fill="#5F6369"/>
<rect width="4.44444" height="8.88889" transform="matrix(-1 0 0 1 351.111 481.481)" fill="#5F6369"/>
<rect width="4.44444" height="8.88889" transform="matrix(-1 0 0 1 351.111 829.63)" fill="#5F6369"/>
<rect width="4.44444" height="8.88889" transform="matrix(-1 0 0 1 351.111 173.333)" fill="#5F6369"/>
<rect width="4.44444" height="8.88889" transform="matrix(-1 0 0 1 351.111 521.482)" fill="#5F6369"/>
<rect width="4.44444" height="8.88889" transform="matrix(-1 0 0 1 351.111 869.63)" fill="#5F6369"/>
<rect width="4.44444" height="8.88889" transform="matrix(-1 0 0 1 351.111 146.667)" fill="#5F6369"/>
<rect width="4.44444" height="8.88889" transform="matrix(-1 0 0 1 351.111 494.815)" fill="#5F6369"/>
<rect width="4.44444" height="8.88889" transform="matrix(-1 0 0 1 351.111 842.963)" fill="#5F6369"/>
<rect width="4.44444" height="8.88889" transform="matrix(-1 0 0 1 351.111 186.667)" fill="#5F6369"/>
<rect width="4.44444" height="8.88889" transform="matrix(-1 0 0 1 351.111 534.815)" fill="#5F6369"/>
<rect width="4.44444" height="8.88889" transform="matrix(-1 0 0 1 351.111 882.963)" fill="#5F6369"/>
<rect width="4.44444" height="8.88889" transform="matrix(-1 0 0 1 351.111 160)" fill="#5F6369"/>
<rect width="4.44444" height="8.88889" transform="matrix(-1 0 0 1 351.111 508.148)" fill="#5F6369"/>
<rect width="4.44444" height="8.88889" transform="matrix(-1 0 0 1 351.111 856.296)" fill="#5F6369"/>
<rect width="4.44444" height="8.88889" transform="matrix(-1 0 0 1 351.111 200)" fill="#5F6369"/>
<rect width="4.44444" height="8.88889" transform="matrix(-1 0 0 1 351.111 548.148)" fill="#5F6369"/>
<rect width="4.44444" height="8.88889" transform="matrix(-1 0 0 1 351.111 896.296)" fill="#5F6369"/>
<rect width="4.44444" height="8.88889" transform="matrix(-1 0 0 1 351.111 213.333)" fill="#5F6369"/>
<rect width="4.44444" height="8.88889" transform="matrix(-1 0 0 1 351.111 561.481)" fill="#5F6369"/>
<rect width="4.44444" height="8.88889" transform="matrix(-1 0 0 1 351.111 909.63)" fill="#5F6369"/>
<rect width="142.222" height="8.88889" transform="matrix(-1 0 0 1 459.259 93.3333)" fill="#5F6369"/>
<rect width="142.222" height="8.88889" transform="matrix(-1 0 0 1 459.259 441.481)" fill="#5F6369"/>
<rect width="142.222" height="8.88889" transform="matrix(-1 0 0 1 459.259 789.63)" fill="#5F6369"/>
<rect width="142.222" height="8.88889" transform="matrix(-1 0 0 1 459.259 241.481)" fill="#5F6369"/>
<rect width="142.222" height="8.88889" transform="matrix(-1 0 0 1 459.259 589.63)" fill="#5F6369"/>
<rect width="142.222" height="8.88889" transform="matrix(-1 0 0 1 459.259 937.778)" fill="#5F6369"/>
<rect width="103.704" height="8.88889" transform="matrix(-1 0 0 1 459.259 348.148)" fill="#5F6369"/>
<rect width="103.704" height="8.88889" transform="matrix(-1 0 0 1 459.259 696.296)" fill="#5F6369"/>
<rect width="103.704" height="8.88889" transform="matrix(-1 0 0 1 459.259 1044.44)" fill="#5F6369"/>
<rect width="142.222" height="8.88889" transform="matrix(-1 0 0 1 388.148 40)" fill="#26696F"/>
<rect width="142.222" height="8.88889" transform="matrix(-1 0 0 1 388.148 388.148)" fill="#26696F"/>
<rect width="142.222" height="8.88889" transform="matrix(-1 0 0 1 388.148 736.296)" fill="#26696F"/>
<rect width="170.37" height="8.88889" transform="matrix(-1 0 0 1 410.37 66.6667)" fill="#26696F"/>
<rect width="29.6296" height="8.88889" transform="matrix(-1 0 0 1 410.37 414.815)" fill="#26696F"/>
<rect width="69.6296" height="8.88889" transform="matrix(-1 0 0 1 410.37 762.963)" fill="#26696F"/>
<rect width="120" height="8.88889" transform="matrix(-1 0 0 1 386.667 120)" fill="#26696F"/>
<rect width="120" height="8.88889" transform="matrix(-1 0 0 1 386.667 468.148)" fill="#26696F"/>
<rect width="120" height="8.88889" transform="matrix(-1 0 0 1 386.667 816.296)" fill="#26696F"/>
<rect width="102.222" height="8.88889" transform="matrix(-1 0 0 1 386.667 268.148)" fill="#26696F"/>
<rect width="102.222" height="8.88889" transform="matrix(-1 0 0 1 386.667 616.296)" fill="#26696F"/>
<rect width="102.222" height="8.88889" transform="matrix(-1 0 0 1 386.667 964.444)" fill="#26696F"/>
<rect width="80" height="8.88889" transform="matrix(-1 0 0 1 417.778 281.481)" fill="#26696F"/>
<rect width="80" height="8.88889" transform="matrix(-1 0 0 1 417.778 629.63)" fill="#26696F"/>
<rect width="80" height="8.88889" transform="matrix(-1 0 0 1 417.778 977.778)" fill="#26696F"/>
<rect width="161.481" height="8.88889" transform="matrix(-1 0 0 1 445.926 294.815)" fill="#4E7268"/>
<rect width="161.481" height="8.88889" transform="matrix(-1 0 0 1 445.926 642.963)" fill="#4E7268"/>
<rect width="69.6296" height="8.88889" transform="matrix(-1 0 0 1 445.926 991.111)" fill="#4E7268"/>
<rect width="117.037" height="8.88889" transform="matrix(-1 0 0 1 445.926 321.481)" fill="#4E7268"/>
<rect width="117.037" height="8.88889" transform="matrix(-1 0 0 1 445.926 669.63)" fill="#4E7268"/>
<rect width="164.444" height="8.88889" transform="matrix(-1 0 0 1 445.926 1017.78)" fill="#4E7268"/>
<rect width="201.481" height="8.88889" transform="matrix(-1 0 0 1 417.778 308.148)" fill="#26696F"/>
<rect width="102.222" height="8.88889" transform="matrix(-1 0 0 1 417.778 656.296)" fill="#26696F"/>
<rect width="102.222" height="8.88889" transform="matrix(-1 0 0 1 417.778 1004.44)" fill="#26696F"/>
<rect width="148.148" height="8.88889" transform="matrix(-1 0 0 1 445.926 53.3333)" fill="#1C555D"/>
<rect width="231.111" height="8.88889" transform="matrix(-1 0 0 1 445.926 401.481)" fill="#1C555D"/>
<rect width="148.148" height="8.88889" transform="matrix(-1 0 0 1 445.926 749.63)" fill="#1C555D"/>
<rect width="90.3704" height="8.88889" transform="matrix(-1 0 0 1 445.926 133.333)" fill="#1C555D"/>
<rect width="90.3704" height="8.88889" transform="matrix(-1 0 0 1 445.926 481.481)" fill="#1C555D"/>
<rect width="90.3704" height="8.88889" transform="matrix(-1 0 0 1 445.926 829.63)" fill="#1C555D"/>
<rect width="90.3704" height="8.88889" transform="matrix(-1 0 0 1 445.926 160)" fill="#1C555D"/>
<rect width="90.3704" height="8.88889" transform="matrix(-1 0 0 1 445.926 508.148)" fill="#1C555D"/>
<rect width="90.3704" height="8.88889" transform="matrix(-1 0 0 1 445.926 856.296)" fill="#1C555D"/>
<rect width="90.3704" height="8.88889" transform="matrix(-1 0 0 1 445.926 186.667)" fill="#1C555D"/>
<rect width="90.3704" height="8.88889" transform="matrix(-1 0 0 1 445.926 534.815)" fill="#1C555D"/>
<rect width="90.3704" height="8.88889" transform="matrix(-1 0 0 1 445.926 882.963)" fill="#1C555D"/>
<rect width="90.3704" height="8.88889" transform="matrix(-1 0 0 1 445.926 146.667)" fill="#1C555D"/>
<rect width="90.3704" height="8.88889" transform="matrix(-1 0 0 1 445.926 494.815)" fill="#1C555D"/>
<rect width="90.3704" height="8.88889" transform="matrix(-1 0 0 1 445.926 842.963)" fill="#1C555D"/>
<rect width="90.3704" height="8.88889" transform="matrix(-1 0 0 1 445.926 173.333)" fill="#1C555D"/>
<rect width="90.3704" height="8.88889" transform="matrix(-1 0 0 1 445.926 521.482)" fill="#1C555D"/>
<rect width="90.3704" height="8.88889" transform="matrix(-1 0 0 1 445.926 869.63)" fill="#1C555D"/>
<rect width="90.3704" height="8.88889" transform="matrix(-1 0 0 1 445.926 200)" fill="#1C555D"/>
<rect width="90.3704" height="8.88889" transform="matrix(-1 0 0 1 445.926 548.148)" fill="#1C555D"/>
<rect width="90.3704" height="8.88889" transform="matrix(-1 0 0 1 445.926 896.296)" fill="#1C555D"/>
<rect width="90.3704" height="8.88889" transform="matrix(-1 0 0 1 445.926 213.333)" fill="#1C555D"/>
<rect width="90.3704" height="8.88889" transform="matrix(-1 0 0 1 445.926 561.481)" fill="#1C555D"/>
<rect width="90.3704" height="8.88889" transform="matrix(-1 0 0 1 445.926 909.63)" fill="#1C555D"/>
<rect width="88.8889" height="8.88889" transform="matrix(-1 0 0 1 346.667 133.333)" fill="#1C555D"/>
<rect width="88.8889" height="8.88889" transform="matrix(-1 0 0 1 346.667 481.481)" fill="#1C555D"/>
<rect width="50.3704" height="8.88889" transform="matrix(-1 0 0 1 346.667 829.63)" fill="#1C555D"/>
<rect width="35.5556" height="8.88889" transform="matrix(-1 0 0 1 346.667 173.333)" fill="#1C555D"/>
<rect width="120" height="8.88889" transform="matrix(-1 0 0 1 346.667 521.482)" fill="#1C555D"/>
<rect width="35.5556" height="8.88889" transform="matrix(-1 0 0 1 346.667 869.63)" fill="#1C555D"/>
<rect width="81.4815" height="8.88889" transform="matrix(-1 0 0 1 346.667 146.667)" fill="#1C555D"/>
<rect width="81.4815" height="8.88889" transform="matrix(-1 0 0 1 346.667 494.815)" fill="#1C555D"/>
<rect width="45.9259" height="8.88889" transform="matrix(-1 0 0 1 346.667 842.963)" fill="#1C555D"/>
<rect width="26.6667" height="8.88889" transform="matrix(-1 0 0 1 346.667 186.667)" fill="#1C555D"/>
<rect width="90.3704" height="8.88889" transform="matrix(-1 0 0 1 346.667 534.815)" fill="#1C555D"/>
<rect width="26.6667" height="8.88889" transform="matrix(-1 0 0 1 346.667 882.963)" fill="#1C555D"/>
<rect width="93.3333" height="8.88889" transform="matrix(-1 0 0 1 346.667 160)" fill="#1C555D"/>
<rect width="93.3333" height="8.88889" transform="matrix(-1 0 0 1 346.667 508.148)" fill="#1C555D"/>
<rect width="53.3333" height="8.88889" transform="matrix(-1 0 0 1 346.667 856.296)" fill="#1C555D"/>
<rect width="71.1111" height="8.88889" transform="matrix(-1 0 0 1 346.667 200)" fill="#1C555D"/>
<rect width="71.1111" height="8.88889" transform="matrix(-1 0 0 1 346.667 548.148)" fill="#1C555D"/>
<rect width="71.1111" height="8.88889" transform="matrix(-1 0 0 1 346.667 896.296)" fill="#1C555D"/>
<rect width="115.556" height="8.88889" transform="matrix(-1 0 0 1 346.667 213.333)" fill="#1C555D"/>
<rect width="115.556" height="8.88889" transform="matrix(-1 0 0 1 346.667 561.481)" fill="#1C555D"/>
<rect width="115.556" height="8.88889" transform="matrix(-1 0 0 1 346.667 909.63)" fill="#1C555D"/>
<rect width="4.44444" height="8.88889" transform="matrix(-1 0 0 1 240 40)" fill="#606974"/>
<rect width="4.44444" height="8.88889" transform="matrix(-1 0 0 1 240 388.148)" fill="#606974"/>
<rect width="4.44444" height="8.88889" transform="matrix(-1 0 0 1 240 736.296)" fill="#606974"/>
<rect width="4.44444" height="8.88889" transform="matrix(-1 0 0 1 262.222 120)" fill="#606974"/>
<rect width="4.44444" height="8.88889" transform="matrix(-1 0 0 1 262.222 468.148)" fill="#606974"/>
<rect width="4.44444" height="8.88889" transform="matrix(-1 0 0 1 262.222 816.296)" fill="#606974"/>
<rect width="4.44444" height="8.88889" transform="matrix(-1 0 0 1 280 268.148)" fill="#606974"/>
<rect width="4.44444" height="8.88889" transform="matrix(-1 0 0 1 280 616.296)" fill="#606974"/>
<rect width="4.44444" height="8.88889" transform="matrix(-1 0 0 1 280 964.444)" fill="#606974"/>
<rect width="4.44444" height="8.88889" transform="matrix(-1 0 0 1 222.222 294.815)" fill="#606974"/>
<rect width="4.44444" height="8.88889" transform="matrix(-1 0 0 1 222.222 642.963)" fill="#606974"/>
<rect width="4.44444" height="8.88889" transform="matrix(-1 0 0 1 318.518 991.111)" fill="#606974"/>
<rect width="4.44444" height="8.88889" transform="matrix(-1 0 0 1 244.444 321.481)" fill="#606974"/>
<rect width="4.44444" height="8.88889" transform="matrix(-1 0 0 1 244.444 669.63)" fill="#606974"/>
<rect width="4.44444" height="8.88889" transform="matrix(-1 0 0 1 197.037 1017.78)" fill="#606974"/>
<rect width="57.7778" height="8.88889" transform="matrix(-1 0 0 1 280 294.815)" fill="#285261"/>
<rect width="57.7778" height="8.88889" transform="matrix(-1 0 0 1 280 642.963)" fill="#285261"/>
<rect width="57.7778" height="8.88889" transform="matrix(-1 0 0 1 376.296 991.111)" fill="#285261"/>
<rect width="80" height="8.88889" transform="matrix(-1 0 0 1 324.444 321.481)" fill="#285261"/>
<rect width="80" height="8.88889" transform="matrix(-1 0 0 1 324.444 669.63)" fill="#285261"/>
<rect width="80" height="8.88889" transform="matrix(-1 0 0 1 277.037 1017.78)" fill="#285261"/>
<rect width="4.44444" height="8.88889" transform="matrix(-1 0 0 1 337.778 281.481)" fill="#606974"/>
<rect width="4.44444" height="8.88889" transform="matrix(-1 0 0 1 337.778 629.63)" fill="#606974"/>
<rect width="4.44444" height="8.88889" transform="matrix(-1 0 0 1 337.778 977.778)" fill="#606974"/>
<rect width="4.44444" height="8.88889" transform="matrix(-1 0 0 1 216.296 308.148)" fill="#606974"/>
<rect width="4.44444" height="8.88889" transform="matrix(-1 0 0 1 315.556 656.296)" fill="#606974"/>
<rect width="4.44444" height="8.88889" transform="matrix(-1 0 0 1 315.556 1004.44)" fill="#606974"/>
<rect width="4.44444" height="8.88889" transform="matrix(-1 0 0 1 257.778 133.333)" fill="#606974"/>
<rect width="4.44444" height="8.88889" transform="matrix(-1 0 0 1 257.778 481.481)" fill="#606974"/>
<rect width="4.44444" height="8.88889" transform="matrix(-1 0 0 1 296.296 829.63)" fill="#606974"/>
<rect width="4.44444" height="8.88889" transform="matrix(-1 0 0 1 265.185 146.667)" fill="#606974"/>
<rect width="4.44444" height="8.88889" transform="matrix(-1 0 0 1 265.185 494.815)" fill="#606974"/>
<rect width="4.44444" height="8.88889" transform="matrix(-1 0 0 1 300.741 842.963)" fill="#606974"/>
<rect width="4.44444" height="8.88889" transform="matrix(-1 0 0 1 253.333 160)" fill="#606974"/>
<rect width="4.44444" height="8.88889" transform="matrix(-1 0 0 1 253.333 508.148)" fill="#606974"/>
<rect width="4.44444" height="8.88889" transform="matrix(-1 0 0 1 293.333 856.296)" fill="#606974"/>
<rect width="4.44444" height="8.88889" transform="matrix(-1 0 0 1 311.111 173.333)" fill="#606974"/>
<rect width="4.44444" height="8.88889" transform="matrix(-1 0 0 1 226.667 521.482)" fill="#606974"/>
<rect width="4.44444" height="8.88889" transform="matrix(-1 0 0 1 311.111 869.63)" fill="#606974"/>
<rect width="4.44444" height="8.88889" transform="matrix(-1 0 0 1 320 186.667)" fill="#606974"/>
<rect width="4.44444" height="8.88889" transform="matrix(-1 0 0 1 256.296 534.815)" fill="#606974"/>
<rect width="4.44444" height="8.88889" transform="matrix(-1 0 0 1 320 882.963)" fill="#606974"/>
<rect width="4.44444" height="8.88889" transform="matrix(-1 0 0 1 275.556 200)" fill="#606974"/>
<rect width="4.44444" height="8.88889" transform="matrix(-1 0 0 1 275.556 548.148)" fill="#606974"/>
<rect width="4.44444" height="8.88889" transform="matrix(-1 0 0 1 275.556 896.296)" fill="#606974"/>
<rect width="4.44444" height="8.88889" transform="matrix(-1 0 0 1 231.111 213.333)" fill="#606974"/>
<rect width="4.44444" height="8.88889" transform="matrix(-1 0 0 1 231.111 561.481)" fill="#606974"/>
<rect width="4.44444" height="8.88889" transform="matrix(-1 0 0 1 231.111 909.63)" fill="#606974"/>
<rect width="4.44444" height="8.88889" transform="matrix(-1 0 0 1 240 66.6667)" fill="#606974"/>
<rect width="4.44444" height="8.88889" transform="matrix(-1 0 0 1 380.741 414.815)" fill="#606974"/>
<rect width="4.44444" height="8.88889" transform="matrix(-1 0 0 1 340.741 762.963)" fill="#606974"/>
<rect width="4.44444" height="8.88889" transform="matrix(-1 0 0 1 297.778 53.3333)" fill="#606974"/>
<rect width="4.44444" height="8.88889" transform="matrix(-1 0 0 1 214.815 401.481)" fill="#606974"/>
<rect width="4.44444" height="8.88889" transform="matrix(-1 0 0 1 297.778 749.63)" fill="#606974"/>
</svg>
