<svg width="153" height="131" viewBox="0 0 153 131" fill="none" xmlns="http://www.w3.org/2000/svg">
<path fill-rule="evenodd" clip-rule="evenodd" d="M77.6814 0.269225C77.4302 0.536938 77.4287 0.56777 77.4287 5.43721C77.4287 8.13144 77.4612 10.4206 77.5009 10.5241C77.6949 11.03 77.9538 11.0529 83.4742 11.0529C88.9945 11.0529 89.2534 11.03 89.4475 10.5241C89.4871 10.4206 89.5197 8.12411 89.5197 5.42092V0.50599L89.2506 0.252937C88.9821 0.000581741 88.9691 0 83.4579 0H77.9343L77.6814 0.269225ZM49.0525 13.4872L48.7127 13.8273V18.6123C48.7127 23.6434 48.7407 23.9356 49.2411 24.1278C49.3445 24.1675 51.878 24.2 54.871 24.2C60.055 24.2 60.3258 24.1894 60.5873 23.9777L60.8617 23.7554L60.8944 18.7949L60.9272 13.8346L60.5836 13.4908L60.2402 13.1471H54.8163H49.3923L49.0525 13.4872ZM63.465 13.4908L63.1215 13.8346L63.1543 18.7949L63.1869 23.7554L63.4614 23.9777C63.7229 24.1894 63.9937 24.2 69.1777 24.2C72.1706 24.2 74.7042 24.1675 74.8076 24.1278C75.308 23.9356 75.336 23.6434 75.336 18.6123V13.8273L74.9962 13.4872L74.6564 13.1471H69.2324H63.8085L63.465 13.4908ZM77.9304 13.2625C77.7907 13.3198 77.6206 13.4709 77.5525 13.5983C77.4704 13.7518 77.4287 15.4981 77.4287 18.7739V23.7178L77.735 23.9589C78.035 24.195 78.1539 24.2 83.4742 24.2C88.7944 24.2 88.9134 24.195 89.2133 23.9589L89.5197 23.7178V18.7362C89.5197 14.0053 89.5085 13.7408 89.2975 13.48L89.0753 13.2053L83.6299 13.1818C80.6293 13.1689 78.0703 13.2052 77.9304 13.2625ZM115.181 16.965C112.935 20.1949 111.634 23.6721 111.254 27.4577C110.934 30.6457 111.694 34.2763 113.221 36.8578C113.421 37.1966 113.585 37.5166 113.585 37.5688C113.585 37.8505 110.708 38.8027 108.536 39.2398L107.249 39.4986L67.4304 39.5573C29.1041 39.6137 27.5909 39.624 27.0601 39.8302C26.3017 40.1249 25.42 40.9509 25.045 41.7178C24.6383 42.5499 24.5736 43.6612 24.7545 46.7141C25.2168 54.515 26.7166 60.6572 29.5843 66.4919C32.7502 72.9337 36.9705 77.2148 42.6707 79.767C48.492 82.3736 56.4349 83.7694 65.4452 83.7694C76.5948 83.7694 86.5056 81.6526 95.0518 77.4458C97.4946 76.2433 98.5212 75.6608 100.672 74.2572C110.319 67.9615 117.434 58.7121 122.776 45.5205L123.4 43.9789H124.601C131.36 43.9789 136.97 40.9957 140.084 35.7461C140.51 35.0277 141.369 32.9369 141.371 32.6161C141.372 32.4197 140.042 31.3923 139.162 30.9094C138.128 30.3416 136.243 29.7308 134.57 29.4214C132.881 29.109 129.398 29.0514 127.362 29.3024C126.659 29.3891 126.031 29.4427 125.967 29.4215C125.903 29.4004 125.738 28.8844 125.6 28.275C124.53 23.5516 121.275 19.2379 116.845 16.6742L115.803 16.071L115.181 16.965ZM34.8144 26.6962L34.529 26.9818V31.8671V36.7524L34.8095 37.0789L35.0902 37.4053H40.6326H46.1751L46.4557 37.0789L46.7362 36.7524V31.983C46.7362 26.9683 46.7081 26.675 46.2078 26.4829C46.1044 26.4432 43.5627 26.4106 40.5597 26.4106H35.0997L34.8144 26.6962ZM49.0453 26.633L48.7708 26.8553L48.7381 31.7997L48.7054 36.744L48.9896 37.0747L49.2738 37.4053H54.8163H60.3587L60.6429 37.0747L60.9271 36.744L60.8944 31.7997L60.8617 26.8553L60.5873 26.633C60.3258 26.4211 60.0542 26.4106 54.8163 26.4106C49.5783 26.4106 49.3067 26.4211 49.0453 26.633ZM63.4614 26.633L63.1869 26.8553L63.1543 31.7997L63.1216 36.744L63.4057 37.0747L63.69 37.4053H69.2324H74.7748L75.0591 37.0747L75.3432 36.744L75.3106 31.7997L75.2779 26.8553L75.0034 26.633C74.7419 26.4211 74.4704 26.4106 69.2324 26.4106C63.9945 26.4106 63.7229 26.4211 63.4614 26.633ZM77.6814 26.6798C77.4302 26.9476 77.4287 26.9784 77.4287 31.8478C77.4287 34.5421 77.4612 36.8312 77.5009 36.9347C77.6949 37.4406 77.9538 37.4635 83.4742 37.4635C88.9945 37.4635 89.2534 37.4406 89.4475 36.9347C89.4871 36.8312 89.5197 34.5347 89.5197 31.8315V26.9166L89.2506 26.6636C88.9821 26.4112 88.9691 26.4106 83.4579 26.4106H77.9343L77.6814 26.6798ZM92.0612 26.633L91.7867 26.8553L91.7541 31.7997L91.7214 36.744L92.0055 37.0747L92.2898 37.4053H97.8322H103.375L103.655 37.0789L103.936 36.7524V31.8671V26.9818L103.65 26.6962L103.365 26.4106H97.8503C92.5946 26.4106 92.3228 26.4211 92.0612 26.633ZM22.5543 94.0707C22.0617 94.2918 21.5551 94.7577 21.2942 95.2295C21.1234 95.5381 21.0943 96.28 21.0429 101.648L20.9848 107.717L20.0547 107.089C16.5989 104.758 11.8083 104.347 7.80391 106.037C5.18051 107.144 2.62804 109.583 1.27664 112.274C0.400164 114.02 0 115.806 0 117.975C0 121.674 1.15759 124.48 3.77401 127.124C6.20964 129.586 8.90523 130.807 12.2654 130.969C15.2489 131.114 17.8823 130.389 20.2742 128.765C21.2829 128.08 23.0184 126.364 23.6939 125.383C24.7808 123.805 25.4436 122.213 25.7552 120.432C25.8978 119.617 25.9255 117.5 25.924 107.518L25.922 95.5785L25.6613 95.118C25.2481 94.3878 24.5523 93.9675 23.6854 93.9242C23.2079 93.9003 22.8226 93.9502 22.5543 94.0707ZM83.3614 94.0147C82.8392 94.2346 82.3131 94.7125 82.049 95.2071L81.7884 95.6949V112.449V129.203L82.0967 129.726C82.2664 130.014 82.5541 130.358 82.7362 130.491C83.9785 131.399 85.5766 131.061 86.363 129.726L86.6713 129.203L86.7119 124.665L86.7526 120.128L88.0744 119.273C88.8015 118.803 89.4418 118.437 89.4972 118.459C89.5527 118.481 91.7836 120.959 94.4548 123.967C100.534 130.812 100.433 130.706 101.09 130.89C102.278 131.223 103.401 130.725 103.973 129.609C104.344 128.887 104.356 128.23 104.011 127.516C103.903 127.292 101.541 124.55 98.7611 121.423C95.9817 118.296 93.7332 115.697 93.7644 115.646C93.7957 115.596 96.0264 114.122 98.7216 112.373C103.957 108.973 104.099 108.857 104.237 107.848C104.348 107.036 104.109 106.364 103.488 105.745C102.849 105.108 102.111 104.883 101.279 105.07C100.932 105.148 98.6744 106.552 93.8087 109.717C89.974 112.211 86.8139 114.252 86.7863 114.252C86.7587 114.252 86.7215 110.077 86.7037 104.973L86.6713 95.6949L86.3807 95.1764C85.9399 94.3904 85.261 93.9679 84.3728 93.9271C83.9745 93.9088 83.5193 93.9483 83.3614 94.0147ZM40.0188 105.069C37.0679 105.355 34.4648 106.617 32.2449 108.838C29.9729 111.112 28.7448 113.723 28.495 116.812C28.1665 120.872 29.4263 124.356 32.2277 127.135C34.8161 129.703 37.3535 130.821 40.9233 130.969C44.8189 131.131 48.2291 129.721 50.9524 126.824C53.1612 124.474 54.236 121.912 54.3747 118.666C54.5422 114.746 53.2756 111.452 50.5756 108.784C48.4004 106.635 45.69 105.352 42.7117 105.062C41.433 104.938 41.3763 104.938 40.0188 105.069ZM68.3891 105.069C65.4972 105.349 62.85 106.623 60.6848 108.779C58.5899 110.864 57.3634 113.237 56.9629 115.978C56.7428 117.484 56.872 119.984 57.2427 121.399C57.8317 123.646 59.0711 125.688 60.9057 127.434C62.5931 129.04 64.3501 130.024 66.6106 130.631C67.6077 130.899 67.9346 130.929 69.8137 130.929C71.7111 130.929 72.0148 130.9 73.069 130.619C75.4671 129.981 78.1636 128.332 78.7559 127.142C79.4586 125.731 78.8071 124.147 77.3494 123.723C76.3963 123.446 75.7284 123.633 74.581 124.5C72.9707 125.717 70.8661 126.278 68.8613 126.024C64.7093 125.499 61.729 122.137 61.7354 117.986C61.7375 116.595 61.9577 115.637 62.5668 114.368C62.9605 113.548 63.2224 113.2 64.1024 112.328C65.7995 110.646 67.466 109.953 69.8184 109.949C71.6532 109.946 73.0198 110.401 74.6122 111.544C75.6709 112.305 75.749 112.345 76.3402 112.443C77.8124 112.687 79.1019 111.55 79.0983 110.011C79.0963 109.194 78.9139 108.787 78.2811 108.187C76.4619 106.462 73.8587 105.333 71.0815 105.062C69.8003 104.938 69.7433 104.938 68.3891 105.069ZM135.236 105.056C134.587 105.214 133.957 105.741 133.639 106.39L133.345 106.992L133.376 118.164L133.408 129.336L133.728 129.821C134.354 130.767 135.547 131.22 136.546 130.89C137.004 130.738 137.797 130.094 138.035 129.678C138.136 129.502 138.193 127.696 138.242 123.094C138.318 116.066 138.318 116.063 139.114 114.43C140.169 112.265 142.235 110.638 144.596 110.112C145.971 109.806 147.846 109.926 149.37 110.419C150.487 110.781 150.605 110.797 151.114 110.662C152.639 110.259 153.431 108.591 152.759 107.201C152.197 106.04 150.446 105.297 147.72 105.062C144.39 104.775 141.425 105.57 138.785 107.458L138.232 107.853V107.325C138.232 106.464 137.565 105.475 136.786 105.18C136.361 105.02 135.626 104.961 135.236 105.056ZM115.368 105.226C110.207 106.207 106.022 110.4 105.039 115.574C104.805 116.807 104.805 119.26 105.039 120.493C105.957 125.325 109.688 129.338 114.457 130.62C115.527 130.908 115.797 130.933 117.829 130.933C119.842 130.933 120.137 130.906 121.156 130.631C123.205 130.078 125.15 128.999 126.432 127.706C127.129 127.002 127.421 126.427 127.42 125.757C127.417 124.486 126.281 123.327 125.038 123.327C124.343 123.327 123.797 123.565 123.071 124.185C121.624 125.421 120.152 126 118.236 126.087C116.648 126.159 115.607 125.941 114.167 125.234C113.241 124.779 112.902 124.529 112.072 123.689C111.15 122.757 110.42 121.652 110.163 120.801L110.085 120.544L119.537 120.51L128.99 120.477L129.469 120.22C130.054 119.907 130.492 119.405 130.682 118.829C130.896 118.18 130.751 116.06 130.4 114.694C129.279 110.33 125.562 106.599 121.192 105.453C120.227 105.2 119.723 105.144 118.119 105.109C116.822 105.081 115.931 105.119 115.368 105.226ZM15.4625 110.285C17.4397 110.965 19.2328 112.518 20.1444 114.34C20.8655 115.782 21.0921 116.852 21.01 118.429C20.8547 121.415 19.2315 123.887 16.5381 125.24C11.3491 127.846 5.1983 124.217 4.91614 118.382C4.84313 116.872 5.06879 115.793 5.74495 114.422C6.79757 112.288 8.75665 110.694 11.0349 110.118C12.0491 109.861 14.4993 109.954 15.4625 110.285ZM43.3112 110.122C43.6923 110.219 44.4908 110.537 45.0856 110.829C46.9781 111.758 48.4417 113.475 49.1439 115.59C49.4107 116.394 49.4535 116.719 49.4573 117.975C49.4624 119.655 49.3101 120.299 48.5635 121.756C47.9008 123.05 46.46 124.492 45.1667 125.156C43.793 125.862 42.9811 126.05 41.3302 126.044C40.1472 126.04 39.7936 125.993 39.005 125.734C37.4563 125.227 36.0869 124.291 35.1557 123.106C33.9563 121.578 33.3664 119.892 33.3664 117.993C33.3664 116.622 33.5937 115.651 34.214 114.368C34.6038 113.563 34.8878 113.183 35.7466 112.32C36.6125 111.449 36.9772 111.174 37.7875 110.782C38.3301 110.519 39.0877 110.228 39.4708 110.135C40.4091 109.908 42.4374 109.902 43.3112 110.122ZM120.27 110.336C122.531 111.073 124.569 112.921 125.327 114.921L125.559 115.532H117.821H110.082L110.16 115.27C110.328 114.712 110.954 113.597 111.467 112.943C112.446 111.697 114.394 110.492 116.03 110.122C117.19 109.86 119.106 109.956 120.27 110.336Z" fill="url(#paint0_linear)"/>
<defs>
<linearGradient id="paint0_linear" x1="76.5" y1="0" x2="76.5" y2="131" gradientUnits="userSpaceOnUse">
<stop stop-color="#767676"/>
<stop offset="1" stop-color="#767676" stop-opacity="0.5"/>
</linearGradient>
</defs>
</svg>
