<svg width="252" height="57" viewBox="0 0 252 57" fill="none" xmlns="http://www.w3.org/2000/svg">
<path fill-rule="evenodd" clip-rule="evenodd" d="M12.8049 0.873121C11.4702 1.26238 8.91719 2.83626 7.13057 4.37089C-2.14256 12.334 -2.42516 30.4612 6.5997 38.4315C10.6878 42.0414 13.4324 42.7983 20.7417 42.3313C27.0108 41.9308 30.7078 39.6321 33.5737 34.3538C35.9942 29.8941 36.1347 28.0543 34.0543 28.0543C33.0221 28.0543 32.2309 28.9297 31.6402 30.7255C29.5271 37.1507 21.5775 41.0898 14.554 39.1924C8.66492 37.6017 3.6771 30.7591 3.66113 24.2498L3.65634 22.4476H20.1326H36.6089L36.1874 17.7845C35.0362 5.04769 24.5329 -2.54856 12.8049 0.873121ZM89.4743 1.53471C86.2787 3.01487 83.6778 5.42334 82.0285 8.43092C81.3141 9.73408 81.1815 9.21105 81.3204 5.62758C81.4761 1.60759 81.334 1.19991 79.6951 0.966029L77.8989 0.710525V28.8553V57L79.6951 56.7445C81.4721 56.4906 81.4889 56.3704 81.2686 45.2748L81.0458 34.0615L82.7662 36.6998C85.3599 40.6773 89.555 42.4715 96.26 42.4715C103.176 42.4715 107.238 40.6333 110.596 35.9838C115.226 29.5705 115.845 17.5882 111.945 9.86703C107.629 1.32165 97.8023 -2.32189 89.4743 1.53471ZM151.742 1.52589C145.203 4.53588 141.138 10.8514 140.386 19.1709C139.513 28.828 143.263 37.5512 149.704 40.848C154.302 43.2012 163.361 43.101 167.675 40.6493C171.084 38.7118 174.844 33.8028 175.632 30.2569C176.031 28.4596 175.844 28.0543 174.617 28.0543C173.629 28.0543 172.444 29.3591 171.162 31.8588C170.088 33.9509 168.084 36.4251 166.707 37.3558C161.798 40.6757 154.074 40.4523 149.521 36.8592C147.167 35.001 144.545 29.7691 143.803 25.4512L143.287 22.4476H159.556C168.504 22.4476 175.999 22.273 176.212 22.0592C177.309 20.9578 175.264 11.6123 173.174 8.17462C168.89 1.13103 159.159 -1.88777 151.742 1.52589ZM192.855 0.539123C185.311 3.00606 183.275 5.25995 183.275 11.1446C183.275 14.4885 183.653 15.4953 185.67 17.5178C188.279 20.1361 190.107 20.8417 199.446 22.8377C207.159 24.4861 210.418 26.9049 210.418 30.9818C210.418 36.7334 206.744 39.4495 198.886 39.5071C191.59 39.56 186.524 36.1808 185.263 30.4195C184.567 27.2405 181.679 27.0531 181.679 30.1864C181.679 33.7979 185.273 38.9321 189.105 40.7927C196.245 44.2608 209.14 42.3914 212.388 37.4175C215.484 32.6758 214.302 25.7379 209.905 22.8473C208.821 22.1345 204.151 20.6223 199.528 19.4873C189.62 17.0548 186.469 14.9659 186.469 10.8338C186.469 3.77658 199.886 0.628827 206.427 6.15141C207.805 7.31439 208.978 9.25991 209.282 10.8818C209.653 12.8666 210.219 13.6371 211.305 13.6371C212.389 13.6371 212.813 13.0628 212.813 11.5947C212.813 7.29276 208.95 2.55833 204.112 0.93319C201.398 0.020903 195.112 -0.199357 192.855 0.539123ZM228.446 1.15986C223.829 2.88271 221.481 5.61557 221.074 9.73808C220.407 16.5126 224.088 19.8029 235.207 22.3715C245.913 24.8449 248.737 26.7343 248.737 31.4279C248.737 36.1327 243.667 39.4535 236.406 39.5071C229.143 39.56 225.574 37.3229 223.578 31.4656C222.891 29.4536 221.995 28.3699 220.875 28.1985C218.925 27.9005 218.828 28.8144 220.356 33.1131C222.688 39.6738 227.471 42.4715 236.356 42.4715C239.681 42.4715 243.574 41.9797 245.008 41.379C253.607 37.7739 254.484 26.2289 246.471 22.1296C245.302 21.5321 240.769 20.2314 236.398 19.239C230.182 17.8285 227.965 16.9475 226.22 15.1974C223.816 12.7857 223.567 11.6524 224.753 8.52143C226.237 4.60556 234.287 2.27879 240.522 3.9632C244.104 4.93075 246.778 7.8214 247.259 11.2447C247.609 13.73 251.132 14.6543 251.132 12.2603C251.132 9.45054 247.57 3.67966 244.88 2.13062C241.364 0.105005 232.652 -0.409212 228.446 1.15986ZM38.7819 1.19991C38.7819 1.46582 41.7204 5.54509 45.312 10.2635C48.9036 14.9827 52.1351 19.239 52.4936 19.7228C52.8935 20.2626 50.2136 24.5141 45.5643 30.7159C41.3947 36.2785 37.9835 41.1219 37.9835 41.4791C37.9835 41.8363 38.7659 42.1279 39.7231 42.1279C41.0187 42.1279 43.2492 39.7058 48.4605 32.6382L55.4593 23.1477L60.9453 30.6069C63.9629 34.7094 67.0778 39.057 67.8666 40.2689C69.262 42.4114 73.1091 43.443 73.1091 41.6753C73.1091 41.2372 69.6883 36.3498 65.5076 30.8136C61.0522 24.9138 58.1384 20.3547 58.4665 19.7965C58.7747 19.2718 61.7635 15.239 65.1084 10.8338C73.026 0.406963 72.8081 0.821857 70.3749 0.821857C68.724 0.821857 67.184 2.38933 62.1451 9.19744C58.7347 13.8045 55.7658 17.569 55.5463 17.5626C55.3268 17.5562 52.4313 13.8774 49.1119 9.38726C44.4019 3.01647 42.6041 1.16627 40.9293 0.969232C39.7478 0.829865 38.7819 0.93319 38.7819 1.19991ZM121.193 21.4464C121.395 40.9593 121.487 42.071 122.895 42.071C124.275 42.071 124.373 41.3373 124.253 31.9461C124.091 19.3431 124.739 14.2619 126.923 11.01C129.187 7.63878 133.093 5.08374 136.992 4.42295C139.48 4.00165 140.167 3.53148 140.167 2.25076C140.167 0.786613 139.828 0.671279 136.89 1.14304C132.684 1.81744 129.181 3.65163 126.406 6.63198L124.201 9.0012V4.91153C124.201 1.34408 123.995 0.821857 122.591 0.821857C121.012 0.821857 120.984 1.22794 121.193 21.4464ZM23.3626 4.07453C28.1987 5.90391 31.1947 10.0481 32.7379 17.0412L33.224 19.2438H18.4402C10.3094 19.2438 3.65634 18.9491 3.65634 18.5886C3.65634 18.2274 4.18642 16.1409 4.83464 13.9503C7.20402 5.94716 15.9662 1.2768 23.3626 4.07453ZM102.394 4.78098C113.396 9.79335 114.24 31.2189 103.694 37.7587C98.5255 40.9633 89.6228 39.8532 85.7111 35.516C81.6765 31.0427 80.4399 18.1209 83.4176 11.5418C86.7162 4.25395 94.8637 1.35129 102.394 4.78098ZM164.945 5.02687C168.836 6.99561 171.569 11.0404 172.524 16.2402L173.075 19.2438H158.303H143.53L144.287 15.8638C146.617 5.45858 156.034 0.518296 164.945 5.02687Z" fill="url(#paint0_linear)"/>
<defs>
<linearGradient id="paint0_linear" x1="126" y1="0" x2="126" y2="57" gradientUnits="userSpaceOnUse">
<stop stop-color="#767676"/>
<stop offset="1" stop-color="#767676" stop-opacity="0.5"/>
</linearGradient>
</defs>
</svg>
