<svg width="274" height="67" viewBox="0 0 274 67" fill="none" xmlns="http://www.w3.org/2000/svg">
<path fill-rule="evenodd" clip-rule="evenodd" d="M2.70698 0.275975C0.849535 1.09852 0.0134825 2.46628 0.0343753 4.64951C0.0488656 6.15559 0.543555 7.09559 1.86688 8.13319C2.7919 8.85846 3.24244 8.92779 7.72801 9.03549L12.5873 9.15227L6.67797 15.0935C3.42778 18.3611 0.600505 21.3655 0.39562 21.7697C0.14558 22.2624 0.022581 26.1251 0.022581 33.4818C0.022581 45.8095 0.0427999 45.9259 2.37505 47.1143C4.01986 47.9523 4.75077 47.9624 6.17014 47.1662C6.78277 46.8225 15.7337 38.1088 26.0615 27.8021L44.8392 9.06275L48.1025 9.159L51.3655 9.25526L26.077 34.4969C12.1681 48.3798 0.616006 60.0693 0.405392 60.4735C-0.476826 62.1681 0.146927 65.0339 1.6374 66.133C2.49872 66.7685 3.16359 66.8115 13.5019 66.9048C19.5254 66.9589 24.7948 66.9182 25.2116 66.8142C25.6288 66.7102 32.9599 59.6678 41.503 51.1648C50.0462 42.6614 57.2495 35.5277 57.51 35.3117C57.911 34.9795 57.9835 35.4066 57.9835 38.1024V41.2855L48.7225 50.5118C42.3448 56.866 39.3426 60.0912 39.0795 60.8717C38.4699 62.6793 38.8928 64.5798 40.1709 65.7733L41.2773 66.8062L52.6625 66.9031L64.0478 67L65.4173 65.7241C67.1787 64.0831 67.5389 62.2391 66.4434 60.4688C65.114 58.3206 64.409 58.0729 59.2472 57.9413C56.6989 57.876 54.6136 57.7357 54.6136 57.6286C54.6136 57.5219 57.3314 54.6845 60.6534 51.3233C65.4641 46.4557 66.7362 44.9782 66.9054 44.0614C67.0223 43.4287 67.0719 38.2875 67.0156 32.6371C66.9148 22.5149 66.902 22.3489 66.1421 21.3844C64.589 19.4135 62.5374 18.7111 60.9273 19.5993C60.5129 19.8281 51.5997 28.5422 41.1202 38.9643L22.0666 57.9134L18.7581 57.8164L15.4496 57.7192L40.608 32.6458C54.4452 18.8555 66.0811 7.07035 66.4656 6.45613C67.5359 4.74744 67.1632 2.87687 65.4311 1.26309L64.0751 0H53.1323C47.1134 0 41.8191 0.140344 41.3669 0.312323C40.9147 0.483966 33.4916 7.67783 24.871 16.2987C16.2503 24.9192 9.10424 31.9727 8.99068 31.9727C8.87712 31.9727 8.78411 30.5673 8.78411 28.8498V25.7266L10.5961 23.8856C11.5929 22.8729 12.7679 21.7209 13.2077 21.3255C13.6474 20.93 14.7079 19.8699 15.5642 18.9696C16.4201 18.0693 17.4816 17.0068 17.9231 16.6086C18.3642 16.2102 20.3025 14.2794 22.2304 12.3176C24.1586 10.3555 25.8404 8.75043 25.9685 8.75043C26.0962 8.75043 26.4868 8.22035 26.8362 7.57249C27.1857 6.92462 27.5715 6.39454 27.6942 6.39454C27.8168 6.39454 28.015 5.87255 28.135 5.23444C28.4163 3.73576 27.7269 2.08597 26.327 0.909709L25.2447 0L14.2341 0.0235587C8.17855 0.0366844 2.99139 0.150103 2.70698 0.275975ZM76.5175 35.1784V56.8949L81.8249 56.8021L87.1324 56.7095L87.2224 48.3798L87.3127 40.05H95.2257H103.139V35.8492V31.6486L95.3042 31.5581L87.4694 31.4679L87.3757 26.8403L87.282 22.2126H97.4009H107.52V17.8374V13.4622H92.0186H76.5175V35.1784ZM112.575 35.1784V56.8949L117.882 56.8021L123.189 56.7095L123.279 48.3798L123.37 40.05H131.283H139.196V35.8431V31.6362H131.277H123.358V26.9294V22.2227L133.383 22.1335L143.408 22.0443L143.503 17.7533L143.597 13.4622H128.086H112.575V35.1784ZM257.054 23.5652C253.596 24.4403 251.124 26.4111 249.064 29.9335C246.499 34.3198 245.738 40.4142 247.059 45.9973C247.928 49.6684 249.017 51.7211 251.311 54.0127C255.579 58.2752 263.071 58.609 267.48 54.7333C268.296 54.0161 269.006 53.486 269.057 53.555C269.109 53.624 269.421 54.4071 269.751 55.2956L270.35 56.9104L272.085 56.8101L273.82 56.7095L273.91 47.8749L274 39.0404H267.086H260.173V42.2376V45.4349H263.249H266.325L266.098 46.8484C265.833 48.5026 265.51 48.9502 263.807 50.0242C261.393 51.5461 258.109 50.7552 256.386 48.2371C255.141 46.4177 254.656 43.4445 254.858 38.8684C255.006 35.5133 255.15 34.7809 255.975 33.1503C257.282 30.5713 259.398 29.3338 261.748 29.774C263.469 30.0964 265.759 32.489 266.062 34.2825C266.332 35.8798 266.42 35.9006 270.451 35.3241C273.992 34.8179 273.971 34.8301 273.752 33.3879C273.535 31.9653 272.14 28.8088 271.331 27.9118C269.412 25.7835 268.956 25.4203 266.929 24.4019C265.368 23.6177 264.585 23.4619 261.706 23.3623C259.843 23.2977 257.75 23.3892 257.054 23.5652ZM147.509 23.8113C147.303 24.1545 147.297 55.5484 147.502 56.2888C147.643 56.796 148.103 56.8778 150.808 56.8778C153.363 56.8778 153.99 56.7782 154.156 56.3454C154.268 56.0525 154.367 50.4869 154.374 43.977L154.389 32.141L155.222 34.6652C156.486 38.4962 157.248 40.9274 158.225 44.257C158.714 45.9229 159.807 49.444 160.653 52.0819L162.192 56.8778L164.595 56.8727C165.916 56.8697 167.168 56.7563 167.378 56.6203C167.587 56.4843 168.086 55.2371 168.487 53.8488C168.888 52.4605 169.431 50.6431 169.693 49.8101C171.599 43.7632 172.344 41.3485 172.753 39.8818C173.012 38.9562 173.371 37.8961 173.55 37.5259C173.73 37.1557 174.044 36.1712 174.247 35.3383C175.375 30.7221 175.415 30.9849 175.59 44.0887L175.759 56.7095H179.634H183.509L183.596 40.1342L183.684 23.5588L177.531 23.5642L171.378 23.5696L170.58 26.1725C170.141 27.6042 169.496 29.5152 169.147 30.4188C168.799 31.3228 168.514 32.2618 168.514 32.5058C168.514 32.7495 168.048 34.4333 167.479 36.2473C166.909 38.061 166.276 40.1207 166.071 40.8241C165.866 41.5275 165.592 42.169 165.462 42.2494C165.15 42.4416 164.162 39.2817 161.987 31.1313C161.592 29.6505 161.175 28.2874 161.06 28.1023C160.946 27.9172 160.658 26.9328 160.422 25.9147C160.185 24.8966 159.823 23.9523 159.619 23.8163C159.128 23.4902 147.705 23.4851 147.509 23.8113ZM190.08 40.186V56.8778H193.948H197.815L197.907 50.9039L197.999 44.9301L202.886 44.7406C206.785 44.5895 208.141 44.4047 209.597 43.8262C212.374 42.7233 214.383 40.3836 215.206 37.2947C216.338 33.05 215.502 29.5017 212.717 26.7198C211.718 25.7215 210.727 24.9041 210.515 24.903C210.304 24.9017 209.676 24.6456 209.12 24.3339C208.261 23.8523 206.751 23.7463 199.095 23.6305L190.08 23.4942V40.186ZM219.735 40.2139V56.8778H231.523H243.311L243.502 56.1165C243.607 55.6978 243.648 54.2214 243.593 52.8351L243.492 50.315L235.741 50.1467L227.991 49.9784L227.894 46.7047L227.798 43.4307L233.96 43.3392L240.122 43.2473V40.05V36.8528L233.972 36.7609L227.822 36.6693V33.4795V30.2899H235.363C241.424 30.2899 242.981 30.1974 243.297 29.8178C243.545 29.5182 243.653 28.3181 243.59 26.5363L243.492 23.7271L231.613 23.6386L219.735 23.5501V40.2139ZM205.277 30.5104C208.267 31.7055 208.444 36.2355 205.558 37.7063C204.537 38.2266 203.576 38.3673 201.046 38.3673H197.831V34.1603V29.9534H200.857C202.886 29.9534 204.342 30.1368 205.277 30.5104Z" fill="url(#paint0_linear)"/>
<defs>
<linearGradient id="paint0_linear" x1="137" y1="0" x2="137" y2="67" gradientUnits="userSpaceOnUse">
<stop stop-color="#767676"/>
<stop offset="1" stop-color="#767676" stop-opacity="0.5"/>
</linearGradient>
</defs>
</svg>
