<svg width="265" height="74" viewBox="0 0 265 74" fill="none" xmlns="http://www.w3.org/2000/svg">
<path fill-rule="evenodd" clip-rule="evenodd" d="M18.4965 18.4156C8.32331 28.5413 0 36.898 0 36.9857C0 37.2699 11.1081 48.2121 11.3964 48.2121C11.55 48.2121 22.5621 37.3644 35.8678 24.1061L60.0599 0L48.5265 0.00252268L36.9931 0.00532577L18.4965 18.4156ZM92.1198 16.3277C92.0461 16.5205 92.0183 26.2644 92.0582 37.9811L92.1311 59.2841H94.6629H97.1948L97.2688 49.964L97.3431 40.6439H106.341H115.34V38.1212V35.5985H106.338H97.3355V28.3106V21.0227H107.322H117.309V18.5V15.9773H104.782C95.0188 15.9773 92.2245 16.0546 92.1198 16.3277ZM123.217 37.5606V59.1439H125.889H128.562V37.5606V15.9773H125.889H123.217V37.5606ZM173.572 23.9659V28.3106H170.9H168.227V30.6932V33.0758H170.887H173.547L173.63 43.6572L173.713 54.2386L174.517 55.8694C175.507 57.8789 177.216 59.2011 179.688 59.871C181.527 60.3694 184.223 60.3055 185.748 59.7278C186.502 59.4422 186.513 59.4029 186.513 56.9085C186.513 55.5171 186.418 54.3833 186.302 54.3886C186.186 54.3942 185.774 54.5789 185.387 54.7992C184.446 55.3357 181.907 55.3254 180.85 54.7807C180.34 54.5175 179.784 53.8717 179.464 53.169C178.973 52.0921 178.929 51.2231 178.923 42.536L178.917 33.0758H182.726H186.536L186.454 30.7633L186.372 28.4508L182.645 28.3726L178.917 28.2943V23.9578V19.6212H176.245H173.572V23.9659ZM195.515 23.9553V28.3106H192.842H190.17V30.6825V33.0547L192.772 33.1352L195.374 33.2159L195.515 43.8674C195.653 54.2986 195.669 54.5461 196.308 55.838C198.021 59.3048 202.671 61.0842 206.852 59.873L208.455 59.4085V56.8937C208.455 55.5104 208.408 54.3788 208.349 54.3788C208.291 54.3788 207.788 54.568 207.233 54.7992C206.009 55.3086 203.787 55.3399 202.838 54.8612C202.456 54.6683 201.854 54.0839 201.501 53.5625C200.864 52.6202 200.86 52.5498 200.86 42.8449V33.0758H204.517H208.174V30.6932V28.3106H204.524H200.874L200.797 24.036L200.719 19.7614L198.117 19.6806L195.515 19.6002V23.9553ZM222.269 27.9134C218.45 28.9365 215.123 31.8001 213.287 35.6431C212.673 36.9288 212.005 38.6748 211.804 39.5227C211.323 41.5423 211.319 46.2646 211.796 48.2121C212.937 52.8702 216.086 56.8547 220.143 58.7745C222.145 59.7216 222.574 59.8164 225.378 59.9316C230.971 60.1612 234.257 59.0116 237.572 55.6659C238.655 54.5728 239.761 53.2817 240.031 52.7973L240.522 51.9163L238.343 50.8845L236.165 49.8525L235.465 50.7842C234.304 52.3303 232.944 53.5197 231.421 54.3205C230.116 55.0061 229.691 55.0795 227.022 55.0795C224.358 55.0795 223.911 55.0027 222.468 54.2964C219.472 52.8304 217.283 49.7199 216.748 46.169L216.55 44.8485H228.859H241.168L241.011 41.8352C240.78 37.3815 239.681 34.5984 237.026 31.7415C235.31 29.8943 233.037 28.5503 230.527 27.8988C228.465 27.3637 224.294 27.371 222.269 27.9134ZM258.086 27.9798C256.001 28.6983 253.858 30.3809 252.892 32.0585L252.065 33.4962L252.062 30.8925L252.059 28.2887L249.598 28.3697L247.136 28.4508V43.8674V59.2841L249.725 59.3645L252.314 59.445L252.398 49.5539L252.481 39.6629L253.213 38.1083C254.732 34.8812 257.054 33.1066 260.073 32.8653C261.322 32.7655 262.307 32.8616 263.279 33.1786C264.052 33.4303 264.755 33.6364 264.842 33.6364C264.929 33.6364 265 32.3949 265 30.8776V28.1192L263.912 27.7943C262.348 27.3273 259.74 27.4103 258.086 27.9798ZM135.876 39.4123C135.876 48.5964 135.952 50.8111 136.319 52.2362C137.464 56.6893 140.407 59.3245 145.037 60.0418C149.186 60.6845 153.649 59.1877 156.281 56.2706L157.537 54.8788V57.0114V59.1439H160.069H162.601V43.7273V28.3106H159.945H157.289L157.191 38.1913C157.081 49.2173 157.059 49.3639 155.067 51.9872C153.691 53.8014 151.875 54.9004 149.624 55.2816C146.422 55.824 143.384 54.4323 142.04 51.8073C141.168 50.1047 140.957 47.3423 140.948 37.4905L140.939 28.3106H138.408H135.876V39.4123ZM229.485 32.6606C232.409 33.5259 234.959 36.4296 235.361 39.3529L235.538 40.6439H226.198H216.857L217.044 40.0133C217.42 38.7435 218.567 36.4229 219.278 35.4945C221.413 32.7044 225.654 31.5271 229.485 32.6606ZM26.9346 43.9389L16.879 53.9611L26.9374 63.9806L36.9959 74H48.5271H60.0579L50.1432 64.1179C44.6899 58.6826 40.2282 54.1108 40.2282 53.9583C40.2282 53.8058 44.6899 49.2341 50.1432 43.7988L60.0579 33.9167H48.5243H36.9903L26.9346 43.9389Z" fill="url(#paint0_linear)"/>
<defs>
<linearGradient id="paint0_linear" x1="132.5" y1="0" x2="132.5" y2="74" gradientUnits="userSpaceOnUse">
<stop stop-color="#767676"/>
<stop offset="1" stop-color="#767676" stop-opacity="0.5"/>
</linearGradient>
</defs>
</svg>
