<svg width="104" height="102" viewBox="0 0 104 102" fill="none" xmlns="http://www.w3.org/2000/svg">
<path fill-rule="evenodd" clip-rule="evenodd" d="M16.8863 0.0151324C16.8726 0.0288625 16.7128 0.0517461 16.5311 0.0659581C16.3495 0.0802181 16.1685 0.103342 16.129 0.11741C16.0895 0.131477 15.9603 0.152289 15.8418 0.163659C15.7234 0.175028 15.5511 0.205572 15.459 0.231491C15.3668 0.257409 15.1299 0.298648 14.9325 0.323121C14.7351 0.347595 14.4874 0.392591 14.3821 0.423135C14.0836 0.509707 13.8777 0.561207 13.5924 0.620463C13.4476 0.650573 13.2917 0.694558 13.246 0.718261C13.2003 0.741963 13.1333 0.76133 13.097 0.76133C13.0608 0.76133 12.8745 0.826368 12.683 0.905858C12.4915 0.985348 12.2914 1.05039 12.2385 1.05039C12.156 1.05039 11.8062 1.19376 11.523 1.34363C11.4773 1.36782 11.4124 1.38762 11.3787 1.38762C11.3141 1.38762 10.7137 1.67022 10.6728 1.71984C10.6597 1.73583 10.5952 1.7566 10.5297 1.76599C10.4641 1.77534 10.3531 1.82414 10.2829 1.87439C10.2129 1.92464 10.1345 1.96573 10.1089 1.96573C10.0833 1.96573 10.0367 1.99685 10.0053 2.03491C9.97395 2.07292 9.87976 2.11864 9.79606 2.13646C9.7123 2.15424 9.60073 2.20825 9.54808 2.25637C9.49544 2.30455 9.33391 2.40322 9.18913 2.47562C9.04434 2.54808 8.85098 2.66891 8.75943 2.7442C8.66787 2.8195 8.57353 2.88107 8.5498 2.88107C8.52601 2.88107 8.40166 2.95695 8.2734 3.04969C8.14518 3.14243 8.0226 3.2183 8.00111 3.2183C7.97957 3.2183 7.88811 3.28522 7.7978 3.36702C7.70753 3.44878 7.57443 3.54691 7.50202 3.58502C7.4296 3.62318 7.3704 3.67911 7.3704 3.70931C7.3704 3.73957 7.35733 3.75113 7.34139 3.73509C7.32541 3.719 7.2662 3.74997 7.20977 3.80388C7.15334 3.85779 7.01823 3.96412 6.90949 4.04019C6.8008 4.11626 6.69919 4.21174 6.68368 4.2524C6.66818 4.29306 6.63233 4.32635 6.60404 4.32635C6.55096 4.32635 6.2839 4.5548 5.97467 4.86477C5.87751 4.96213 5.75336 5.06585 5.69875 5.09529C5.64418 5.12468 5.59953 5.17569 5.59953 5.20865C5.59953 5.24165 5.55444 5.30047 5.49936 5.33945C5.32007 5.46624 5.21664 5.56525 5.21664 5.6101C5.21664 5.63423 5.17069 5.68588 5.1145 5.72485C5.05832 5.76383 4.98834 5.82535 4.95896 5.86158C4.92957 5.8978 4.81939 6.0222 4.7141 6.13796C4.318 6.57347 3.73294 7.28942 3.73294 7.3387C3.73294 7.35339 3.68757 7.41332 3.63205 7.47186C3.57658 7.53034 3.47707 7.66326 3.41093 7.76713C3.34474 7.87104 3.2493 8.00069 3.19886 8.05527C3.14836 8.1098 3.09476 8.20365 3.07978 8.26377C3.0648 8.32395 3.03474 8.37313 3.01306 8.37313C2.99138 8.37313 2.96151 8.41105 2.94672 8.45744C2.93198 8.50384 2.86588 8.60472 2.79993 8.68175C2.73398 8.75873 2.67989 8.84545 2.6798 8.87445C2.67966 8.90341 2.6148 9.02471 2.53559 9.14395C2.45643 9.26319 2.34492 9.4583 2.28786 9.57753C2.23077 9.69677 2.17032 9.80516 2.15352 9.81841C2.10848 9.85392 1.91421 10.2737 1.91421 10.3354C1.91421 10.3646 1.89717 10.3957 1.8764 10.4046C1.83314 10.4229 1.57918 10.9529 1.57918 11.0248C1.57918 11.0715 1.4826 11.2646 1.4356 11.3119C1.42244 11.3251 1.40684 11.3576 1.4009 11.3841C1.37467 11.5014 1.21922 11.9329 1.13182 12.1309C1.01035 12.406 0.974886 12.5003 0.914485 12.709C0.765493 13.2236 0.606595 13.7597 0.5718 13.8652C0.549927 13.9314 0.517476 14.1049 0.499672 14.2506C0.481915 14.3963 0.447359 14.5538 0.422902 14.6006C0.398493 14.6474 0.370782 14.7558 0.361305 14.8415C0.351877 14.9272 0.32962 15.0515 0.311864 15.1178C0.294155 15.184 0.270704 15.2995 0.25984 15.3745C0.248975 15.4495 0.227724 15.5308 0.212647 15.5554C0.197619 15.5799 0.174311 15.7896 0.16091 16.0213C0.147556 16.253 0.128939 16.486 0.119607 16.539C0.110226 16.592 0.100986 16.6962 0.0990236 16.7706C0.0970135 16.8476 0.0749023 16.8932 0.047765 16.8763C0.0161287 16.8566 4.79688e-05 28.3259 1.07483e-07 51.0089C-4.77538e-05 73.739 0.0158887 85.1613 0.0476686 85.1415C0.0748538 85.1246 0.0976382 85.1703 0.100414 85.2471C0.103142 85.3215 0.112236 85.4583 0.120611 85.551C0.128987 85.6438 0.145929 85.8497 0.158278 86.0087C0.170626 86.1677 0.204463 86.3953 0.233467 86.5146C0.262471 86.6338 0.292337 86.7856 0.299755 86.8518C0.307174 86.918 0.325025 86.9939 0.339431 87.0204C0.35379 87.0469 0.36925 87.1293 0.373797 87.2036C0.378296 87.2779 0.40122 87.3755 0.424673 87.4204C0.448125 87.4654 0.482297 87.6214 0.50058 87.7671C0.53169 88.015 0.586302 88.2384 0.671256 88.4657C0.752333 88.6826 0.861263 89.0847 0.861263 89.1669C0.861263 89.2153 0.882801 89.2683 0.909125 89.2847C0.935448 89.3011 0.956986 89.3569 0.956986 89.4086C0.956986 89.4604 0.976754 89.5405 1.00092 89.5865C1.09239 89.7605 1.23171 90.1091 1.26469 90.2465C1.28354 90.325 1.3596 90.5201 1.43373 90.6801C1.50787 90.84 1.60857 91.0737 1.65758 91.1995C1.70659 91.3253 1.76283 91.4282 1.78259 91.4283C1.80236 91.4284 1.81849 91.4499 1.81849 91.4759C1.81849 91.5594 2.37014 92.637 2.53181 92.8694C2.57958 92.9381 2.654 93.0701 2.69717 93.1629C2.74039 93.2556 2.84028 93.4073 2.9192 93.5001C2.99808 93.5928 3.06269 93.6927 3.06279 93.7221C3.06283 93.7515 3.13807 93.8707 3.22992 93.9871C3.32181 94.1034 3.39719 94.2258 3.39743 94.2589C3.39772 94.292 3.41438 94.3191 3.43453 94.3191C3.45463 94.3191 3.59572 94.4925 3.74802 94.7045C3.90036 94.9165 4.04543 95.0899 4.07041 95.0899C4.09539 95.0899 4.11655 95.117 4.11741 95.1501C4.11942 95.2255 4.28349 95.4271 4.34274 95.4271C4.36701 95.4271 4.4174 95.4868 4.45474 95.5596C4.52969 95.7058 4.91789 96.1214 5.64897 96.8379C5.83238 97.0177 5.98242 97.1857 5.98242 97.2113C5.98242 97.2369 6.00712 97.2578 6.03727 97.2578C6.08566 97.2578 6.32554 97.4551 6.70034 97.8032C6.76615 97.8643 6.87384 97.9483 6.93965 97.9897C7.00545 98.0312 7.1185 98.1209 7.19092 98.1891C7.26333 98.2573 7.32287 98.2978 7.32325 98.2792C7.32368 98.2606 7.33981 98.2682 7.35915 98.2959C7.37849 98.3237 7.46971 98.3985 7.56184 98.4621C7.65397 98.5258 7.74659 98.606 7.76764 98.6405C7.7887 98.6749 7.83259 98.7031 7.86514 98.7031C7.89773 98.7031 7.99901 98.7673 8.09014 98.8456C8.18126 98.9241 8.28278 98.9891 8.31566 98.9902C8.34859 98.9913 8.37548 99.0138 8.37548 99.0403C8.37548 99.0668 8.40564 99.0885 8.44249 99.0885C8.4793 99.0885 8.62412 99.1752 8.76426 99.2812C8.9044 99.3872 9.04166 99.4739 9.06928 99.4739C9.0969 99.4739 9.23742 99.5521 9.38148 99.6476C9.52559 99.7431 9.67587 99.8277 9.71546 99.8356C9.75499 99.8435 9.92408 99.9279 10.0911 100.023C10.2582 100.119 10.4098 100.197 10.4281 100.197C10.4463 100.197 10.6058 100.272 10.7825 100.365C10.9592 100.458 11.1318 100.534 11.1659 100.534C11.2539 100.534 11.4856 100.647 11.4861 100.69C11.4863 100.71 11.5289 100.726 11.5808 100.726C11.6326 100.726 11.7456 100.766 11.832 100.815C11.9184 100.864 12.0687 100.919 12.166 100.937C12.2634 100.956 12.4946 101.034 12.6797 101.111C12.8649 101.187 13.1164 101.265 13.2386 101.284C13.3609 101.302 13.571 101.358 13.7055 101.407C13.84 101.457 13.9952 101.497 14.0503 101.497C14.1056 101.497 14.1669 101.514 14.1867 101.533C14.2064 101.553 14.2369 101.572 14.2544 101.574C14.272 101.576 14.4048 101.597 14.5496 101.62C14.6944 101.643 14.8299 101.657 14.8507 101.651C14.8715 101.645 14.9256 101.661 14.9709 101.685C15.0163 101.709 15.15 101.741 15.2681 101.755C15.3862 101.77 15.5513 101.802 15.6348 101.828C15.7184 101.853 15.797 101.864 15.8095 101.851C15.822 101.838 15.919 101.852 16.0252 101.881C16.1314 101.909 16.3543 101.948 16.5206 101.967C16.8946 102.008 87.1916 102.012 87.4902 101.971C87.6086 101.954 87.7917 101.924 87.897 101.903C88.0023 101.883 88.1638 101.861 88.256 101.855C88.3481 101.85 88.4235 101.841 88.4235 101.836C88.4235 101.831 88.4594 101.82 88.5032 101.812C88.5471 101.803 88.6979 101.771 88.8383 101.739C89.1854 101.662 89.2463 101.652 89.5385 101.622C89.6779 101.608 89.8129 101.584 89.8384 101.568C89.8639 101.552 89.9437 101.529 90.0156 101.517C90.0876 101.505 90.1895 101.477 90.2422 101.454C90.3509 101.406 90.6513 101.323 90.8644 101.281C91.0087 101.253 91.4709 101.089 91.6078 101.018C91.6482 100.997 91.7559 100.965 91.8471 100.947C92.0386 100.908 92.1256 100.876 92.4125 100.733C92.5268 100.677 92.6506 100.63 92.6877 100.63C92.7247 100.63 92.7549 100.608 92.7549 100.582C92.7549 100.555 92.7979 100.534 92.8505 100.534C92.9031 100.534 93.0907 100.458 93.2674 100.365C93.4441 100.272 93.6064 100.197 93.6279 100.197C93.6495 100.197 93.8159 100.112 93.9976 100.008C94.1793 99.9045 94.3778 99.804 94.4388 99.7848C94.4998 99.7657 94.5605 99.7343 94.5736 99.7151C94.5868 99.696 94.7444 99.6009 94.9237 99.5038C95.1031 99.4067 95.2965 99.2836 95.3535 99.2301C95.4105 99.1767 95.5061 99.1206 95.5658 99.1055C95.6256 99.0904 95.6744 99.0587 95.6744 99.0351C95.6744 99.0115 95.7051 98.9922 95.7426 98.9922C95.78 98.9922 95.8753 98.9271 95.9542 98.8476C96.0332 98.7681 96.1285 98.7031 96.1659 98.7031C96.2033 98.7031 96.2736 98.659 96.322 98.6052C96.3704 98.5513 96.4868 98.4601 96.5807 98.4024C96.6745 98.3447 96.8267 98.2263 96.9188 98.1394C97.011 98.0524 97.1016 97.9811 97.1202 97.9809C97.1583 97.9804 97.9538 97.2889 98.2111 97.0325C99.2947 95.953 99.6498 95.5631 100.099 94.9593C100.202 94.8213 100.314 94.6973 100.349 94.6838C100.384 94.6704 100.413 94.6337 100.413 94.6023C100.413 94.5709 100.479 94.4565 100.559 94.3479C101.006 93.7475 101.13 93.5671 101.13 93.5189C101.13 93.4895 101.206 93.3703 101.298 93.254C101.39 93.1376 101.465 93.0071 101.465 92.964C101.465 92.9209 101.498 92.8586 101.537 92.8256C101.577 92.7926 101.609 92.7412 101.609 92.7113C101.609 92.6814 101.663 92.594 101.729 92.517C101.795 92.44 101.849 92.3475 101.849 92.3114C101.849 92.2753 101.935 92.103 102.04 91.9286C102.145 91.7541 102.231 91.5865 102.231 91.5561C102.231 91.4853 102.436 91.0722 102.481 91.0516C102.5 91.0431 102.529 90.9615 102.546 90.8704C102.563 90.7793 102.596 90.6929 102.62 90.6784C102.643 90.6639 102.662 90.6218 102.662 90.5848C102.662 90.5478 102.723 90.381 102.798 90.2142C103.03 89.694 103.292 88.8723 103.412 88.2845C103.427 88.2113 103.458 88.1395 103.481 88.125C103.505 88.1105 103.524 88.0284 103.524 87.9426C103.524 87.8567 103.544 87.7658 103.568 87.7406C103.592 87.7155 103.634 87.5323 103.661 87.3336C103.688 87.1348 103.734 86.853 103.763 86.7073C103.829 86.3777 103.898 85.9258 103.954 85.4547C104.015 84.9453 104.016 17.0397 103.955 16.539C103.903 16.1073 103.842 15.7154 103.761 15.2864C103.731 15.1274 103.678 14.8347 103.643 14.636C103.558 14.1562 103.524 14.0046 103.477 13.8893C103.407 13.7153 103.284 13.2776 103.284 13.1972C103.283 13.1206 103.191 12.8299 103.137 12.7331C103.122 12.7066 103.071 12.5548 103.023 12.3958C102.974 12.2368 102.874 11.9703 102.799 11.8035C102.724 11.6367 102.662 11.4792 102.662 11.4536C102.662 11.4279 102.643 11.3692 102.619 11.3232C102.596 11.2772 102.474 11.0125 102.348 10.7349C102.223 10.4574 102.062 10.1301 101.99 10.0076C101.918 9.88509 101.844 9.7328 101.825 9.66916C101.805 9.60552 101.752 9.51009 101.707 9.45709C101.661 9.4041 101.575 9.25625 101.515 9.12858C101.455 9.00092 101.358 8.83832 101.3 8.76726C101.241 8.6962 101.163 8.57928 101.126 8.50735C101.089 8.43547 100.93 8.18896 100.772 7.95954C100.614 7.73018 100.462 7.50375 100.434 7.45644C100.407 7.40908 100.305 7.28768 100.207 7.18666C100.11 7.08558 100.03 6.97699 100.03 6.94529C100.03 6.91364 100.012 6.8805 99.9902 6.87163C99.9684 6.86282 99.755 6.62796 99.516 6.34974C99.277 6.07153 99.0418 5.80887 98.9933 5.76609C98.9448 5.72331 98.8165 5.59324 98.7081 5.47704C98.3163 5.05684 97.6515 4.45055 97.1821 4.08514C96.9978 3.94172 96.7956 3.77474 96.7329 3.71404C96.67 3.65338 96.5926 3.60371 96.5608 3.60371C96.529 3.60371 96.4647 3.56122 96.418 3.50929C96.3714 3.45735 96.1903 3.32212 96.0158 3.20877C95.8412 3.09541 95.6699 2.97531 95.6352 2.94187C95.6004 2.90844 95.5452 2.88107 95.5125 2.88107C95.4799 2.88107 95.4042 2.83516 95.3443 2.77899C95.2845 2.72286 95.092 2.60165 94.9167 2.50964C94.7413 2.41767 94.587 2.32787 94.5738 2.31019C94.5531 2.28249 93.946 1.97614 92.9968 1.51442C92.8534 1.44466 92.7107 1.38762 92.6797 1.38762C92.6487 1.38762 92.4579 1.31174 92.2557 1.219C92.0535 1.12626 91.8367 1.05039 91.7739 1.05039C91.7111 1.05039 91.648 1.03131 91.6337 1.00794C91.6194 0.984626 91.5589 0.954612 91.4993 0.941267C91.4396 0.927874 91.2479 0.863078 91.0733 0.797269C90.8987 0.731461 90.651 0.661895 90.5229 0.642673C90.3948 0.623498 90.2685 0.590835 90.2422 0.570168C90.2159 0.5495 90.1297 0.520306 90.0507 0.505371C89.9718 0.490437 89.8102 0.453871 89.6918 0.424098C89.5733 0.394325 89.3364 0.349955 89.1653 0.32553C88.6675 0.254326 88.5339 0.231346 88.5016 0.211305C88.485 0.200899 88.3571 0.179653 88.2174 0.163996C88.0778 0.148339 87.9162 0.123721 87.8585 0.109268C87.8007 0.0948154 87.6565 0.068993 87.538 0.0518905C87.2838 0.0151804 16.9226 -0.0214332 16.8863 0.0151324ZM74.4359 22.6443C74.6662 22.6514 74.8547 22.6772 74.8547 22.7015C74.8547 22.7258 74.869 22.7314 74.8863 22.7139C74.9036 22.6965 74.9508 22.7091 74.9912 22.7421C75.0521 22.7917 75.0574 22.7896 75.0223 22.7296C74.9884 22.6717 74.9938 22.6681 75.049 22.7114C75.087 22.741 75.1557 22.7593 75.2018 22.7517C75.2479 22.7442 75.2855 22.7592 75.2855 22.7849C75.2855 22.8106 75.3071 22.8182 75.3334 22.8018C75.3597 22.7855 75.3813 22.7938 75.3813 22.8203C75.3813 22.8468 75.4243 22.8602 75.477 22.85C75.5296 22.8398 75.5727 22.8519 75.5727 22.8768C75.5727 22.9019 75.5889 22.9197 75.6086 22.9166C75.6283 22.9134 75.6553 22.9151 75.6684 22.9203C75.6952 22.9308 75.8249 22.963 75.9268 22.9846C75.9637 22.9924 76.0283 23.0276 76.0704 23.0628C76.1126 23.098 76.147 23.1128 76.147 23.0957C76.147 23.0786 76.2009 23.1001 76.2667 23.1435C76.3325 23.1869 76.387 23.2037 76.3878 23.1807C76.3886 23.1578 76.4115 23.1775 76.4386 23.2244C76.4658 23.2713 76.5082 23.2971 76.5329 23.2818C76.5576 23.2664 76.5778 23.2768 76.5778 23.3048C76.5778 23.3329 76.6075 23.3559 76.6437 23.3559C76.68 23.3559 76.7369 23.3889 76.7702 23.4293C76.8035 23.4697 76.839 23.4944 76.8491 23.4842C76.9013 23.4317 77.7421 24.2411 77.948 24.5421C78.0455 24.6846 78.1418 24.8011 78.162 24.8011C78.1821 24.8011 78.2135 24.8499 78.2317 24.9095C78.2498 24.9691 78.3379 25.1383 78.4273 25.2853C78.5167 25.4324 78.5997 25.6048 78.6119 25.6684C78.6241 25.7319 78.6647 25.8501 78.7022 25.9309C78.8622 26.276 78.9223 26.4595 78.9525 26.6948C78.9912 26.9959 79.0078 27.0895 79.0226 27.0895C79.0507 27.0895 79.049 28.9259 79.0207 28.9684C79.0031 28.9949 78.9826 29.1025 78.9752 29.2077C78.9678 29.3128 78.9218 29.528 78.873 29.6859C78.8242 29.8438 78.7972 29.9942 78.8131 30.0201C78.8292 30.0463 78.8175 30.0519 78.7868 30.0328C78.7356 30.001 78.7274 30.0204 78.7124 30.2089C78.7098 30.242 78.6877 30.2836 78.6633 30.3013C78.6389 30.319 78.6119 30.3802 78.6032 30.4373C78.5847 30.5594 78.1503 31.3128 78.0128 31.4615C77.9606 31.5178 77.9179 31.5824 77.9179 31.605C77.9179 31.6275 77.8318 31.7285 77.7265 31.8293C77.6212 31.9301 77.535 32.0377 77.535 32.0682C77.535 32.0988 77.5037 32.1239 77.4655 32.1239C77.4272 32.1239 77.3267 32.2106 77.2421 32.3166C77.1575 32.4226 77.0589 32.5093 77.023 32.5093C76.9871 32.5093 76.9453 32.5417 76.9303 32.5813C76.9151 32.6209 76.8853 32.6424 76.8638 32.629C76.8423 32.6157 76.7854 32.6537 76.7372 32.7136C76.689 32.7734 76.6065 32.8294 76.5539 32.8378C76.5012 32.8463 76.4345 32.8839 76.4055 32.9214C76.3766 32.9589 76.3389 32.9754 76.3218 32.9582C76.3046 32.941 76.2906 32.9534 76.2906 32.9859C76.2906 33.0183 76.2699 33.032 76.2445 33.0163C76.2192 33.0005 76.1586 33.0276 76.1099 33.0766C76.0612 33.1256 75.9959 33.1571 75.9646 33.1466C75.9333 33.1361 75.9077 33.1463 75.9077 33.1693C75.9077 33.1921 75.8497 33.2157 75.7788 33.2217C75.7079 33.2276 75.6379 33.2509 75.6232 33.2735C75.6086 33.2962 75.559 33.3088 75.5129 33.3016C75.4668 33.2945 75.4291 33.3097 75.4291 33.3354C75.4291 33.3611 75.4076 33.3688 75.3813 33.3524C75.3549 33.336 75.3334 33.3437 75.3334 33.3693C75.3334 33.3951 75.2957 33.4105 75.2496 33.4037C75.2036 33.3968 75.1374 33.4259 75.1025 33.4682C75.0677 33.5105 75.0528 33.518 75.0695 33.4849C75.0861 33.4518 75.0769 33.4246 75.0491 33.4246C75.0212 33.4246 74.9984 33.4444 74.9984 33.4686C74.9984 33.4927 74.9607 33.5063 74.9146 33.4988C74.8685 33.4913 74.7998 33.5095 74.7619 33.5392C74.7066 33.5825 74.7013 33.5789 74.7351 33.521C74.7716 33.4587 74.7663 33.4578 74.6965 33.5148C74.6519 33.5512 74.6155 33.5667 74.6155 33.5493C74.6155 33.5319 74.5698 33.5422 74.514 33.5723C74.4343 33.6152 74.4205 33.614 74.4496 33.5665C74.4762 33.5232 74.4676 33.5183 74.4195 33.5494C74.3236 33.611 72.9405 33.608 72.9396 33.5461C72.9392 33.5191 72.918 33.5294 72.8925 33.5692C72.867 33.6089 72.8458 33.6173 72.8453 33.5878C72.8449 33.5583 72.7962 33.5379 72.7369 33.5424C72.6777 33.547 72.6023 33.5305 72.5694 33.5059C72.5365 33.4812 72.5096 33.4772 72.5096 33.4969C72.5096 33.5167 72.4732 33.503 72.4286 33.4667C72.3588 33.4097 72.3535 33.4105 72.3899 33.4728C72.4249 33.5326 72.4197 33.5348 72.3595 33.4858C72.3194 33.4532 72.2345 33.4169 72.1708 33.4051C72.1071 33.3933 72.0495 33.3793 72.0429 33.374C72.0364 33.3688 72.0094 33.359 71.9831 33.3524C71.9568 33.3457 71.9245 33.3349 71.9113 33.3283C71.8982 33.3216 71.8659 33.3108 71.8395 33.3042C71.8132 33.2976 71.7863 33.2878 71.7797 33.2824C71.7622 33.2682 71.5859 33.2271 71.5165 33.2211C71.4836 33.2182 71.4566 33.1965 71.4566 33.1729C71.4566 33.1493 71.4375 33.1418 71.4142 33.1563C71.3909 33.1708 71.3454 33.1507 71.3131 33.1115C71.2808 33.0723 71.2377 33.0507 71.2173 33.0633C71.197 33.076 71.1539 33.0543 71.1216 33.0151C71.0893 32.976 71.0436 32.9559 71.0201 32.9705C70.9966 32.9852 70.9644 32.9633 70.9486 32.9218C70.9328 32.8804 70.8804 32.8465 70.8321 32.8465C70.7839 32.8465 70.7308 32.8245 70.7143 32.7976C70.6978 32.7707 70.6642 32.7611 70.6397 32.7763C70.6152 32.7916 70.5951 32.769 70.5951 32.7261C70.5951 32.6832 70.5736 32.6615 70.5473 32.6779C70.521 32.6943 70.4994 32.6853 70.4994 32.6579C70.4994 32.6305 70.4397 32.577 70.3667 32.539C70.2937 32.501 70.1388 32.3825 70.0227 32.2755C69.9065 32.1686 69.7954 32.0911 69.7759 32.1033C69.7563 32.1155 69.7247 32.1001 69.7056 32.0691C69.6823 32.031 69.6929 32.0251 69.7382 32.0509C69.7752 32.072 69.7246 32.0103 69.6259 31.9138C69.5271 31.8174 69.4579 31.7385 69.4722 31.7385C69.4864 31.7385 69.4753 31.7114 69.4474 31.6783C69.2256 31.4148 69.1594 31.3214 69.1593 31.2722C69.1593 31.241 69.1262 31.1821 69.0858 31.1414C69.0454 31.1007 69.0077 31.0504 69.002 31.0296C68.9964 31.0088 68.9756 30.9972 68.9559 31.0038C68.9361 31.0104 68.9225 30.9996 68.9256 30.9797C68.9442 30.8614 68.9137 30.7732 68.8647 30.8036C68.8344 30.8226 68.8216 30.8183 68.8364 30.7942C68.8512 30.77 68.824 30.669 68.776 30.5696C68.728 30.4702 68.71 30.4021 68.7361 30.4183C68.7621 30.4346 68.7552 30.4022 68.7206 30.3464C68.686 30.2906 68.6449 30.245 68.6293 30.245C68.6137 30.245 68.5973 30.2125 68.593 30.1728C68.5886 30.133 68.5814 30.068 68.577 30.0282C68.5726 29.9885 68.5498 29.956 68.5263 29.956C68.5028 29.956 68.4969 29.9343 68.5132 29.9078C68.5294 29.8813 68.5242 29.8596 68.5016 29.8596C68.4616 29.8596 68.4514 29.8002 68.4308 29.4501C68.4254 29.3574 68.4027 29.2815 68.3805 29.2815C68.3582 29.2815 68.3524 29.2613 68.3675 29.2367C68.3827 29.212 68.3762 29.18 68.353 29.1656C68.3298 29.1512 68.3166 29.0414 68.3236 28.9214C68.3307 28.8015 68.3199 28.7138 68.2996 28.7264C68.2793 28.7389 68.2703 28.6836 68.2796 28.6035C68.2912 28.5034 68.2794 28.4683 68.2419 28.4916C68.205 28.5145 68.2006 28.5039 68.2283 28.4588C68.2841 28.3679 68.2911 28.2232 68.2413 28.1922C68.2189 28.1782 68.2164 28.1412 68.2359 28.1099C68.294 28.0163 68.293 27.9326 68.2338 27.9319C68.1985 27.9314 68.1957 27.9181 68.226 27.8957C68.2917 27.8471 68.303 27.5382 68.2376 27.5789C68.2049 27.5993 68.202 27.5866 68.2292 27.5426C68.2822 27.457 68.2988 27.379 68.3152 27.135C68.3225 27.0276 68.3413 26.9188 68.3571 26.8931C68.3728 26.8676 68.3985 26.7594 68.4143 26.653C68.4646 26.3134 68.4844 26.2381 68.5412 26.1692C68.5717 26.1322 68.5807 26.1019 68.561 26.1019C68.5414 26.1019 68.5522 26.0694 68.585 26.0296C68.6178 25.9899 68.6257 25.957 68.6028 25.9566C68.5798 25.9562 68.5836 25.94 68.6111 25.9205C68.6387 25.901 68.7202 25.7464 68.7923 25.5769C68.8644 25.4073 68.9765 25.2051 69.0414 25.1275C69.1062 25.05 69.1593 24.9568 69.1593 24.9206C69.1593 24.8844 69.2072 24.821 69.2657 24.7798C69.3242 24.7386 69.3583 24.7048 69.3416 24.7048C69.302 24.7048 69.5665 24.3994 69.7815 24.1967C70.1875 23.814 70.3313 23.6931 70.3808 23.6931C70.4099 23.6931 70.4948 23.6288 70.5696 23.5503C70.6443 23.4717 70.7237 23.4188 70.7461 23.4327C70.7684 23.4465 70.7866 23.4367 70.7866 23.4107C70.7866 23.3848 70.8497 23.3496 70.9269 23.3325C71.004 23.3154 71.0926 23.2706 71.1237 23.2329C71.1549 23.1951 71.1994 23.1761 71.2227 23.1906C71.2461 23.2051 71.2652 23.194 71.2652 23.166C71.2652 23.138 71.2975 23.115 71.337 23.115C71.3765 23.115 71.4088 23.0933 71.4088 23.0668C71.4088 23.0403 71.425 23.0212 71.4447 23.0243C71.4644 23.0275 71.4913 23.0258 71.5045 23.0207C71.5326 23.0096 71.628 22.9859 71.7846 22.951C71.8465 22.9372 71.9314 22.898 71.9733 22.8639C72.0373 22.8116 72.0427 22.8133 72.007 22.8741C71.9694 22.9383 71.9745 22.9383 72.0531 22.8741C72.1017 22.8344 72.1489 22.8073 72.158 22.8139C72.1997 22.8442 72.2732 22.8216 72.251 22.7853C72.2373 22.7629 72.2845 22.7487 72.3559 22.7538C72.4272 22.7589 72.5271 22.7284 72.5777 22.6861C72.6431 22.6313 72.6582 22.6287 72.6301 22.6768C72.6007 22.727 72.6079 22.7336 72.6577 22.7025C72.6947 22.6794 72.8971 22.6527 73.1075 22.6432C73.3179 22.6337 73.4963 22.6196 73.504 22.6118C73.5117 22.6041 73.6303 22.6053 73.7676 22.6145C73.9049 22.6237 74.2057 22.6371 74.4359 22.6443ZM36.6129 26.1111C36.6133 26.0724 36.6368 26.0628 36.6735 26.0863C36.7565 26.1394 36.8189 26.1395 36.8888 26.0869C36.9293 26.0565 36.9489 26.0633 36.9494 26.1081C36.95 26.1635 36.9568 26.1636 36.9913 26.1088C37.0171 26.0677 37.0436 26.0617 37.0625 26.0925C37.0956 26.1465 37.1794 26.1437 37.2717 26.0857C37.3081 26.0628 37.3318 26.0727 37.3323 26.1111C37.3329 26.1613 37.3414 26.1609 37.3742 26.1088C37.4 26.0677 37.4265 26.0617 37.4454 26.0925C37.4785 26.1465 37.5623 26.1437 37.6546 26.0857C37.691 26.0628 37.7147 26.0727 37.7152 26.1111C37.7158 26.1613 37.7243 26.1609 37.757 26.1088C37.7829 26.0677 37.8094 26.0617 37.8283 26.0925C37.8614 26.1465 37.9452 26.1437 38.0375 26.0857C38.0739 26.0628 38.0976 26.0727 38.0981 26.1111C38.0987 26.1613 38.1071 26.1609 38.1399 26.1088C38.1658 26.0677 38.1923 26.0617 38.2112 26.0925C38.2443 26.1465 38.3281 26.1437 38.4204 26.0857C38.4568 26.0628 38.4805 26.0727 38.4809 26.1111C38.4816 26.1621 38.4895 26.1618 38.5222 26.1098C38.5775 26.022 38.5973 26.0198 38.684 26.0922C38.7396 26.1387 38.7676 26.1404 38.793 26.0991C38.818 26.0584 38.8383 26.0611 38.8684 26.1088C38.8944 26.1502 38.9098 26.1536 38.9103 26.1182C38.911 26.0586 38.9942 26.0576 39.0872 26.1161C39.1182 26.1356 39.1586 26.1273 39.1769 26.0976C39.2004 26.0592 39.2221 26.0625 39.2513 26.1088C39.2773 26.1502 39.2927 26.1536 39.2931 26.1182C39.2939 26.0586 39.3771 26.0576 39.47 26.1161C39.5011 26.1356 39.5415 26.1273 39.5598 26.0976C39.5833 26.0592 39.605 26.0625 39.6342 26.1088C39.6677 26.1621 39.6756 26.1609 39.6768 26.1019C39.678 26.0377 39.6834 26.0377 39.7246 26.1019C39.761 26.1586 39.7712 26.16 39.7718 26.1081C39.7723 26.0566 39.7875 26.0544 39.84 26.0983C39.891 26.1409 39.9159 26.1411 39.9417 26.0991C39.9667 26.0584 39.987 26.0611 40.017 26.1088C40.0506 26.1621 40.0585 26.1609 40.0596 26.1019C40.0609 26.0377 40.0663 26.0377 40.1075 26.1019C40.1439 26.1586 40.1541 26.16 40.1547 26.1081C40.1552 26.0566 40.1704 26.0544 40.2229 26.0983C40.2739 26.1409 40.2988 26.1411 40.3246 26.0991C40.3495 26.0584 40.3699 26.0611 40.3999 26.1088C40.4335 26.1621 40.4413 26.1609 40.4425 26.1019C40.4438 26.0377 40.4491 26.0377 40.4904 26.1019C40.5268 26.1586 40.537 26.16 40.5375 26.1081C40.5381 26.0566 40.5532 26.0544 40.6058 26.0983C40.6568 26.1409 40.6817 26.1411 40.7075 26.0991C40.7324 26.0584 40.7528 26.0611 40.7828 26.1088C40.8164 26.1621 40.8242 26.1609 40.8254 26.1019C40.8267 26.0377 40.832 26.0377 40.8733 26.1019C40.9097 26.1586 40.9199 26.16 40.9204 26.1081C40.921 26.0566 40.9361 26.0544 40.9887 26.0983C41.0397 26.1409 41.0646 26.1411 41.0904 26.0991C41.1153 26.0584 41.1357 26.0611 41.1657 26.1088C41.1993 26.1621 41.2071 26.1609 41.2083 26.1019C41.2096 26.0377 41.2149 26.0377 41.2562 26.1019C41.2926 26.1586 41.3027 26.16 41.3033 26.1081C41.3038 26.0582 41.3198 26.0551 41.3683 26.0956C41.4036 26.1251 41.4473 26.1344 41.4654 26.1162C41.5226 26.0586 41.639 26.0599 41.6398 26.1182C41.6403 26.1536 41.6556 26.1502 41.6817 26.1088C41.7117 26.0611 41.7321 26.0584 41.757 26.0991C41.7794 26.1355 41.8104 26.1387 41.8467 26.1083C41.9306 26.0383 41.9831 26.0387 42.0278 26.1098C42.0613 26.163 42.0685 26.1627 42.0691 26.1081C42.0696 26.0606 42.0868 26.0561 42.1296 26.0919C42.2296 26.1754 42.2437 26.1766 42.3257 26.1081C42.3928 26.052 42.4049 26.052 42.4056 26.1081C42.4062 26.1635 42.4129 26.1636 42.4474 26.1088C42.4733 26.0677 42.4998 26.0617 42.5187 26.0925C42.5518 26.1465 42.6356 26.1437 42.7279 26.0857C42.7643 26.0628 42.788 26.0727 42.7885 26.1111C42.7891 26.1613 42.7976 26.1609 42.8303 26.1088C42.8562 26.0677 42.8827 26.0617 42.9016 26.0925C42.9347 26.1465 43.0185 26.1437 43.1108 26.0857C43.1472 26.0628 43.1709 26.0727 43.1713 26.1111C43.172 26.1613 43.1804 26.1609 43.2132 26.1088C43.2391 26.0677 43.2656 26.0617 43.2845 26.0925C43.3176 26.1465 43.4014 26.1437 43.4937 26.0857C43.5301 26.0628 43.5538 26.0727 43.5542 26.1111C43.5549 26.1613 43.5633 26.1609 43.5961 26.1088C43.622 26.0677 43.6485 26.0617 43.6674 26.0925C43.7005 26.1465 43.7843 26.1437 43.8766 26.0857C43.913 26.0628 43.9367 26.0727 43.9371 26.1111C43.9376 26.1511 43.9508 26.1559 43.973 26.1244C44.0136 26.0669 44.0797 26.0638 44.1605 26.1155C44.1915 26.1354 44.2319 26.1273 44.2502 26.0976C44.2737 26.0592 44.2954 26.0625 44.3246 26.1088C44.3506 26.1502 44.366 26.1536 44.3664 26.1182C44.3672 26.0586 44.4503 26.0576 44.5433 26.1161C44.5744 26.1356 44.6148 26.1273 44.6331 26.0976C44.6566 26.0592 44.6783 26.0625 44.7075 26.1088C44.741 26.1621 44.7489 26.1609 44.7501 26.1019C44.7513 26.0377 44.7567 26.0377 44.7979 26.1019C44.8343 26.1586 44.8445 26.16 44.8451 26.1081C44.8456 26.0566 44.8608 26.0544 44.9133 26.0983C44.9643 26.1409 44.9892 26.1411 45.015 26.0991C45.0399 26.0584 45.0603 26.0611 45.0903 26.1088C45.1239 26.1621 45.1317 26.1609 45.1329 26.1019C45.1342 26.0377 45.1395 26.0377 45.1808 26.1019C45.2172 26.1586 45.2274 26.16 45.2279 26.1081C45.2285 26.0566 45.2436 26.0544 45.2962 26.0983C45.3472 26.1409 45.3721 26.1411 45.3979 26.0991C45.4228 26.0584 45.4432 26.0611 45.4732 26.1088C45.5068 26.1621 45.5146 26.1609 45.5158 26.1019C45.5171 26.0377 45.5224 26.0377 45.5637 26.1019C45.6001 26.1586 45.6103 26.16 45.6108 26.1081C45.6114 26.0566 45.6265 26.0544 45.6791 26.0983C45.7301 26.1409 45.755 26.1411 45.7808 26.0991C45.8057 26.0584 45.8261 26.0611 45.8561 26.1088C45.8897 26.1621 45.8975 26.1609 45.8987 26.1019C45.9 26.0377 45.9053 26.0377 45.9466 26.1019C45.983 26.1586 45.9932 26.16 45.9937 26.1081C45.9943 26.0566 46.0094 26.0544 46.062 26.0983C46.113 26.1409 46.1379 26.1411 46.1637 26.0991C46.1886 26.0584 46.209 26.0611 46.239 26.1088C46.2726 26.1621 46.2804 26.1609 46.2816 26.1019C46.2829 26.0377 46.2882 26.0377 46.3295 26.1019C46.3659 26.1586 46.376 26.16 46.3766 26.1081C46.3771 26.0582 46.3931 26.0551 46.4416 26.0956C46.4769 26.1251 46.5206 26.1344 46.5387 26.1162C46.5959 26.0586 46.7123 26.0599 46.7131 26.1182C46.7136 26.1536 46.7289 26.1502 46.755 26.1088C46.7841 26.0625 46.8058 26.0592 46.8293 26.0976C46.8476 26.1273 46.888 26.1356 46.9191 26.1161C47.0121 26.0576 47.0952 26.0586 47.096 26.1182C47.0965 26.1536 47.1118 26.1502 47.1379 26.1088C47.1679 26.0611 47.1882 26.0584 47.2132 26.0991C47.2355 26.1355 47.2665 26.1387 47.3029 26.1083C47.3868 26.0383 47.4392 26.0387 47.484 26.1098C47.5175 26.163 47.5247 26.1627 47.5253 26.1081C47.5259 26.052 47.5381 26.052 47.6052 26.1081C47.701 26.1881 47.686 26.1881 47.7819 26.1081C47.849 26.052 47.8611 26.052 47.8618 26.1081C47.8623 26.16 47.8725 26.1586 47.9089 26.1019C47.9426 26.0494 47.9555 26.0469 47.956 26.0927C47.9564 26.1274 47.9768 26.1433 48.0013 26.1281C48.0258 26.1128 48.0596 26.1227 48.0764 26.1501C48.0932 26.1774 48.1324 26.1851 48.1635 26.1672C48.1946 26.1493 48.204 26.1524 48.1844 26.1742C48.1648 26.1959 48.1918 26.244 48.2442 26.281C48.2967 26.318 48.3396 26.3808 48.3396 26.4206C48.3396 26.4604 48.3566 26.4825 48.3773 26.4696C48.3979 26.4567 48.4165 26.4825 48.4185 26.5269C48.4249 26.668 48.4839 26.9228 48.5297 27.0077C48.6006 27.1392 48.8183 27.7271 48.8183 27.7873C48.8183 27.8176 48.8635 27.9549 48.9189 28.0923C49.1587 28.6872 49.199 28.8007 49.2281 28.9622C49.2416 29.0376 49.3165 29.2408 49.3945 29.4138C49.4724 29.5868 49.5362 29.7596 49.5362 29.7977C49.5362 29.8357 49.6212 30.0874 49.7251 30.357C49.829 30.6266 49.9294 30.9123 49.9483 30.9918C49.9672 31.0712 50.0152 31.2122 50.055 31.3049C50.0949 31.3976 50.1324 31.4952 50.1385 31.5217C50.1446 31.5482 50.1812 31.6457 50.2198 31.7385C50.2584 31.8312 50.284 31.9441 50.2766 31.9893C50.2692 32.0345 50.2934 32.0968 50.3304 32.1277C50.3674 32.1586 50.3977 32.2111 50.3977 32.2443C50.3977 32.2776 50.4341 32.3888 50.4785 32.4914C50.523 32.594 50.562 32.6888 50.5652 32.702C50.6479 33.0417 50.7551 33.3201 50.794 33.2958C50.8222 33.2783 50.8288 33.2888 50.8094 33.3203C50.7908 33.3506 50.8078 33.4461 50.8471 33.5325C50.8864 33.6189 50.9433 33.7872 50.9735 33.9064C51.0037 34.0256 51.0566 34.1882 51.091 34.2677C51.1971 34.513 51.3483 34.9349 51.3844 35.0867C51.4285 35.2715 51.4178 35.2418 51.5383 35.5123C51.5954 35.6403 51.6421 35.7662 51.6421 35.7921C51.6421 35.818 51.659 35.8286 51.6797 35.8157C51.7004 35.8028 51.7185 35.8287 51.72 35.8731C51.726 36.053 51.7843 36.2602 51.922 36.5916C52.0017 36.7833 52.0773 37.0067 52.09 37.0879C52.1027 37.1691 52.139 37.267 52.1706 37.3053C52.2022 37.3437 52.2159 37.3751 52.201 37.3751C52.186 37.3751 52.2236 37.4889 52.2844 37.628C52.3453 37.7671 52.432 38.0095 52.4772 38.1668C52.5223 38.324 52.5974 38.5408 52.6441 38.6486C52.6908 38.7563 52.7947 39.0396 52.8751 39.278C53.1537 40.1048 53.444 40.9165 53.4954 41.0124C53.5238 41.0654 53.558 41.1737 53.5713 41.2532C53.5846 41.3327 53.6324 41.4845 53.6774 41.5905C53.8688 42.0407 53.8652 42.0304 53.907 42.2486C53.9205 42.3192 53.9556 42.4222 53.985 42.4775C54.0145 42.5328 54.0279 42.5781 54.0148 42.5781C54.0019 42.5781 54.0425 42.6811 54.1052 42.8069C54.1679 42.9327 54.2346 43.1008 54.2534 43.1803C54.2722 43.2598 54.3116 43.3561 54.3409 43.3943C54.3805 43.446 54.3799 43.4552 54.3385 43.4302C54.3079 43.4118 54.3221 43.4783 54.37 43.5781C54.4179 43.6778 54.5159 43.9435 54.5878 44.1684C54.6598 44.3933 54.7683 44.6912 54.8289 44.8303C54.8896 44.9694 54.927 45.0832 54.9121 45.0832C54.8971 45.0832 54.9066 45.1104 54.9331 45.1434C54.9596 45.1766 54.9967 45.2795 55.0154 45.3723C55.0341 45.465 55.0905 45.6127 55.1407 45.7004C55.1908 45.7881 55.2121 45.8476 55.1881 45.8326C55.164 45.8177 55.1944 45.9097 55.2555 46.0373C55.3166 46.1648 55.3774 46.3329 55.3905 46.4109C55.4037 46.4888 55.4576 46.661 55.5103 46.7935C55.661 47.1723 55.691 47.2587 55.7233 47.4077C55.741 47.4887 55.8456 47.7608 55.953 48.0046C56.039 48.1998 56.0872 48.3568 56.1106 48.5172C56.1171 48.5612 56.1373 48.6124 56.1556 48.6308C56.1739 48.6492 56.1889 48.7053 56.1889 48.7555C56.1889 48.8148 56.2098 48.8345 56.2487 48.812C56.2817 48.7929 56.2945 48.7931 56.2774 48.8124C56.2603 48.8317 56.2873 48.965 56.3375 49.1086C56.3876 49.2522 56.4355 49.4079 56.4439 49.4546C56.4523 49.5013 56.497 49.6262 56.5432 49.7322C56.5894 49.8382 56.6916 50.1169 56.7704 50.3516C56.9133 50.7777 56.9585 50.8988 57.0811 51.1848C57.1168 51.2683 57.1465 51.3658 57.1468 51.4016C57.148 51.5041 57.2702 51.8314 57.2973 51.8042C57.3107 51.7907 57.3216 51.8095 57.3216 51.846C57.3216 51.8824 57.3677 52.0288 57.424 52.1712C57.4803 52.3135 57.536 52.4878 57.5477 52.5583C57.5594 52.6289 57.5896 52.7264 57.6147 52.7751C57.6647 52.8721 57.8083 53.2921 57.9333 53.7067C57.9771 53.8525 58.0525 54.0584 58.1006 54.1644C58.2033 54.3906 58.2983 54.7184 58.2611 54.7184C58.2469 54.7184 58.2559 54.7455 58.2812 54.7786C58.3478 54.8657 58.7418 55.936 58.7974 56.1807C58.8085 56.2298 58.8382 56.2948 58.8632 56.3252C58.8883 56.3556 58.9072 56.3913 58.9051 56.4046C58.9006 56.4338 59.0517 56.9204 59.1071 57.055C59.1289 57.108 59.1894 57.2489 59.2414 57.3681C59.2935 57.4873 59.3514 57.6771 59.3701 57.7898C59.3911 57.9164 59.4236 57.9826 59.4551 57.9631C59.4841 57.9451 59.4922 57.954 59.474 57.9836C59.4563 58.0124 59.4775 58.1187 59.5211 58.2199C59.6384 58.4922 59.6664 58.5703 59.7521 58.8616C59.795 59.0073 59.8482 59.1699 59.8703 59.2229C60.0047 59.5444 60.0677 59.7161 60.0823 59.801C60.0989 59.8974 60.1127 59.9353 60.3271 60.4755C60.3902 60.6344 60.4578 60.8295 60.4772 60.909C60.4967 60.9885 60.5156 61.0644 60.5193 61.0777C60.5231 61.0909 60.5649 61.1885 60.6121 61.2944C60.683 61.4532 60.7917 61.7861 60.8482 62.0171C60.8547 62.0436 60.8859 62.1126 60.9175 62.1705C60.9491 62.2284 60.975 62.311 60.975 62.354C60.975 62.4009 60.9972 62.4185 61.0303 62.3979C61.0625 62.3778 61.0726 62.3846 61.0545 62.414C61.0375 62.4418 61.0549 62.5402 61.0933 62.6327C61.1318 62.7253 61.1754 62.8707 61.1903 62.956C61.2052 63.0413 61.2573 63.1901 61.306 63.2867C61.4052 63.4832 61.5358 63.8551 61.5674 64.0309C61.5789 64.0944 61.63 64.2418 61.6809 64.3584C61.8136 64.662 61.881 64.8454 61.9007 64.9558C61.9101 65.0088 61.9349 65.0955 61.9557 65.1485C62.13 65.5926 62.2693 65.9681 62.3581 66.2325C62.4159 66.4047 62.5395 66.7733 62.6326 67.0515C62.7257 67.3297 62.8217 67.5779 62.8457 67.6031C62.8698 67.6282 62.8895 67.6892 62.8895 67.7384C62.8895 67.7877 62.9067 67.8173 62.9278 67.8042C62.9488 67.7911 62.9684 67.8277 62.9713 67.8856C62.9788 68.0389 63.0331 68.2693 63.0751 68.3266C63.0951 68.354 63.1402 68.4678 63.1752 68.5795C63.2134 68.7015 63.2598 68.7705 63.2915 68.7524C63.3205 68.7358 63.3305 68.7376 63.3139 68.7564C63.2706 68.8052 63.3514 69.1543 63.4712 69.4362C63.5275 69.5687 63.6027 69.7454 63.6384 69.8289C63.674 69.9124 63.7031 70.0141 63.7031 70.0549C63.7031 70.0957 63.725 70.1427 63.7517 70.1593C63.7785 70.176 63.7874 70.2107 63.7716 70.2365C63.7557 70.2624 63.7791 70.3394 63.8236 70.4077C63.8681 70.4761 63.8785 70.5158 63.8467 70.4961C63.8137 70.4755 63.8206 70.5092 63.8627 70.5744C64.0004 70.7877 64.1858 71.4498 64.1749 71.6895C64.1648 71.9131 64.1089 72.0113 63.9807 72.0309C63.9465 72.0361 63.8916 72.0573 63.8587 72.078C63.8223 72.1009 63.7986 72.0909 63.7981 72.0526C63.7976 72.0126 63.7845 72.0077 63.7622 72.0393C63.7384 72.0729 62.255 72.0891 59.1802 72.0891C56.1055 72.0891 54.622 72.0729 54.5982 72.0393C54.5763 72.0082 54.5628 72.0143 54.5623 72.0556C54.5617 72.1117 54.5493 72.1117 54.4806 72.0556C54.4139 72.0012 54.4065 72.001 54.4387 72.0547C54.4627 72.095 54.4251 72.0858 54.3402 72.0307C54.173 71.9223 53.9685 71.7251 54.021 71.723C54.0419 71.7222 54.0268 71.6951 53.9873 71.6628C53.9478 71.6305 53.9104 71.5499 53.9042 71.4837C53.8813 71.2394 53.8704 71.1946 53.8335 71.1946C53.8128 71.1946 53.7984 71.1784 53.8015 71.1585C53.8046 71.1386 53.8019 71.1061 53.7955 71.0862C53.7759 71.0253 53.7602 70.9562 53.754 70.9027C53.7507 70.8747 53.7293 70.8633 53.7064 70.8775C53.6836 70.8917 53.665 70.8659 53.6651 70.8201C53.6657 70.6345 53.6503 70.5638 53.6143 70.5862C53.5935 70.5992 53.5735 70.5734 53.57 70.5289C53.5549 70.3394 53.5097 70.17 53.4574 70.1065C53.4265 70.069 53.4173 70.0384 53.4369 70.0384C53.4565 70.0384 53.4502 70.0113 53.4229 69.9782C53.3734 69.9182 53.3651 69.8917 53.3651 69.7947C53.3651 69.7666 53.3481 69.7541 53.3275 69.7671C53.3068 69.7799 53.2858 69.7487 53.2808 69.6976C53.261 69.4966 53.2523 69.4603 53.2239 69.4603C53.2078 69.4603 53.1896 69.4115 53.1836 69.3519C53.165 69.1664 53.1473 69.1029 53.0795 68.9785C53.0434 68.9123 53.0122 68.8472 53.01 68.834C53.0078 68.8207 52.9931 68.8143 52.9771 68.8196C52.9611 68.825 52.9538 68.7762 52.9609 68.7112C52.968 68.6463 52.9529 68.5931 52.9273 68.5931C52.9017 68.5931 52.8941 68.5714 52.9104 68.5449C52.9267 68.5184 52.9207 68.4968 52.8973 68.4968C52.8738 68.4968 52.851 68.4697 52.8465 68.4365C52.8066 68.1378 52.7726 68.015 52.7297 68.015C52.7018 68.015 52.6926 68.0014 52.709 67.9848C52.7256 67.9682 52.7085 67.8951 52.6711 67.8223C52.6337 67.7495 52.6166 67.6764 52.6331 67.6598C52.6496 67.6432 52.6367 67.6296 52.6045 67.6296C52.5722 67.6296 52.5591 67.6079 52.5754 67.5814C52.5916 67.5549 52.5834 67.5332 52.557 67.5332C52.5307 67.5332 52.5174 67.4899 52.5275 67.4369C52.5377 67.3839 52.5292 67.3405 52.5088 67.3405C52.4884 67.3405 52.4694 67.3135 52.4665 67.2803C52.4624 67.232 52.43 67.0761 52.4115 67.0153C52.4095 67.0087 52.4083 66.9922 52.4088 66.9787C52.4093 66.9652 52.3765 66.8893 52.3358 66.8101C52.2951 66.7309 52.2739 66.6661 52.2887 66.6661C52.3034 66.6661 52.2886 66.6173 52.2558 66.5577C52.223 66.4981 52.2007 66.433 52.2063 66.4131C52.2118 66.3933 52.1936 66.377 52.1657 66.377C52.1379 66.377 52.1283 66.3553 52.1446 66.3288C52.1609 66.3023 52.156 66.2807 52.1337 66.2807C52.1114 66.2807 52.0902 66.2427 52.0865 66.1963C52.0723 66.0168 52.0267 65.8295 51.9908 65.8028C51.9566 65.7773 51.9335 65.7136 51.9109 65.5821C51.9064 65.5556 51.882 65.5014 51.8568 65.4617C51.8317 65.4219 51.808 65.3731 51.8043 65.3533C51.8006 65.3334 51.7933 65.3117 51.788 65.3051C51.7773 65.2918 51.7578 65.2107 51.7212 65.0281C51.7079 64.9618 51.6929 64.8968 51.6878 64.8836C51.6828 64.8703 51.6811 64.8432 51.6843 64.8233C51.6874 64.8035 51.673 64.7872 51.6523 64.7872C51.6315 64.7872 51.6111 64.7404 51.6068 64.6831C51.6025 64.6259 51.571 64.5612 51.5368 64.5393C51.5026 64.5175 51.4934 64.4993 51.5163 64.4989C51.5393 64.4985 51.5341 64.469 51.5048 64.4335C51.4755 64.3979 51.4656 64.3546 51.4829 64.3371C51.5003 64.3197 51.4929 64.3054 51.4666 64.3054C51.4402 64.3054 51.4165 64.2784 51.4136 64.2452C51.3998 64.0803 51.3412 63.8419 51.303 63.7952C51.2793 63.7662 51.2742 63.7283 51.2915 63.7109C51.3088 63.6934 51.2943 63.6792 51.2592 63.6792C51.2241 63.6792 51.2089 63.6656 51.2253 63.6489C51.2419 63.6323 51.2234 63.5565 51.1842 63.4803C51.1451 63.4042 51.125 63.3419 51.1394 63.3419C51.1538 63.3419 51.1328 63.2914 51.0926 63.2297C51.0524 63.168 51.034 63.1029 51.0516 63.0851C51.0693 63.0674 51.0631 63.0529 51.038 63.0529C51.0129 63.0529 50.9871 62.9832 50.9807 62.8982C50.9742 62.8131 50.9528 62.7318 50.933 62.7175C50.9132 62.7033 50.8983 62.659 50.8997 62.6193C50.9013 62.5795 50.8749 62.5182 50.8411 62.4829C50.8073 62.4477 50.791 62.4004 50.8048 62.3778C50.8187 62.3553 50.8078 62.323 50.7806 62.3061C50.7534 62.2892 50.7435 62.2552 50.7587 62.2306C50.7738 62.2059 50.7641 62.1857 50.737 62.1857C50.71 62.1857 50.6994 62.1554 50.7136 62.1183C50.7277 62.0813 50.7162 62.0366 50.6881 62.0191C50.66 62.0016 50.637 61.9344 50.637 61.8697C50.637 61.805 50.6167 61.7521 50.5919 61.7521C50.5671 61.7521 50.5551 61.7088 50.5652 61.6558C50.5753 61.6028 50.562 61.5594 50.5357 61.5594C50.5093 61.5594 50.5011 61.5377 50.5173 61.5112C50.5336 61.4847 50.5228 61.4631 50.4934 61.4631C50.464 61.4631 50.4505 61.4458 50.4635 61.4246C50.4765 61.4035 50.4678 61.3548 50.4442 61.3163C50.407 61.2558 49.3302 61.2465 42.3392 61.2462L34.2771 61.2458L34.2531 61.3906C34.2398 61.4702 34.2081 61.5895 34.1827 61.6558C34.1572 61.722 34.1328 61.7921 34.1285 61.8115C34.1242 61.8308 34.0901 61.9205 34.0526 62.0107C34.0152 62.1009 33.9722 62.2451 33.9571 62.3313C33.9421 62.4175 33.9082 62.5284 33.882 62.5778C33.8558 62.6271 33.8483 62.6675 33.8654 62.6675C33.8825 62.6675 33.8652 62.7163 33.8268 62.7759C33.7582 62.8826 33.6802 63.1326 33.7052 63.1657C33.7122 63.175 33.6922 63.2139 33.6606 63.2522C33.6291 63.2905 33.5906 63.3942 33.5751 63.4827C33.5596 63.5712 33.503 63.7654 33.4493 63.9143C33.2957 64.3397 33.2698 64.4401 33.3036 64.4782C33.321 64.4977 33.3082 64.498 33.2753 64.4789C33.2345 64.4553 33.2155 64.481 33.2155 64.56C33.2155 64.6237 33.1736 64.7984 33.1223 64.9483C33.0711 65.0982 33.0442 65.2211 33.0625 65.2215C33.0808 65.2219 33.0668 65.2408 33.0313 65.2634C32.9958 65.286 32.9635 65.3595 32.9595 65.4266C32.9555 65.4938 32.9361 65.5387 32.9164 65.5265C32.8885 65.5092 32.8642 65.6519 32.8843 65.7146C32.8864 65.7212 32.8223 65.9083 32.7418 66.1304C32.6613 66.3525 32.609 66.5564 32.6257 66.5835C32.6423 66.6106 32.6333 66.6188 32.6058 66.6016C32.5463 66.5646 32.4799 66.7909 32.5274 66.8684C32.5472 66.9007 32.5384 66.9082 32.505 66.8874C32.4689 66.865 32.4497 66.8945 32.4497 66.9724C32.4497 67.038 32.4074 67.191 32.3557 67.3124C32.304 67.4339 32.2704 67.5332 32.281 67.5332C32.2917 67.5332 32.2711 67.5901 32.2353 67.6595C32.1996 67.729 32.1782 67.8271 32.1878 67.8776C32.1975 67.9281 32.185 67.9567 32.16 67.9412C32.1218 67.9173 32.0878 68.142 32.1102 68.2715C32.114 68.2934 32.0976 68.2991 32.0738 68.2843C32.0379 68.262 32.0045 68.3555 31.9675 68.5813C31.9643 68.6011 31.9379 68.6605 31.9088 68.7135C31.8798 68.7665 31.8504 68.8316 31.8434 68.8581C31.8365 68.8846 31.7899 69.0519 31.7399 69.2299C31.69 69.408 31.6605 69.5651 31.6744 69.5792C31.6884 69.5933 31.6747 69.6048 31.6441 69.6048C31.6133 69.6048 31.5882 69.6438 31.5882 69.6915C31.5882 69.7392 31.5661 69.8005 31.539 69.8277C31.5121 69.8549 31.4851 69.9438 31.4792 70.0253C31.4734 70.1068 31.4552 70.1652 31.4388 70.1551C31.4137 70.1396 31.3576 70.391 31.3384 70.6045C31.3354 70.6376 31.3193 70.6647 31.3025 70.6647C31.2479 70.6647 31.1005 71.1408 31.1368 71.2C31.1592 71.2365 31.1519 71.245 31.117 71.2233C31.0863 71.2042 31.0601 71.2169 31.0582 71.252C31.0503 71.3919 31.0103 71.5447 30.9556 71.6439C30.9238 71.7015 30.8999 71.7595 30.9024 71.7727C30.9049 71.786 30.8632 71.8402 30.8095 71.8932C30.7559 71.9462 30.7298 71.957 30.7515 71.9172C30.7793 71.8663 30.7623 71.8703 30.6936 71.9308C30.6401 71.978 30.5448 72.0294 30.482 72.0451C30.4191 72.0608 28.4617 72.0769 26.132 72.0809C22.8758 72.0865 21.8694 72.0746 21.7801 72.0293C21.7161 71.9969 21.6456 71.9817 21.6233 71.9956C21.601 72.0094 21.5859 72.0029 21.5897 71.981C21.6074 71.8785 21.581 71.7696 21.5441 71.7926C21.5214 71.8067 21.5093 71.7601 21.517 71.6891C21.5656 71.2436 21.6022 71.0616 21.6626 70.9658C21.7003 70.9062 21.7193 70.8574 21.705 70.8574C21.6907 70.8574 21.7225 70.7716 21.7756 70.6667C21.8288 70.5619 21.885 70.3955 21.9005 70.297C21.9161 70.1986 21.9795 70.0026 22.0415 69.8614C22.1035 69.7203 22.1442 69.6048 22.1319 69.6048C22.1196 69.6048 22.1447 69.5506 22.1879 69.4844C22.231 69.4181 22.2504 69.3639 22.231 69.3639C22.2116 69.3639 22.2171 69.3368 22.2431 69.3037C22.2914 69.2425 22.3668 68.9015 22.3411 68.8605C22.3334 68.8482 22.3701 68.8054 22.4228 68.7653C22.4754 68.7253 22.502 68.6918 22.482 68.691C22.4619 68.6901 22.4769 68.6136 22.5154 68.5208C22.5539 68.4281 22.5703 68.3519 22.5519 68.3515C22.5336 68.3511 22.5459 68.3332 22.5794 68.3118C22.613 68.2904 22.6503 68.2203 22.6624 68.156C22.6745 68.0917 22.6996 67.974 22.7183 67.8946C22.7369 67.8151 22.7475 67.7322 22.7418 67.7103C22.7361 67.6885 22.7536 67.6843 22.7805 67.7011C22.8075 67.7179 22.8296 67.6913 22.8296 67.6421C22.8296 67.5928 22.8554 67.5265 22.887 67.4947C22.9186 67.4629 22.9286 67.4369 22.9093 67.4369C22.8899 67.4369 22.901 67.3881 22.9339 67.3285C22.9668 67.2689 22.9958 67.2092 22.9983 67.196C23.0007 67.1828 23.0195 67.0798 23.04 66.9672C23.0605 66.8545 23.1005 66.7624 23.129 66.7624C23.1573 66.7624 23.167 66.7487 23.1504 66.732C23.1337 66.7153 23.1452 66.6557 23.1759 66.5995C23.2066 66.5434 23.2383 66.4578 23.2463 66.4095C23.2543 66.3611 23.2867 66.2744 23.3183 66.2168C23.3498 66.1592 23.383 66.0615 23.392 65.9996C23.401 65.9377 23.4549 65.7643 23.5119 65.6142C23.5689 65.4641 23.6181 65.3304 23.6214 65.3171C23.6247 65.3039 23.6524 65.232 23.6831 65.1574C23.7138 65.0829 23.739 64.9921 23.739 64.9558C23.739 64.9195 23.764 64.8288 23.7945 64.7542C23.8251 64.6796 23.8466 64.6023 23.8424 64.5825C23.8382 64.5626 23.8562 64.5463 23.8825 64.5463C23.9089 64.5463 23.9279 64.53 23.9247 64.5102C23.9216 64.4903 23.9243 64.4578 23.9307 64.4379C23.9371 64.4181 23.9458 64.3855 23.95 64.3657C23.9543 64.3458 23.9846 64.2807 24.0176 64.2211C24.0504 64.1615 24.0632 64.1127 24.0459 64.1127C24.0286 64.1127 24.0379 64.0842 24.0667 64.0493C24.0955 64.0144 24.1242 63.9169 24.1306 63.8325C24.137 63.7482 24.1592 63.6792 24.1799 63.6792C24.2006 63.6792 24.213 63.6629 24.2074 63.643C24.2018 63.6232 24.2241 63.5581 24.257 63.4985C24.2898 63.4389 24.3044 63.3901 24.2894 63.3901C24.2743 63.3901 24.289 63.3413 24.3219 63.2817C24.3548 63.2221 24.3842 63.1625 24.3873 63.1492C24.4393 62.9255 24.4692 62.8235 24.5004 62.7638C24.5211 62.7241 24.5325 62.6536 24.5256 62.6072C24.5188 62.5608 24.5303 62.5229 24.5512 62.5229C24.5882 62.5229 24.745 62.1246 24.755 62.005C24.7577 61.9719 24.7756 61.9448 24.7946 61.9448C24.8239 61.9448 24.8586 61.7999 24.8955 61.5233C24.9 61.4902 24.9215 61.4631 24.9435 61.4631C24.9654 61.4631 24.9833 61.4233 24.9833 61.3748C24.9833 61.3261 24.9995 61.2702 25.0192 61.2503C25.039 61.2304 25.0559 61.1997 25.0567 61.182C25.0576 61.1644 25.0926 61.0524 25.1344 60.9331C25.1763 60.8139 25.2362 60.6296 25.2676 60.5236C25.3275 60.3213 25.3939 60.1511 25.4719 59.9995C25.518 59.9097 25.5666 59.7124 25.5712 59.5962C25.5726 59.5631 25.5952 59.536 25.6215 59.536C25.6478 59.536 25.6552 59.5218 25.6379 59.5043C25.6205 59.4869 25.6304 59.4435 25.6597 59.408C25.689 59.3724 25.6971 59.3433 25.6777 59.3433C25.6583 59.3433 25.6777 59.2891 25.7208 59.2229C25.7639 59.1566 25.7874 59.1024 25.7729 59.1024C25.7585 59.1024 25.7787 59.0401 25.8178 58.964C25.8569 58.8879 25.8754 58.812 25.8589 58.7954C25.8424 58.7788 25.854 58.7652 25.8847 58.7652C25.9154 58.7652 25.9406 58.7015 25.9406 58.6235C25.9406 58.5456 25.9608 58.4693 25.9855 58.4539C26.0102 58.4385 26.0221 58.3824 26.0119 58.3293C26.0017 58.2762 26.0138 58.2454 26.0388 58.2609C26.0638 58.2764 26.0842 58.2553 26.0842 58.214C26.0842 58.0828 26.0894 58.0685 26.1713 57.9741C26.2244 57.9129 26.2286 57.8951 26.1836 57.9218C26.1337 57.9514 26.1369 57.9314 26.1955 57.8471C26.2396 57.7839 26.2756 57.6853 26.2756 57.6283C26.2756 57.5711 26.3059 57.4513 26.343 57.3619C26.3801 57.2726 26.4135 57.1778 26.4172 57.1513C26.4209 57.1248 26.4508 57.0598 26.4838 57.0068C26.5168 56.9538 26.5715 56.8129 26.6055 56.6936C26.6393 56.5744 26.7391 56.2817 26.8272 56.0433C27.0139 55.5381 27.0947 55.2486 27.0495 55.2476C27.0319 55.2472 27.0449 55.2294 27.0784 55.2079C27.1119 55.1865 27.1476 55.126 27.1576 55.0736C27.1676 55.0211 27.2134 54.8926 27.2592 54.788C27.3498 54.5817 27.3553 54.5644 27.392 54.3727C27.4056 54.3018 27.4602 54.1446 27.5135 54.0234C27.5668 53.9022 27.5974 53.8031 27.5817 53.8031C27.5659 53.8031 27.586 53.7652 27.6262 53.7188C27.6665 53.6724 27.6933 53.5966 27.6858 53.5503C27.6783 53.5041 27.6917 53.454 27.7157 53.4391C27.7397 53.4242 27.7593 53.3634 27.7593 53.304C27.7593 53.2446 27.7862 53.1669 27.8191 53.1312C27.8678 53.0784 27.8656 53.0738 27.8072 53.1067C27.7477 53.1402 27.7456 53.1344 27.7948 53.0732C27.8275 53.0326 27.8382 52.9816 27.8187 52.9599C27.7992 52.9382 27.8102 52.9361 27.8431 52.9551C27.8795 52.9762 27.9052 52.9604 27.9089 52.9147C27.9182 52.7983 27.9255 52.7718 27.9662 52.7073C27.987 52.6742 28.013 52.6092 28.0239 52.5627C28.0993 52.2416 28.1358 52.1196 28.201 51.9717C28.3199 51.7016 28.6254 50.8233 28.6322 50.7319C28.6347 50.6988 28.656 50.6716 28.6795 50.6716C28.7029 50.6716 28.7113 50.6538 28.6979 50.632C28.6845 50.6103 28.7027 50.5359 28.7384 50.4667C28.7917 50.3633 28.8697 50.1062 28.8814 49.9956C28.8838 49.9725 28.976 49.743 29.113 49.4191C29.141 49.3528 29.1727 49.2336 29.1835 49.1541C29.1943 49.0747 29.2229 48.9858 29.247 48.9566C29.271 48.9274 29.2955 48.8461 29.3012 48.7759C29.307 48.7057 29.3286 48.6482 29.3492 48.6482C29.3697 48.6482 29.3866 48.6255 29.3866 48.5978C29.3866 48.57 29.4277 48.4615 29.478 48.3567C29.5283 48.2519 29.5445 48.1812 29.5139 48.1996C29.4726 48.2246 29.472 48.2154 29.5116 48.1637C29.561 48.0991 29.6336 47.8639 29.6229 47.8029C29.6203 47.7881 29.6527 47.7229 29.695 47.6581C29.7372 47.5932 29.7597 47.5402 29.745 47.5402C29.7303 47.5402 29.7449 47.4914 29.7775 47.4318C29.81 47.3722 29.8423 47.3017 29.8491 47.2752C29.8559 47.2487 29.885 47.1304 29.9137 47.0121C29.9424 46.894 29.9861 46.7728 30.0109 46.7427C30.0356 46.7128 30.0417 46.674 30.0243 46.6566C30.007 46.6391 30.0216 46.6249 30.0566 46.6249C30.0917 46.6249 30.108 46.6123 30.0928 46.5971C30.0776 46.5817 30.1171 46.451 30.1806 46.3066C30.244 46.1622 30.2959 46.0036 30.2959 45.9543C30.2959 45.9049 30.3375 45.771 30.3884 45.6567C30.4392 45.5423 30.4703 45.4316 30.4574 45.4105C30.4445 45.3895 30.452 45.3723 30.4741 45.3723C30.5093 45.3723 30.5395 45.2852 30.6666 44.8183C30.6811 44.7653 30.6913 44.7111 30.6893 44.6978C30.6873 44.6846 30.7198 44.6358 30.7614 44.5894C30.8031 44.5431 30.8239 44.5051 30.8076 44.5051C30.7913 44.5051 30.8223 44.4021 30.8764 44.2763C30.9696 44.0598 31.0158 43.898 31.031 43.7343C31.0348 43.6946 31.05 43.6512 31.065 43.6379C31.114 43.5946 31.2532 43.2044 31.2197 43.2044C31.2017 43.2044 31.2288 43.1703 31.2799 43.1285C31.331 43.0868 31.3405 43.0693 31.301 43.0896C31.2426 43.1196 31.24 43.1132 31.2866 43.0552C31.3344 42.9956 31.3906 42.8158 31.4606 42.4986C31.4673 42.4682 31.5014 42.4085 31.5363 42.3662C31.5713 42.3237 31.5873 42.289 31.5718 42.289C31.5564 42.289 31.586 42.1897 31.6378 42.0682C31.6895 41.9468 31.7318 41.795 31.7318 41.731C31.7318 41.667 31.7497 41.6146 31.7717 41.6146C31.7936 41.6146 31.8131 41.5875 31.8151 41.5543C31.821 41.4548 31.9438 41.1594 31.995 41.1215C32.0213 41.102 32.0243 41.0858 32.0015 41.0853C31.9787 41.085 31.9971 41.0278 32.0424 40.9583C32.0966 40.8749 32.1026 40.8452 32.0598 40.8712C32.0093 40.9017 32.0068 40.8951 32.0482 40.8409C32.0775 40.8027 32.116 40.7064 32.1338 40.6269C32.1516 40.5475 32.2268 40.3198 32.301 40.1211C32.4719 39.6637 32.6105 39.2204 32.5962 39.1774C32.5901 39.1592 32.609 39.1294 32.6382 39.1112C32.6674 39.0931 32.7003 39.031 32.7114 38.9732C32.7224 38.9154 32.7482 38.8412 32.7686 38.8081C32.8116 38.7388 32.8421 38.6011 32.8478 38.4501C32.85 38.3922 32.869 38.3555 32.89 38.3687C32.9111 38.3818 32.9283 38.3695 32.9283 38.3414C32.9283 38.2354 32.9348 38.2154 33.0036 38.1098C33.0424 38.0502 33.0623 38.0014 33.0478 38.0014C33.0334 38.0014 33.0549 37.9366 33.0956 37.8573C33.1363 37.7781 33.1677 37.7077 33.1655 37.7007C33.1602 37.6843 33.1833 37.6028 33.2923 37.2546C33.342 37.0957 33.3756 36.9571 33.3668 36.9469C33.3581 36.9366 33.3781 36.9112 33.4114 36.8905C33.4447 36.8698 33.4762 36.824 33.4814 36.7888C33.5112 36.5863 33.6656 36.1225 33.7032 36.1225C33.7277 36.1225 33.737 36.1053 33.7241 36.0842C33.7112 36.0632 33.7412 35.9548 33.7907 35.8434C33.8403 35.7319 33.8685 35.6407 33.8534 35.6407C33.8383 35.6407 33.8482 35.6137 33.8754 35.5805C33.9247 35.5205 34.0094 35.1674 33.9909 35.0988C33.9856 35.0789 34.0028 35.0626 34.0291 35.0626C34.0555 35.0626 34.077 35.0436 34.077 35.0203C34.077 34.9971 34.1134 34.8941 34.1578 34.7915C34.2023 34.6889 34.241 34.5941 34.2437 34.5809C34.2466 34.5676 34.2676 34.4701 34.2906 34.3641C34.3136 34.2581 34.3288 34.1551 34.3243 34.1352C34.3199 34.1153 34.3378 34.0991 34.3642 34.0991C34.3905 34.0991 34.412 34.0601 34.412 34.0124C34.412 33.9647 34.4317 33.9051 34.4559 33.8799C34.48 33.8547 34.5069 33.7908 34.5157 33.7378C34.5245 33.6848 34.5465 33.6301 34.5646 33.6163C34.5828 33.6025 34.6086 33.5375 34.622 33.4718C34.6822 33.1773 34.6982 33.1224 34.7391 33.0705C34.763 33.0401 34.7767 32.9787 34.7695 32.9342C34.7624 32.8896 34.785 32.8422 34.8197 32.8288C34.8545 32.8153 34.877 32.765 34.8697 32.717C34.8623 32.669 34.8762 32.6167 34.9006 32.6008C34.9249 32.5849 34.9509 32.5416 34.9584 32.5045C34.9658 32.4674 34.9841 32.4045 34.999 32.3648C35.0281 32.2874 35.0787 32.0674 35.0766 32.0275C35.0759 32.0143 35.1415 31.8551 35.2223 31.6738C35.3031 31.4924 35.3692 31.3054 35.3692 31.2581C35.3692 31.1691 35.4777 30.8659 35.5654 30.7097C35.6048 30.6396 35.602 30.6286 35.5523 30.6587C35.5033 30.6884 35.5009 30.6813 35.5416 30.6276C35.6169 30.5285 35.7475 30.1111 35.8083 29.7755C35.8119 29.7556 35.843 29.6715 35.8773 29.5887C35.9117 29.506 35.9263 29.4247 35.9098 29.4081C35.8933 29.3914 35.9013 29.3779 35.9276 29.3779C35.954 29.3779 35.978 29.3508 35.9811 29.3176C35.9842 29.2845 35.9936 29.1815 36.0022 29.0888C36.0107 28.9961 36.0303 28.8985 36.0456 28.872C36.061 28.8455 36.0784 28.6829 36.0842 28.5107C36.0901 28.3385 36.1042 28.1217 36.1155 28.0289C36.1268 27.9362 36.1451 27.5785 36.156 27.234C36.1669 26.8896 36.1775 26.5623 36.1794 26.5067C36.1834 26.3914 36.3105 26.2305 36.4342 26.1844C36.4802 26.1672 36.5182 26.1253 36.5186 26.0913C36.5192 26.0482 36.5333 26.0514 36.5658 26.1019C36.5995 26.1544 36.6124 26.1569 36.6129 26.1111ZM42.157 34.3279C42.1523 34.4008 42.1485 34.4973 42.1486 34.5423C42.1486 34.5874 42.1309 34.6132 42.1093 34.5997C42.0738 34.5776 42.0525 34.701 42.0529 34.9277C42.0529 34.9728 42.0352 34.9986 42.0135 34.9851C41.9919 34.9716 41.9725 35.0106 41.9704 35.0718C41.9684 35.133 41.9581 35.2264 41.9475 35.2794C41.937 35.3324 41.9224 35.4657 41.9153 35.5756C41.9081 35.6855 41.8888 35.7672 41.8722 35.7571C41.8291 35.7306 41.777 36.0262 41.8142 36.0867C41.8324 36.1163 41.8224 36.1231 41.7901 36.103C41.736 36.0694 41.7245 36.1088 41.7186 36.3483C41.7171 36.4063 41.6987 36.4429 41.6775 36.4298C41.6404 36.4067 41.6284 36.4626 41.6228 36.6855C41.6214 36.7435 41.6029 36.7801 41.5818 36.767C41.5606 36.7538 41.5433 36.8075 41.5433 36.8862C41.5433 36.9649 41.5013 37.1651 41.45 37.3311C41.3987 37.4971 41.3665 37.649 41.3785 37.6685C41.3905 37.6881 41.3785 37.7114 41.3517 37.7204C41.3024 37.7369 41.2707 37.8419 41.2236 38.1447C41.2093 38.2367 41.1247 38.5231 41.0354 38.781C40.9463 39.0389 40.8673 39.2888 40.8599 39.3362C40.8526 39.3837 40.8298 39.4497 40.8092 39.4828C40.7887 39.5159 40.7838 39.543 40.7983 39.543C40.8128 39.543 40.7936 39.6243 40.7556 39.7237C40.7176 39.823 40.6801 39.9477 40.6722 40.0007C40.6644 40.0537 40.6397 40.1105 40.6173 40.1268C40.595 40.1433 40.5735 40.2116 40.5695 40.2788C40.5655 40.3459 40.5474 40.3918 40.5294 40.3805C40.5113 40.3693 40.4816 40.4606 40.4633 40.5834C40.445 40.7062 40.3793 40.9476 40.3172 41.1197C40.2551 41.292 40.2182 41.4554 40.2351 41.483C40.253 41.5121 40.2427 41.5187 40.2107 41.4987C40.177 41.4777 40.154 41.4984 40.1518 41.5515C40.1486 41.6299 40.133 41.7318 40.0961 41.914C40.0892 41.948 40.069 41.987 40.0513 42.0006C40.0335 42.0142 40.012 42.0901 40.0034 42.1692C39.9948 42.2484 39.9712 42.3255 39.9509 42.3407C39.9305 42.3559 39.9039 42.4101 39.8918 42.4612C39.869 42.5569 39.6408 43.3355 39.6103 43.4212C39.6009 43.4477 39.5923 43.4802 39.5911 43.4934C39.59 43.5067 39.5445 43.6313 39.4901 43.7704C39.4355 43.9096 39.4017 44.0234 39.4149 44.0234C39.428 44.0234 39.4069 44.1001 39.368 44.1938C39.3187 44.3126 39.3149 44.3535 39.3554 44.329C39.3937 44.3059 39.3916 44.3211 39.3496 44.3733C39.3144 44.417 39.2981 44.4731 39.3134 44.4979C39.3287 44.5228 39.3059 44.5568 39.2628 44.5735C39.2197 44.5901 39.1967 44.6161 39.2116 44.6311C39.2266 44.6462 39.1973 44.756 39.1465 44.8752C39.0958 44.9944 39.0684 45.115 39.0857 45.1432C39.1049 45.1744 39.0943 45.1803 39.0588 45.1581C39.0227 45.1357 39.0046 45.1467 39.0115 45.1868C39.0268 45.2755 38.955 45.626 38.9094 45.6854C38.8891 45.7119 38.865 45.7878 38.8558 45.854C38.8467 45.9203 38.8253 45.9853 38.8082 45.9986C38.7912 46.0118 38.7696 46.0769 38.7604 46.1431C38.7511 46.2093 38.7279 46.2753 38.7089 46.2896C38.6899 46.304 38.661 46.4016 38.6449 46.5064C38.6287 46.6113 38.5518 46.8922 38.474 47.1307C38.3962 47.3692 38.3211 47.6367 38.3071 47.7251C38.293 47.8136 38.251 47.9731 38.2137 48.0796C38.1764 48.186 38.1599 48.2979 38.1771 48.3282C38.1943 48.3585 38.1904 48.3668 38.1684 48.3467C38.1464 48.3266 38.0997 48.3916 38.0646 48.4912C37.9979 48.6807 37.8379 49.3118 37.8355 49.395C37.8347 49.4215 37.8165 49.4562 37.795 49.4721C37.7735 49.488 37.7514 49.5313 37.7458 49.5684C37.7402 49.6055 37.7206 49.6601 37.7021 49.6898C37.672 49.7384 37.5474 50.1715 37.4981 50.3995C37.4874 50.4486 37.451 50.5233 37.4171 50.5654C37.3652 50.6299 37.3668 50.6352 37.4273 50.5994C37.4877 50.5635 37.4893 50.5689 37.4376 50.6332C37.4037 50.6753 37.3822 50.7282 37.3897 50.7509C37.3972 50.7735 37.3831 50.7965 37.3585 50.8018C37.3201 50.8101 37.2272 51.0989 37.1623 51.4112C37.1521 51.4603 37.1245 51.5254 37.101 51.5558C37.0775 51.5862 37.047 51.6544 37.0332 51.7074C37.0195 51.7604 36.9623 51.919 36.9061 52.0599C36.85 52.2007 36.8258 52.3024 36.8524 52.2859C36.879 52.2693 36.9008 52.28 36.9008 52.3096C36.9008 52.3393 36.9222 52.3501 36.9485 52.3338C37.0332 52.2811 37.1914 52.2651 37.1625 52.3121C37.1471 52.3373 37.1555 52.3578 37.1812 52.3578C37.2068 52.3578 37.2387 52.3307 37.252 52.2976C37.2713 52.2494 37.2769 52.2494 37.2799 52.2976C37.282 52.3307 37.3065 52.3578 37.3344 52.3578C37.3622 52.3578 37.374 52.3397 37.3604 52.3177C37.3469 52.2956 37.3662 52.2775 37.4033 52.2775C37.4405 52.2775 37.4598 52.2956 37.4463 52.3177C37.4327 52.3397 37.4445 52.3578 37.4723 52.3578C37.5002 52.3578 37.5233 52.3307 37.5237 52.2976C37.5243 52.2535 37.5355 52.2549 37.5658 52.303C37.6007 52.3585 37.6112 52.3585 37.6331 52.303C37.6515 52.2564 37.6601 52.2548 37.6628 52.2976C37.6649 52.3307 37.6894 52.3578 37.7173 52.3578C37.7451 52.3578 37.7573 52.3405 37.7443 52.3193C37.7313 52.2981 37.7717 52.2807 37.8341 52.2807C37.8965 52.2807 37.9369 52.2981 37.9239 52.3193C37.9109 52.3405 37.9213 52.3578 37.947 52.3578C37.9726 52.3578 38.0045 52.3307 38.0178 52.2976C38.0371 52.2494 38.0427 52.2494 38.0457 52.2976C38.0478 52.3307 38.0723 52.3578 38.1002 52.3578C38.128 52.3578 38.1402 52.3405 38.1272 52.3193C38.1142 52.2981 38.1546 52.2807 38.217 52.2807C38.2794 52.2807 38.3198 52.2981 38.3068 52.3193C38.2938 52.3405 38.3041 52.3578 38.3298 52.3578C38.3555 52.3578 38.3874 52.3307 38.4007 52.2976C38.42 52.2494 38.4256 52.2494 38.4286 52.2976C38.4306 52.3307 38.4552 52.3578 38.483 52.3578C38.5109 52.3578 38.5231 52.3405 38.5101 52.3193C38.4971 52.2981 38.5375 52.2807 38.5999 52.2807C38.6623 52.2807 38.7027 52.2981 38.6897 52.3193C38.6766 52.3405 38.687 52.3578 38.7127 52.3578C38.7384 52.3578 38.7703 52.3307 38.7836 52.2976C38.8029 52.2494 38.8085 52.2494 38.8115 52.2976C38.8135 52.3307 38.8381 52.3578 38.8659 52.3578C38.8938 52.3578 38.906 52.3405 38.893 52.3193C38.88 52.2981 38.9204 52.2807 38.9828 52.2807C39.0452 52.2807 39.0856 52.2981 39.0726 52.3193C39.0595 52.3405 39.0699 52.3578 39.0956 52.3578C39.1213 52.3578 39.1532 52.3307 39.1665 52.2976C39.1857 52.2494 39.1913 52.2494 39.1944 52.2976C39.1964 52.3307 39.221 52.3578 39.2488 52.3578C39.2767 52.3578 39.2889 52.3405 39.2759 52.3193C39.2629 52.2981 39.3032 52.2807 39.3657 52.2807C39.4281 52.2807 39.4685 52.2981 39.4554 52.3193C39.4424 52.3405 39.4528 52.3578 39.4785 52.3578C39.5042 52.3578 39.536 52.3307 39.5494 52.2976C39.5686 52.2494 39.5742 52.2494 39.5773 52.2976C39.5793 52.3307 39.6039 52.3578 39.6317 52.3578C39.6596 52.3578 39.6718 52.3405 39.6588 52.3193C39.6457 52.2981 39.6861 52.2807 39.7485 52.2807C39.811 52.2807 39.8514 52.2981 39.8383 52.3193C39.8253 52.3405 39.8357 52.3578 39.8614 52.3578C39.8871 52.3578 39.9189 52.3307 39.9322 52.2976C39.9515 52.2494 39.9571 52.2494 39.9601 52.2976C39.9622 52.3307 39.9868 52.3578 40.0146 52.3578C40.0425 52.3578 40.0547 52.3405 40.0417 52.3193C40.0286 52.2981 40.069 52.2807 40.1314 52.2807C40.1939 52.2807 40.2342 52.2981 40.2212 52.3193C40.2082 52.3405 40.2186 52.3578 40.2443 52.3578C40.27 52.3578 40.3018 52.3307 40.3151 52.2976C40.3344 52.2494 40.34 52.2494 40.343 52.2976C40.3451 52.3307 40.3696 52.3578 40.3975 52.3578C40.4254 52.3578 40.4376 52.3405 40.4245 52.3193C40.4115 52.2981 40.4519 52.2807 40.5143 52.2807C40.5767 52.2807 40.6171 52.2981 40.6041 52.3193C40.5911 52.3405 40.6015 52.3578 40.6272 52.3578C40.6528 52.3578 40.6847 52.3307 40.698 52.2976C40.7173 52.2494 40.7229 52.2494 40.7259 52.2976C40.728 52.3307 40.7525 52.3578 40.7804 52.3578C40.8082 52.3578 40.8205 52.3405 40.8074 52.3193C40.7944 52.2981 40.8348 52.2807 40.8972 52.2807C40.9596 52.2807 41 52.2981 40.987 52.3193C40.974 52.3405 40.9844 52.3578 41.0101 52.3578C41.0357 52.3578 41.0676 52.3307 41.0809 52.2976C41.1002 52.2494 41.1058 52.2494 41.1088 52.2976C41.1109 52.3307 41.1354 52.3578 41.1633 52.3578C41.1911 52.3578 41.2033 52.3405 41.1903 52.3193C41.1773 52.2981 41.2177 52.2807 41.2801 52.2807C41.3425 52.2807 41.3829 52.2981 41.3699 52.3193C41.3569 52.3405 41.3691 52.3578 41.3969 52.3578C41.4248 52.3578 41.448 52.3307 41.4483 52.2976C41.4489 52.2535 41.4602 52.2549 41.4904 52.303C41.5253 52.3585 41.5358 52.3585 41.5577 52.303C41.5761 52.2564 41.5847 52.2548 41.5874 52.2976C41.5895 52.3307 41.614 52.3578 41.6419 52.3578C41.6697 52.3578 41.6815 52.3397 41.6679 52.3177C41.6544 52.2956 41.6737 52.2775 41.7109 52.2775C41.748 52.2775 41.7673 52.2956 41.7538 52.3177C41.7402 52.3397 41.752 52.3578 41.7798 52.3578C41.8077 52.3578 41.8308 52.3307 41.8312 52.2976C41.8318 52.2535 41.8431 52.2549 41.8733 52.303C41.9082 52.3585 41.9187 52.3585 41.9406 52.303C41.959 52.2564 41.9676 52.2548 41.9703 52.2976C41.9724 52.3307 41.9969 52.3578 42.0248 52.3578C42.0526 52.3578 42.0644 52.3397 42.0508 52.3177C42.0373 52.2956 42.0566 52.2775 42.0938 52.2775C42.1309 52.2775 42.1502 52.2956 42.1367 52.3177C42.1231 52.3397 42.133 52.3578 42.1587 52.3578C42.1844 52.3578 42.2163 52.3307 42.2296 52.2976C42.2461 52.2562 42.2551 52.2601 42.2582 52.3096C42.2622 52.3738 42.2679 52.3738 42.3091 52.3096C42.34 52.2614 42.3557 52.2574 42.3563 52.2976C42.3567 52.3307 42.3798 52.3578 42.4077 52.3578C42.4355 52.3578 42.4473 52.3397 42.4337 52.3177C42.4202 52.2956 42.4395 52.2775 42.4766 52.2775C42.5138 52.2775 42.5331 52.2956 42.5196 52.3177C42.506 52.3397 42.5178 52.3578 42.5456 52.3578C42.5735 52.3578 42.5966 52.3307 42.597 52.2976C42.5976 52.2535 42.6088 52.2549 42.6391 52.303C42.674 52.3585 42.6845 52.3585 42.7064 52.303C42.7248 52.2564 42.7334 52.2548 42.7361 52.2976C42.7382 52.3307 42.7627 52.3578 42.7906 52.3578C42.8184 52.3578 42.8301 52.3397 42.8166 52.3177C42.8031 52.2956 42.8223 52.2775 42.8595 52.2775C42.8967 52.2775 42.916 52.2956 42.9025 52.3177C42.8889 52.3397 42.9006 52.3578 42.9285 52.3578C42.9564 52.3578 42.9795 52.3307 42.9799 52.2976C42.9805 52.2535 42.9917 52.2549 43.022 52.303C43.0569 52.3585 43.0673 52.3585 43.0893 52.303C43.1077 52.2564 43.1163 52.2548 43.119 52.2976C43.121 52.3307 43.1456 52.3578 43.1735 52.3578C43.2013 52.3578 43.213 52.3397 43.1995 52.3177C43.1859 52.2956 43.2052 52.2775 43.2424 52.2775C43.2796 52.2775 43.2989 52.2956 43.2854 52.3177C43.2718 52.3397 43.2835 52.3578 43.3114 52.3578C43.3392 52.3578 43.3624 52.3307 43.3628 52.2976C43.3634 52.2535 43.3746 52.2549 43.4049 52.303C43.4398 52.3585 43.4502 52.3585 43.4722 52.303C43.4906 52.2564 43.4992 52.2548 43.5019 52.2976C43.5039 52.3307 43.5285 52.3578 43.5563 52.3578C43.5842 52.3578 43.5959 52.3397 43.5824 52.3177C43.5688 52.2956 43.5881 52.2775 43.6253 52.2775C43.6625 52.2775 43.6818 52.2956 43.6682 52.3177C43.6547 52.3397 43.6664 52.3578 43.6943 52.3578C43.7221 52.3578 43.7453 52.3307 43.7457 52.2976C43.7463 52.2535 43.7575 52.2549 43.7878 52.303C43.8226 52.3585 43.8331 52.3585 43.855 52.303C43.8735 52.2564 43.8821 52.2548 43.8848 52.2976C43.8868 52.3307 43.9114 52.3578 43.9392 52.3578C43.9671 52.3578 43.9793 52.3405 43.9663 52.3193C43.9533 52.2981 43.9937 52.2807 44.0561 52.2807C44.1185 52.2807 44.1589 52.2981 44.1459 52.3193C44.1328 52.3405 44.1432 52.3578 44.1689 52.3578C44.1946 52.3578 44.2265 52.3307 44.2398 52.2976C44.259 52.2494 44.2646 52.2494 44.2677 52.2976C44.2697 52.3307 44.2943 52.3578 44.3221 52.3578C44.35 52.3578 44.3622 52.3405 44.3492 52.3193C44.3361 52.2981 44.3765 52.2807 44.439 52.2807C44.5014 52.2807 44.5418 52.2981 44.5287 52.3193C44.5157 52.3405 44.5261 52.3578 44.5518 52.3578C44.5775 52.3578 44.6093 52.3307 44.6226 52.2976C44.6419 52.2494 44.6475 52.2494 44.6505 52.2976C44.6526 52.3307 44.6772 52.3578 44.705 52.3578C44.7329 52.3578 44.7451 52.3405 44.7321 52.3193C44.719 52.2981 44.7594 52.2807 44.8218 52.2807C44.8843 52.2807 44.9246 52.2981 44.9116 52.3193C44.8986 52.3405 44.909 52.3578 44.9347 52.3578C44.9604 52.3578 44.9922 52.3307 45.0055 52.2976C45.0248 52.2494 45.0304 52.2494 45.0334 52.2976C45.0355 52.3307 45.06 52.3578 45.0879 52.3578C45.1158 52.3578 45.128 52.3405 45.1149 52.3193C45.1019 52.2981 45.1423 52.2807 45.2047 52.2807C45.2671 52.2807 45.3075 52.2981 45.2945 52.3193C45.2815 52.3405 45.2919 52.3578 45.3176 52.3578C45.3432 52.3578 45.3751 52.3307 45.3884 52.2976C45.4077 52.2494 45.4133 52.2494 45.4163 52.2976C45.4184 52.3307 45.4429 52.3578 45.4708 52.3578C45.4986 52.3578 45.5109 52.3405 45.4978 52.3193C45.4848 52.2981 45.5252 52.2807 45.5876 52.2807C45.65 52.2807 45.6904 52.2981 45.6774 52.3193C45.6644 52.3405 45.6748 52.3578 45.7005 52.3578C45.7261 52.3578 45.758 52.3307 45.7713 52.2976C45.7906 52.2494 45.7962 52.2494 45.7992 52.2976C45.8013 52.3307 45.8258 52.3578 45.8537 52.3578C45.8815 52.3578 45.8937 52.3405 45.8807 52.3193C45.8677 52.2981 45.9081 52.2807 45.9705 52.2807C46.0329 52.2807 46.0733 52.2981 46.0603 52.3193C46.0473 52.3405 46.0577 52.3578 46.0834 52.3578C46.109 52.3578 46.1409 52.3307 46.1542 52.2976C46.1735 52.2494 46.1791 52.2494 46.1821 52.2976C46.1842 52.3307 46.2087 52.3578 46.2366 52.3578C46.2644 52.3578 46.2766 52.3405 46.2636 52.3193C46.2506 52.2981 46.291 52.2807 46.3534 52.2807C46.4158 52.2807 46.4562 52.2981 46.4432 52.3193C46.4302 52.3405 46.4424 52.3578 46.4702 52.3578C46.4981 52.3578 46.5213 52.3307 46.5216 52.2976C46.5222 52.2535 46.5335 52.2549 46.5637 52.303C46.5986 52.3585 46.6091 52.3585 46.631 52.303C46.6494 52.2564 46.658 52.2548 46.6607 52.2976C46.6628 52.3307 46.6873 52.3578 46.7152 52.3578C46.743 52.3578 46.7548 52.3397 46.7412 52.3177C46.7277 52.2956 46.747 52.2775 46.7842 52.2775C46.8213 52.2775 46.8406 52.2956 46.8271 52.3177C46.8135 52.3397 46.8253 52.3578 46.8531 52.3578C46.881 52.3578 46.9041 52.3307 46.9045 52.2976C46.9051 52.2535 46.9164 52.2549 46.9466 52.303C46.9815 52.3585 46.992 52.3585 47.0139 52.303C47.0323 52.2564 47.0409 52.2548 47.0436 52.2976C47.0457 52.3307 47.0702 52.3578 47.0981 52.3578C47.1259 52.3578 47.1377 52.3397 47.1241 52.3177C47.1106 52.2956 47.1299 52.2775 47.167 52.2775C47.2042 52.2775 47.2235 52.2956 47.21 52.3177C47.1964 52.3397 47.2082 52.3578 47.236 52.3578C47.2639 52.3578 47.287 52.3307 47.2874 52.2976C47.288 52.2535 47.2992 52.2549 47.3295 52.303C47.3644 52.3585 47.3749 52.3585 47.3968 52.303C47.4186 52.2479 47.4233 52.248 47.4265 52.3035C47.4294 52.3549 47.4453 52.357 47.4978 52.3132C47.5417 52.2765 47.5757 52.2737 47.5951 52.3052C47.6114 52.3318 47.655 52.3419 47.692 52.3276C47.7421 52.3083 47.7524 52.2444 47.7323 52.0768C47.7175 51.9531 47.6919 51.8411 47.6755 51.8279C47.6427 51.8014 47.6106 51.6931 47.6077 51.599C47.6066 51.5659 47.5914 51.5388 47.5739 51.5388C47.5563 51.5388 47.5401 51.5117 47.5378 51.4786C47.5293 51.3546 47.4791 51.1836 47.4433 51.1569C47.423 51.1417 47.3998 51.0431 47.3918 50.9378C47.3837 50.8325 47.355 50.7325 47.3278 50.7156C47.3007 50.6988 47.2804 50.6711 47.2826 50.6542C47.2849 50.6373 47.2851 50.6181 47.283 50.6114C47.281 50.6048 47.2717 50.5582 47.2623 50.5078C47.2529 50.4575 47.2253 50.4033 47.2009 50.3874C47.1766 50.3715 47.1625 50.3206 47.1696 50.2742C47.1767 50.2278 47.1616 50.1899 47.136 50.1899C47.1105 50.1899 47.102 50.1697 47.1171 50.145C47.1323 50.1204 47.1224 50.0864 47.0953 50.0694C47.0681 50.0525 47.0582 50.0185 47.0734 49.9939C47.0885 49.9692 47.0827 49.949 47.0604 49.949C47.0381 49.949 47.0146 49.8794 47.0082 49.7943C47.0017 49.7092 46.9787 49.628 46.9569 49.6136C46.9352 49.5994 46.9232 49.5498 46.9303 49.5034C46.9374 49.457 46.9223 49.4191 46.8967 49.4191C46.8712 49.4191 46.8636 49.3974 46.8799 49.3709C46.8962 49.3444 46.8902 49.3227 46.8668 49.3227C46.8433 49.3227 46.8204 49.2902 46.8161 49.2504C46.8117 49.2107 46.8045 49.1457 46.8001 49.1059C46.7957 49.0662 46.7706 49.0337 46.7443 49.0337C46.718 49.0337 46.7108 49.0192 46.7284 49.0014C46.746 48.9837 46.7227 48.9258 46.6766 48.8727C46.6272 48.8159 46.6203 48.7926 46.66 48.816C46.7098 48.8456 46.7163 48.8384 46.6852 48.7882C46.6622 48.751 46.6392 48.6988 46.6344 48.6723C46.6295 48.6458 46.6115 48.5489 46.5945 48.4568C46.5775 48.3647 46.5414 48.2756 46.5143 48.2587C46.4871 48.2418 46.4667 48.2141 46.469 48.1972C46.4712 48.1803 46.4715 48.1611 46.4695 48.1544C46.4676 48.1478 46.4562 48.0892 46.4443 48.024C46.4325 47.9589 46.3999 47.8915 46.372 47.8742C46.3441 47.8568 46.3232 47.8287 46.3254 47.8118C46.3277 47.7949 46.3278 47.7757 46.3258 47.769C46.3165 47.7383 46.2877 47.5977 46.2596 47.4458C46.2427 47.3541 46.203 47.247 46.1715 47.2077C46.1255 47.1505 46.127 47.1441 46.1789 47.1756C46.2216 47.2015 46.2157 47.1718 46.1614 47.0885C46.1162 47.0189 46.0957 46.9621 46.116 46.9621C46.1363 46.9621 46.1119 46.915 46.0617 46.8575C46.0047 46.7921 45.9975 46.7684 46.0423 46.7944C46.1018 46.829 46.104 46.8234 46.0547 46.7622C46.022 46.7215 46.0094 46.674 46.0268 46.6566C46.0441 46.6391 46.0331 46.6249 46.0024 46.6249C45.9717 46.6249 45.9491 46.6086 45.9522 46.5887C45.9554 46.5688 45.9537 46.5418 45.9486 46.5285C45.9294 46.4789 45.896 46.3077 45.8829 46.1913C45.8755 46.125 45.8429 46.022 45.8106 45.9624C45.7782 45.9028 45.766 45.854 45.7832 45.854C45.8006 45.854 45.7879 45.8215 45.7551 45.7818C45.7224 45.742 45.7116 45.7095 45.7312 45.7095C45.7508 45.7095 45.7429 45.6804 45.7135 45.6449C45.6843 45.6093 45.6744 45.566 45.6917 45.5485C45.7091 45.5311 45.6981 45.5168 45.6674 45.5168C45.6367 45.5168 45.6141 45.5006 45.6172 45.4807C45.6204 45.4608 45.6187 45.4337 45.6136 45.4205C45.5926 45.3662 45.5606 45.1953 45.5476 45.0676C45.54 44.9927 45.5112 44.9168 45.4837 44.899C45.4562 44.8811 45.4395 44.8285 45.4466 44.7821C45.4537 44.7358 45.4399 44.6978 45.4159 44.6978C45.3919 44.6978 45.3748 44.6816 45.3779 44.6617C45.3811 44.6418 45.3783 44.6093 45.3719 44.5894C45.3486 44.5169 45.3362 44.4553 45.3304 44.3818C45.3271 44.3405 45.304 44.3194 45.279 44.335C45.2541 44.3505 45.2421 44.3192 45.2524 44.2655C45.2626 44.2118 45.2507 44.1679 45.2259 44.1679C45.2011 44.1679 45.1833 44.1516 45.1865 44.1318C45.2071 44.0001 45.173 43.7817 45.1354 43.805C45.1105 43.8205 45.0984 43.7897 45.1086 43.7366C45.1187 43.6835 45.1065 43.6272 45.0813 43.6115C45.0562 43.5959 45.048 43.5629 45.0632 43.5383C45.0783 43.5136 45.0667 43.4934 45.0372 43.4934C45.0078 43.4934 44.9961 43.4732 45.0112 43.4486C45.0264 43.4239 45.0165 43.3899 44.9894 43.373C44.9622 43.3561 44.9514 43.3236 44.9654 43.3007C44.9795 43.2779 44.9687 43.2454 44.9415 43.2285C44.9143 43.2115 44.9035 43.179 44.9176 43.1562C44.9316 43.1334 44.9208 43.1008 44.8936 43.0839C44.8665 43.067 44.8566 43.033 44.8718 43.0083C44.8869 42.9837 44.8812 42.9635 44.859 42.9635C44.8369 42.9635 44.8139 42.9147 44.8079 42.8551C44.7969 42.7461 44.7654 42.5747 44.748 42.5299C44.7429 42.5167 44.7412 42.4896 44.7444 42.4697C44.7475 42.4498 44.7285 42.4335 44.7022 42.4335C44.6759 42.4335 44.6569 42.4173 44.66 42.3974C44.6631 42.3775 44.6615 42.3504 44.6563 42.3372C44.6382 42.2903 44.6008 42.1195 44.5957 42.0602C44.5928 42.0271 44.5726 42 44.5506 42C44.5287 42 44.5133 41.9837 44.5164 41.9638C44.5196 41.9439 44.5179 41.9169 44.5128 41.9036C44.5076 41.8904 44.4963 41.847 44.4877 41.8073C44.4791 41.7675 44.4576 41.67 44.44 41.5905C44.4223 41.511 44.4059 41.4189 44.4035 41.3857C44.401 41.3526 44.3798 41.3255 44.3563 41.3255C44.3329 41.3255 44.3261 41.3053 44.3412 41.2806C44.3563 41.256 44.3465 41.222 44.3193 41.2051C44.2921 41.1882 44.282 41.1546 44.2968 41.1305C44.3116 41.1064 44.2966 41.0374 44.2635 40.9772C44.2304 40.9171 44.2078 40.8516 44.2134 40.8317C44.219 40.8118 44.2008 40.7956 44.1729 40.7956C44.145 40.7956 44.1346 40.7754 44.1497 40.7507C44.1649 40.726 44.1601 40.6952 44.1391 40.6821C44.1181 40.6691 44.0955 40.5877 44.089 40.5013C44.0825 40.415 44.0508 40.3116 44.0187 40.2717C43.9708 40.212 43.9733 40.2056 44.0321 40.2359C44.0868 40.264 44.0857 40.2576 44.0275 40.209C43.9855 40.1739 43.9567 40.1072 43.9634 40.0609C43.9702 40.0145 43.9562 39.9766 43.9322 39.9766C43.9082 39.9766 43.8911 39.9603 43.8942 39.9404C43.8974 39.9205 43.8957 39.8935 43.8906 39.8802C43.8854 39.867 43.8738 39.8165 43.8647 39.7681C43.8555 39.7196 43.8324 39.6437 43.8132 39.5995C43.764 39.4857 43.7449 39.3948 43.737 39.2375C43.7332 39.1623 43.7033 39.0903 43.6705 39.0776C43.6377 39.0649 43.6162 39.0181 43.6227 38.9736C43.6292 38.929 43.6001 38.8639 43.5581 38.8288C43.5161 38.7938 43.5087 38.7788 43.5416 38.7955C43.6127 38.8318 43.6231 38.7432 43.5528 38.6994C43.526 38.6828 43.5165 38.649 43.5316 38.6243C43.5468 38.5997 43.5363 38.5795 43.5085 38.5795C43.4806 38.5795 43.4603 38.5632 43.4634 38.5433C43.4666 38.5234 43.4649 38.4964 43.4598 38.4831C43.4547 38.4699 43.4413 38.4211 43.4302 38.3747C43.4191 38.3284 43.4008 38.2525 43.3897 38.2061C43.3785 38.1598 43.3678 38.0609 43.3658 37.9865C43.3637 37.912 43.3417 37.8639 43.3167 37.8794C43.2918 37.8949 43.2797 37.8641 43.2899 37.811C43.3 37.7578 43.2877 37.7015 43.2626 37.6859C43.2375 37.6702 43.2293 37.6373 43.2445 37.6126C43.2596 37.588 43.2504 37.5678 43.224 37.5678C43.1977 37.5678 43.1844 37.5244 43.1946 37.4714C43.2047 37.4184 43.1914 37.3751 43.1651 37.3751C43.1387 37.3751 43.1304 37.3534 43.1467 37.3269C43.163 37.3004 43.1554 37.2787 43.1298 37.2787C43.1043 37.2787 43.0895 37.2408 43.0969 37.1944C43.1044 37.1481 43.0891 37.083 43.0629 37.0499C43.0367 37.0168 43.0265 36.9897 43.0401 36.9897C43.0537 36.9897 43.0449 36.9084 43.0206 36.809C42.9963 36.7097 42.9675 36.5903 42.9566 36.5438C42.9457 36.4974 42.9235 36.4379 42.9074 36.4116C42.8758 36.36 42.8305 36.184 42.8238 36.0864C42.8215 36.0533 42.8053 36.0261 42.7877 36.0261C42.7702 36.0261 42.7522 35.9936 42.7479 35.9539C42.7435 35.9141 42.7363 35.8491 42.7319 35.8094C42.7275 35.7696 42.7096 35.7371 42.692 35.7371C42.6745 35.7371 42.6594 35.71 42.6586 35.6769C42.6543 35.5079 42.5873 35.23 42.5354 35.1654C42.4908 35.1099 42.4906 35.1007 42.5345 35.1272C42.5742 35.1512 42.5712 35.1213 42.5249 35.0316C42.4879 34.9597 42.4686 34.8831 42.4819 34.8613C42.4953 34.8396 42.4841 34.8217 42.457 34.8217C42.43 34.8217 42.4194 34.7914 42.4336 34.7543C42.4477 34.7173 42.4359 34.6724 42.4073 34.6547C42.3788 34.6369 42.3678 34.6022 42.383 34.5775C42.3981 34.5529 42.3841 34.5327 42.3518 34.5327C42.3196 34.5327 42.3058 34.52 42.3212 34.5045C42.36 34.4654 42.2618 34.1955 42.2087 34.1955C42.185 34.1955 42.1617 34.2551 42.157 34.3279ZM77.8688 37.2366C78.2165 37.2507 78.2722 37.2783 78.3857 37.492C78.4582 37.6284 78.4645 38.973 78.4674 54.6702C78.47 68.7825 78.4596 71.7118 78.4069 71.7669C78.3718 71.8034 78.3549 71.8642 78.3693 71.9019C78.3836 71.9396 78.3748 71.9576 78.3497 71.942C78.3245 71.9263 78.2778 71.9555 78.246 72.0069C78.2127 72.0606 78.1577 72.0887 78.1169 72.0729C78.0778 72.0578 78.0581 72.0653 78.073 72.0897C78.0979 72.1302 75.3641 72.1333 70.7986 72.0979C69.7938 72.0901 69.2547 72.1027 69.2543 72.134C69.2539 72.1605 69.2348 72.1523 69.2118 72.1158C69.1874 72.0771 69.1447 72.0651 69.1094 72.0871C69.0699 72.1117 69.0607 72.1054 69.083 72.0692C69.1026 72.0373 69.0885 72.0136 69.0498 72.0136C68.9304 72.0136 68.7986 71.8495 68.7788 71.6764C68.7682 71.5836 68.7581 63.855 68.7564 54.5016C68.7536 39.4993 68.7617 37.4841 68.8247 37.3992C68.913 37.28 68.9569 37.2676 69.3747 37.2446C69.5589 37.2344 69.7405 37.2216 69.7781 37.2162C69.8764 37.2022 77.4949 37.2213 77.8688 37.2366Z" fill="url(#paint0_linear)"/>
<defs>
<linearGradient id="paint0_linear" x1="52" y1="0" x2="52" y2="102" gradientUnits="userSpaceOnUse">
<stop stop-color="#767676"/>
<stop offset="1" stop-color="#767676" stop-opacity="0.5"/>
</linearGradient>
</defs>
</svg>
