<svg width="124" height="124" viewBox="0 0 124 124" fill="none" xmlns="http://www.w3.org/2000/svg">
<path fill-rule="evenodd" clip-rule="evenodd" d="M1.96212e-06 61.723V123.446H61.723H123.446V61.723V0H61.723H1.96212e-06V61.723ZM99.9621 56.8592C103.234 57.7776 106.942 60.4984 109.153 63.6043L110.245 65.1378L105.817 67.9123L101.389 70.6874L99.7712 68.845C96.9095 65.5855 92.3271 65.0193 89.5932 67.588C88.6463 68.4774 88.3324 69.3766 88.3324 71.1998C88.3324 74.3589 90.0387 75.9988 95.8341 78.4101C104.913 82.1876 109.711 85.6386 111.929 89.9872C113.202 92.4819 113.436 99.1649 112.376 102.703C111.46 105.761 108.02 109.412 104.361 111.208C101.409 112.657 100.804 112.747 94.0258 112.747H86.8264L82.5283 110.553C79.3121 108.911 77.6299 107.62 75.8468 105.423C74.5361 103.809 73.5496 102.231 73.6539 101.918C73.7587 101.604 75.7536 100.244 78.087 98.8956L82.3297 96.4448L84.6636 98.9504C87.4535 101.947 90.0706 103.146 93.8189 103.146C98.8994 103.146 102.049 100.911 102.049 97.305C102.049 94.4164 99.9446 92.5696 93.4085 89.7194C83.2487 85.2891 79.4657 82.1612 77.7166 76.7455C73.418 63.4364 85.3593 52.7619 99.9621 56.8592ZM66.9351 78.6312C66.9351 102.283 66.7826 103.663 63.6921 107.93C62.6348 109.388 60.9104 110.736 58.661 111.86C55.6072 113.386 54.7178 113.57 50.4071 113.57C44.9563 113.57 41.4455 112.619 38.2381 110.273C36.0347 108.662 32.9601 104.956 32.9343 103.88C32.9261 103.529 34.9396 101.995 37.4091 100.472L41.8992 97.7012L42.8226 99.1891C45.0901 102.843 48.3892 104.287 51.855 103.143C55.3905 101.977 55.4135 101.817 55.4135 78.2099V57.0595H61.1743H66.9351V78.6312Z" fill="url(#paint0_linear)"/>
<defs>
<linearGradient id="paint0_linear" x1="30.8615" y1="0" x2="30.8615" y2="123.446" gradientUnits="userSpaceOnUse">
<stop stop-color="#767676"/>
<stop offset="1" stop-color="#767676" stop-opacity="0.5"/>
</linearGradient>
</defs>
</svg>
