<svg width="427" height="427" viewBox="0 0 427 427" fill="none" xmlns="http://www.w3.org/2000/svg">
<path fill-rule="evenodd" clip-rule="evenodd" d="M201.73 0.174263C146.922 4.06926 98.9575 25.5733 62.0745 62.7883C29.0195 96.1403 8.6225 137.086 1.6665 184.055C-0.5555 199.059 -0.5555 228.464 1.6665 243.055C7.7565 283.042 22.4515 316.874 47.0445 347.521C90.3925 401.54 157.229 430.929 226.713 426.522C285.989 422.763 339.346 395.458 378.092 349.055C402.672 319.618 418.719 283.187 424.779 243.055C426.98 228.474 426.981 199.008 424.781 184.055C410.795 88.9993 337.602 15.6833 243.23 2.20126C232.27 0.635263 210.325 -0.436737 201.73 0.174263ZM220.193 54.8053C227.705 66.8323 237.859 86.0203 242.305 96.5873C244.98 102.946 253.23 126.047 253.23 127.181C253.23 127.387 235.23 127.555 213.23 127.555C191.23 127.555 173.23 127.318 173.23 127.027C173.23 125.669 180.911 104.183 183.945 97.0553C190.529 81.5863 211.185 44.5553 213.23 44.5553C213.539 44.5553 216.672 49.1673 220.193 54.8053ZM152.359 62.3053C146.211 74.5653 137.391 96.8523 133.266 110.555C131.527 116.33 129.647 122.518 129.089 124.305L128.075 127.555H97.0955H66.1165L67.9225 124.471C72.7115 116.297 86.0405 100.043 95.3635 91.0103C110.95 75.9083 128.166 64.5133 147.667 56.3913C152.651 54.3153 156.847 52.6033 156.989 52.5863C157.132 52.5693 155.048 56.9433 152.359 62.3053ZM287.971 60.6703C314.07 73.1273 341.633 97.9283 357.583 123.305L360.255 127.555H329.211C305.229 127.555 298.087 127.271 297.818 126.305C292.078 105.72 283.517 82.4623 275.237 64.9553L269.516 52.8563L274.622 54.7963C277.431 55.8643 283.438 58.5073 287.971 60.6703ZM118.836 176.805C117.325 189.064 117.08 231.088 118.448 243.305L119.819 255.555H84.1315C51.9145 255.555 48.3825 255.395 47.8115 253.908C47.4635 253.002 46.2905 246.814 45.2045 240.158C41.9835 220.418 42.8985 191.64 47.2615 175.437L48.3065 171.555H83.8955H119.483L118.836 176.805ZM263.579 176.305C266.643 200.263 266.855 225.522 264.165 246.305L262.967 255.555H213.193H163.417L162.792 250.805C161.206 238.742 160.282 225.012 160.282 213.555C160.282 202.098 161.206 188.368 162.792 176.305L163.417 171.555H213.195H262.971L263.579 176.305ZM378.615 173.305C384.289 192.37 384.289 234.74 378.615 253.805C378.132 255.429 375.53 255.555 342.385 255.555H306.674L308.029 242.805C309.445 229.466 309.045 187.415 307.401 176.805L306.589 171.555H342.341C375.527 171.555 378.132 171.681 378.615 173.305ZM129.089 302.805C129.647 304.593 131.527 310.78 133.266 316.555C137.39 330.252 146.21 352.544 152.352 364.791L157.234 374.528L151.982 372.494C136.125 366.355 118.909 356.32 105.642 345.483C92.5405 334.779 74.2435 313.717 66.8295 300.805C66.2615 299.816 72.5915 299.555 97.0925 299.555H128.075L129.089 302.805ZM252.62 302.305C250.868 309.731 241.018 333.707 234.114 347.349C226.965 361.476 214.443 382.555 213.201 382.555C211.999 382.555 199.279 361.053 192.2 347.055C185.417 333.642 175.57 309.643 173.839 302.305L173.192 299.555H213.23H253.268L252.62 302.305ZM356.383 305.559C338.288 334.178 306.271 360.288 274.449 372.38L269.322 374.328L273.186 366.641C281.451 350.203 289.542 329.291 295.758 308.305L298.35 299.555H329.264H360.178L356.383 305.559Z" fill="#F3F3F3"/>
</svg>
