<svg width="790" height="790" viewBox="0 0 790 790" fill="none" xmlns="http://www.w3.org/2000/svg">
<path fill-rule="evenodd" clip-rule="evenodd" d="M577.01 0.287449C532.768 3.84645 493.987 19.1884 461.511 45.9774C449.29 56.0584 376.056 129.106 371.619 135.64C362.36 149.276 359.908 163.36 364.15 178.552C368.939 195.703 383.438 209.617 400.66 213.588C407.256 215.109 419.494 214.834 425.579 213.028C437.751 209.417 439.301 208.123 480.511 167.16C502.236 145.565 523.56 125.113 527.898 121.711C537.476 114.2 553.222 106.425 564.594 103.593C581.215 99.4535 603.752 100.118 619.188 105.204C644.54 113.556 666.818 132.807 677.959 155.987C686.287 173.316 689.049 186.442 688.195 204.64C687.152 226.843 679.985 245.492 665.659 263.289C656.501 274.667 518.355 412.725 508.511 420.338C490.971 433.903 470.986 440.73 448.511 440.835C420.937 440.963 401.596 433.36 378.011 413.122C363.892 401.006 353.028 396.924 337.511 397.902C322.264 398.863 308.423 407 299.742 420.104C294.494 428.028 292.26 435.103 291.737 445.465C290.809 463.825 298.055 477.582 317.019 493.47C327.496 502.248 344.834 514.062 355.011 519.359C371.541 527.963 394.225 535.505 415.011 539.31C429.339 541.932 465.673 541.905 480.511 539.261C500.378 535.72 523.293 528.056 540.01 519.361C548.785 514.798 564.905 504.17 573.51 497.276C584.252 488.67 729.87 343.289 740.919 330.14C780.455 283.089 796.224 225.323 785.977 165.077C780.179 130.987 764.692 98.4404 740.628 69.7714C714.671 38.8474 674.644 14.4984 634.51 5.21845C618.404 1.49345 591.109 -0.84655 577.01 0.287449ZM321.511 248.254C295.594 251.379 269.887 259.061 249.011 269.919C240.236 274.482 224.116 285.11 215.511 292.004C204.769 300.61 59.1505 445.991 48.1015 459.14C8.56552 506.191 -7.20248 563.957 3.04452 624.203C10.5065 668.077 35.8085 712.359 69.6415 740.758C103.464 769.147 140.592 784.692 183.948 788.617C201.531 790.209 226.719 788.356 245.511 784.089C273.391 777.759 304.497 762.287 327.511 743.303C339.732 733.222 412.966 660.174 417.403 653.64C426.662 640.004 429.114 625.92 424.872 610.728C420.083 593.577 405.584 579.663 388.362 575.692C381.766 574.171 369.528 574.446 363.443 576.252C351.271 579.863 349.721 581.157 308.511 622.12C286.786 643.715 265.462 664.167 261.124 667.569C251.546 675.08 235.798 682.855 224.426 685.687C207.805 689.827 185.269 689.162 169.833 684.076C144.481 675.724 122.203 656.473 111.062 633.293C102.734 615.964 99.9725 602.838 100.827 584.64C101.87 562.437 109.036 543.788 123.362 525.991C132.52 514.613 270.667 376.555 280.511 368.942C298.051 355.377 318.036 348.55 340.511 348.445C368.085 348.317 387.426 355.92 411.011 376.158C425.13 388.274 435.994 392.356 451.511 391.378C466.758 390.417 480.599 382.28 489.28 369.176C494.528 361.252 496.762 354.177 497.285 343.815C498.213 325.455 490.967 311.698 472.003 295.81C461.526 287.032 444.188 275.218 434.011 269.921C424.647 265.047 406.945 258.066 396.554 255.148C377.884 249.907 367.454 248.475 345.511 248.142C334.236 247.971 323.436 248.022 321.511 248.254Z" fill="white"/>
</svg>
