<svg width="121" height="142" viewBox="0 0 121 142" fill="none" xmlns="http://www.w3.org/2000/svg">
<path fill-rule="evenodd" clip-rule="evenodd" d="M58.1607 0.220071C53.9184 0.875453 49.8809 2.49596 46.9559 4.71711C43.9405 7.00687 41.9341 10.931 41.1275 16.1163C40.7786 18.359 40.8657 26.4298 41.2918 31.3472C41.7021 36.0804 41.8112 43.9412 41.4951 45.9749C41.0297 48.9689 41.361 48.3992 35.6206 56.0786C31.2859 61.8774 30.1454 63.4946 29.145 65.2595C27.9367 67.3916 26.0505 72.0494 24.2216 77.417C23.0044 80.9891 21.8176 83.9745 20.5852 86.5641C20.0067 87.7799 19.3984 89.3005 19.2337 89.9436C18.8443 91.4623 18.8373 94.0212 19.2184 95.4795L19.4857 96.5013L18.9865 96.8091C18.1414 97.3301 16.9296 98.8108 16.1398 100.287C15.0357 102.351 13.7475 103.6 11.6781 104.613C10.1615 105.355 9.61367 105.522 5.71277 106.429C2.2661 107.231 0.772463 108.951 0.992253 111.867C1.03942 112.494 1.18514 113.379 1.31589 113.835C2.53714 118.095 2.50524 118.731 0.800882 124.09C-0.118339 126.98 -0.204199 127.867 0.328952 128.966C1.41717 131.209 5.301 132.645 13.0386 133.664C16.5997 134.134 18.9474 134.728 23.1184 136.214C33.2413 139.821 34.6341 140.219 37.5513 140.338C39.8526 140.431 41.0962 140.183 42.5288 139.345C43.6923 138.665 45.191 137.199 45.6923 136.253C46.1367 135.413 46.0578 135.441 49.7711 134.809C54.7444 133.963 58.0843 133.684 63.3758 133.674C69.134 133.664 73.0733 134.044 77.4088 135.028L78.4689 135.268L79.0737 136.277C79.4064 136.831 80.0409 137.708 80.4836 138.226C82.5229 140.609 84.5547 141.395 88.2815 141.243C91.5061 141.111 93.3929 140.321 95.8315 138.082C97.8846 136.196 99.3732 135.06 101.905 133.445C104.077 132.06 109.199 129.144 113.486 126.853C118.046 124.417 119.303 123.47 120.123 121.856C120.757 120.608 120.896 119.652 120.607 118.527C120.18 116.864 119.327 115.95 117.421 115.112C115.107 114.094 113.196 112.638 112.26 111.179C111.45 109.918 111.161 108.818 111.007 106.416C110.819 103.483 110.256 101.95 108.624 99.923L107.803 98.904L108.191 97.1764C108.955 93.7786 109.086 92.5621 109.093 88.8024C109.099 85.9742 109.045 84.9846 108.828 83.9014C107.462 77.0796 102.802 68.9703 89.5816 50.4082C87.2648 47.1553 86.4889 45.7662 85.7651 43.5767C84.7996 40.656 84.4672 38.123 84.2388 31.9504C84.0019 25.5424 83.7046 22.5685 82.9495 19.0499C82.0419 14.8215 80.1013 10.2806 78.0543 7.59605C76.242 5.21928 73.4086 2.9455 70.7076 1.70064C69.4044 1.09999 66.8332 0.400429 64.987 0.144218C63.3921 -0.0770076 59.8271 -0.0374974 58.1607 0.220071ZM68.6965 19.0983C69.9512 19.715 71.0329 20.8617 71.7582 22.3436C72.4941 23.8476 72.7479 24.9697 72.7479 26.72C72.7479 28.4179 72.483 29.6267 71.8173 30.9677C70.962 32.6907 69.5328 34.1639 68.907 33.9675C68.7331 33.9131 66.7883 33.128 64.5851 32.2229C62.3819 31.318 60.4391 30.5205 60.268 30.4509C59.6365 30.1941 59.1984 27.5259 59.4525 25.4853C59.7169 23.3628 60.3274 21.9749 61.6348 20.5244C62.9765 19.0354 64.2075 18.5136 66.2519 18.567C67.532 18.6003 67.8038 18.6594 68.6965 19.0983ZM50.4278 20.2416C51.8532 21.075 53.1197 22.9545 53.6432 25.0136C53.9003 26.025 53.9961 28.8715 53.7939 29.4924C53.7277 29.6958 53.3816 29.9641 52.8999 30.1855C52.0983 30.554 49.3269 32.7643 48.6289 33.5918C48.4167 33.8434 47.9726 34.2631 47.642 34.5243C47.0881 34.9618 47.0051 34.9844 46.5881 34.812C45.9231 34.5373 44.8589 33.2778 44.2522 32.0477C42.0653 27.6138 43.6888 21.3624 47.4003 19.9263C48.1658 19.6301 49.6455 19.7843 50.4278 20.2416ZM58.8409 33.4622C61.8983 34.5499 66.0309 36.1726 67.1092 36.7088C67.7079 37.0066 68.4388 37.5167 68.7342 37.8428C69.6832 38.8908 69.3954 39.6665 67.7314 40.5456C67.2064 40.8231 66.0967 41.4663 65.2653 41.9751C62.7599 43.5084 58.953 45.6405 57.5324 46.3058C55.1522 47.4208 54.204 47.2212 50.9804 44.9267C48.1136 42.8862 46.4455 41.0697 46.4455 39.9886C46.4455 39.5556 46.5681 39.3962 47.3797 38.774C47.8935 38.3801 49.101 37.3882 50.0629 36.5696C53.5588 33.5949 55.2834 32.6254 56.7246 32.8246C57.0156 32.8647 57.9679 33.1517 58.8409 33.4622ZM72.4144 42.9212C73.3994 44.3208 76.307 50.2738 79.025 56.4556C82.3951 64.1204 86.1778 74.009 87.3895 78.3218C88.7876 83.2979 89.0101 89.5163 88.0015 95.433C87.8395 96.3843 87.64 97.4099 87.5585 97.7121L87.4102 98.2616L86.6167 98.1161C85.3414 97.8819 83.6496 98.038 82.8987 98.459C81.6296 99.1706 81.4571 99.8804 81.2149 105.391C81.133 107.257 81.065 110.047 81.0638 111.591L81.0618 114.399L79.4067 116.213C77.6638 118.123 74.8533 120.497 72.899 121.71C71.4318 122.621 68.5968 123.972 67.1548 124.447C63.445 125.67 55.0328 126.366 49.62 125.897L47.8816 125.747L47.2014 124.961C46.8272 124.529 45.5135 123.024 44.2818 121.618L42.0423 119.059L42.9969 118.679C44.3426 118.144 45.4311 117.041 45.7739 115.864C46.0953 114.761 45.9996 113.514 45.5179 112.525C45.0606 111.586 42.354 108.88 40.1889 107.198C33.243 101.799 30.6805 99.4569 29.7103 97.619C28.5327 95.3881 28.0697 91.9047 28.4626 88.2311C28.9314 83.8479 30.0167 80.319 31.9067 77.033C33.1556 74.8618 34.3829 71.9228 35.9346 67.3887C37.9904 61.3814 38.7133 59.8168 40.5434 57.4143C41.81 55.7517 42.873 53.6715 43.7142 51.2094C44.5172 48.8595 44.8151 47.2144 44.7552 45.459L44.7072 44.0498L46.5458 45.8235C50.0434 49.1976 53.2625 50.8479 55.4095 50.3678C56.6109 50.099 59.3393 48.7819 62.8467 46.7774C70.3545 42.4865 71.7209 41.9357 72.4144 42.9212ZM23.5361 100.519C24.6578 101.08 27.2711 103.773 28.4835 105.617C29.0287 106.446 30.2894 108.482 31.2851 110.141C35.2755 116.789 37.1894 119.68 38.9414 121.708C40.4027 123.398 41.2059 124.587 41.9149 126.108C42.9015 128.224 43.051 130.041 42.3657 131.586C41.8839 132.673 40.7585 134.135 39.7768 134.95C38.3393 136.144 38.1529 136.208 36.3996 136.108C33.7131 135.955 31.3671 135.253 24.6225 132.582C22.2223 131.632 19.7395 130.72 19.105 130.556C18.4705 130.392 15.747 129.887 13.0525 129.434C7.78611 128.548 6.64877 128.301 5.75721 127.847C4.50497 127.21 4.43725 125.96 5.47196 122.582C6.62866 118.805 6.69427 117.905 6.05968 114.525C5.87239 113.529 5.77595 112.522 5.81556 111.977C5.92863 110.418 6.56169 110.079 11.6665 108.847C13.4133 108.425 15.1397 107.914 15.6046 107.682C16.7313 107.119 17.5697 106.036 18.8163 103.531C20.586 99.9762 21.4045 99.4538 23.5361 100.519ZM88.2194 104.071C88.4502 107.68 89.5289 109.8 91.6432 110.802C92.4262 111.173 92.6064 111.196 94.742 111.193C97.3301 111.189 98.1861 111.012 100.244 110.053C101.908 109.277 102.825 108.564 103.813 107.276C104.557 106.306 105.602 104.69 105.75 104.279C105.846 104.013 106.566 104.756 106.922 105.488C107.166 105.993 107.252 106.517 107.301 107.817C107.381 109.909 107.666 111.16 108.416 112.709C109.231 114.39 110.076 115.182 112.433 116.474C114.81 117.778 115.98 118.801 115.98 119.576C115.98 120.683 115.613 120.939 109.368 124.188C102.19 127.922 100.532 128.96 98.2188 131.171C93.4779 135.702 89.8386 137.333 87.2926 136.067C85.7408 135.295 84.471 133.409 83.9912 131.163C83.6654 129.638 83.7877 127.918 84.4403 124.844C85.2241 121.153 85.8809 117.076 86.0813 114.659C86.2328 112.834 86.2174 111.91 85.9772 108.389C85.7297 104.762 85.7217 104.177 85.9107 103.584C86.1589 102.805 86.5717 102.531 87.501 102.528L88.1205 102.525L88.2194 104.071Z" fill="url(#paint0_linear)"/>
<defs>
<linearGradient id="paint0_linear" x1="60.3754" y1="0" x2="60.3754" y2="141.261" gradientUnits="userSpaceOnUse">
<stop stop-color="#767676"/>
<stop offset="1" stop-color="#767676" stop-opacity="0.5"/>
</linearGradient>
</defs>
</svg>
