<svg width="217" height="60" viewBox="0 0 217 60" fill="none" xmlns="http://www.w3.org/2000/svg">
<path fill-rule="evenodd" clip-rule="evenodd" d="M13.0648 0.53955C12.9732 1.55208 12.6471 2.05889 11.2405 3.37439C8.71182 5.7394 7.10537 7.59355 5.59095 9.89505C2.66382 14.3434 0.909952 19.3504 0.202569 25.2774C-0.0188306 27.1321 -0.0679408 30.3533 0.101027 31.934C0.695556 37.4966 2.86744 42.5672 6.737 47.4266C7.99402 49.0052 10.683 51.6201 12.1331 52.6739C12.3809 52.854 12.3937 52.9048 12.6 54.518C12.8221 56.2552 13.1785 59.5252 13.1785 59.8252C13.1785 59.9816 13.2445 60 13.8053 60C14.3834 60 14.4352 59.9843 14.4724 59.7976C14.4947 59.6863 14.6204 58.8085 14.7517 57.8469C14.8831 56.8854 15.162 55.2503 15.3717 54.2134C15.732 52.4309 15.767 52.3178 16.0135 52.1386C17.9816 50.7081 20.1298 48.4674 21.699 46.2085C24.3024 42.4606 25.9163 38.3426 26.6587 33.5532C26.8354 32.4126 26.8614 31.8933 26.8654 29.4153C26.8709 26.0716 26.7509 24.921 26.1474 22.5337C24.6617 16.6572 22.437 12.0442 19.2191 8.16855C18.8621 7.73847 17.8553 6.62528 16.9817 5.69478C16.1082 4.76429 15.2232 3.73988 15.0148 3.41829C14.8065 3.0967 14.3188 2.19607 13.9311 1.41679C13.5433 0.637511 13.2008 0 13.1699 0C13.139 0 13.0917 0.242789 13.0648 0.53955ZM163.602 20.1949C163.299 20.7122 163 21.416 163.057 21.4736C163.084 21.5007 163.502 21.5797 163.985 21.6491C165.116 21.8116 166.204 22.0824 166.558 22.2899C166.933 22.5091 167.208 22.9386 167.326 23.486C167.448 24.0582 167.454 41.0953 167.332 42.7623C167.223 44.2605 167.073 44.6046 166.39 44.9286C166.125 45.054 165.593 45.2024 165.206 45.2584C164.82 45.3144 164.434 45.4213 164.349 45.4959C164.155 45.6651 163.831 46.5175 163.831 46.8565V47.1096L166.277 47.17C170.172 47.2661 176.799 47.2488 177.747 47.1399C181.127 46.7515 183.493 45.9277 185.783 44.3413C188.442 42.5001 190.209 40.0042 190.996 36.9815C191.528 34.9359 191.626 31.9179 191.225 29.9458C190.441 26.0912 188.096 22.9472 184.761 21.2772C183.815 20.8038 182.173 20.2749 180.928 20.0424C179.873 19.8456 179.735 19.8425 171.834 19.8388L163.812 19.8351L163.602 20.1949ZM194.169 20.228C193.905 20.6763 193.728 21.1343 193.728 21.3682C193.728 21.5984 193.759 21.6087 194.94 21.7694C196.115 21.9292 196.627 22.0472 196.968 22.2366C197.503 22.5341 197.609 22.8175 197.681 24.1464C197.78 25.9553 197.626 43.403 197.507 43.943C197.452 44.1904 197.334 44.494 197.244 44.6177C197.032 44.9097 196.151 45.2083 195.078 45.3514L194.252 45.4616L194.045 45.8718C193.795 46.3663 193.633 46.9275 193.693 47.0854C193.728 47.1756 194.641 47.2187 197.84 47.2812C205.55 47.4318 207.161 47.3674 209.311 46.8231C212.813 45.9366 215.656 43.7243 216.583 41.164C217.198 39.4667 217.125 37.1502 216.413 35.7433C215.571 34.0806 213.943 32.8222 211.669 32.0768L210.749 31.7752L211.374 31.46C213.027 30.6258 214.208 29.3134 214.695 27.7689C214.87 27.2125 214.916 26.8756 214.916 26.1417C214.916 22.9328 213.011 20.8893 209.31 20.1274C208.445 19.9493 208.113 19.9412 201.377 19.9333L194.348 19.925L194.169 20.228ZM176.103 21.8648C180.013 22.1902 182.719 23.5693 184.673 26.2317C186.527 28.7596 187.228 32.6583 186.545 36.6566C185.944 40.1785 184.118 42.8539 181.365 44.2447C178.624 45.6291 173.476 45.2987 172.339 43.6657C171.778 42.8594 171.791 43.1194 171.793 32.4738C171.796 21.9868 171.781 22.3011 172.272 22.0378C172.726 21.7947 174.369 21.7204 176.103 21.8648ZM206.508 22.2162C209.253 22.8337 210.614 24.5978 210.496 27.3857C210.41 29.4103 209.572 30.7026 208.003 31.2297C207.473 31.4076 207.19 31.4291 204.923 31.4634C203.55 31.4842 202.325 31.4758 202.202 31.4447L201.977 31.3882L202.005 26.9568C202.036 21.9582 202.018 22.0903 202.682 22.0081C203.437 21.9146 205.719 22.0387 206.508 22.2162ZM41.9982 29.1631C41.108 29.5485 38.3619 30.2355 36.5148 30.535C36.1221 30.5986 35.8033 30.8795 35.8033 31.1619C35.8033 31.4419 35.914 31.5209 36.7042 31.8054C37.731 32.175 38.7426 32.7142 38.9211 32.9868C39.0641 33.2054 39.0832 33.541 39.1082 36.2927C39.1236 37.9771 39.0988 40.474 39.0532 41.8413C38.9426 45.1557 38.9316 45.178 37.2398 45.5314C36.7213 45.6396 36.2466 45.7667 36.1849 45.8136C36.0631 45.9064 36.028 46.9364 36.1413 47.0922C36.1841 47.151 37.7879 47.1826 40.712 47.1821L45.2168 47.1814L45.2684 46.9228C45.2968 46.7806 45.3201 46.4537 45.3201 46.1963V45.7285L44.4365 45.5736C43.3768 45.3877 43.0071 45.2162 42.7644 44.7976C42.5874 44.4925 42.5808 44.32 42.5515 39.2138C42.5174 33.2818 42.494 33.5118 43.1808 33.0116C43.7266 32.6141 44.8991 32.064 45.5894 31.8817C46.3396 31.6835 47.4631 31.6796 48.115 31.8729C49.5881 32.3097 50.5041 33.6802 50.7111 35.7571C50.8121 36.7709 50.8131 41.729 50.7126 43.3812C50.6074 45.1102 50.4757 45.2716 48.9386 45.5545C48.4032 45.653 48.0144 45.7724 47.9461 45.859C47.8309 46.0052 47.7968 46.6735 47.8872 47.0112L47.938 47.2009L52.4208 47.1984L56.9037 47.196L56.9994 46.8739C57.052 46.6966 57.0819 46.3703 57.0657 46.1485L57.0365 45.7455L56.1562 45.5503C55.0906 45.3139 54.8281 45.2105 54.5539 44.9181L54.343 44.6934L54.2835 39.4157C54.2507 36.5129 54.1965 33.9921 54.1629 33.814C54.107 33.5163 54.13 33.467 54.447 33.2051C54.6367 33.0484 55.1157 32.7596 55.5114 32.5631C58.3422 31.158 61.0162 31.8927 61.9245 34.325C62.2374 35.1629 62.3026 36.3186 62.2723 40.482C62.2366 45.3824 62.3357 45.0789 60.6277 45.5163L59.7299 45.7463L59.7024 46.2802C59.6506 47.2865 59.1251 47.1814 64.21 47.1814H68.6531L68.7478 46.8042C68.8 46.5968 68.8426 46.2698 68.8426 46.0776V45.728L67.8872 45.5271C67.3617 45.4167 66.7641 45.2473 66.5592 45.1508C65.8533 44.8184 65.8799 45.0208 65.8799 39.9687C65.8799 34.2991 65.8179 33.7376 65.0036 32.024C64.3226 30.5908 63.1287 29.5769 61.6602 29.1846C60.7175 28.9328 59.4526 28.9697 58.5178 29.2763C57.2722 29.685 55.7847 30.4847 54.3745 31.5039C54.0461 31.7412 53.7208 31.9135 53.6515 31.8869C53.5822 31.8603 53.4566 31.7216 53.3723 31.5787C52.7721 30.5606 51.6661 29.6365 50.5916 29.2553C50.0618 29.0673 49.7802 29.0254 49.046 29.0255C48.2705 29.0257 48.0321 29.0653 47.2963 29.3159C46.2002 29.6894 44.7719 30.4366 43.7489 31.1718C43.3045 31.4912 42.8953 31.7529 42.8396 31.7533C42.5797 31.7554 42.5352 31.5019 42.5935 30.3486C42.6635 28.9626 42.6274 28.8906 41.9982 29.1631ZM81.0839 29.0683C77.7623 29.3857 74.8234 31.1132 73.3399 33.6201C71.5268 36.6839 71.8892 41.5771 74.15 44.5601C75.9624 46.9514 79.5586 48.1392 82.8806 47.4436C84.1371 47.1806 85.7404 46.5324 86.6797 45.9078C87.3473 45.4638 88.2367 44.6291 88.7388 43.9754C91.1264 40.8665 91.287 35.8153 89.1017 32.5581C88.6369 31.8652 87.6709 30.9128 86.9243 30.4113C85.3351 29.3437 83.2413 28.8622 81.0839 29.0683ZM99.9068 29.1581C99.0345 29.5464 96.6155 30.1522 94.4187 30.5324C94.0044 30.604 93.6222 30.9529 93.6222 31.2594C93.6222 31.6002 93.9635 31.8642 94.7128 32.1031C95.588 32.3822 96.565 32.8994 96.7493 33.1813C96.8779 33.3778 96.9019 33.7912 96.9279 36.2469C96.9444 37.8081 96.9199 40.2796 96.8735 41.7391C96.781 44.6449 96.7274 44.9425 96.252 45.1888C95.9878 45.3257 94.7632 45.6072 94.4317 45.6072C94.1942 45.6072 94.0707 45.926 94.0723 46.5351C94.0748 47.4626 93.5277 47.3666 98.7929 47.3638L103.414 47.3615L103.507 47.0466C103.559 46.8733 103.587 46.4888 103.572 46.1919L103.543 45.6522L102.843 45.5827C101.911 45.4903 101.27 45.2655 101.038 44.95C100.878 44.7331 100.843 44.5115 100.791 43.3758C100.684 41.0832 100.703 34.2454 100.817 33.904C100.964 33.4607 101.376 33.0659 102.073 32.699C102.834 32.298 103.366 32.1298 104.171 32.0343C106.297 31.7825 108.026 32.8042 108.567 34.6327C108.769 35.3158 108.913 38.8744 108.866 42.0113C108.822 44.9897 108.793 45.0985 108 45.3622C107.736 45.45 107.278 45.5473 106.983 45.5781C106.239 45.656 106.167 45.7518 106.206 46.6079C106.223 46.9931 106.277 47.3461 106.327 47.3923C106.382 47.4442 107.1 47.4436 108.212 47.3909C109.93 47.3093 114.446 47.3584 115.058 47.4654C115.326 47.5123 115.361 47.4904 115.484 47.1944C115.558 47.0172 115.618 46.6106 115.618 46.2909C115.618 45.6433 115.644 45.6679 114.855 45.5621C114.608 45.5289 114.091 45.3981 113.706 45.2712C112.633 44.9179 112.715 45.3528 112.646 39.6252C112.591 35.0859 112.575 34.7088 112.391 33.8696C111.924 31.7354 110.995 30.3872 109.415 29.5531C108.614 29.13 107.926 28.9655 106.956 28.9655C105.286 28.9655 103.344 29.8063 101.403 31.3701C101.065 31.642 100.756 31.8295 100.715 31.7868C100.674 31.7441 100.675 31.2254 100.716 30.634C100.776 29.7887 100.765 29.4954 100.668 29.2622C100.526 28.9213 100.459 28.9123 99.9068 29.1581ZM125.757 29.099C124.39 29.3593 122.617 30.0247 121.665 30.6345C119.695 31.8971 118.622 34.0382 118.797 36.3589C118.986 38.8615 120.014 40.4873 122.033 41.4755C122.669 41.7867 122.981 41.9879 122.981 42.0881C122.981 42.2411 122.27 42.7475 120.759 43.671C120.302 43.95 119.887 44.2572 119.835 44.3534C119.717 44.5741 119.857 45.1448 120.157 45.6627C120.464 46.195 121.281 46.9076 121.953 47.2286C122.271 47.3808 122.532 47.541 122.532 47.5846C122.532 47.6281 122.198 47.899 121.791 48.1866C120.625 49.0091 119.382 50.0296 118.929 50.5354C117.892 51.6933 117.774 52.9645 118.555 54.5773C119.395 56.3139 121.32 57.5965 123.667 57.9838C124.703 58.1547 126.925 58.1087 127.963 57.895C130.128 57.4496 132.219 56.3944 133.78 54.9609C136.157 52.7765 136.988 49.7067 135.803 47.4802C135.462 46.8381 134.578 45.986 133.919 45.6633C133.002 45.2141 131.291 44.9529 127.38 44.6649C125.173 44.5025 124.731 44.395 124.297 43.9142C124.063 43.6551 124.006 43.0896 124.181 42.7519C124.416 42.296 124.808 42.1208 125.828 42.0159C126.878 41.908 127.37 41.8097 128.188 41.5437C130.056 40.9368 131.85 39.5308 132.612 38.0775C133.269 36.8243 133.522 35.1377 133.271 33.6882C133.054 32.4368 133.051 32.516 133.305 32.5391C133.429 32.5503 133.816 32.586 134.167 32.6185C135.304 32.7239 135.997 32.3531 136.429 31.4073C136.666 30.8874 136.743 30.0742 136.602 29.5675L136.531 29.315L136.182 29.592C135.537 30.1039 135.067 30.2529 133.955 30.2973C132.74 30.3457 132.213 30.2537 130.673 29.7251C130.039 29.5077 129.225 29.2686 128.863 29.1937C127.869 28.9879 126.551 28.9478 125.757 29.099ZM148.599 29.0684C146.245 29.2932 143.924 30.287 142.364 31.7391C140.658 33.3274 139.822 35.2041 139.707 37.7027C139.486 42.5245 141.833 46.207 145.808 47.2728C148.209 47.9165 150.297 47.7245 152.822 46.6276C155.61 45.4168 157.516 42.8702 157.997 39.7151C158.162 38.6331 158.124 36.7239 157.919 35.7571C157.227 32.4954 154.957 30.0654 151.882 29.2931C151.374 29.1654 149.751 28.9507 149.511 28.9793C149.461 28.9852 149.051 29.0252 148.599 29.0684ZM127.45 31.1218C128.905 31.7934 129.727 33.2706 129.857 35.4423C129.941 36.8599 129.596 38.2713 128.95 39.1507C128.136 40.2592 126.392 40.586 124.912 39.9072C124.202 39.5816 123.832 39.2569 123.344 38.5301C122.603 37.4286 122.306 36.2154 122.373 34.5678C122.42 33.3881 122.616 32.7205 123.127 31.9978C123.772 31.0832 124.555 30.7432 125.902 30.7912C126.696 30.8196 126.882 30.8593 127.45 31.1218ZM81.8516 31.0828C84.0058 31.5916 85.6591 33.5207 86.3517 36.3336C86.9218 38.6488 86.7474 41.7428 85.952 43.4208C85.0801 45.2602 83.1768 46.073 81.0296 45.5228C79.3309 45.0874 78.0932 43.9989 77.1879 42.1439C76.3825 40.4937 76.058 38.7581 76.1393 36.5371C76.2475 33.5829 77.2319 31.8246 79.1674 31.1286C79.7799 30.9084 81.0229 30.8871 81.8516 31.0828ZM149.812 31.2155C151.561 31.8342 152.952 33.433 153.632 35.6068C154.013 36.8249 154.143 37.7784 154.143 39.3553C154.141 42.6336 153.397 44.387 151.621 45.2947C150.457 45.8896 148.752 45.8112 147.378 45.0996C146.58 44.6862 145.446 43.5771 144.953 42.7271C143.397 40.0466 143.123 35.6248 144.361 33.1692C144.84 32.2178 145.784 31.4088 146.817 31.0653C147.383 30.8771 149.099 30.9631 149.812 31.2155ZM206.828 33.6903C210.582 34.3047 212.591 36.5691 212.375 39.9452C212.216 42.4384 211.003 44.1557 208.925 44.8272C207.965 45.1373 207.718 45.169 206.313 45.1625C203.727 45.1504 202.879 44.8031 202.296 43.5155C202.046 42.964 202.04 42.9123 201.977 40.7496C201.941 39.5375 201.909 37.4679 201.905 36.1504C201.898 33.6383 201.898 33.6365 202.302 33.5215C202.636 33.4264 205.977 33.5511 206.828 33.6903ZM128.201 48.1308C131.556 48.4732 132.998 49.4391 133.107 51.4175C133.175 52.6642 132.773 53.6362 131.84 54.4762C130.871 55.3499 129.656 55.7612 127.829 55.8352C125.325 55.9366 123.629 55.3762 122.369 54.0319C121.649 53.2625 121.499 52.8652 121.499 51.7206C121.499 50.7969 121.507 50.7592 121.813 50.249C122.292 49.452 123.364 48.5452 124.229 48.206C124.72 48.0135 126.686 47.9763 128.201 48.1308Z" fill="url(#paint0_linear)"/>
<defs>
<linearGradient id="paint0_linear" x1="108.5" y1="0" x2="108.5" y2="60" gradientUnits="userSpaceOnUse">
<stop stop-color="#767676"/>
<stop offset="1" stop-color="#767676" stop-opacity="0.5"/>
</linearGradient>
</defs>
</svg>
