<svg width="106" height="131" viewBox="0 0 106 131" fill="none" xmlns="http://www.w3.org/2000/svg">
<path fill-rule="evenodd" clip-rule="evenodd" d="M50.3549 0.0536031C44.3221 0.62655 39.0249 3.09666 34.868 7.27515C31.0019 11.1612 28.6739 15.8987 27.846 21.5651C27.6548 22.8732 27.6298 26.1814 27.801 27.5093C28.5883 33.6147 31.4128 39.1129 35.7526 42.9878C37.3911 44.4509 39.8878 46.2155 40.066 46.0366C40.1063 45.996 41.7415 43.1882 43.6997 39.7969C45.6579 36.4056 47.3165 33.5438 47.3856 33.4373C47.5056 33.2522 47.4794 33.2216 46.7808 32.7341C42.2423 29.567 41.2364 23.2259 44.5714 18.8051C46.9873 15.6025 51.2049 14.1786 55.0372 15.2717C59.3121 16.4912 62.1748 20.2751 62.1811 24.7146C62.1857 27.9312 60.6404 30.9037 58.0114 32.735C57.3128 33.2216 57.2866 33.2522 57.4066 33.4373C57.4756 33.5438 59.1341 36.4056 61.0922 39.7969C63.0502 43.1882 64.6858 45.9963 64.7267 46.0372C64.8745 46.185 67.1766 44.6119 68.5465 43.4272C73.2607 39.35 76.1823 33.8421 76.9899 27.5093C77.1608 26.17 77.1366 22.8626 76.9466 21.5651C76.4743 18.3398 75.5237 15.4341 74.0802 12.8029C73.5363 11.8114 72.3326 10.0177 71.5954 9.1001C70.7436 8.03991 69.0268 6.33784 67.927 5.46316C64.2593 2.54643 60.1551 0.795826 55.5467 0.182512C54.2619 0.0114615 51.5161 -0.0566746 50.3549 0.0536031ZM22.843 48.8121C17.754 49.2714 13.0604 51.1256 9.2693 54.1742C4.14019 58.2988 0.958744 64.0442 0.109868 70.7154C-0.0551151 72.0119 -0.0298219 75.2553 0.155751 76.6153C0.688683 80.5191 1.99133 83.9701 4.15776 87.2172C10.2054 96.282 21.4325 100.301 31.8821 97.1417C35.9391 95.9152 39.4463 93.7682 42.4578 90.6675C46.5922 86.4109 48.949 81.1242 49.3885 75.1212C49.4456 74.3412 49.468 73.6396 49.4383 73.5622C49.3895 73.4351 48.6599 73.4214 41.9773 73.4214H34.5705L34.5175 73.9315C34.2806 76.2111 33.7874 77.6256 32.6848 79.1873C30.2036 82.7019 25.5658 84.1657 21.4566 82.731C18.1584 81.5794 15.7287 78.7576 15.0686 75.3122C14.8918 74.3891 14.8719 72.6592 15.0284 71.8283C15.2839 70.4722 15.8634 69.0576 16.6339 67.9089C17.1958 67.071 18.5923 65.7388 19.4836 65.1899C21.1428 64.1683 22.6991 63.7263 24.6623 63.7189C26.2994 63.7127 27.6595 64.0118 29.0101 64.6754C29.3512 64.843 29.6364 64.973 29.6437 64.9644C29.7358 64.8553 36.9412 52.3538 36.9995 52.2019C37.0429 52.0892 36.8847 51.9634 36.2996 51.6445C34.034 50.4099 31.0911 49.4462 28.2927 49.0226C27.0991 48.8419 23.8875 48.7178 22.843 48.8121ZM67.2969 52.6524C64.5785 54.3589 61.8047 57.0847 60.0019 59.8214C57.8351 63.1107 56.5574 66.5928 56.0209 70.6711C55.853 71.9465 55.8773 75.2729 56.0641 76.6153C56.9386 82.8967 59.9133 88.3432 64.6877 92.405C68.0337 95.2517 72.5345 97.2827 76.982 97.9531C79.0678 98.2675 82.1683 98.2675 84.254 97.9531C88.7016 97.2827 93.2023 95.2517 96.5483 92.405C97.3142 91.7535 99.035 90.0387 99.5731 89.3908C106.615 80.9131 107.284 68.9957 101.235 59.8214C99.4278 57.0812 96.6569 54.3585 93.9391 52.6524C93.4803 52.3645 93.061 52.1304 93.0073 52.1324C92.9536 52.1343 91.3321 54.874 89.4041 58.2206C87.476 61.5672 85.8095 64.4548 85.7008 64.6375L85.5031 64.9697L86.1193 65.3793C89.015 67.3041 90.7075 70.8693 90.3765 74.3465C89.9532 78.7933 86.6846 82.3636 82.3257 83.1405C81.4447 83.2976 79.7913 83.2976 78.9103 83.1405C75.1885 82.4772 72.1287 79.6785 71.164 76.0553C70.5276 73.6648 70.7638 71.3563 71.8737 69.1185C72.6561 67.541 73.7335 66.2987 75.1168 65.3793L75.733 64.9697L75.515 64.6043C75.3951 64.4034 73.7287 61.5157 71.8117 58.1873C69.8948 54.859 68.2825 52.1342 68.2288 52.1323C68.1751 52.1304 67.7558 52.3645 67.2969 52.6524ZM8.0168 104.032C5.26596 104.206 3.46082 104.678 2.36008 105.509C0.976937 106.555 0.302274 110.117 0.416404 115.774C0.484917 119.169 0.752316 120.819 1.47135 122.281C1.97393 123.303 3.04512 124.07 4.51648 124.462C6.69933 125.043 11.0238 125.111 13.6655 124.605C16.7304 124.019 17.6947 123.054 18.2695 119.999C18.6571 117.939 18.7923 113.425 18.5432 110.861C18.27 108.05 17.7395 106.434 16.8156 105.599C15.8266 104.706 14.1436 104.218 11.4135 104.032C9.98461 103.935 9.55081 103.935 8.0168 104.032ZM76.6687 104.04C74.3938 104.174 72.6052 104.55 71.5237 105.121C70.0567 105.896 69.2668 107.486 68.983 110.236C68.8627 111.402 68.9221 116.1 69.0788 117.825C69.3698 121.026 69.9138 122.813 70.8038 123.491C72.153 124.52 74.1298 124.916 77.9112 124.913C82.74 124.91 84.7167 124.318 85.5395 122.631C85.9979 121.69 86.2972 119.994 86.2976 118.334L86.2979 117.423L84.3461 117.446L82.3941 117.47L82.3595 118.491C82.3094 119.969 82.056 120.623 81.3802 121.019C80.7338 121.398 79.6011 121.531 77.4231 121.484C74.1995 121.414 73.4495 121.058 73.174 119.467C72.9719 118.299 72.9037 117.399 72.8472 115.154C72.7646 111.877 72.9686 109.359 73.3814 108.561C73.6173 108.105 74 107.872 74.8688 107.654C75.6171 107.467 75.8877 107.448 77.8225 107.448C79.583 107.448 80.0525 107.475 80.5293 107.605C81.678 107.918 82.0214 108.459 82.1154 110.107L82.1711 111.083L84.1458 111.106L86.1204 111.13L86.1201 110.618C86.1195 109.624 85.9279 108.079 85.7134 107.339C85.4237 106.339 85.213 105.95 84.6663 105.403C84.1453 104.882 83.3064 104.51 82.0824 104.255C81.4877 104.132 78.6826 103.922 78.0887 103.956C77.9911 103.962 77.3521 104 76.6687 104.04ZM86.9751 104.188C86.9318 104.258 87.233 105.22 90.7172 116.14C91.7448 119.36 92.7811 122.614 93.0201 123.37L93.4546 124.745L96.4803 124.769L99.506 124.792L99.731 124.103C99.8548 123.724 100.66 121.219 101.52 118.535C102.38 115.851 103.74 111.635 104.542 109.167C105.344 106.698 106 104.552 106 104.398V104.118L104.425 104.119C103.558 104.119 102.648 104.144 102.401 104.174L101.953 104.227L99.8048 110.849C98.6233 114.491 97.441 118.229 97.1775 119.156C96.6856 120.886 96.5234 121.38 96.4663 121.32C96.4483 121.301 96.1311 120.227 95.7615 118.934C95.3918 117.641 94.1745 113.808 93.0564 110.417L91.0237 104.251L90.6355 104.191C90.0862 104.106 87.0272 104.104 86.9751 104.188ZM12.525 107.613C13.6425 107.845 14.1312 108.196 14.3216 108.903C14.6291 110.045 14.7086 111.183 14.7061 114.41C14.7034 117.752 14.6264 118.746 14.2765 119.949C13.9127 121.2 12.6695 121.566 9.06252 121.483C6.23722 121.418 5.33119 121.168 4.90697 120.336C4.45374 119.448 4.24589 117.091 4.33348 113.833C4.43607 110.018 4.62573 108.722 5.15485 108.222C5.51729 107.88 6.33599 107.609 7.35793 107.493C8.40951 107.374 11.7519 107.451 12.525 107.613ZM28.506 110.24C27.0672 110.417 26.1126 110.872 25.2672 111.785L24.6865 112.412L24.7516 111.37L24.8167 110.328H23.0755H21.3343V120.664V131H23.1092H24.8842L24.8848 126.852L24.8853 122.705L25.0607 122.971C25.3877 123.467 26.1598 124.171 26.6101 124.384C27.733 124.914 29.359 125.089 30.8677 124.841C33.5712 124.396 34.5549 123.135 34.9204 119.645C35.0553 118.358 34.9799 115.35 34.7863 114.291C34.369 112.009 33.4415 110.913 31.5143 110.423C30.7413 110.226 29.3172 110.14 28.506 110.24ZM42.4563 110.243C41.9926 110.28 41.3337 110.375 40.992 110.455C38.7528 110.976 37.8769 111.872 37.3837 114.143C37.2018 114.982 37.1816 115.31 37.1817 117.426C37.1819 119.235 37.2164 119.971 37.3312 120.62C37.7249 122.843 38.3498 123.784 39.8041 124.345C40.915 124.773 41.9056 124.911 43.8763 124.911C46.412 124.912 47.6858 124.616 48.8563 123.755C49.7305 123.112 50.1765 122.195 50.3069 120.775L50.3701 120.088H48.6402H46.9104L46.8489 120.553C46.7426 121.359 46.5169 121.752 46.0319 121.976C45.643 122.156 45.4706 122.172 44.0031 122.172H42.3994L41.8732 121.906C41.4175 121.676 41.3147 121.575 41.1058 121.152C40.8582 120.651 40.6814 119.626 40.6814 118.693V118.224H45.524H50.3665L50.3112 117.049C50.0969 112.508 49.3796 111.153 46.8474 110.505C46.2562 110.354 44.0903 110.132 43.5213 110.164C43.3993 110.171 42.92 110.207 42.4563 110.243ZM60.1315 110.243C58.5949 110.451 57.5624 111.071 56.8617 112.206C56.6859 112.491 56.5377 112.724 56.5325 112.724C56.5272 112.724 56.5479 112.215 56.5785 111.593C56.6091 110.971 56.6167 110.432 56.5954 110.395C56.5742 110.358 55.8204 110.328 54.9202 110.328H53.2836V117.559V124.79H54.9656H56.6474L56.674 120.021L56.7005 115.252L56.9117 114.72C57.1851 114.031 57.7836 113.438 58.4863 113.159C58.9372 112.98 59.164 112.952 60.1616 112.95C61.1964 112.948 61.3588 112.969 61.7374 113.156C62.2311 113.4 62.5523 113.752 62.7036 114.213C62.782 114.452 62.8213 115.956 62.8459 119.666L62.88 124.79H64.5604H66.2408V119.436C66.2408 114.393 66.2306 114.043 66.0653 113.397C65.6488 111.769 64.7073 110.851 63.0152 110.422C62.2359 110.225 60.8859 110.141 60.1315 110.243ZM29.9789 113.174C30.9305 113.565 31.1989 114.151 31.381 116.236C31.4563 117.099 31.457 117.75 31.3837 118.765C31.1912 121.427 30.778 121.996 28.8859 122.204C28.5154 122.245 27.9193 122.247 27.5612 122.208C25.546 121.989 25.0648 121.262 24.9263 118.224C24.8334 116.185 25.0944 114.338 25.5624 113.721C26.0304 113.105 26.7537 112.9 28.3454 112.935C29.2814 112.955 29.5366 112.992 29.9789 113.174ZM45.6707 113.075C46.4602 113.313 46.7805 113.875 46.8657 115.173L46.9205 116.006H43.7889H40.6571L40.7012 115.164C40.7723 113.806 41.1319 113.3 42.225 113.021C42.7645 112.883 45.1587 112.921 45.6707 113.075Z" fill="url(#paint0_linear)"/>
<defs>
<linearGradient id="paint0_linear" x1="53" y1="0" x2="53" y2="131" gradientUnits="userSpaceOnUse">
<stop stop-color="#767676"/>
<stop offset="1" stop-color="#767676" stop-opacity="0.5"/>
</linearGradient>
</defs>
</svg>
