<svg width="83" height="80" viewBox="0 0 83 80" fill="none" xmlns="http://www.w3.org/2000/svg">
<path fill-rule="evenodd" clip-rule="evenodd" d="M33.7049 0.924156C32.8375 1.50656 32.1475 2.42801 31.7727 3.50469C31.2598 4.97718 31.2598 5.38053 31.7727 6.85302C33.3802 11.4682 39.7521 11.5635 41.4953 6.99912C42.1524 5.2785 42.1532 5.08199 41.514 3.40821C40.2853 0.190095 36.5606 -0.994567 33.7049 0.924156ZM29.9739 16.4931C16.7175 19.4543 7.01587 30.0842 5.15233 43.6883C3.38526 56.5874 10.8271 70.1518 22.8278 75.906C28.0575 78.4139 31.7743 79.1567 37.8969 78.9173C44.9854 78.6406 49.5311 77.1367 54.9852 73.2632C61.1494 68.8858 65.6007 62.3944 67.4817 55.0387C68.573 50.7713 68.5802 44.2004 67.4984 39.881C64.6217 28.3973 54.8236 18.9069 43.3283 16.4705C40.0483 15.7749 33.1356 15.7868 29.9739 16.4931ZM68.8426 76.949C64.8833 72.7582 66.218 66.0488 71.4636 63.774C74.9604 62.2574 79.3513 63.5092 81.5662 66.6538C83.1574 68.9128 83.4508 72.5609 82.2336 74.9469C79.5768 80.1548 72.8254 81.164 68.8426 76.949ZM2.174 68.0628C0.881747 68.6258 0 70.1121 0 71.7264C0 73.2818 2.00726 75.0517 3.77154 75.0517C5.56005 75.0517 7.54309 73.283 7.54309 71.6879C7.54309 70.0435 6.495 68.43 5.11382 67.9485L5.00446 67.9103C4.31705 67.6705 3.97238 67.5502 3.63262 67.5628C3.29095 67.5754 2.95425 67.7223 2.27895 68.017L2.174 68.0628ZM45.6734 28.1833C50.5764 31.01 55.3476 33.7747 56.2754 34.3273L57.9627 35.3318V40.7433C57.9627 44.902 57.848 46.1144 57.4664 45.9794C57.1937 45.8826 55.059 45.2112 52.723 44.4875C48.6442 43.2234 48.4711 43.1242 48.356 41.9867C48.2476 40.916 47.6831 40.4797 42.4882 37.4549L36.7404 34.1074L35.3422 34.9332C34.5732 35.3869 32.7394 36.4263 31.2669 37.2421C29.7948 38.058 28.6379 38.873 28.6963 39.0533C28.7888 39.3383 33.0606 40.762 53.5956 47.3523L57.7642 48.6902V54.2006V59.7114L55.7792 60.8802C54.6874 61.523 49.9408 64.2639 45.2311 66.971L36.6686 71.8931L26.0816 65.8301L15.4951 59.767L15.4891 54.2657C15.4844 50.0277 15.5971 48.8073 15.9794 48.9518C16.2526 49.055 18.3869 49.7248 20.7225 50.4406C24.8414 51.7022 24.9732 51.7781 25.0895 52.9592C25.1959 54.0362 25.6441 54.4324 28.9813 56.3968C31.0557 57.6176 33.6565 59.1088 34.7605 59.7094L36.7682 60.8024L41.0348 58.3541C43.3815 57.0074 45.2097 55.8144 45.0981 55.7029C44.9862 55.5909 38.3221 53.4173 30.2883 50.8729L15.6817 46.2458L15.5721 40.6786L15.4622 35.111L16.7631 34.4556C17.4785 34.0951 22.1727 31.3963 27.1948 28.458C32.2169 25.5202 36.4232 23.1 36.5423 23.0802C36.6614 23.0603 40.7704 25.3566 45.6734 28.1833Z" fill="url(#paint0_linear)"/>
<defs>
<linearGradient id="paint0_linear" x1="41.4919" y1="0" x2="41.4919" y2="79.5712" gradientUnits="userSpaceOnUse">
<stop stop-color="#767676"/>
<stop offset="1" stop-color="#767676" stop-opacity="0.5"/>
</linearGradient>
</defs>
</svg>
