<svg width="104" height="102" viewBox="0 0 104 102" fill="none" xmlns="http://www.w3.org/2000/svg">
<path fill-rule="evenodd" clip-rule="evenodd" d="M14.6516 0.343561C7.58939 1.76032 1.71354 7.85163 0.374614 15.1453C0.0603287 16.8586 -0.0595958 29.8169 0.0277056 52.7317C0.150387 84.939 0.225282 87.8675 0.975615 89.7786C3.0249 94.9969 7.49749 99.4211 12.4916 101.17C14.6971 101.943 17.4306 102 52.0786 102C86.7267 102 89.4602 101.943 91.6657 101.17C96.6589 99.4215 101.128 95.0011 103.184 89.7786C103.942 87.8518 104 85.0967 104 51.2698C104 17.3815 103.942 14.6702 103.173 12.4584C101.431 7.44625 97.0246 2.95893 91.8238 0.898826C89.9105 0.141101 87.0314 0.0746905 53.2273 0.00643529C33.1365 -0.0336877 15.7773 0.118042 14.6516 0.343561ZM47.3653 27.1905C51.457 28.6875 54.2166 31.0118 55.8381 34.3264C57.0093 36.7208 57.1325 37.4343 57.1297 41.8155C57.127 46.1659 57.002 46.8955 55.902 48.9929C54.598 51.4796 51.9123 54.1951 49.5395 55.4269C47.2748 56.6025 42.3441 57.4792 37.9496 57.4879L33.9291 57.4958V64.8747V72.2536H29.3343H24.7395V49.2129V26.1726L28.5302 25.9854C30.6149 25.8821 35.0089 25.8562 38.2942 25.9273C43.28 26.0356 44.7793 26.2446 47.3653 27.1905ZM34.3886 41.8063V49.2862L38.4091 49.1248C45.1272 48.8555 47.8987 46.734 47.9272 41.8381C47.9566 36.8619 45.3574 34.8083 38.6586 34.5141L34.3886 34.3264V41.8063ZM84.7018 41.1039V45.6964L81.2557 46.2447C77.4121 46.8567 75.4465 47.519 74.2495 48.6064C73.5235 49.2655 73.4445 50.4641 73.4445 60.7955V72.2536H68.62H63.7954L63.7922 57.8417C63.7904 49.9153 63.6562 42.0207 63.4944 40.2991L63.1999 37.1686L67.7341 37.3014L72.2687 37.4343L72.657 39.4091L73.0448 41.3843L74.738 40.0487C77.8137 37.6229 81.1155 36.2693 83.5531 36.434C84.6963 36.5114 84.7018 36.534 84.7018 41.1039Z" fill="url(#paint0_linear)"/>
<defs>
<linearGradient id="paint0_linear" x1="52" y1="0" x2="52" y2="102" gradientUnits="userSpaceOnUse">
<stop stop-color="#767676"/>
<stop offset="1" stop-color="#767676" stop-opacity="0.5"/>
</linearGradient>
</defs>
</svg>
