<svg width="102" height="124" viewBox="0 0 102 124" fill="none" xmlns="http://www.w3.org/2000/svg">
<path fill-rule="evenodd" clip-rule="evenodd" d="M26.4236 0.704335C23.9619 1.844 21.7497 4.39514 20.6662 7.34403C19.4911 10.5414 19.462 19.8844 20.6118 24.5843C21.054 26.3924 21.2285 27.9874 20.9997 28.1281C20.7709 28.2694 18.7268 29.0518 16.4574 29.8673C5.25155 33.8931 -1.06533 40.51 0.148048 46.9509C1.15319 52.2879 7.82533 57.6062 17.6181 60.8765L21.3984 62.1392L20.6416 65.6511C19.4391 71.2326 19.6187 79.6308 21.0209 83.3638C24.5105 92.6543 34.7479 92.611 46.3925 83.2578C48.2397 81.7739 50.0601 80.3306 50.4376 80.0508C50.8993 79.7089 52.4537 80.6542 55.1859 82.9398C62.1984 88.804 69.4215 91.562 74.466 90.3009C77.0129 89.6639 80.3293 86.1634 81.3847 82.998C82.5449 79.5203 82.6616 73.064 81.6691 67.3196C81.2772 65.0516 81.0181 63.0002 81.093 62.7609C81.1685 62.521 83.0575 61.6594 85.2909 60.8462C94.9744 57.3207 100.223 53.0777 101.712 47.572C103.565 40.7175 96.3629 33.4777 83.5638 29.3276L80.6353 28.3783L81.3979 24.8373C82.3041 20.632 82.4299 11.3135 81.6199 8.40848C80.8933 5.8032 78.9517 2.94264 76.8653 1.40523C75.573 0.452468 74.4231 0.215418 71.1446 0.224535C67.6383 0.234222 66.5067 0.509452 63.3706 2.11581C59.6544 4.01962 54.1853 7.93666 52.2574 10.0758C51.2065 11.2428 51.1957 11.2383 47.1282 7.83637C39.4921 1.44968 31.0763 -1.44907 26.4236 0.704335ZM38.3949 6.78787C40.1958 7.87284 43.0579 9.99262 44.7558 11.4981L47.8433 14.2356L43.5081 19.5926C39.3714 24.7034 39.051 24.965 36.5167 25.2932C35.0556 25.4824 32.0585 25.9776 29.856 26.3936C27.6535 26.8095 25.7708 27.0779 25.6724 26.9896C24.9756 26.3634 23.8149 16.6614 24.0574 13.4908C24.3664 9.45925 24.9447 7.8905 26.9241 5.71545C27.9985 4.53475 28.5448 4.40483 31.63 4.59744C34.3588 4.76725 35.8354 5.24591 38.3949 6.78787ZM75.462 6.05393C78.5604 9.32591 78.9792 15.6978 76.7652 25.8989L76.5084 27.0813L69.7727 26.026C63.4387 25.0334 62.9513 24.8624 61.6063 23.162C60.8197 22.1677 58.83 19.7635 57.1842 17.8198L54.1928 14.2857L56.326 12.3694C62.2865 7.01752 66.965 4.52222 71.0816 4.5017C73.5107 4.48917 74.2172 4.73989 75.462 6.05393ZM55.9182 23.4338C56.453 24.3541 56.076 24.4311 51.0092 24.4311C44.8668 24.4311 44.9909 24.6533 48.6837 20.2536L50.9943 17.5002L53.1665 19.9687C54.361 21.326 55.5995 22.8857 55.9182 23.4338ZM63.1355 33.6908C64.7533 36.2762 66.85 39.9419 67.795 41.836L69.513 45.2807L67.1137 49.8137C65.7939 52.3073 63.6938 55.9502 62.4467 57.9088L60.1796 61.4702H51.016H41.8525L38.9103 56.7691C37.2925 54.1838 35.1958 50.518 34.2507 48.6239L32.5328 45.1793L34.9321 40.6462C36.2518 38.1526 38.3519 34.5103 39.5991 32.5512L41.8662 28.9897H51.0298H60.1933L63.1355 33.6908ZM72.2979 30.7739L75.2658 31.3352L73.7744 35.5502C72.954 37.8683 72.0914 39.6473 71.8574 39.5031C71.5279 39.3003 67.1377 31.8377 66.3031 30.0616C66.1303 29.6929 67.3471 29.8376 72.2979 30.7739ZM34.6901 32.1705C33.9933 33.2931 32.7004 35.5286 31.816 37.1389L30.209 40.0667L28.9893 37.2346C28.3189 35.6773 27.6312 33.7148 27.4619 32.8737C27.1787 31.4679 27.3326 31.3146 29.3629 30.975C30.578 30.7722 31.8297 30.5192 32.1443 30.4126C32.459 30.3066 33.4452 30.1989 34.3365 30.1744L35.9561 30.1294L34.6901 32.1705ZM25.1473 39.2467L27.5677 45.23L25.0328 51.5665L22.4985 57.9025L20.4562 57.3492C14.0318 55.6083 6.99067 51.134 5.17661 47.6404C2.70867 42.8862 7.9037 37.5543 18.7005 33.7609C20.7457 33.0424 22.4882 32.6367 22.5729 32.8589C22.6576 33.0817 23.816 35.9559 25.1473 39.2467ZM86.1187 34.8282C93.6141 37.8991 98.0311 42.2782 97.4275 46.0403C97.0454 48.4256 93.9985 51.6685 90.2119 53.7216C86.4665 55.7519 79.6937 58.2438 79.4872 57.6671C79.3951 57.4084 78.2297 54.504 76.8985 51.2132L74.4781 45.23L77.041 38.8228C79.9465 31.5591 79.0747 31.9426 86.1187 34.8282ZM48.4485 36.4927C41.8342 38.3492 39.6912 47.3002 44.793 51.7614C48.7151 55.1918 53.8055 55.1086 57.3729 51.5551C62.3626 46.585 60.1338 38.2968 53.3112 36.4528C52.0526 36.1126 50.8942 35.8556 50.7368 35.8824C50.5795 35.9086 49.5498 36.1833 48.4485 36.4927ZM35.8628 60.5368C35.8628 60.84 27.8692 59.3966 27.4979 59.0262C27.3149 58.8439 27.6118 57.3321 28.1581 55.6665C30.0088 50.0194 29.9218 50.0234 33.0459 55.4505C34.5951 58.1424 35.8628 60.4308 35.8628 60.5368ZM73.8099 55.0129L75.2778 59.098L71.3883 59.7903C69.2493 60.171 67.2172 60.3841 66.8729 60.2639C66.3231 60.0724 67.3528 58.0638 71.1732 51.8759C71.6251 51.1437 72.073 50.6308 72.168 50.7363C72.2635 50.8417 73.0021 52.7666 73.8099 55.0129ZM31.5723 64.3182C33.7748 64.6579 36.3811 65.0596 37.364 65.21C38.7936 65.4289 40.0196 66.5571 43.4972 70.8542L47.8433 76.2243L44.7558 78.9618C39.6952 83.4493 35.6746 85.5878 31.7691 85.8693C28.0294 86.1389 26.8452 85.5007 25.0912 82.2703C23.9362 80.1431 23.8412 71.2873 24.9219 66.4323C25.51 63.7911 25.8475 63.1883 26.6123 63.4162C27.1375 63.5723 29.3698 63.9781 31.5723 64.3182ZM77.1285 66.4563C78.2051 71.2902 78.1073 80.1471 76.9546 82.2703C75.2006 85.5007 74.0164 86.1389 70.2767 85.8693C66.3712 85.5878 62.3506 83.4493 57.29 78.9618L54.2025 76.2243L58.5377 70.8673C62.671 65.7605 62.997 65.4944 65.529 65.1616C66.9901 64.9696 69.8585 64.4795 71.9037 64.0721C73.9489 63.6652 75.7973 63.2977 76.0107 63.2555C76.2246 63.2139 76.7275 64.6544 77.1285 66.4563ZM55.9182 67.0261C55.5995 67.5748 54.361 69.1339 53.1665 70.4912L50.9943 72.9598L48.6837 70.2063C44.9909 65.8066 44.8668 66.0289 51.0092 66.0289C56.076 66.0289 56.453 66.1058 55.9182 67.0261ZM2.68235 109.562V122.442H4.11254C5.52672 122.442 5.54274 122.387 5.54274 117.569V112.695L8.54328 112.868L11.5433 113.04L14.9792 118.303C18.1645 123.182 18.5523 123.566 20.3075 123.573C21.673 123.58 22.0798 123.384 21.7669 122.87C21.5283 122.478 19.9745 120.054 18.3138 117.482C16.6531 114.91 15.4814 112.702 15.7103 112.575C15.9391 112.447 16.8172 112.179 17.6616 111.978C21.1862 111.14 23.1101 105.412 21.248 101.3C19.6793 97.8336 17.9105 97.1606 9.6903 96.9024L2.68235 96.6825V109.562ZM91.3543 101.643C91.3543 103.999 91.2376 104.208 89.9241 104.208C88.8755 104.208 88.494 104.511 88.494 105.347C88.494 106.171 88.8755 106.487 89.8681 106.487C91.2411 106.487 91.2422 106.494 91.4413 114.16C91.6655 122.809 92.0471 123.696 95.5414 123.696C98.0356 123.696 98.7913 123.267 98.7913 121.853C98.7913 120.961 98.4984 120.819 97.1861 121.081C94.5517 121.606 94.1558 120.517 94.3383 113.244L94.5008 106.772L96.36 106.594C97.7559 106.459 98.2193 106.14 98.2193 105.311C98.2193 104.43 97.816 104.208 96.217 104.208C94.2256 104.208 94.2147 104.194 94.2147 101.643C94.2147 99.2883 94.098 99.0792 92.7845 99.0792C91.471 99.0792 91.3543 99.2883 91.3543 101.643ZM14.8224 100.244C18.7572 101.333 19.8727 105.012 17.2194 108.153C15.7698 109.869 15.6307 109.906 10.6405 109.906H5.54274V105.158C5.54274 102.546 5.71436 100.238 5.92431 100.029C6.51298 99.4422 12.4426 99.5858 14.8224 100.244ZM35.0047 103.918C34.6901 104.023 33.7296 104.262 32.8697 104.451C30.34 105.006 27.5168 107.888 26.7182 110.731C24.5717 118.366 30.2405 125.081 37.7867 123.842C41.71 123.197 44.5378 120.993 42.8073 119.927C42.5367 119.761 40.9852 120.184 39.3594 120.868C36.6077 122.026 36.2375 122.054 33.9881 121.28C32.0454 120.611 31.3177 119.946 30.2736 117.884L28.9745 115.319L36.7335 115.161C45.4514 114.983 45.5012 114.956 44.4274 110.984C43.6665 108.17 40.0636 104.208 38.265 104.208C37.6248 104.208 36.7576 104.1 36.3388 103.968C35.9195 103.836 35.3194 103.813 35.0047 103.918ZM75.9626 104.382C74.8911 104.756 73.2178 106.048 72.2441 107.252C70.6257 109.254 70.4735 109.801 70.4735 113.621C70.4735 118.278 71.3025 119.957 74.7584 122.3C77.9323 124.452 83.8653 123.827 86.1359 121.102C86.7091 120.414 86.6479 120.147 85.8098 119.68C85.0357 119.248 84.3041 119.397 82.8813 120.272C78.4729 122.987 73.0479 119.311 73.0479 113.61C73.0479 111.165 74.275 108.603 76.0324 107.377C77.815 106.133 81.4076 106.253 83.3355 107.62C84.7457 108.62 85.0169 108.652 85.6484 107.894C86.6256 106.721 85.0209 104.979 82.2583 104.214C79.6622 103.496 78.4054 103.53 75.9626 104.382ZM53.0252 104.623C50.9228 105.419 49.7065 106.831 50.2655 107.826C50.782 108.746 50.9399 108.734 52.7042 107.648C54.9279 106.279 58.5531 106.131 60.2842 107.338C61.4238 108.134 62.6996 112.426 62.0022 113.12C61.8432 113.279 60.929 113.005 59.9719 112.512C59.0142 112.019 56.9107 111.616 55.298 111.616C52.8192 111.616 52.1064 111.874 50.6928 113.281C49.3467 114.622 49.0206 115.44 49.0206 117.478C49.0206 123.162 55.2219 125.908 60.4101 122.522C61.4507 121.843 61.8649 121.79 62.0394 122.312C62.1681 122.697 62.7516 123.012 63.3351 123.012C64.7545 123.012 65.3025 119.332 64.8712 112.7C64.5067 107.101 63.9078 105.541 61.8203 104.75C60.2871 104.17 54.4451 104.085 53.0252 104.623ZM39.2284 107.416C40.3336 108.187 42.1557 111.322 42.1557 112.452C42.1557 112.619 39.3239 112.755 35.8628 112.755C29.8514 112.755 29.57 112.702 29.57 111.559C29.57 110.9 30.4453 109.49 31.515 108.424C33.0585 106.887 33.9183 106.487 35.6781 106.487C36.8983 106.487 38.4961 106.905 39.2284 107.416ZM59.8781 114.174C64.1532 116.375 61.7865 121.873 56.5635 121.873C52.3409 121.873 50.2323 116.979 53.3884 114.506C55.1636 113.115 57.5829 112.991 59.8781 114.174Z" fill="url(#paint0_linear)"/>
<defs>
<linearGradient id="paint0_linear" x1="51" y1="0" x2="51" y2="124" gradientUnits="userSpaceOnUse">
<stop stop-color="#767676"/>
<stop offset="1" stop-color="#767676" stop-opacity="0.5"/>
</linearGradient>
</defs>
</svg>
