<svg width="104" height="104" viewBox="0 0 104 104" fill="none" xmlns="http://www.w3.org/2000/svg">
<path fill-rule="evenodd" clip-rule="evenodd" d="M49.9219 0.0105149C45.7826 0.201858 42.2227 0.74598 38.3919 1.77287C31.0185 3.74946 24.055 7.4352 18.1438 12.4903C15.747 14.5399 13.3685 17.0022 11.3542 19.5189C10.3196 20.8116 9.60588 21.7919 8.61211 23.285C3.879 30.3963 1.00487 38.5286 0.197848 47.0928C0.0203045 48.9772 0 49.4812 0 52.0041C0 54.527 0.0190272 54.9984 0.198905 56.9285C0.999105 65.5143 3.91194 73.7025 8.7183 80.8774C9.94445 82.7078 10.9128 83.998 12.2393 85.5685C18.2319 92.6638 26.0787 98.0756 34.7926 101.123C38.7558 102.509 42.9221 103.418 47.081 103.803C49.0041 103.981 49.4761 104 51.992 104C54.5079 104 54.9799 103.981 56.903 103.803C62.1157 103.32 67.2133 102.046 72.0983 100.005C76.89 98.0029 81.5445 95.1509 85.5539 91.7602C90.816 87.3102 95.1243 81.8954 98.2956 75.7459C101.299 69.9224 103.181 63.4647 103.787 56.9042C103.942 55.2279 103.968 54.7106 103.994 52.797C104.057 48.217 103.636 44.3034 102.614 39.9571C100.244 29.877 94.7322 20.5424 87.0074 13.5269C83.13 10.0056 78.7182 7.05331 74.1129 4.89832C68.139 2.10283 62.0956 0.55239 55.2953 0.070552C54.6394 0.0240816 50.6038 -0.0210233 49.9219 0.0105149ZM53.4264 17.1414C56.0812 17.4202 58.5773 18.4494 60.6908 20.1368C61.316 20.6359 62.4851 21.8135 62.9421 22.4044C64.6373 24.5964 65.6272 27.0506 65.909 29.76C65.9662 30.3093 65.9661 31.7554 65.9089 32.2278C65.3451 36.8865 61.2829 43.027 54.0786 50.1111C53.0845 51.0887 52.8399 51.2634 52.2565 51.4129C51.923 51.4983 51.7248 51.4601 51.2748 51.2237C50.8165 50.9828 50.4476 50.6874 49.5193 49.8177C45.0981 45.6752 41.6257 41.3258 39.7656 37.6005C38.1422 34.3491 37.6805 31.83 38.1673 28.8791C39.0097 23.7721 42.5578 19.5393 47.4334 17.8247C48.278 17.5277 49.5396 17.2434 50.457 17.1434C51.214 17.0608 52.6502 17.0599 53.4264 17.1414ZM35.9818 51.4966C38.0159 51.6615 40.211 52.0018 42.5224 52.5109C44.9419 53.0437 48.4648 54.0386 49.086 54.3645C49.7301 54.7024 50.0537 55.1414 50.1436 55.7996C50.2056 56.2526 50.1547 56.6203 49.8762 57.7303C47.6893 66.4474 44.5526 73.0905 41.1791 76.1492C38.988 78.1357 35.7253 79.3137 32.4142 79.3137C30.1577 79.3137 28.0034 78.7918 25.981 77.7551C23.8837 76.68 22.0706 75.0691 20.7575 73.1141C19.5516 71.3188 18.8394 69.4715 18.5115 67.2887C18.3816 66.4241 18.3517 64.794 18.4501 63.9419C18.6637 62.0927 19.0833 60.6496 19.8593 59.0958C21.0998 56.6119 22.9025 54.6766 25.3349 53.2175C27.0322 52.1993 29.1517 51.626 31.9297 51.4335C32.7139 51.3791 34.9651 51.4142 35.9818 51.4966ZM71.9569 51.4764C74.6436 51.6355 76.8394 52.1928 78.4757 53.1309C81.9182 55.1043 84.3344 58.3354 85.2419 62.1792C85.5125 63.325 85.5756 63.9206 85.5756 65.3286C85.5756 66.7296 85.5154 67.3002 85.2435 68.4791C84.3122 72.5163 81.6514 75.9317 78.027 77.7421C76.3991 78.5552 74.8217 79.0147 73.0762 79.1842C72.4469 79.2453 70.9483 79.2428 70.3045 79.1795C67.7657 78.93 65.1097 77.8971 63.3615 76.4795C60.0587 73.8015 57.0825 68.0406 54.7449 59.8006C54.361 58.4475 53.932 56.6978 53.878 56.2651C53.7799 55.4792 53.929 55.0451 54.4378 54.6349C54.7929 54.3487 54.9943 54.2615 56.0221 53.9487C59.8338 52.7889 63.238 52.054 66.5587 51.6741C67.3621 51.5822 67.8284 51.545 69.2354 51.4606C69.7928 51.4272 71.2703 51.4357 71.9569 51.4764Z" fill="url(#paint0_linear)"/>
<defs>
<linearGradient id="paint0_linear" x1="52" y1="0" x2="52" y2="104" gradientUnits="userSpaceOnUse">
<stop stop-color="#767676"/>
<stop offset="1" stop-color="#767676" stop-opacity="0.5"/>
</linearGradient>
</defs>
</svg>
