<svg width="123" height="123" viewBox="0 0 123 123" fill="none" xmlns="http://www.w3.org/2000/svg">
<path fill-rule="evenodd" clip-rule="evenodd" d="M61.1458 0.028806C60.78 0.102107 60.447 0.288858 60.2079 0.55481C60.093 0.682676 59.2901 1.93701 58.4239 3.3422C57.5576 4.74739 56.8291 5.91942 56.8049 5.94673C56.7806 5.97404 56.4277 6.03031 56.0206 6.07174L55.2805 6.14717L53.113 3.81686C51.2131 1.77441 50.9034 1.46672 50.6053 1.32572C49.8365 0.962072 48.8644 1.21099 48.3937 1.89217C48.305 2.02053 47.749 3.42584 47.1582 5.01504C46.5673 6.60425 46.0664 7.92355 46.045 7.94678C46.0237 7.97002 45.6924 8.08408 45.3088 8.2002L44.6115 8.41141L44.4266 8.28099C44.325 8.20927 43.2015 7.4004 41.93 6.48356C40.6584 5.56672 39.4948 4.76016 39.3443 4.69118C38.9489 4.51009 38.3186 4.51958 37.9171 4.71272C37.547 4.89077 37.1795 5.24894 37.0344 5.57317C36.9708 5.71502 36.7141 7.10708 36.4182 8.91405L35.911 12.0117L35.2489 12.3725L34.5868 12.7334L31.8094 11.4685C30.2817 10.7728 28.9388 10.1722 28.8251 10.1338C28.3296 9.96655 27.6546 10.111 27.1817 10.4856C27.0384 10.5991 26.8645 10.8282 26.7541 11.0492C26.5777 11.4022 26.5679 11.4598 26.5679 12.1462C26.5679 12.5447 26.6104 14.0216 26.6624 15.4282C26.7145 16.8348 26.7486 17.9918 26.7385 17.9992C26.7283 18.0066 26.4677 18.2196 26.1594 18.4724L25.5987 18.9322L24.973 18.7838C20.8648 17.8093 19.4383 17.4854 19.2552 17.4854C18.6792 17.4854 18.031 17.8848 17.7052 18.4407C17.5833 18.6486 17.5385 18.8198 17.5199 19.1494C17.4978 19.5387 17.5686 19.8944 18.1986 22.5595C18.5855 24.196 18.9021 25.5553 18.9021 25.5802C18.9021 25.6052 18.6944 25.8744 18.4405 26.1786C17.9807 26.7297 17.9781 26.7316 17.6953 26.7327C17.5392 26.7333 16.111 26.6887 14.5216 26.6336C12.3679 26.5591 11.5695 26.5507 11.3874 26.6007C10.5182 26.8395 9.91865 27.7651 10.0805 28.6184C10.1174 28.8131 10.6658 30.0928 11.4302 31.768L12.7176 34.5897L12.394 35.2077C12.216 35.5477 12.05 35.8487 12.0253 35.8767C12.0005 35.9046 10.6425 36.1452 9.00733 36.4113C7.37226 36.6774 5.9382 36.9207 5.8206 36.9521C4.82368 37.2176 4.25379 38.4251 4.68685 39.354C4.76484 39.5213 5.6149 40.7482 6.57586 42.0805C7.53683 43.4127 8.33687 44.5388 8.35378 44.5829C8.39096 44.6797 8.01813 45.9569 7.92523 46.0512C7.88915 46.0878 7.40791 46.2849 6.85579 46.4892C3.61181 47.6896 2.18256 48.2275 2.03575 48.3033C1.74938 48.4512 1.38476 48.8854 1.25213 49.2364C1.15394 49.4964 1.13112 49.6655 1.15248 49.9751C1.20212 50.6954 1.26874 50.7745 3.82967 53.1534L6.13167 55.2917L6.08975 55.7479C6.06669 55.9988 6.0311 56.3392 6.01072 56.5043L5.97361 56.8044L3.3971 58.3999C1.97996 59.2774 0.716013 60.0794 0.58831 60.1821C0.0967847 60.577 -0.128992 61.3961 0.0749432 62.0444C0.267562 62.6565 0.475878 62.8186 3.3575 64.5982L5.97361 66.2138L6.01218 66.562C6.03341 66.7536 6.06937 67.091 6.09212 67.3119L6.13343 67.7134L3.95458 69.7376C2.75616 70.8509 1.68677 71.861 1.57811 71.9822C1.20516 72.3983 1.04589 73.0894 1.19726 73.6343C1.28748 73.959 1.58912 74.3972 1.85487 74.5897C1.99724 74.6929 3.26307 75.1968 5.02238 75.8507L7.95273 76.9399L8.13081 77.5216C8.2287 77.8415 8.32635 78.1755 8.34776 78.2639C8.38159 78.4035 8.15259 78.7495 6.5963 80.91C5.61161 82.277 4.75657 83.4911 4.69615 83.6079C4.6358 83.7248 4.57338 84.0017 4.5575 84.2233C4.52045 84.7414 4.65229 85.1496 4.97523 85.5163C5.41254 86.0131 5.52029 86.0424 8.92434 86.5922C10.6142 86.865 12.0039 87.0949 12.0126 87.1029C12.0651 87.1514 12.6964 88.3753 12.6964 88.4286C12.6964 88.4644 12.1152 89.7691 11.4048 91.3281C10.2037 93.9641 10.1116 94.1909 10.0902 94.5676C10.053 95.222 10.3158 95.7784 10.8287 96.1312C11.3191 96.4686 11.3839 96.4741 13.9346 96.3924C15.2112 96.3515 16.6388 96.3017 17.1073 96.2815L17.9591 96.245L18.3611 96.7267C18.5822 96.9917 18.7962 97.2623 18.8365 97.3279C18.8977 97.4275 18.7921 97.9479 18.2013 100.459C17.5754 103.118 17.4957 103.517 17.5196 103.876C17.583 104.827 18.4791 105.59 19.4146 105.489C19.5845 105.471 21.0137 105.153 22.5908 104.782C24.1678 104.412 25.4998 104.108 25.5509 104.108C25.6019 104.108 25.8927 104.314 26.197 104.566C26.6867 104.972 26.7502 105.047 26.749 105.22C26.7483 105.328 26.7079 106.456 26.6593 107.728C26.5518 110.542 26.5468 111.415 26.6366 111.715C26.7431 112.07 27.1078 112.5 27.4805 112.71C27.7823 112.88 27.8659 112.898 28.3322 112.898L28.8494 112.897L31.7168 111.584L34.5843 110.271L35.2446 110.624C35.6078 110.818 35.911 110.999 35.9184 111.025C35.9257 111.052 36.1535 112.442 36.4246 114.115C36.9588 117.412 37.0081 117.601 37.4319 117.973C37.8364 118.328 38.1098 118.432 38.6462 118.433C39.0506 118.434 39.1844 118.408 39.4243 118.282C39.5836 118.198 40.8057 117.343 42.1401 116.381C43.4745 115.419 44.6028 114.633 44.6474 114.634C44.6921 114.635 45.0293 114.726 45.3967 114.836L46.0649 115.035L47.1675 117.995C48.3762 121.24 48.4203 121.327 49.0152 121.651C49.6352 121.988 50.4371 121.913 50.9563 121.469C51.1005 121.345 52.1196 120.278 53.221 119.098C54.3224 117.917 55.251 116.934 55.2844 116.913C55.3179 116.892 55.6714 116.908 56.07 116.948L56.7946 117.021L58.4389 119.674C59.3433 121.133 60.1739 122.415 60.2847 122.522C60.9726 123.186 62.1261 123.154 62.7852 122.451C62.912 122.316 63.7343 121.042 64.6127 119.621L66.2097 117.036L66.4812 116.997C66.6304 116.976 66.9716 116.939 67.2393 116.916L67.726 116.873L69.8706 119.18C72.2058 121.692 72.3257 121.795 72.9822 121.854C73.5513 121.906 73.9712 121.75 74.3855 121.334L74.7296 120.989L75.8146 118.069C76.4114 116.463 76.93 115.118 76.9671 115.081C77.0337 115.013 78.2297 114.632 78.3748 114.632C78.4161 114.632 79.5687 115.439 80.9363 116.425C82.5371 117.58 83.5419 118.264 83.7573 118.347C84.6165 118.679 85.6836 118.201 86.0004 117.342C86.0628 117.173 86.3248 115.735 86.5828 114.145C86.8407 112.556 87.0664 111.195 87.0842 111.119C87.1071 111.023 87.2967 110.883 87.7337 110.641C88.0731 110.453 88.3786 110.297 88.4127 110.296C88.4468 110.294 89.7602 110.878 91.3315 111.594C93.8863 112.757 94.228 112.897 94.5645 112.918C95.1284 112.954 95.5121 112.805 95.9278 112.387C96.5051 111.807 96.5003 111.845 96.3864 108.689C96.3335 107.223 96.2905 105.792 96.2908 105.507L96.2913 104.99L96.8344 104.549C97.1332 104.307 97.42 104.108 97.4719 104.108C97.5237 104.108 98.9149 104.426 100.563 104.814C103.803 105.576 103.893 105.588 104.457 105.339C104.846 105.166 105.145 104.876 105.338 104.484C105.615 103.92 105.586 103.7 104.79 100.344L104.092 97.3999L104.556 96.8325C105.017 96.2698 105.023 96.265 105.295 96.2645C105.445 96.2642 106.609 96.3037 107.88 96.3523C111.221 96.4798 111.52 96.4757 111.906 96.2961C112.703 95.9252 113.152 94.9639 112.891 94.1868C112.853 94.0731 112.252 92.7294 111.556 91.2009L110.29 88.4218L110.646 87.7639L111.002 87.1062L111.966 86.9439C112.496 86.8546 113.888 86.6257 115.059 86.4351C116.417 86.2143 117.281 86.0455 117.443 85.9694C118.276 85.5779 118.702 84.4775 118.334 83.6692C118.265 83.5187 117.458 82.3553 116.541 81.0839C115.624 79.8126 114.815 78.6881 114.742 78.585L114.61 78.3976L114.828 77.6725L115.047 76.9474L117.821 75.9181C119.347 75.3519 120.719 74.8273 120.87 74.7523C121.742 74.3181 122.116 73.2491 121.697 72.3923C121.558 72.1075 121.217 71.7643 119.392 70.0681C118.214 68.9736 117.165 67.9933 117.061 67.8896L116.872 67.7012L116.941 66.986C116.988 66.5121 117.041 66.2435 117.1 66.1896C117.149 66.1448 118.339 65.4002 119.744 64.535C121.15 63.6697 122.393 62.8651 122.507 62.747C122.969 62.2674 123.122 61.5443 122.899 60.8895C122.721 60.3681 122.379 60.1105 119.593 58.3973L117.008 56.8081L116.968 56.567C116.945 56.4343 116.909 56.0931 116.886 55.8088L116.844 55.2917L119.152 53.1466C121.664 50.8116 121.767 50.6919 121.826 50.0363C121.878 49.467 121.722 49.0472 121.306 48.6341C120.916 48.2462 121.256 48.3921 117.463 46.9865C116.174 46.5092 115.089 46.0885 115.05 46.0516C114.982 45.987 114.603 44.7928 114.603 44.6428C114.603 44.6023 115.4 43.4642 116.373 42.1137C117.347 40.7632 118.199 39.5495 118.268 39.4166C118.441 39.0776 118.477 38.5057 118.349 38.1192C118.169 37.5787 117.672 37.0892 117.164 36.953C117.044 36.9207 115.607 36.6762 113.971 36.4096C112.335 36.1429 110.977 35.9025 110.953 35.8754C110.929 35.8481 110.763 35.5481 110.584 35.2086L110.258 34.5913L111.559 31.7412C112.802 29.0209 112.862 28.8713 112.887 28.4552C112.902 28.1988 112.881 27.9232 112.836 27.786C112.656 27.2323 112.154 26.7541 111.592 26.6013C111.411 26.5519 110.53 26.5626 108.171 26.643L104.993 26.7512L104.855 26.5741C104.779 26.4768 104.573 26.2268 104.397 26.0187C104.222 25.8106 104.078 25.6108 104.078 25.5746C104.078 25.5384 104.395 24.1757 104.782 22.5464C105.409 19.9058 105.483 19.5378 105.46 19.1582C105.429 18.6256 105.281 18.3233 104.866 17.9505C104.538 17.6562 104.118 17.4854 103.722 17.4854C103.558 17.4854 97.797 18.8011 97.4637 18.9146C97.4231 18.9284 97.1955 18.7773 96.9579 18.5788C96.7202 18.3804 96.4584 18.165 96.3761 18.1002L96.2265 17.9825L96.3188 15.468C96.4726 11.2831 96.4741 11.3105 96.0543 10.7601C95.7458 10.3557 95.2965 10.1158 94.778 10.0787C94.2717 10.0425 94.3711 10.0038 90.9973 11.5487L88.4116 12.7326L87.7423 12.377L87.0731 12.0213L86.5745 8.96144C86.3003 7.2785 86.0292 5.77938 85.9722 5.63004C85.8417 5.28836 85.4192 4.86151 85.0469 4.69514C84.7115 4.54525 84.093 4.52012 83.7403 4.64203C83.6139 4.68577 82.3796 5.53594 80.9974 6.53131C79.6152 7.52675 78.4575 8.35776 78.4247 8.37801C78.3919 8.39827 78.0419 8.31347 77.6471 8.1895L76.929 7.96418L75.8408 5.04777C75.2423 3.44372 74.6811 2.02831 74.5938 1.90227C74.2569 1.4163 73.7697 1.16969 73.1408 1.16683C72.6165 1.1644 72.2353 1.32766 71.8302 1.72824C71.6769 1.87989 70.685 2.93621 69.6263 4.07563L67.701 6.14735L66.9601 6.07186C66.5526 6.03031 66.1999 5.97404 66.1765 5.94673C66.153 5.91942 65.4247 4.74739 64.5582 3.3422C63.6916 1.93701 62.8907 0.685474 62.7784 0.561015C62.4003 0.142012 61.7076 -0.0837917 61.1458 0.028806ZM62.1179 11.0781C63.2676 11.4158 64.1727 12.289 64.5688 13.4424C64.8009 14.1188 64.8019 14.9811 64.5712 15.6908C63.9806 17.5076 62.0816 18.5639 60.2486 18.0952C59.0222 17.7815 58.0704 16.8914 57.6777 15.6908C57.5502 15.3011 57.518 15.083 57.5161 14.5959C57.5135 13.8984 57.617 13.4712 57.9365 12.8609C58.4479 11.8843 59.4295 11.1763 60.5481 10.9773C60.9341 10.9086 61.7107 10.9585 62.1179 11.0781ZM71.928 17.3919C80.4891 19.4538 88.3322 24.0699 94.3598 30.5944C96.3999 32.8026 98.3557 35.409 99.9065 37.9861C100.196 38.4663 100.42 38.8884 100.405 38.9241C100.389 38.9598 99.4271 41.1242 98.2658 43.7338C97.1046 46.3435 96.0866 48.6839 96.0036 48.9349C95.8331 49.4504 95.7989 50.2041 95.9221 50.7293C96.0958 51.4699 96.7246 52.3479 97.3729 52.7554C97.5304 52.8544 99.5544 53.7769 101.871 54.8055C104.572 56.0049 106.092 56.7111 106.11 56.7745C106.265 57.3206 106.355 61.9933 106.244 63.732L106.195 64.5075H103.768H101.342L101.143 64.685L100.945 64.8624L100.909 66.7989C100.877 68.4755 100.855 68.8203 100.738 69.3693C100.174 72.0264 98.5864 73.3861 95.6802 73.7013C94.48 73.8314 93.2414 73.6046 92.1102 73.0475C91.4631 72.7288 90.7749 72.1368 90.5786 71.73C90.5103 71.5884 90.3429 70.9332 90.2067 70.2739C89.7508 68.0681 89.2393 66.429 88.5686 65.0246C87.6218 63.0421 86.4971 61.7168 84.168 59.8394C83.6075 59.3876 83.1489 58.9981 83.1489 58.9739C83.1489 58.9497 83.4706 58.716 83.8638 58.4547C88.2965 55.5081 91.086 52.1633 91.9654 48.7401C92.2334 47.6965 92.2964 47.029 92.256 45.6597C92.2194 44.4203 92.1442 43.9054 91.8238 42.7018C91.2107 40.3986 89.6472 37.9718 87.5598 36.0834C84.7943 33.5815 81.5315 32.0288 77.4604 31.2775L76.7303 31.1428L52.314 31.1119L27.8976 31.081L28.6777 30.2438C29.8801 28.9533 31.6673 27.3027 33.169 26.0955C38.0267 22.1909 43.7898 19.2577 49.7265 17.6685C50.8249 17.3744 52.7406 16.9379 52.9328 16.9379C52.9831 16.9379 54.3324 18.308 55.931 19.9826C57.8312 21.9731 58.9601 23.1091 59.1912 23.2634C59.7622 23.6447 60.1473 23.764 60.912 23.7968C61.5174 23.8227 61.6266 23.8102 62.0575 23.6654C62.3194 23.5773 62.6753 23.4142 62.8484 23.3028C63.0215 23.1913 64.6245 21.7044 66.4107 19.9984L69.6583 16.8965L70.3388 17.0348C70.7132 17.1108 71.4283 17.2715 71.928 17.3919ZM18.5022 44.1661C19.7627 44.4731 20.8261 45.56 21.1298 46.8518C21.2683 47.4403 21.2189 48.2805 21.0111 48.8726C20.4706 50.4132 19.005 51.3913 17.388 51.2905C16.6932 51.2473 16.1468 51.066 15.591 50.6943C14.5552 50.0016 13.9727 48.9189 13.975 47.6903C13.9767 46.7486 14.3087 45.8918 14.9331 45.2174C15.8569 44.2198 17.154 43.8377 18.5022 44.1661ZM105.386 44.281C107.1 44.5863 108.339 46.0752 108.34 47.8329C108.341 48.8862 108.008 49.6974 107.275 50.4252C106.777 50.9196 106.287 51.2 105.623 51.3696C103.656 51.8728 101.726 50.7071 101.214 48.7058C100.696 46.6785 102.068 44.6063 104.161 44.2565C104.619 44.18 104.844 44.1845 105.386 44.281ZM30.9484 59.1243V73.4502L24.5461 73.4348L18.1438 73.4193L17.8845 72.4156C17.1659 69.6336 16.707 66.7094 16.5243 63.7472C16.4108 61.9073 16.4988 57.8886 16.6815 56.5691L16.7152 56.3258L20.1358 54.81C25.0106 52.6497 24.9713 52.6691 25.4709 52.1869C26.3374 51.3505 26.7004 50.1315 26.413 49.0237C26.3613 48.8243 25.9742 47.881 25.5528 46.9275C25.1315 45.9739 24.749 45.1048 24.703 44.9961L24.6194 44.7984H27.7839H30.9484V59.1243ZM67.5131 45.2934C68.9975 45.7043 69.9486 46.203 70.745 46.9882C71.3551 47.5898 71.6468 48.1003 71.7976 48.8302C71.9155 49.4008 71.9169 49.697 71.8042 50.2287C71.4581 51.8619 69.8536 52.9437 67.0797 53.4143C66.5051 53.5118 65.7638 53.5233 58.8282 53.5424L51.208 53.5633V49.3314V45.0994L59.0716 45.1165L66.9351 45.1334L67.5131 45.2934ZM63.5098 65.7251C66.4378 66.0028 68.6293 67.7623 69.7213 70.7123C69.9978 71.4592 70.199 72.3016 70.7672 75.0921C71.6308 79.3332 71.9972 80.8428 72.4176 81.8901C73.1724 83.7705 74.7639 85.8639 76.2196 86.891C76.7884 87.2924 77.2222 87.513 77.7972 87.6936L78.2513 87.8362H87.9647C94.4232 87.8362 97.6662 87.8565 97.6427 87.897C97.2478 88.5767 93.7853 92.6114 93.5969 92.6114C93.562 92.6114 91.8609 92.2527 89.8166 91.8144C85.7198 90.936 85.8976 90.9683 85.123 90.9622C84.1821 90.9548 83.3372 91.3182 82.6887 92.0093C82.3054 92.4177 82.0988 92.7712 81.9456 93.2805C81.8802 93.498 81.4208 95.5736 80.9248 97.8931L80.0228 102.11L79.8003 102.224C79.6779 102.286 79.183 102.5 78.7006 102.7C67.5242 107.315 54.8922 107.253 43.8487 102.528C43.3649 102.321 42.8738 102.103 42.7574 102.043L42.546 101.935L41.6174 97.6018C41.1066 95.2188 40.6447 93.1365 40.5909 92.9745C40.3909 92.3726 39.7713 91.616 39.1781 91.2495C39.0365 91.1621 38.7168 91.0221 38.4677 90.9385C37.6316 90.6578 37.4733 90.6777 33.1303 91.6109C31.0197 92.0643 29.2591 92.4271 29.2178 92.4169C29.0038 92.3645 26.6787 89.6895 25.6591 88.3228L25.3414 87.897L43.9681 87.8666C62.3182 87.8366 62.5962 87.8344 62.6813 87.7181C62.7546 87.6178 62.7676 86.5861 62.7676 80.8688V74.1377L62.6395 74.0218C62.5159 73.9099 62.3205 73.9054 56.9206 73.8892L51.3297 73.8724V69.7679V65.6633L57.0943 65.6634C60.5243 65.6634 63.1225 65.6885 63.5098 65.7251ZM35.2727 95.6908C36.7546 96.1514 37.7624 97.5312 37.7624 99.0994C37.7624 100.168 37.4284 100.992 36.7045 101.708C35.9224 102.482 35.0678 102.807 33.9599 102.752C33.2012 102.714 32.7297 102.557 32.1088 102.135C30.22 100.85 29.9815 98.1745 31.6123 96.5653C32.0026 96.1802 32.5983 95.8136 33.0883 95.6571C33.7318 95.4515 34.5432 95.464 35.2727 95.6908ZM89.4154 95.8484C91.2052 96.3928 92.2926 98.2759 91.8823 100.12C91.6074 101.355 90.6776 102.379 89.4732 102.774C88.8812 102.968 87.8093 102.984 87.286 102.807C86.0553 102.392 85.1352 101.424 84.8209 100.215C84.7426 99.9142 84.7252 99.6601 84.7481 99.1507C84.7943 98.1185 85.0724 97.4743 85.7817 96.757C86.7357 95.7919 88.1045 95.4497 89.4154 95.8484Z" fill="url(#paint0_linear)"/>
<defs>
<linearGradient id="paint0_linear" x1="61.5" y1="0" x2="61.5" y2="123" gradientUnits="userSpaceOnUse">
<stop stop-color="#767676"/>
<stop offset="1" stop-color="#767676" stop-opacity="0.5"/>
</linearGradient>
</defs>
</svg>
